<svg width="568" height="532" viewBox="0 0 568 532" fill="none" xmlns="http://www.w3.org/2000/svg">
<rect x="68.9363" y="129.395" width="209.36" height="369.458" rx="10" transform="rotate(-20.1917 68.9363 129.395)" fill="#9CC9B4"/>
<path d="M233.421 279.481C235.193 280.155 239.339 280.188 241.104 277.942C242.706 275.907 242.307 272.269 241.065 270.766C231.769 259.535 231.769 259.535 224.157 250.337C221.364 246.962 222.461 248.289 215.487 239.861C214.312 238.442 212.512 237.966 210.674 237.986C197.762 240.132 183.977 242.344 171.065 244.491C169.629 244.72 166.865 245.818 166.396 248.722C166.042 250.917 166.914 253.899 169.185 254.765C233.024 279.044 169.581 255.203 233.421 279.481Z" fill="#D1FFEA"/>
<path d="M163.364 209.728C161.889 210.92 159.769 214.491 160.812 217.155C161.756 219.57 165.089 221.066 167.009 220.751C181.364 218.39 181.364 218.39 193.122 216.458C197.437 215.749 195.742 216.027 206.512 214.256C208.327 213.957 209.645 212.64 210.556 211.039C215.222 198.782 220.272 185.735 224.938 173.478C225.465 172.121 225.915 169.173 223.651 167.299C221.94 165.882 218.931 165.126 217.043 166.656C163.94 209.608 216.467 166.778 163.364 209.728Z" fill="#D1FFEA"/>
<path d="M258.48 184.269C258.178 182.393 256.134 178.774 253.31 178.361C250.751 177.984 247.804 180.142 247.128 181.971C242.069 195.643 242.069 195.643 237.925 206.84C236.403 210.949 237.001 209.334 233.205 219.594C232.565 221.322 233.053 223.124 233.99 224.71C242.3 234.859 251.103 245.732 259.412 255.879C260.328 257.013 262.659 258.867 265.402 257.825C267.476 257.038 269.618 254.795 269.23 252.391C258.3 184.831 269.409 251.829 258.48 184.269Z" fill="#D1FFEA"/>
<rect x="181.084" y="70.983" width="209.36" height="369.458" rx="10" transform="rotate(-7.50203 181.084 70.983)" fill="#A2D6BE"/>
<path d="M303.179 233.08C304.951 233.755 309.097 233.788 310.863 231.542C312.464 229.507 312.065 225.869 310.823 224.366C301.528 213.135 301.528 213.135 293.916 203.937C291.122 200.562 292.219 201.888 285.246 193.461C284.07 192.042 282.271 191.566 280.433 191.586C267.52 193.732 253.736 195.944 240.823 198.091C239.387 198.319 236.623 199.418 236.154 202.322C235.8 204.516 236.672 207.499 238.944 208.365C302.782 232.644 239.339 208.803 303.179 233.08Z" fill="#D1FFEA"/>
<path d="M233.122 163.329C231.647 164.521 229.527 168.091 230.57 170.756C231.514 173.17 234.847 174.667 236.767 174.351C251.122 171.991 251.122 171.991 262.88 170.058C267.195 169.349 265.5 169.628 276.27 167.856C278.085 167.558 279.403 166.24 280.314 164.639C284.98 152.382 290.03 139.336 294.696 127.079C295.223 125.721 295.673 122.774 293.409 120.899C291.698 119.483 288.689 118.726 286.801 120.256C233.698 163.208 286.225 120.378 233.122 163.329Z" fill="#D1FFEA"/>
<path d="M328.239 137.869C327.936 135.993 325.893 132.375 323.068 131.961C320.509 131.584 317.563 133.742 316.886 135.571C311.827 149.243 311.827 149.243 307.683 160.44C306.162 164.549 306.76 162.935 302.963 173.194C302.323 174.922 302.811 176.724 303.748 178.31C312.058 188.459 320.861 199.332 329.171 209.479C330.087 210.613 332.417 212.467 335.16 211.426C337.234 210.638 339.377 208.395 338.989 205.991C328.059 138.431 339.167 205.429 328.239 137.869Z" fill="#D1FFEA"/>
<rect x="246.732" y="41.4825" width="209.36" height="369.458" rx="10" transform="rotate(1.43848 246.732 41.4825)" fill="#ADE1C9"/>
<path d="M370.598 233.241C372.371 233.916 376.516 233.949 378.282 231.703C379.883 229.668 379.485 226.03 378.242 224.527C368.947 213.296 368.947 213.296 361.335 204.098C358.542 200.723 359.638 202.05 352.665 193.622C351.49 192.203 349.69 191.727 347.852 191.747C334.939 193.893 321.155 196.105 308.242 198.252C306.807 198.481 304.042 199.579 303.574 202.483C303.22 204.678 304.092 207.66 306.363 208.526C370.201 232.805 306.759 208.964 370.598 233.241Z" fill="#D1FFEA"/>
<path d="M300.541 163.489C299.067 164.681 296.947 168.252 297.989 170.916C298.934 173.331 302.266 174.827 304.186 174.512C318.542 172.151 318.542 172.151 330.299 170.219C334.614 169.51 332.92 169.788 343.689 168.016C345.504 167.718 346.823 166.401 347.733 164.8C352.399 152.543 357.449 139.496 362.116 127.239C362.643 125.882 363.092 122.934 360.828 121.06C359.118 119.643 356.109 118.887 354.22 120.417C301.118 163.369 353.644 120.539 300.541 163.489Z" fill="#D1FFEA"/>
<path d="M395.658 138.03C395.355 136.154 393.311 132.535 390.487 132.122C387.928 131.745 384.982 133.903 384.305 135.732C379.246 149.404 379.246 149.404 375.102 160.601C373.581 164.71 374.179 163.095 370.382 173.355C369.742 175.083 370.23 176.885 371.167 178.471C379.477 188.62 388.28 199.493 396.59 209.64C397.506 210.774 399.836 212.628 402.579 211.586C404.653 210.799 406.796 208.556 406.408 206.152C395.478 138.592 406.586 205.59 395.658 138.03Z" fill="#D1FFEA"/>
<rect x="23.9475" y="227.83" width="492.611" height="307.882" rx="30" transform="rotate(-9.32567 23.9475 227.83)" fill="#9AADA8"/>
<path d="M178.431 415.809C180.203 416.483 184.349 416.517 186.115 414.271C187.716 412.235 187.317 408.598 186.075 407.094C176.78 395.864 176.78 395.864 169.168 386.666C166.374 383.291 167.471 384.617 160.498 376.19C159.322 374.77 157.523 374.295 155.685 374.315C142.772 376.461 128.988 378.673 116.075 380.819C114.639 381.048 111.875 382.146 111.406 385.05C111.052 387.245 111.924 390.228 114.196 391.093C178.034 415.373 114.591 391.532 178.431 415.809Z" fill="#ADE1C9"/>
<path d="M108.374 346.057C106.899 347.249 104.779 350.819 105.822 353.484C106.766 355.898 110.099 357.395 112.019 357.08C126.374 354.719 126.374 354.719 138.132 352.786C142.447 352.078 140.752 352.356 151.522 350.584C153.337 350.286 154.655 348.969 155.566 347.368C160.232 335.111 165.282 322.064 169.948 309.807C170.475 308.449 170.925 305.502 168.661 303.627C166.95 302.211 163.941 301.455 162.053 302.984C108.95 345.937 161.477 303.107 108.374 346.057Z" fill="#ADE1C9"/>
<path d="M203.491 320.597C203.188 318.721 201.145 315.103 198.321 314.689C195.761 314.312 192.815 316.471 192.139 318.3C187.08 331.971 187.08 331.971 182.935 343.169C181.414 347.278 182.012 345.663 178.215 355.922C177.576 357.651 178.064 359.453 179.001 361.039C187.31 371.188 196.114 382.061 204.423 392.207C205.339 393.342 207.67 395.195 210.412 394.154C212.486 393.367 214.629 391.124 214.241 388.719C203.311 321.159 214.419 388.158 203.491 320.597Z" fill="#ADE1C9"/>
<rect x="428.921" y="292.369" width="110.837" height="49.2611" rx="10" transform="rotate(-9.32567 428.921 292.369)" fill="#ADE1C9"/>
<circle cx="457.217" cy="312.683" r="12.3153" transform="rotate(-9.32567 457.217 312.683)" fill="#9AADA8"/>
</svg>
