<svg width="134" height="132" viewBox="0 0 134 132" fill="none" xmlns="http://www.w3.org/2000/svg">
<mask id="path-1-outside-1_21_126" maskUnits="userSpaceOnUse" x="-0.511239" y="0.844086" width="135" height="131" fill="black">
<rect fill="white" x="-0.511239" y="0.844086" width="135" height="131"/>
<path d="M113.244 56.5216C111.256 55.2856 109.17 54.0291 106.965 52.8498C108.047 50.6248 109.031 48.3792 109.896 46.2109C114.669 33.7265 114.334 24.1522 108.813 19.3112C107.18 17.8434 105.228 16.9216 102.88 16.4273C96.0299 14.9855 86.2497 18.2409 75.6507 24.9006C68.6356 14.5334 60.9975 7.61178 54.1476 6.16999C51.799 5.67567 49.6411 5.73241 47.5553 6.41748C40.5304 8.71994 36.3642 17.3468 35.721 30.5985C35.6387 32.9315 35.6336 35.3831 35.7264 37.8552C33.2337 38.0458 30.8388 38.2571 28.5006 38.6847C15.28 40.8071 7.26641 45.865 5.74224 53.1064C4.21806 60.3477 9.61072 68.2274 20.7562 75.4785C22.7442 76.7145 24.8302 77.971 27.0345 79.1503C25.9531 81.3753 24.9694 83.6209 24.1043 85.7892C19.3305 98.2736 19.6657 107.848 25.187 112.689C26.8197 114.157 28.7717 115.079 31.1202 115.573C38.068 117.035 47.8482 113.78 58.3493 107.1C65.3644 117.467 73.0025 124.388 79.8524 125.83C82.2009 126.324 84.3589 126.268 86.4447 125.583C93.4696 123.28 97.6358 114.653 98.279 101.402C98.3613 99.0686 98.3664 96.617 98.2736 94.1449C100.766 93.9543 103.161 93.743 105.499 93.3154C118.72 91.193 126.734 86.1351 128.258 78.8937C129.782 71.6524 124.487 63.7933 113.244 56.5216Z"/>
</mask>
<path d="M113.244 56.5216C111.256 55.2856 109.17 54.0291 106.965 52.8498C108.047 50.6248 109.031 48.3792 109.896 46.2109C114.669 33.7265 114.334 24.1522 108.813 19.3112C107.18 17.8434 105.228 16.9216 102.88 16.4273C96.0299 14.9855 86.2497 18.2409 75.6507 24.9006C68.6356 14.5334 60.9975 7.61178 54.1476 6.16999C51.799 5.67567 49.6411 5.73241 47.5553 6.41748C40.5304 8.71994 36.3642 17.3468 35.721 30.5985C35.6387 32.9315 35.6336 35.3831 35.7264 37.8552C33.2337 38.0458 30.8388 38.2571 28.5006 38.6847C15.28 40.8071 7.26641 45.865 5.74224 53.1064C4.21806 60.3477 9.61072 68.2274 20.7562 75.4785C22.7442 76.7145 24.8302 77.971 27.0345 79.1503C25.9531 81.3753 24.9694 83.6209 24.1043 85.7892C19.3305 98.2736 19.6657 107.848 25.187 112.689C26.8197 114.157 28.7717 115.079 31.1202 115.573C38.068 117.035 47.8482 113.78 58.3493 107.1C65.3644 117.467 73.0025 124.388 79.8524 125.83C82.2009 126.324 84.3589 126.268 86.4447 125.583C93.4696 123.28 97.6358 114.653 98.279 101.402C98.3613 99.0686 98.3664 96.617 98.2736 94.1449C100.766 93.9543 103.161 93.743 105.499 93.3154C118.72 91.193 126.734 86.1351 128.258 78.8937C129.782 71.6524 124.487 63.7933 113.244 56.5216Z" fill="white"/>
<path d="M113.244 56.5216L115.959 52.3232L115.922 52.2989L115.884 52.2754L113.244 56.5216ZM106.965 52.8498L102.469 50.664L100.366 54.9897L104.607 57.2585L106.965 52.8498ZM109.896 46.2109L114.54 48.0639L114.553 48.0304L114.566 47.9967L109.896 46.2109ZM108.813 19.3112L105.47 23.0295L105.493 23.0503L105.517 23.0707L108.813 19.3112ZM102.88 16.4273L101.85 21.3201L102.88 16.4273ZM75.6507 24.9006L71.5097 27.7027L74.2184 31.7057L78.3109 29.1342L75.6507 24.9006ZM54.1476 6.16999L55.1774 1.2772L54.1476 6.16999ZM47.5553 6.41748L49.1125 11.1688L49.1155 11.1678L47.5553 6.41748ZM35.721 30.5985L30.7269 30.356L30.7252 30.3891L30.7241 30.4222L35.721 30.5985ZM35.7264 37.8552L36.1078 42.8406L40.9033 42.4738L40.7229 37.6676L35.7264 37.8552ZM28.5006 38.6847L29.2932 43.6215L29.3467 43.6129L29.4 43.6031L28.5006 38.6847ZM20.7562 75.4785L18.0295 79.6696L18.0726 79.6976L18.1163 79.7247L20.7562 75.4785ZM27.0345 79.1503L31.5314 81.3361L33.634 77.0104L29.3931 74.7416L27.0345 79.1503ZM24.1043 85.7892L19.4603 83.9362L19.4469 83.9697L19.4341 84.0034L24.1043 85.7892ZM25.187 112.689L28.5297 108.971L28.5066 108.95L28.4833 108.929L25.187 112.689ZM31.1202 115.573L30.0903 120.466L31.1202 115.573ZM58.3493 107.1L62.4903 104.297L59.7665 100.272L55.6655 102.881L58.3493 107.1ZM79.8524 125.83L78.8226 130.723L79.8524 125.83ZM86.4447 125.583L84.8874 120.831L84.8845 120.832L86.4447 125.583ZM98.279 101.402L103.273 101.644L103.275 101.611L103.276 101.578L98.279 101.402ZM98.2736 94.1449L97.8922 89.1595L93.0967 89.5263L93.2771 94.3325L98.2736 94.1449ZM105.499 93.3154L104.707 88.3786L104.653 88.3872L104.6 88.397L105.499 93.3154ZM115.884 52.2754C113.86 51.017 111.668 49.6952 109.324 48.441L104.607 57.2585C106.671 58.3629 108.652 59.5543 110.604 60.7679L115.884 52.2754ZM111.462 55.0355C112.6 52.695 113.632 50.338 114.54 48.0639L105.252 44.358C104.429 46.4204 103.494 48.5546 102.469 50.664L111.462 55.0355ZM114.566 47.9967C117.096 41.3795 118.424 35.1637 118.211 29.7006C117.996 24.1764 116.172 19.1141 112.109 15.5516L105.517 23.0707C106.975 24.3493 108.079 26.4946 108.219 30.089C108.361 33.7443 107.469 38.558 105.225 44.4252L114.566 47.9967ZM112.156 15.5928C109.769 13.4473 106.978 12.1802 103.91 11.5345L101.85 21.3201C103.479 21.663 104.592 22.2396 105.47 23.0295L112.156 15.5928ZM103.91 11.5345C99.3313 10.5708 94.242 11.2491 89.1606 12.8595C84.0256 14.4868 78.5425 17.1785 72.9906 20.667L78.3109 29.1342C83.3579 25.963 88.0644 23.6971 92.1817 22.3922C96.3526 21.0704 99.5784 20.8419 101.85 21.3201L103.91 11.5345ZM79.7918 22.0985C76.1171 16.668 72.1843 11.9944 68.1409 8.43521C64.1398 4.91315 59.7558 2.24086 55.1774 1.2772L53.1177 11.0628C55.3893 11.5409 58.2493 13.0503 61.5335 15.9413C64.7755 18.7952 68.1692 22.766 71.5097 27.7027L79.7918 22.0985ZM55.1774 1.2772C52.1095 0.631463 49.0441 0.665711 45.995 1.66714L49.1155 11.1678C50.2381 10.7991 51.4885 10.7199 53.1177 11.0628L55.1774 1.2772ZM45.998 1.66618C40.8738 3.34568 37.1736 7.24291 34.751 12.2103C32.355 17.1231 31.0683 23.3222 30.7269 30.356L40.7151 30.8409C41.0169 24.6231 42.1349 19.8829 43.739 16.5938C45.3165 13.3592 47.2119 11.7917 49.1125 11.1688L45.998 1.66618ZM30.7241 30.4222C30.6378 32.8691 30.6323 35.4422 30.7299 38.0428L40.7229 37.6676C40.6349 35.3239 40.6396 32.9939 40.7179 30.7747L30.7241 30.4222ZM35.3451 32.8697C32.845 33.061 30.2204 33.2873 27.6012 33.7662L29.4 43.6031C31.4572 43.2269 33.6224 43.0307 36.1078 42.8406L35.3451 32.8697ZM27.7081 33.7479C20.7027 34.8725 14.6753 36.8302 10.0609 39.7513C5.38528 42.7111 1.95719 46.8136 0.849445 52.0765L10.635 54.1362C11.0515 52.1578 12.3923 50.1107 15.4096 48.2006C18.4882 46.2518 23.0779 44.6193 29.2932 43.6215L27.7081 33.7479ZM0.849445 52.0765C-0.262574 57.3597 1.2638 62.5053 4.353 67.0849C7.40607 71.6109 12.1249 75.8281 18.0295 79.6696L23.4829 71.2874C18.242 67.8777 14.6918 64.5296 12.6432 61.4926C10.6307 58.5093 10.2229 56.0944 10.635 54.1362L0.849445 52.0765ZM18.1163 79.7247C20.1402 80.9831 22.3316 82.3049 24.6759 83.5591L29.3931 74.7416C27.3287 73.6372 25.3482 72.4459 23.3961 71.2322L18.1163 79.7247ZM22.5376 76.9646C21.4 79.3051 20.3677 81.6621 19.4603 83.9362L28.7483 87.6421C29.5712 85.5797 30.5061 83.4455 31.5314 81.3361L22.5376 76.9646ZM19.4341 84.0034C16.9038 90.6206 15.5764 96.8364 15.7888 102.3C16.0035 107.824 17.8276 112.886 21.8906 116.448L28.4833 108.929C27.0251 107.651 25.9209 105.505 25.7812 101.911C25.6391 98.2558 26.531 93.4421 28.7745 87.5749L19.4341 84.0034ZM21.8443 116.407C24.2309 118.553 27.0224 119.82 30.0903 120.466L32.15 110.68C30.5209 110.337 29.4084 109.761 28.5297 108.971L21.8443 116.407ZM30.0903 120.466C34.7076 121.437 39.817 120.771 44.9128 119.156C50.0567 117.526 55.5226 114.824 61.033 111.318L55.6655 102.881C50.6748 106.056 46.0001 108.321 41.8917 109.623C37.7351 110.941 34.4805 111.171 32.15 110.68L30.0903 120.466ZM54.2082 109.902C57.8829 115.332 61.8157 120.006 65.8591 123.565C69.8602 127.087 74.2442 129.759 78.8226 130.723L80.8823 120.937C78.6107 120.459 75.7507 118.95 72.4665 116.059C69.2245 113.205 65.8308 109.234 62.4903 104.297L54.2082 109.902ZM78.8226 130.723C81.8905 131.369 84.9559 131.334 88.0049 130.333L84.8845 120.832C83.7619 121.201 82.5114 121.28 80.8823 120.937L78.8226 130.723ZM88.002 130.334C93.1262 128.654 96.8264 124.757 99.249 119.79C101.645 114.877 102.932 108.678 103.273 101.644L93.2849 101.159C92.9831 107.377 91.8651 112.117 90.261 115.406C88.6834 118.641 86.7881 120.208 84.8874 120.831L88.002 130.334ZM103.276 101.578C103.362 99.131 103.368 96.5579 103.27 93.9573L93.2771 94.3325C93.3651 96.6762 93.3604 99.0062 93.2821 101.225L103.276 101.578ZM98.6549 99.1304C101.155 98.9391 103.78 98.7128 106.399 98.2339L104.6 88.397C102.543 88.7732 100.378 88.9694 97.8922 89.1595L98.6549 99.1304ZM106.292 98.2522C113.297 97.1276 119.325 95.1699 123.939 92.2488C128.615 89.289 132.043 85.1865 133.151 79.9236L123.365 77.8639C122.949 79.8423 121.608 81.8894 118.59 83.7995C115.512 85.7483 110.922 87.3808 104.707 88.3786L106.292 98.2522ZM133.151 79.9236C134.258 74.6607 132.775 69.5244 129.689 64.9309C126.644 60.3976 121.917 56.1763 115.959 52.3232L110.528 60.7201C115.814 64.1386 119.356 67.4828 121.388 70.5073C123.38 73.4716 123.781 75.8855 123.365 77.8639L133.151 79.9236Z" fill="white" mask="url(#path-1-outside-1_21_126)"/>
</svg>
