<svg width="122" height="130" viewBox="0 0 122 130" fill="none" xmlns="http://www.w3.org/2000/svg">
<mask id="path-1-outside-1_17_97" maskUnits="userSpaceOnUse" x="0.371702" y="0.747314" width="122" height="129" fill="black">
<rect fill="white" x="0.371702" y="0.747314" width="122" height="129"/>
<path d="M111.798 37.7988L78.5253 9.194C76.5401 7.4939 74.1745 6.39696 71.7025 5.96159C69.2306 5.52623 66.6325 5.74898 64.1842 6.6784L23.131 22.1928C18.2361 24.0418 14.6413 28.4247 13.7134 33.6937L5.94276 77.8146C5.0148 83.0835 6.88596 88.4291 10.8645 91.8409L44.1373 120.446C46.1208 122.156 48.4782 123.241 50.96 123.678C53.432 124.113 56.03 123.891 58.4766 122.971L99.5299 107.457C104.425 105.608 108.021 101.215 108.947 95.9559L116.72 51.8251C117.646 46.566 115.777 41.2106 111.798 37.7988Z"/>
<path d="M111.461 37.9831L78.1882 9.37832C76.203 7.67822 73.8374 6.58127 71.3654 6.14591C68.8935 5.71055 66.2955 5.9333 63.8471 6.86272L22.7939 22.3771C17.899 24.2261 14.3043 28.6091 13.3763 33.878L5.60568 77.9989C4.67772 83.2678 6.54888 88.6134 10.5274 92.0252L43.8002 120.63C45.7837 122.34 48.1412 123.425 50.623 123.862C53.0949 124.298 55.6929 124.075 58.1395 123.155L99.1928 107.641C104.088 105.792 107.684 101.399 108.61 96.1402L116.383 52.0094C117.309 46.7503 115.44 41.3949 111.461 37.9831ZM70.551 101.805L70.0515 104.986C69.9839 105.37 69.6614 105.76 69.3382 105.866L67.2663 106.618C66.9449 106.714 66.72 106.491 66.7877 106.107L67.308 102.98C65.5847 103.367 63.9221 103.237 62.9609 102.641C62.7778 102.527 62.7395 102.226 62.8772 101.905L64.0615 99.1589C64.1605 98.9428 64.3186 98.7371 64.5004 98.627C64.5699 98.5783 64.6359 98.5493 64.7002 98.5301C64.819 98.4901 64.929 98.4994 65.0107 98.5544C66.0675 99.1263 67.5268 99.2006 69.027 98.754C70.9361 98.1764 72.4238 96.5904 72.7163 94.8142C72.981 93.1956 72.2306 92.3831 70.1167 91.9905C67.4165 91.5251 64.9889 90.5492 65.6503 86.5635C66.1966 83.2887 68.4907 80.1794 71.5672 78.5077L72.1014 75.3018C72.1708 74.9079 72.4835 74.5162 72.8165 74.4124L74.8432 73.5711C75.1646 73.4754 75.3877 73.7077 75.3201 74.0917L74.7859 77.2977C76.219 77.0018 77.4071 77.0587 78.4175 77.4905C78.6336 77.5895 78.6864 77.9237 78.5238 78.2708L77.3152 80.9822C77.2179 81.1885 77.0616 81.3843 76.8896 81.4962C76.8249 81.5418 76.7536 81.5772 76.6782 81.6011C76.571 81.633 76.4806 81.6273 76.3937 81.6018C75.9302 81.4085 74.8312 80.9611 72.8693 81.5497C70.8102 82.172 69.8607 83.7005 69.6555 84.9234C69.4185 86.3844 70.079 86.9577 72.6524 87.4515C76.0791 88.116 77.2927 89.8731 76.7233 93.3368C76.1758 96.7334 73.7202 100.068 70.551 101.805ZM106.986 46.7903L68.002 62.3139C63.1685 64.1026 59.4318 66.4095 58.4905 71.6963L50.8604 115.02C50.3036 118.181 51.2231 120.455 53.0771 121.401C52.4179 121.396 51.7442 121.359 51.0942 121.244C49.0359 120.882 47.106 119.963 45.509 118.596L12.2362 89.9907C8.98198 87.1939 7.4361 82.7687 8.19755 78.4452L15.9682 34.3243C16.7296 30.0008 19.6943 26.37 23.7083 24.8533L64.7615 9.33885C66.7297 8.59901 68.8573 8.39496 70.9156 8.75748C72.974 9.11999 74.9039 10.0387 76.5008 11.4064L109.783 40.0129C112.525 42.3743 114.04 45.8802 113.999 49.5181C113.211 46.6683 110.559 45.4701 106.986 46.7903Z"/>
<path d="M90.9513 97.4166L80.719 101.321C80.4468 101.425 80.2417 101.552 80.1897 101.847L79.763 104.27C79.711 104.565 79.8854 104.728 80.1576 104.624L90.559 100.566C90.8313 100.462 90.9175 100.203 90.9695 99.9075L91.3459 97.7704C91.3979 97.4749 91.2218 97.322 90.9513 97.4166Z"/>
</mask>
<path d="M111.798 37.7988L78.5253 9.194C76.5401 7.4939 74.1745 6.39696 71.7025 5.96159C69.2306 5.52623 66.6325 5.74898 64.1842 6.6784L23.131 22.1928C18.2361 24.0418 14.6413 28.4247 13.7134 33.6937L5.94276 77.8146C5.0148 83.0835 6.88596 88.4291 10.8645 91.8409L44.1373 120.446C46.1208 122.156 48.4782 123.241 50.96 123.678C53.432 124.113 56.03 123.891 58.4766 122.971L99.5299 107.457C104.425 105.608 108.021 101.215 108.947 95.9559L116.72 51.8251C117.646 46.566 115.777 41.2106 111.798 37.7988Z" fill="white"/>
<path d="M111.461 37.9831L78.1882 9.37832C76.203 7.67822 73.8374 6.58127 71.3654 6.14591C68.8935 5.71055 66.2955 5.9333 63.8471 6.86272L22.7939 22.3771C17.899 24.2261 14.3043 28.6091 13.3763 33.878L5.60568 77.9989C4.67772 83.2678 6.54888 88.6134 10.5274 92.0252L43.8002 120.63C45.7837 122.34 48.1412 123.425 50.623 123.862C53.0949 124.298 55.6929 124.075 58.1395 123.155L99.1928 107.641C104.088 105.792 107.684 101.399 108.61 96.1402L116.383 52.0094C117.309 46.7503 115.44 41.3949 111.461 37.9831ZM70.551 101.805L70.0515 104.986C69.9839 105.37 69.6614 105.76 69.3382 105.866L67.2663 106.618C66.9449 106.714 66.72 106.491 66.7877 106.107L67.308 102.98C65.5847 103.367 63.9221 103.237 62.9609 102.641C62.7778 102.527 62.7395 102.226 62.8772 101.905L64.0615 99.1589C64.1605 98.9428 64.3186 98.7371 64.5004 98.627C64.5699 98.5783 64.6359 98.5493 64.7002 98.5301C64.819 98.4901 64.929 98.4994 65.0107 98.5544C66.0675 99.1263 67.5268 99.2006 69.027 98.754C70.9361 98.1764 72.4238 96.5904 72.7163 94.8142C72.981 93.1956 72.2306 92.3831 70.1167 91.9905C67.4165 91.5251 64.9889 90.5492 65.6503 86.5635C66.1966 83.2887 68.4907 80.1794 71.5672 78.5077L72.1014 75.3018C72.1708 74.9079 72.4835 74.5162 72.8165 74.4124L74.8432 73.5711C75.1646 73.4754 75.3877 73.7077 75.3201 74.0917L74.7859 77.2977C76.219 77.0018 77.4071 77.0587 78.4175 77.4905C78.6336 77.5895 78.6864 77.9237 78.5238 78.2708L77.3152 80.9822C77.2179 81.1885 77.0616 81.3843 76.8896 81.4962C76.8249 81.5418 76.7536 81.5772 76.6782 81.6011C76.571 81.633 76.4806 81.6273 76.3937 81.6018C75.9302 81.4085 74.8312 80.9611 72.8693 81.5497C70.8102 82.172 69.8607 83.7005 69.6555 84.9234C69.4185 86.3844 70.079 86.9577 72.6524 87.4515C76.0791 88.116 77.2927 89.8731 76.7233 93.3368C76.1758 96.7334 73.7202 100.068 70.551 101.805ZM106.986 46.7903L68.002 62.3139C63.1685 64.1026 59.4318 66.4095 58.4905 71.6963L50.8604 115.02C50.3036 118.181 51.2231 120.455 53.0771 121.401C52.4179 121.396 51.7442 121.359 51.0942 121.244C49.0359 120.882 47.106 119.963 45.509 118.596L12.2362 89.9907C8.98198 87.1939 7.4361 82.7687 8.19755 78.4452L15.9682 34.3243C16.7296 30.0008 19.6943 26.37 23.7083 24.8533L64.7615 9.33885C66.7297 8.59901 68.8573 8.39496 70.9156 8.75748C72.974 9.11999 74.9039 10.0387 76.5008 11.4064L109.783 40.0129C112.525 42.3743 114.04 45.8802 113.999 49.5181C113.211 46.6683 110.559 45.4701 106.986 46.7903Z" fill="#293138"/>
<path d="M90.9513 97.4166L80.719 101.321C80.4468 101.425 80.2417 101.552 80.1897 101.847L79.763 104.27C79.711 104.565 79.8854 104.728 80.1576 104.624L90.559 100.566C90.8313 100.462 90.9175 100.203 90.9695 99.9075L91.3459 97.7704C91.3979 97.4749 91.2218 97.322 90.9513 97.4166Z" fill="#4FA847"/>
<path d="M111.798 37.7988L108.539 41.5903L108.543 41.5943L111.798 37.7988ZM78.5253 9.194L81.7848 5.40252L81.7776 5.3963L78.5253 9.194ZM64.1842 6.6784L65.9518 11.3556L65.9587 11.3529L64.1842 6.6784ZM23.131 22.1928L24.8978 26.8702L24.8985 26.87L23.131 22.1928ZM13.7134 33.6937L18.6376 34.5609L18.6376 34.5609L13.7134 33.6937ZM5.94276 77.8146L1.01855 76.9473L1.01855 76.9473L5.94276 77.8146ZM10.8645 91.8409L14.124 88.0494L14.1193 88.0454L10.8645 91.8409ZM44.1373 120.446L47.4021 116.659L47.3968 116.654L44.1373 120.446ZM50.96 123.678L51.8273 118.754L51.8273 118.754L50.96 123.678ZM58.4766 122.971L60.2357 127.651L60.2441 127.648L58.4766 122.971ZM99.5299 107.457L97.763 102.779L97.7623 102.78L99.5299 107.457ZM108.947 95.9559L113.872 96.8231L108.947 95.9559ZM116.72 51.8251L111.796 50.9578L116.72 51.8251ZM111.461 37.9831L108.201 41.7746L108.206 41.7786L111.461 37.9831ZM78.1882 9.37832L81.4477 5.58683L81.4405 5.58062L78.1882 9.37832ZM63.8471 6.86272L65.6147 11.5399L65.6217 11.5372L63.8471 6.86272ZM22.7939 22.3771L24.5607 27.0546L24.5614 27.0543L22.7939 22.3771ZM13.3763 33.878L8.45209 33.0107L13.3763 33.878ZM5.60568 77.9989L10.5299 78.8662L5.60568 77.9989ZM10.5274 92.0252L13.787 88.2337L13.7823 88.2297L10.5274 92.0252ZM43.8002 120.63L47.065 116.843L47.0598 116.839L43.8002 120.63ZM50.623 123.862L51.4902 118.938L51.4902 118.938L50.623 123.862ZM58.1395 123.155L59.8987 127.836L59.907 127.833L58.1395 123.155ZM99.1928 107.641L97.4259 102.964L97.4252 102.964L99.1928 107.641ZM108.61 96.1402L113.535 97.0074L108.61 96.1402ZM116.383 52.0094L111.458 51.1421L116.383 52.0094ZM70.551 101.805L68.1483 97.4197L65.9926 98.6009L65.6115 101.029L70.551 101.805ZM70.0515 104.986L74.9758 105.853L74.9838 105.808L74.9911 105.762L70.0515 104.986ZM69.3382 105.866L67.7861 101.113L67.7087 101.138L67.6322 101.166L69.3382 105.866ZM67.2663 106.618L68.6928 111.41L68.8339 111.368L68.9723 111.318L67.2663 106.618ZM66.7877 106.107L71.7119 106.974L71.716 106.951L71.7199 106.928L66.7877 106.107ZM67.308 102.98L72.2402 103.801L73.4591 96.4741L66.2125 98.1014L67.308 102.98ZM62.9609 102.641L65.5949 98.3908L65.5949 98.3908L62.9609 102.641ZM62.8772 101.905L58.2859 99.9251L58.2825 99.933L62.8772 101.905ZM64.0615 99.1589L59.5157 97.0767L59.4924 97.1276L59.4702 97.1789L64.0615 99.1589ZM64.5004 98.627L67.0904 102.904L67.2328 102.818L67.3691 102.722L64.5004 98.627ZM64.7002 98.5301L66.1267 103.322L66.2123 103.297L66.2968 103.268L64.7002 98.5301ZM65.0107 98.5544L62.2183 102.702L62.4185 102.837L62.6308 102.952L65.0107 98.5544ZM69.027 98.754L70.4535 103.546L70.4642 103.543L70.475 103.54L69.027 98.754ZM72.7163 94.8142L77.6498 95.6267L77.6507 95.6214L72.7163 94.8142ZM70.1167 91.9905L71.0297 87.0746L70.9978 87.0687L70.9659 87.0632L70.1167 91.9905ZM65.6503 86.5635L60.7184 85.7408L60.7177 85.7451L65.6503 86.5635ZM71.5672 78.5077L73.9544 82.9011L76.0982 81.7362L76.4993 79.3295L71.5672 78.5077ZM72.1014 75.3018L67.1772 74.4345L67.1732 74.4573L67.1694 74.48L72.1014 75.3018ZM72.8165 74.4124L74.3043 79.1859L74.5224 79.1179L74.7334 79.0303L72.8165 74.4124ZM74.8432 73.5711L73.4167 68.7789L73.167 68.8533L72.9263 68.9532L74.8432 73.5711ZM75.3201 74.0917L70.3959 73.2245L70.3919 73.2472L70.3881 73.27L75.3201 74.0917ZM74.7859 77.2977L69.8539 76.4759L68.6554 83.6691L75.7971 82.1944L74.7859 77.2977ZM78.4175 77.4905L80.4997 72.9447L80.4414 72.918L80.3824 72.8928L78.4175 77.4905ZM78.5238 78.2708L73.9964 76.1488L73.9763 76.1918L73.9569 76.2351L78.5238 78.2708ZM77.3152 80.9822L81.8377 83.1146L81.8604 83.0665L81.882 83.0179L77.3152 80.9822ZM76.8896 81.4962L74.1637 77.3046L74.0841 77.3563L74.0066 77.411L76.8896 81.4962ZM76.6782 81.6011L78.1046 86.3933L78.1466 86.3808L78.1884 86.3676L76.6782 81.6011ZM76.3937 81.6018L74.4689 86.2165L74.7234 86.3226L74.988 86.4001L76.3937 81.6018ZM72.8693 81.5497L71.4324 76.7606L71.423 76.7635L72.8693 81.5497ZM69.6555 84.9234L64.7244 84.0959L64.7222 84.1093L64.72 84.1228L69.6555 84.9234ZM72.6524 87.4515L73.6042 82.5429L73.5947 82.5411L72.6524 87.4515ZM76.7233 93.3368L71.7895 92.5257L71.7882 92.5335L71.787 92.5412L76.7233 93.3368ZM106.986 46.7903L105.253 42.1002L105.194 42.1219L105.136 42.1451L106.986 46.7903ZM68.002 62.3139L69.7374 67.0031L69.7949 66.9818L69.8518 66.9591L68.002 62.3139ZM58.4905 71.6963L53.5679 70.8199L53.5663 70.8291L58.4905 71.6963ZM50.8604 115.02L45.9361 114.152L45.9361 114.152L50.8604 115.02ZM53.0771 121.401L53.0437 126.401L55.3495 116.947L53.0771 121.401ZM51.0942 121.244L50.2269 126.169L51.0942 121.244ZM45.509 118.596L42.2494 122.387L42.2565 122.393L45.509 118.596ZM12.2362 89.9907L15.4957 86.1993L15.4952 86.1988L12.2362 89.9907ZM8.19755 78.4452L3.27334 77.578L8.19755 78.4452ZM15.9682 34.3243L20.8924 35.1916L15.9682 34.3243ZM23.7083 24.8533L25.4757 29.5305L25.4758 29.5304L23.7083 24.8533ZM64.7615 9.33885L63.0022 4.65859L62.994 4.66169L64.7615 9.33885ZM76.5008 11.4064L79.76 7.61453L79.7533 7.60881L76.5008 11.4064ZM109.783 40.0129L113.046 36.2242L113.043 36.2211L109.783 40.0129ZM113.999 49.5181L109.179 50.8501L118.998 49.5753L113.999 49.5181ZM90.9513 97.4166L89.302 92.6964L89.2351 92.7198L89.1688 92.7451L90.9513 97.4166ZM80.719 101.321L78.9365 96.6494L78.9292 96.6522L80.719 101.321ZM80.1897 101.847L75.2655 100.98L75.2655 100.98L80.1897 101.847ZM79.763 104.27L84.6872 105.137L84.6872 105.137L79.763 104.27ZM80.1576 104.624L81.9474 109.292L81.9611 109.287L81.9747 109.282L80.1576 104.624ZM90.559 100.566L88.7692 95.8976L88.7556 95.9028L88.742 95.9081L90.559 100.566ZM90.9695 99.9075L95.8937 100.775L95.8937 100.775L90.9695 99.9075ZM91.3459 97.7704L86.4217 96.9031L86.4217 96.9031L91.3459 97.7704ZM115.058 34.0073L81.7848 5.40252L75.2657 12.9855L108.539 41.5903L115.058 34.0073ZM81.7776 5.3963C79.1076 3.10978 75.9169 1.62687 72.5698 1.03738L70.8353 10.8858C72.4321 11.167 73.9725 11.878 75.273 12.9917L81.7776 5.3963ZM72.5698 1.03738C69.2219 0.447758 65.7106 0.750829 62.4097 2.00389L65.9587 11.3529C67.5545 10.7471 69.2392 10.6047 70.8353 10.8858L72.5698 1.03738ZM62.4167 2.00125L21.3634 17.5157L24.8985 26.87L65.9518 11.3556L62.4167 2.00125ZM21.3641 17.5154C14.7778 20.0033 10.0158 25.8619 8.78917 32.8264L18.6376 34.5609C19.2669 30.9876 21.6943 28.0803 24.8978 26.8702L21.3641 17.5154ZM8.78917 32.8264L1.01855 76.9473L10.867 78.6819L18.6376 34.5609L8.78917 32.8264ZM1.01855 76.9473C-0.207116 83.9066 2.25203 91.042 7.60963 95.6364L14.1193 88.0454C11.5199 85.8162 10.2367 82.2604 10.867 78.6819L1.01855 76.9473ZM7.60493 95.6324L40.8777 124.237L47.3968 116.654L14.124 88.0494L7.60493 95.6324ZM40.8725 124.233C43.5552 126.545 46.7464 128.013 50.0928 128.602L51.8273 118.754C50.2101 118.469 48.6863 117.766 47.4021 116.659L40.8725 124.233ZM50.0928 128.602C53.4399 129.192 56.9452 128.888 60.2357 127.651L56.7174 118.291C55.1148 118.893 53.4241 119.035 51.8273 118.754L50.0928 128.602ZM60.2441 127.648L101.297 112.134L97.7623 102.78L56.709 118.294L60.2441 127.648ZM101.297 112.134C107.885 109.646 112.647 103.776 113.872 96.8231L104.023 95.0886C103.395 98.6539 100.965 101.57 97.763 102.779L101.297 112.134ZM113.872 96.8231L121.644 52.6923L111.796 50.9578L104.023 95.0886L113.872 96.8231ZM121.644 52.6923C122.868 45.7448 120.412 38.5989 115.053 34.0033L108.543 41.5943C111.141 43.8223 112.424 47.3873 111.796 50.9578L121.644 52.6923ZM114.721 34.1916L81.4477 5.58684L74.9286 13.1698L108.201 41.7746L114.721 34.1916ZM81.4405 5.58062C78.7705 3.2941 75.5798 1.81119 72.2327 1.2217L70.4982 11.0701C72.095 11.3514 73.6354 12.0623 74.9359 13.176L81.4405 5.58062ZM72.2327 1.2217C68.8849 0.632075 65.3735 0.935146 62.0726 2.18821L65.6217 11.5372C67.2175 10.9314 68.9021 10.789 70.4982 11.0701L72.2327 1.2217ZM62.0796 2.18556L21.0263 17.7L24.5614 27.0543L65.6147 11.5399L62.0796 2.18556ZM21.027 17.6997C14.4407 20.1876 9.67868 26.0462 8.45209 33.0107L18.3005 34.7452C18.9298 31.1719 21.3572 28.2646 24.5607 27.0546L21.027 17.6997ZM8.45209 33.0107L0.68147 77.1317L10.5299 78.8662L18.3005 34.7452L8.45209 33.0107ZM0.68147 77.1317C-0.544196 84.0909 1.91495 91.2263 7.27255 95.8207L13.7823 88.2297C11.1828 86.0005 9.89963 82.4448 10.5299 78.8662L0.68147 77.1317ZM7.26785 95.8167L40.5406 124.421L47.0598 116.839L13.787 88.2337L7.26785 95.8167ZM40.5354 124.417C43.2181 126.73 46.4093 128.197 49.7557 128.787L51.4902 118.938C49.873 118.653 48.3492 117.95 47.065 116.843L40.5354 124.417ZM49.7557 128.787C53.1028 129.376 56.6082 129.073 59.8987 127.836L56.3804 118.475C54.7777 119.077 53.087 119.219 51.4902 118.938L49.7557 128.787ZM59.907 127.833L100.96 112.318L97.4252 102.964L56.372 118.478L59.907 127.833ZM100.96 112.318C107.548 109.83 112.31 103.96 113.535 97.0074L103.686 95.2729C103.058 98.8382 100.628 101.754 97.4259 102.964L100.96 112.318ZM113.535 97.0074L121.307 52.8767L111.458 51.1421L103.686 95.2729L113.535 97.0074ZM121.307 52.8767C122.531 45.9291 120.075 38.7832 114.716 34.1876L108.206 41.7786C110.804 44.0066 112.087 47.5716 111.458 51.1421L121.307 52.8767ZM65.6115 101.029L65.112 104.211L74.9911 105.762L75.4905 102.58L65.6115 101.029ZM65.1273 104.119C65.2679 103.321 65.6097 102.746 65.9167 102.369C66.1991 102.023 66.7844 101.44 67.7861 101.113L70.8902 110.619C72.2152 110.186 73.1233 109.355 73.6647 108.691C74.2307 107.998 74.7676 107.035 74.9758 105.853L65.1273 104.119ZM67.6322 101.166L65.5603 101.918L68.9723 111.318L71.0441 110.566L67.6322 101.166ZM65.8398 101.826C67.0368 101.469 68.9921 101.521 70.4887 103.08C71.8546 104.504 71.8535 106.17 71.7119 106.974L61.8634 105.24C61.6542 106.428 61.7317 108.398 63.2734 110.004C64.946 111.747 67.1743 111.862 68.6928 111.41L65.8398 101.826ZM71.7199 106.928L72.2402 103.801L62.3758 102.159L61.8555 105.286L71.7199 106.928ZM66.2125 98.1014C65.784 98.1976 65.4397 98.2098 65.2381 98.194C65.142 98.1865 65.1207 98.176 65.1644 98.1883C65.2028 98.1992 65.3654 98.2486 65.5949 98.3908L60.3268 106.891C62.8858 108.477 66.0954 108.377 68.4035 107.858L66.2125 98.1014ZM65.5949 98.3908C67.1622 99.3622 67.6585 100.866 67.7645 101.766C67.8716 102.677 67.674 103.406 67.4719 103.877L58.2825 99.933C57.9426 100.725 57.6954 101.765 57.833 102.935C57.9694 104.095 58.5764 105.806 60.3268 106.891L65.5949 98.3908ZM67.4685 103.885L68.6528 101.139L59.4702 97.1789L58.2859 99.9251L67.4685 103.885ZM68.6073 101.241C68.4938 101.489 68.3418 101.745 68.1365 101.999C67.9406 102.241 67.6062 102.592 67.0904 102.904L61.9105 94.35C60.61 95.1375 59.8834 96.2739 59.5157 97.0767L68.6073 101.241ZM67.3691 102.722C66.9541 103.013 66.5229 103.204 66.1267 103.322L63.2738 93.7379C62.749 93.8942 62.1857 94.1437 61.6317 94.5318L67.3691 102.722ZM66.2968 103.268C65.3446 103.589 63.7448 103.73 62.2183 102.702L67.8032 94.4068C66.1133 93.2691 64.2934 93.391 63.1036 93.7919L66.2968 103.268ZM62.6308 102.952C65.1708 104.326 68.0753 104.254 70.4535 103.546L67.6005 93.9618C67.3381 94.0399 67.1655 94.0455 67.1024 94.0424C67.0739 94.041 67.0858 94.0387 67.133 94.051C67.1803 94.0633 67.2714 94.0925 67.3907 94.1571L62.6308 102.952ZM70.475 103.54C73.956 102.487 77.007 99.5301 77.6498 95.6267L67.7827 94.0017C67.8007 93.8926 67.8302 93.8272 67.8423 93.8037C67.854 93.781 67.8538 93.7887 67.829 93.8151C67.8046 93.8412 67.7674 93.8735 67.7188 93.9038C67.6709 93.9338 67.6226 93.9551 67.579 93.9683L70.475 103.54ZM77.6507 95.6214C77.9265 93.9351 77.8184 91.5439 75.9857 89.5547C74.4376 87.8744 72.3733 87.3241 71.0297 87.0746L69.2036 96.9064C69.5044 96.9623 69.5604 96.9991 69.4728 96.9614C69.3763 96.9198 69.0166 96.7488 68.6312 96.3305C68.2097 95.8729 67.9424 95.3196 67.8292 94.7891C67.7288 94.3185 67.7804 94.0157 67.7819 94.0071L77.6507 95.6214ZM70.9659 87.0632C70.7075 87.0186 70.4915 86.9746 70.3086 86.9299C70.1254 86.8852 69.9966 86.8449 69.9101 86.8131C69.7219 86.744 69.8276 86.7497 70.0255 86.9335C70.1305 87.031 70.2417 87.1608 70.3379 87.3198C70.4344 87.479 70.49 87.625 70.5188 87.7326C70.5736 87.9368 70.5005 87.8778 70.5828 87.382L60.7177 85.7451C60.2003 88.8633 60.7804 91.9947 63.2203 94.2608C65.2409 96.1374 67.8316 96.6704 69.2674 96.9178L70.9659 87.0632ZM70.5821 87.3863C70.8572 85.7374 72.1317 83.8915 73.9544 82.9011L69.1801 74.1144C64.8496 76.4674 61.536 80.8399 60.7184 85.7408L70.5821 87.3863ZM76.4993 79.3295L77.0334 76.1236L67.1694 74.48L66.6352 77.686L76.4993 79.3295ZM77.0256 76.1691C76.896 76.9053 76.5866 77.4702 76.2602 77.8771C75.9586 78.253 75.3441 78.8618 74.3043 79.1859L71.3287 69.6388C69.9559 70.0667 69.0185 70.9233 68.46 71.6195C67.8766 72.3467 67.3762 73.3044 67.1772 74.4345L77.0256 76.1691ZM74.7334 79.0303L76.76 78.1891L72.9263 68.9532L70.8997 69.7944L74.7334 79.0303ZM76.2696 78.3633C74.9966 78.7423 73.0274 78.628 71.5659 77.0563C70.2578 75.6495 70.2542 74.0287 70.3959 73.2245L80.2443 74.959C80.4536 73.7707 80.3723 71.8417 78.8891 70.2467C77.2527 68.4868 75.0112 68.3043 73.4167 68.7789L76.2696 78.3633ZM70.3881 73.27L69.8539 76.4759L79.7179 78.1195L80.2521 74.9135L70.3881 73.27ZM75.7971 82.1944C76.1909 82.1131 76.4115 82.1098 76.5014 82.1145C76.5766 82.1184 76.5412 82.1261 76.4527 82.0883L80.3824 72.8928C78.1472 71.9376 75.851 71.9723 73.7748 72.401L75.7971 82.1944ZM76.3354 82.0363C74.4621 81.1783 73.807 79.5041 73.6629 78.4942C73.519 77.4861 73.751 76.6725 73.9964 76.1488L83.0512 80.3928C83.4593 79.522 83.7462 78.3678 83.5625 77.081C83.3786 75.7925 82.5891 73.9017 80.4997 72.9447L76.3354 82.0363ZM73.9569 76.2351L72.7483 78.9466L81.882 83.0179L83.0906 80.3064L73.9569 76.2351ZM72.7926 78.8499C72.9183 78.5835 73.0747 78.3352 73.2638 78.1046C73.4456 77.8828 73.7344 77.5837 74.1637 77.3046L79.6154 85.6878C80.7344 84.9601 81.4399 83.9582 81.8377 83.1146L72.7926 78.8499ZM74.0066 77.411C74.3616 77.1605 74.7533 76.966 75.1679 76.8347L78.1884 86.3676C78.7539 86.1884 79.2882 85.9232 79.7725 85.5814L74.0066 77.411ZM75.2517 76.8089C75.6589 76.6877 76.1129 76.6169 76.5961 76.6234C77.0749 76.6299 77.4838 76.711 77.7995 76.8035L74.988 86.4001C75.8922 86.665 76.9718 86.7305 78.1046 86.3933L75.2517 76.8089ZM78.3185 76.9871C77.9372 76.8281 77.0229 76.4511 75.7305 76.3114C74.4512 76.1732 73.0152 76.2857 71.4324 76.7606L74.3063 86.3388C74.5049 86.2792 74.6236 86.263 74.6697 86.2585C74.714 86.2542 74.7066 86.259 74.6563 86.2536C74.6049 86.248 74.5433 86.2355 74.4806 86.2166C74.4517 86.2079 74.4305 86.2002 74.4212 86.1967C74.4157 86.1946 74.418 86.1952 74.4689 86.2165L78.3185 76.9871ZM71.423 76.7635C67.413 77.9753 65.2209 81.1373 64.7244 84.0959L74.5865 85.7509C74.5429 86.0108 74.4533 86.1596 74.3782 86.248C74.3343 86.2996 74.293 86.333 74.2657 86.3508C74.2375 86.3693 74.2462 86.357 74.3157 86.3359L71.423 76.7635ZM64.72 84.1228C64.602 84.8502 64.5131 85.9223 64.8202 87.1135C65.1595 88.4299 65.8888 89.5348 66.8663 90.3637C68.4421 91.6999 70.4954 92.1288 71.7101 92.3619L73.5947 82.5411C73.0582 82.4382 72.8004 82.3633 72.7067 82.3308C72.5932 82.2913 72.9117 82.3788 73.3337 82.7366C73.8541 83.1779 74.3018 83.8346 74.5036 84.6172C74.5908 84.9557 74.6101 85.2352 74.6106 85.4183C74.6111 85.5968 74.5936 85.7074 74.5909 85.724L64.72 84.1228ZM71.7006 92.3601C71.9567 92.4097 72.1429 92.4603 72.2724 92.5028C72.4017 92.5453 72.4591 92.575 72.465 92.5781C72.4689 92.5802 72.4177 92.5533 72.3377 92.4846C72.2551 92.4135 72.1611 92.3144 72.0738 92.1882C71.9866 92.062 71.928 91.9406 71.8919 91.8416C71.857 91.746 71.8509 91.6929 71.8521 91.7025C71.8537 91.7143 71.8615 91.7837 71.8561 91.925C71.8506 92.0664 71.8326 92.2636 71.7895 92.5257L81.657 94.1479C82.0354 91.8464 82.0232 88.9943 80.2989 86.5007C78.5691 83.999 75.8987 82.9879 73.6042 82.5429L71.7006 92.3601ZM71.787 92.5412C71.5043 94.295 70.0742 96.3644 68.1483 97.4197L72.9537 106.189C77.3662 103.772 80.8474 99.1717 81.6596 94.1324L71.787 92.5412ZM105.136 42.1451L66.1523 57.6686L69.8518 66.9591L108.835 51.4356L105.136 42.1451ZM66.2667 57.6247C63.6638 58.588 60.8306 59.8689 58.4786 61.9441C55.988 64.1416 54.2396 67.0473 53.5679 70.8199L63.4131 72.5727C63.6827 71.0585 64.2733 70.1673 65.0947 69.4426C66.0549 68.5954 67.5068 67.8286 69.7374 67.0031L66.2667 57.6247ZM53.5663 70.8291L45.9361 114.152L55.7846 115.887L63.4147 72.5636L53.5663 70.8291ZM45.9361 114.152C45.1757 118.47 46.2141 123.512 50.8048 125.855L55.3495 116.947C55.4699 117.008 55.5838 117.098 55.6706 117.2C55.7545 117.298 55.7739 117.361 55.7656 117.338C55.7421 117.273 55.6175 116.835 55.7846 115.887L45.9361 114.152ZM53.1106 116.401C52.5999 116.397 52.2317 116.368 51.9614 116.32L50.2269 126.169C51.2567 126.35 52.2359 126.395 53.0437 126.401L53.1106 116.401ZM51.9614 116.32C50.7979 116.115 49.6887 115.592 48.7614 114.798L42.2565 122.393C44.5232 124.334 47.2739 125.649 50.2269 126.169L51.9614 116.32ZM48.7685 114.804L15.4957 86.1993L8.97663 93.7822L42.2494 122.387L48.7685 114.804ZM15.4952 86.1988C13.6192 84.5864 12.6572 81.9501 13.1218 79.3125L3.27334 77.578C2.21497 83.5873 4.34478 89.8014 8.97718 93.7827L15.4952 86.1988ZM13.1218 79.3125L20.8924 35.1916L11.044 33.457L3.27334 77.578L13.1218 79.3125ZM20.8924 35.1916C21.3569 32.554 23.1617 30.4049 25.4757 29.5305L21.9408 20.1761C16.227 22.3352 12.1023 27.4477 11.044 33.457L20.8924 35.1916ZM25.4758 29.5304L66.5291 14.016L62.994 4.66169L21.9407 20.1761L25.4758 29.5304ZM66.5208 14.0191C67.6637 13.5895 68.8848 13.4768 70.0484 13.6817L71.7829 3.83327C68.8298 3.31317 65.7957 3.60852 63.0022 4.65859L66.5208 14.0191ZM70.0484 13.6817C71.212 13.8866 72.3211 14.4098 73.2484 15.204L79.7533 7.60881C77.4867 5.66756 74.736 4.35336 71.7829 3.83327L70.0484 13.6817ZM73.2417 15.1982L106.524 43.8048L113.043 36.2211L79.7599 7.61453L73.2417 15.1982ZM106.521 43.8016C108.093 45.1557 109.025 47.2289 108.999 49.4609L118.998 49.5753C119.056 44.5315 116.958 39.593 113.046 36.2242L106.521 43.8016ZM118.818 48.1861C118.065 45.4615 116.244 43.1059 113.418 41.958C110.724 40.8636 107.824 41.15 105.253 42.1002L108.718 51.4804C109.72 51.1105 109.933 51.3358 109.655 51.2229C109.511 51.1644 109.361 51.058 109.251 50.9272C109.148 50.8053 109.151 50.7483 109.179 50.8501L118.818 48.1861ZM89.1688 92.7451L78.9365 96.6494L82.5015 105.992L92.7338 102.088L89.1688 92.7451ZM78.9292 96.6522C78.638 96.7639 77.8319 97.0804 77.0505 97.7748C76.1208 98.601 75.4881 99.716 75.2655 100.98L85.1139 102.714C84.9433 103.683 84.4392 104.587 83.693 105.25C83.0952 105.781 82.5277 105.982 82.5088 105.99L78.9292 96.6522ZM75.2655 100.98L74.8388 103.403L84.6872 105.137L85.1139 102.714L75.2655 100.98ZM74.8388 103.403C74.6486 104.483 74.6549 106.644 76.4781 108.299C78.4254 110.066 80.7485 109.752 81.9474 109.292L78.3678 99.9549C79.2945 99.5997 81.3943 99.256 83.1993 100.894C84.8802 102.42 84.8254 104.352 84.6872 105.137L74.8388 103.403ZM81.9747 109.282L92.3761 105.224L88.742 95.9081L78.3406 99.9655L81.9747 109.282ZM92.3488 105.235C95.4005 104.065 95.8363 101.101 95.8937 100.775L86.0453 99.0402C86.0497 99.0155 86.0714 98.8931 86.1213 98.7217C86.1715 98.5496 86.2683 98.2636 86.4496 97.9286C86.8672 97.1569 87.6289 96.3347 88.7692 95.8976L92.3488 105.235ZM95.8937 100.775L96.2701 98.6376L86.4217 96.9031L86.0453 99.0402L95.8937 100.775ZM96.2701 98.6376C96.4635 97.5395 96.4465 95.3571 94.5889 93.708C92.6817 92.0149 90.4422 92.298 89.302 92.6964L92.6006 102.137C91.7309 102.441 89.7148 102.753 87.9502 101.186C86.2352 99.6641 86.2803 97.7058 86.4217 96.9031L96.2701 98.6376Z" fill="white" mask="url(#path-1-outside-1_17_97)"/>
</svg>
