<svg width="438" height="134" viewBox="0 0 438 134" fill="none" xmlns="http://www.w3.org/2000/svg">
<rect y="3.05176e-05" width="438" height="134" rx="5" fill="url(#paint0_linear_2_62)"/>
<path fill-rule="evenodd" clip-rule="evenodd" d="M18 22.5C18 21.837 18.2634 21.2011 18.7322 20.7323C19.2011 20.2634 19.837 20 20.5 20H29.25C29.4489 20 29.6397 20.079 29.7803 20.2197C29.921 20.3604 30 20.5511 30 20.75V33.25C30 33.4489 29.921 33.6397 29.7803 33.7804C29.6397 33.921 29.4489 34 29.25 34H26.75C26.5511 34 26.3603 33.921 26.2197 33.7804C26.079 33.6397 26 33.4489 26 33.25C26 33.0511 26.079 32.8604 26.2197 32.7197C26.3603 32.579 26.5511 32.5 26.75 32.5H28.5V30.5H20.5C20.3031 30.5001 20.1106 30.5582 19.9466 30.6672C19.7826 30.7762 19.6544 30.9312 19.5782 31.1128C19.5019 31.2944 19.481 31.4944 19.5179 31.6878C19.5549 31.8812 19.6482 32.0594 19.786 32.2C19.9252 32.3422 20.0023 32.5338 20.0002 32.7328C19.9982 32.9318 19.9172 33.1218 19.775 33.261C19.6328 33.4003 19.4412 33.4773 19.2422 33.4753C19.0432 33.4732 18.8532 33.3922 18.714 33.25C18.2557 32.7829 17.9993 32.1544 18 31.5V22.5ZM28.5 21.5V29H20.5C20.144 29 19.806 29.074 19.5 29.208V22.5C19.5 22.2348 19.6054 21.9805 19.7929 21.7929C19.9804 21.6054 20.2348 21.5 20.5 21.5H28.5ZM21 32.25V35.5C21 35.5465 21.0129 35.592 21.0373 35.6315C21.0617 35.671 21.0967 35.7029 21.1382 35.7236C21.1797 35.7444 21.2262 35.7532 21.2725 35.749C21.3187 35.7449 21.3629 35.7279 21.4 35.7L22.85 34.613C22.8933 34.5806 22.9459 34.563 23 34.563C23.0541 34.563 23.1067 34.5806 23.15 34.613L24.6 35.7C24.6371 35.7279 24.6813 35.7449 24.7276 35.749C24.7738 35.7532 24.8203 35.7444 24.8618 35.7236C24.9033 35.7029 24.9383 35.671 24.9627 35.6315C24.9871 35.592 25 35.5465 25 35.5V32.25C25 32.1837 24.9737 32.1201 24.9268 32.0733C24.8799 32.0264 24.8163 32 24.75 32H21.25C21.1837 32 21.1201 32.0264 21.0732 32.0733C21.0263 32.1201 21 32.1837 21 32.25Z" fill="#2EC18B"/>
<path d="M43.7236 31.9248C43.4137 32.0798 43.0059 32.1573 42.5 32.1573C41.1419 32.1573 40.4629 31.5056 40.4629 30.2022V26.2442H39.2939V25H40.4629V23.3799L42.0488 22.9287V25H43.7236V26.2442H42.0488V29.7442C42.0488 30.1589 42.124 30.4551 42.2744 30.6328C42.4248 30.8106 42.6755 30.8994 43.0264 30.8994C43.2952 30.8994 43.5277 30.822 43.7236 30.667V31.9248ZM49.1514 26.5108C48.96 26.3604 48.6842 26.2852 48.3242 26.2852C47.8548 26.2852 47.4629 26.4971 47.1484 26.9209C46.834 27.3448 46.6768 27.9213 46.6768 28.6504V32H45.0908V25H46.6768V26.4424H46.7041C46.859 25.9502 47.096 25.5674 47.415 25.294C47.7386 25.016 48.0986 24.877 48.4951 24.877C48.7822 24.877 49.001 24.9203 49.1514 25.0069V26.5108ZM56.8965 25L53.7383 33.1211C53.082 34.5703 52.1615 35.295 50.9766 35.295C50.6439 35.295 50.3659 35.2653 50.1426 35.2061V33.8867C50.3932 33.9688 50.6211 34.0098 50.8262 34.0098C51.4186 34.0098 51.8607 33.7181 52.1523 33.1348L52.624 31.9864L49.8418 25H51.5986L53.2666 30.086C53.2848 30.1498 53.3258 30.3184 53.3896 30.5918H53.4238C53.4466 30.487 53.4876 30.3229 53.5469 30.0996L55.2969 25H56.8965ZM59.5693 30.9883H59.542V32H57.9561V21.6367H59.542V26.2305H59.5693C60.1117 25.3008 60.9046 24.836 61.9482 24.836C62.8324 24.836 63.5228 25.1504 64.0195 25.7793C64.5208 26.4037 64.7715 27.2422 64.7715 28.295C64.7715 29.4662 64.4912 30.405 63.9307 31.1114C63.3701 31.8132 62.6045 32.1641 61.6338 32.1641C60.7223 32.1641 60.0342 31.7722 59.5693 30.9883ZM59.5283 28.2061V29.0742C59.5283 29.5847 59.6901 30.0176 60.0137 30.3731C60.3418 30.7285 60.7565 30.9063 61.2578 30.9063C61.8457 30.9063 62.306 30.6784 62.6387 30.2227C62.9759 29.7624 63.1445 29.1221 63.1445 28.3018C63.1445 27.6136 62.9873 27.0759 62.6729 26.6885C62.363 26.2966 61.9414 26.1006 61.4082 26.1006C60.8431 26.1006 60.3874 26.3011 60.041 26.7022C59.6992 27.1032 59.5283 27.6045 59.5283 28.2061ZM72.3184 28.9307H67.5469C67.5651 29.5778 67.7633 30.0769 68.1416 30.4278C68.5244 30.7787 69.0485 30.9541 69.7139 30.9541C70.4613 30.9541 71.1471 30.7308 71.7715 30.2842V31.5625C71.1335 31.9636 70.2904 32.1641 69.2422 32.1641C68.2122 32.1641 67.4033 31.8474 66.8154 31.2139C66.2321 30.5759 65.9404 29.6804 65.9404 28.5274C65.9404 27.4382 66.2617 26.5518 66.9043 25.8682C67.5514 25.18 68.3535 24.836 69.3105 24.836C70.2676 24.836 71.0081 25.1436 71.5322 25.7588C72.0563 26.3741 72.3184 27.2285 72.3184 28.3223V28.9307ZM70.7871 27.8096C70.7826 27.2399 70.6481 26.7979 70.3838 26.4834C70.1195 26.1644 69.7549 26.0049 69.29 26.0049C68.8343 26.0049 68.4469 26.1713 68.1279 26.5039C67.8135 26.8366 67.6198 27.2718 67.5469 27.8096H70.7871ZM77.5137 28.7598H73.7812V27.5909H77.5137V28.7598ZM88.875 25L86.8105 32H85.1494L83.8779 27.2559C83.8278 27.0736 83.7959 26.8685 83.7822 26.6407H83.7549C83.7458 26.7956 83.7048 26.9961 83.6318 27.2422L82.251 32H80.624L78.5664 25H80.207L81.4785 30.045C81.5195 30.1953 81.5469 30.3959 81.5605 30.6465H81.6084C81.6221 30.4551 81.6585 30.25 81.7178 30.0313L83.1328 25H84.623L85.8809 30.0655C85.9219 30.225 85.9515 30.4255 85.9697 30.667H86.0176C86.0267 30.4984 86.0609 30.2979 86.1201 30.0655L87.3643 25H88.875ZM95.4307 32H93.8926V30.9063H93.8652C93.3822 31.7448 92.6735 32.1641 91.7393 32.1641C91.0511 32.1641 90.5111 31.9772 90.1191 31.6035C89.7318 31.2298 89.5381 30.7354 89.5381 30.1201C89.5381 28.7985 90.2992 28.0284 91.8213 27.8096L93.8994 27.5157C93.8994 26.5176 93.4255 26.0186 92.4775 26.0186C91.6436 26.0186 90.8916 26.3057 90.2217 26.8799V25.4922C90.96 25.0547 91.8122 24.836 92.7783 24.836C94.5465 24.836 95.4307 25.7064 95.4307 27.4473V32ZM93.8994 28.5616L92.4297 28.7666C91.974 28.8259 91.6299 28.9375 91.3975 29.1016C91.1696 29.2611 91.0557 29.5437 91.0557 29.9492C91.0557 30.2455 91.1605 30.4893 91.3701 30.6807C91.5843 30.8675 91.8691 30.961 92.2246 30.961C92.7077 30.961 93.1064 30.7923 93.4209 30.4551C93.7399 30.1133 93.8994 29.6849 93.8994 29.17V28.5616ZM98.9648 32H97.3721V21.6367H98.9648V32ZM102.629 32H101.036V21.6367H102.629V32ZM110.627 28.9307H105.855C105.874 29.5778 106.072 30.0769 106.45 30.4278C106.833 30.7787 107.357 30.9541 108.022 30.9541C108.77 30.9541 109.456 30.7308 110.08 30.2842V31.5625C109.442 31.9636 108.599 32.1641 107.551 32.1641C106.521 32.1641 105.712 31.8474 105.124 31.2139C104.541 30.5759 104.249 29.6804 104.249 28.5274C104.249 27.4382 104.57 26.5518 105.213 25.8682C105.86 25.18 106.662 24.836 107.619 24.836C108.576 24.836 109.317 25.1436 109.841 25.7588C110.365 26.3741 110.627 27.2285 110.627 28.3223V28.9307ZM109.096 27.8096C109.091 27.2399 108.957 26.7979 108.692 26.4834C108.428 26.1644 108.063 26.0049 107.599 26.0049C107.143 26.0049 106.756 26.1713 106.437 26.5039C106.122 26.8366 105.928 27.2718 105.855 27.8096H109.096ZM115.829 31.9248C115.519 32.0798 115.111 32.1573 114.605 32.1573C113.247 32.1573 112.568 31.5056 112.568 30.2022V26.2442H111.399V25H112.568V23.3799L114.154 22.9287V25H115.829V26.2442H114.154V29.7442C114.154 30.1589 114.229 30.4551 114.38 30.6328C114.53 30.8106 114.781 30.8994 115.132 30.8994C115.401 30.8994 115.633 30.822 115.829 30.667V31.9248Z" fill="#2EC18B"/>
<g clip-path="url(#clip0_2_62)">
<rect x="348.77" y="23.9932" width="57.426" height="101.34" rx="2.74294" transform="rotate(-19.5867 348.77 23.9932)" fill="#9CC9B4"/>
<path d="M393.45 65.6346C393.935 65.8246 395.072 65.8459 395.562 65.2349C396.007 64.6812 395.909 63.6823 395.572 63.2664C393.055 60.1593 393.055 60.1593 390.994 57.6144C390.238 56.6806 390.535 57.0476 388.646 54.716C388.328 54.3232 387.836 54.1875 387.332 54.1877C383.784 54.739 379.997 55.3058 376.449 55.8571C376.054 55.9157 375.293 56.2088 375.156 57.004C375.053 57.605 375.283 58.4257 375.904 58.6696C393.343 65.5137 376.011 58.7909 393.45 65.6346Z" fill="#D1FFEA"/>
<path d="M374.437 46.3003C374.029 46.6229 373.438 47.5961 373.716 48.3299C373.968 48.9949 374.878 49.415 375.405 49.3341C379.349 48.7282 379.349 48.7282 382.58 48.2322C383.765 48.0503 383.3 48.1217 386.259 47.6669C386.757 47.5904 387.123 47.2329 387.377 46.7964C388.692 43.4481 390.115 39.8843 391.431 36.536C391.579 36.1651 391.711 35.358 391.096 34.8373C390.63 34.4439 389.807 34.2278 389.285 34.6418C374.596 46.2689 389.127 34.6736 374.437 46.3003Z" fill="#D1FFEA"/>
<path d="M400.599 39.5926C400.522 39.0772 399.972 38.0789 399.198 37.9572C398.497 37.8464 397.683 38.4299 397.492 38.9295C396.065 42.6647 396.065 42.6647 394.896 45.7239C394.467 46.8466 394.636 46.4054 393.564 49.2083C393.384 49.6805 393.513 50.1762 393.765 50.614C396.015 53.4216 398.398 56.4293 400.648 59.2364C400.896 59.5502 401.529 60.0653 402.285 59.7877C402.856 59.5778 403.45 58.9688 403.351 58.3082C400.548 39.7462 403.401 58.1546 400.599 39.5926Z" fill="#D1FFEA"/>
<rect x="379.699" y="8.29675" width="57.426" height="101.34" rx="2.74293" transform="rotate(-6.89712 379.699 8.29675)" fill="#A2D6BE"/>
<path d="M412.718 53.11C413.202 53.3001 414.339 53.3214 414.83 52.7104C415.275 52.1567 415.176 51.1578 414.84 50.7419C412.323 47.6348 412.323 47.6348 410.261 45.0899C409.505 44.1561 409.802 44.523 407.914 42.1915C407.596 41.7986 407.103 41.663 406.599 41.6632C403.051 42.2144 399.264 42.7812 395.716 43.3325C395.322 43.3911 394.56 43.6843 394.424 44.4795C394.32 45.0805 394.551 45.9011 395.171 46.1451C412.61 52.9892 395.278 46.2664 412.718 53.11Z" fill="#D1FFEA"/>
<path d="M393.705 33.7758C393.297 34.0985 392.705 35.0716 392.983 35.8055C393.235 36.4704 394.145 36.8906 394.672 36.8097C398.617 36.2037 398.617 36.2037 401.847 35.7077C403.033 35.5259 402.567 35.5973 405.526 35.1424C406.025 35.066 406.39 34.7084 406.645 34.272C407.96 30.9236 409.383 27.3599 410.698 24.0115C410.847 23.6407 410.979 22.8336 410.363 22.3128C409.898 21.9195 409.075 21.7033 408.552 22.1174C393.863 33.7445 408.394 22.1492 393.705 33.7758Z" fill="#D1FFEA"/>
<path d="M419.867 27.0682C419.789 26.5528 419.239 25.5545 418.466 25.4327C417.765 25.322 416.951 25.9055 416.76 26.4051C415.333 30.1403 415.333 30.1403 414.164 33.1995C413.734 34.3222 413.903 33.881 412.832 36.6839C412.652 37.156 412.78 37.6518 413.033 38.0895C415.282 40.8971 417.666 43.9049 419.915 46.712C420.163 47.0258 420.797 47.5409 421.552 47.2633C422.123 47.0534 422.718 46.4444 422.618 45.7838C419.816 27.2218 422.669 45.6302 419.867 27.0682Z" fill="#D1FFEA"/>
<rect x="397.791" y="0.395477" width="57.426" height="101.34" rx="2.74293" transform="rotate(2.04339 397.791 0.395477)" fill="#ADE1C9"/>
<path d="M431.209 53.3494C431.693 53.5395 432.83 53.5608 433.321 52.9498C433.766 52.3961 433.667 51.3972 433.331 50.9813C430.814 47.8742 430.814 47.8742 428.753 45.3293C427.996 44.3955 428.293 44.7624 426.405 42.4309C426.087 42.038 425.595 41.9024 425.09 41.9026C421.542 42.4539 417.755 43.0207 414.207 43.5719C413.813 43.6305 413.052 43.9237 412.915 44.7189C412.811 45.3199 413.042 46.1405 413.662 46.3845C431.101 53.2286 413.77 46.5058 431.209 53.3494Z" fill="#D1FFEA"/>
<path d="M412.196 34.0151C411.788 34.3378 411.196 35.3109 411.474 36.0448C411.727 36.7097 412.636 37.1299 413.164 37.049C417.108 36.443 417.108 36.443 420.338 35.947C421.524 35.7652 421.058 35.8366 424.017 35.3818C424.516 35.3053 424.881 34.9477 425.136 34.5113C426.451 31.163 427.874 27.5992 429.189 24.2508C429.338 23.88 429.47 23.0729 428.854 22.5521C428.389 22.1588 427.566 21.9426 427.044 22.3567C412.354 33.9838 426.885 22.3885 412.196 34.0151Z" fill="#D1FFEA"/>
<path d="M438.358 27.3075C438.28 26.7921 437.73 25.7938 436.957 25.6721C436.256 25.5613 435.442 26.1448 435.251 26.6444C433.824 30.3796 433.824 30.3796 432.655 33.4388C432.225 34.5615 432.394 34.1203 431.323 36.9232C431.143 37.3954 431.271 37.8911 431.524 38.3289C433.773 41.1365 436.157 44.1442 438.406 46.9513C438.654 47.2651 439.288 47.7802 440.043 47.5026C440.614 47.2927 441.209 46.6837 441.109 46.0231C438.307 27.4611 441.16 45.8695 438.358 27.3075Z" fill="#D1FFEA"/>
<rect x="336.146" y="50.8614" width="135.12" height="84.45" rx="8.22881" transform="rotate(-8.72076 336.146 50.8614)" fill="#9AADA8"/>
<path d="M377.973 102.867C378.457 103.057 379.594 103.079 380.085 102.468C380.53 101.914 380.431 100.915 380.095 100.499C377.578 97.392 377.578 97.392 375.517 94.8471C374.76 93.9133 375.057 94.2803 373.169 91.9487C372.851 91.5559 372.359 91.4202 371.854 91.4204C368.306 91.9717 364.519 92.5385 360.971 93.0898C360.577 93.1484 359.816 93.4416 359.679 94.2368C359.575 94.8377 359.806 95.6584 360.426 95.9023C377.865 102.746 360.534 96.0237 377.973 102.867Z" fill="#ADE1C9"/>
<path d="M358.96 83.533C358.552 83.8556 357.96 84.8288 358.238 85.5626C358.49 86.2276 359.4 86.6477 359.928 86.5668C363.872 85.9608 363.872 85.9608 367.102 85.4649C368.288 85.283 367.822 85.3544 370.781 84.8996C371.28 84.8231 371.645 84.4656 371.9 84.0291C373.215 80.6808 374.638 77.117 375.953 73.7687C376.102 73.3978 376.234 72.5907 375.618 72.0699C375.153 71.6766 374.33 71.4604 373.808 71.8745C359.118 83.5016 373.649 71.9063 358.96 83.533Z" fill="#ADE1C9"/>
<path d="M385.122 76.8253C385.044 76.31 384.495 75.3116 383.721 75.1899C383.02 75.0792 382.206 75.6627 382.015 76.1623C380.588 79.8975 380.588 79.8975 379.419 82.9567C378.99 84.0794 379.158 83.6382 378.087 86.4411C377.907 86.9132 378.035 87.409 378.288 87.8467C380.538 90.6543 382.921 93.662 385.17 96.4692C385.418 96.7829 386.052 97.2981 386.808 97.0204C387.379 96.8105 387.973 96.2015 387.873 95.5409C385.071 76.979 387.924 95.3874 385.122 76.8253Z" fill="#ADE1C9"/>
</g>
<circle cx="22" cy="109" r="6" fill="#F1E05A"/>
<path d="M34.252 110.988C34.252 111.984 34.041 112.76 33.6191 113.314C33.1973 113.865 32.6328 114.141 31.9258 114.141C31.5977 114.141 31.3281 114.094 31.1172 114V113.027C31.3281 113.18 31.6016 113.256 31.9375 113.256C32.8242 113.256 33.2676 112.504 33.2676 111V105.598H34.252V110.988ZM40.5566 114H39.5957V113.062H39.5723C39.1543 113.781 38.5391 114.141 37.7266 114.141C37.1289 114.141 36.6602 113.982 36.3203 113.666C35.9844 113.35 35.8164 112.93 35.8164 112.406C35.8164 111.285 36.4766 110.633 37.7969 110.449L39.5957 110.197C39.5957 109.178 39.1836 108.668 38.3594 108.668C37.6367 108.668 36.9844 108.914 36.4023 109.406V108.422C36.9922 108.047 37.6719 107.859 38.4414 107.859C39.8516 107.859 40.5566 108.605 40.5566 110.098V114ZM39.5957 110.965L38.1484 111.164C37.7031 111.227 37.3672 111.338 37.1406 111.498C36.9141 111.654 36.8008 111.934 36.8008 112.336C36.8008 112.629 36.9043 112.869 37.1113 113.057C37.3223 113.24 37.6016 113.332 37.9492 113.332C38.4258 113.332 38.8184 113.166 39.127 112.834C39.4395 112.498 39.5957 112.074 39.5957 111.562V110.965ZM47.084 108L44.6934 114H43.75L41.4766 108H42.5312L44.0547 112.359C44.168 112.68 44.2383 112.959 44.2656 113.197H44.2891C44.3281 112.896 44.3906 112.625 44.4766 112.383L46.0703 108H47.084ZM52.416 114H51.4551V113.062H51.4316C51.0137 113.781 50.3984 114.141 49.5859 114.141C48.9883 114.141 48.5195 113.982 48.1797 113.666C47.8438 113.35 47.6758 112.93 47.6758 112.406C47.6758 111.285 48.3359 110.633 49.6562 110.449L51.4551 110.197C51.4551 109.178 51.043 108.668 50.2188 108.668C49.4961 108.668 48.8438 108.914 48.2617 109.406V108.422C48.8516 108.047 49.5312 107.859 50.3008 107.859C51.7109 107.859 52.416 108.605 52.416 110.098V114ZM51.4551 110.965L50.0078 111.164C49.5625 111.227 49.2266 111.338 49 111.498C48.7734 111.654 48.6602 111.934 48.6602 112.336C48.6602 112.629 48.7637 112.869 48.9707 113.057C49.1816 113.24 49.4609 113.332 49.8086 113.332C50.2852 113.332 50.6777 113.166 50.9863 112.834C51.2988 112.498 51.4551 112.074 51.4551 111.562V110.965ZM53.9629 113.66V112.5C54.0957 112.617 54.2539 112.723 54.4375 112.816C54.625 112.91 54.8203 112.99 55.0234 113.057C55.2305 113.119 55.4375 113.168 55.6445 113.203C55.8516 113.238 56.043 113.256 56.2188 113.256C56.8242 113.256 57.2754 113.145 57.5723 112.922C57.873 112.695 58.0234 112.371 58.0234 111.949C58.0234 111.723 57.9727 111.525 57.8711 111.357C57.7734 111.189 57.6367 111.037 57.4609 110.9C57.2852 110.76 57.0762 110.627 56.834 110.502C56.5957 110.373 56.3379 110.238 56.0605 110.098C55.7676 109.949 55.4941 109.799 55.2402 109.646C54.9863 109.494 54.7656 109.326 54.5781 109.143C54.3906 108.959 54.2422 108.752 54.1328 108.521C54.0273 108.287 53.9746 108.014 53.9746 107.701C53.9746 107.318 54.0586 106.986 54.2266 106.705C54.3945 106.42 54.6152 106.186 54.8887 106.002C55.1621 105.818 55.4727 105.682 55.8203 105.592C56.1719 105.502 56.5293 105.457 56.8926 105.457C57.7207 105.457 58.3242 105.557 58.7031 105.756V106.863C58.207 106.52 57.5703 106.348 56.793 106.348C56.5781 106.348 56.3633 106.371 56.1484 106.418C55.9336 106.461 55.7422 106.533 55.5742 106.635C55.4062 106.736 55.2695 106.867 55.1641 107.027C55.0586 107.188 55.0059 107.383 55.0059 107.613C55.0059 107.828 55.0449 108.014 55.123 108.17C55.2051 108.326 55.3242 108.469 55.4805 108.598C55.6367 108.727 55.8262 108.852 56.0488 108.973C56.2754 109.094 56.5352 109.227 56.8281 109.371C57.1289 109.52 57.4141 109.676 57.6836 109.84C57.9531 110.004 58.1895 110.186 58.3926 110.385C58.5957 110.584 58.7559 110.805 58.873 111.047C58.9941 111.289 59.0547 111.566 59.0547 111.879C59.0547 112.293 58.9727 112.645 58.8086 112.934C58.6484 113.219 58.4297 113.451 58.1523 113.631C57.8789 113.811 57.5625 113.939 57.2031 114.018C56.8438 114.1 56.4648 114.141 56.0664 114.141C55.9336 114.141 55.7695 114.129 55.5742 114.105C55.3789 114.086 55.1797 114.055 54.9766 114.012C54.7734 113.973 54.5801 113.924 54.3965 113.865C54.2168 113.803 54.0723 113.734 53.9629 113.66ZM64.6914 113.725C64.2305 114.002 63.6836 114.141 63.0508 114.141C62.1953 114.141 61.5039 113.863 60.9766 113.309C60.4531 112.75 60.1914 112.027 60.1914 111.141C60.1914 110.152 60.4746 109.359 61.041 108.762C61.6074 108.16 62.3633 107.859 63.3086 107.859C63.8359 107.859 64.3008 107.957 64.7031 108.152V109.137C64.2578 108.824 63.7812 108.668 63.2734 108.668C62.6602 108.668 62.1562 108.889 61.7617 109.33C61.3711 109.768 61.1758 110.344 61.1758 111.059C61.1758 111.762 61.3594 112.316 61.7266 112.723C62.0977 113.129 62.5938 113.332 63.2148 113.332C63.7383 113.332 64.2305 113.158 64.6914 112.811V113.725ZM69.2734 108.973C69.1055 108.844 68.8633 108.779 68.5469 108.779C68.1367 108.779 67.793 108.973 67.5156 109.359C67.2422 109.746 67.1055 110.273 67.1055 110.941V114H66.1445V108H67.1055V109.236H67.1289C67.2656 108.814 67.4746 108.486 67.7559 108.252C68.0371 108.014 68.3516 107.895 68.6992 107.895C68.9492 107.895 69.1406 107.922 69.2734 107.977V108.973ZM70.8086 106.477C70.6367 106.477 70.4902 106.418 70.3691 106.301C70.248 106.184 70.1875 106.035 70.1875 105.855C70.1875 105.676 70.248 105.527 70.3691 105.41C70.4902 105.289 70.6367 105.229 70.8086 105.229C70.9844 105.229 71.1328 105.289 71.2539 105.41C71.3789 105.527 71.4414 105.676 71.4414 105.855C71.4414 106.027 71.3789 106.174 71.2539 106.295C71.1328 106.416 70.9844 106.477 70.8086 106.477ZM71.2773 114H70.3164V108H71.2773V114ZM74.207 113.133H74.1836V116.76H73.2227V108H74.1836V109.055H74.207C74.6797 108.258 75.3711 107.859 76.2812 107.859C77.0547 107.859 77.6582 108.129 78.0918 108.668C78.5254 109.203 78.7422 109.922 78.7422 110.824C78.7422 111.828 78.498 112.633 78.0098 113.238C77.5215 113.84 76.8535 114.141 76.0059 114.141C75.2285 114.141 74.6289 113.805 74.207 113.133ZM74.1836 110.713V111.551C74.1836 112.047 74.3438 112.469 74.6641 112.816C74.9883 113.16 75.3984 113.332 75.8945 113.332C76.4766 113.332 76.9316 113.109 77.2598 112.664C77.5918 112.219 77.7578 111.6 77.7578 110.807C77.7578 110.139 77.6035 109.615 77.2949 109.236C76.9863 108.857 76.5684 108.668 76.041 108.668C75.4824 108.668 75.0332 108.863 74.6934 109.254C74.3535 109.641 74.1836 110.127 74.1836 110.713ZM83.0605 113.941C82.834 114.066 82.5352 114.129 82.1641 114.129C81.1133 114.129 80.5879 113.543 80.5879 112.371V108.82H79.5566V108H80.5879V106.535L81.5488 106.225V108H83.0605V108.82H81.5488V112.201C81.5488 112.604 81.6172 112.891 81.7539 113.062C81.8906 113.234 82.1172 113.32 82.4336 113.32C82.6758 113.32 82.8848 113.254 83.0605 113.121V113.941Z" fill="#2EC18B"/>
<path d="M23.9395 59H22.4102L21.6543 56.8613H18.3496L17.623 59H16.0996L19.2461 50.5977H20.8164L23.9395 59ZM21.2852 55.7246L20.1191 52.373C20.084 52.2637 20.0469 52.0879 20.0078 51.8457H19.9844C19.9492 52.0684 19.9102 52.2441 19.8672 52.373L18.7129 55.7246H21.2852ZM26.3301 58.1152H26.3066V61.7598H24.9473V53H26.3066V54.0547H26.3301C26.7949 53.2578 27.4746 52.8594 28.3691 52.8594C29.1309 52.8594 29.7246 53.127 30.1504 53.6621C30.5762 54.1973 30.7891 54.916 30.7891 55.8184C30.7891 56.8184 30.5488 57.6191 30.0684 58.2207C29.5879 58.8223 28.9316 59.123 28.0996 59.123C27.334 59.123 26.7441 58.7871 26.3301 58.1152ZM26.2949 55.748V56.4922C26.2949 56.9297 26.4336 57.3008 26.7109 57.6055C26.9922 57.9102 27.3477 58.0625 27.7773 58.0625C28.2812 58.0625 28.6758 57.8672 28.9609 57.4766C29.25 57.082 29.3945 56.5332 29.3945 55.8301C29.3945 55.2402 29.2598 54.7793 28.9902 54.4473C28.7246 54.1113 28.3633 53.9434 27.9062 53.9434C27.4219 53.9434 27.0312 54.1152 26.7344 54.459C26.4414 54.8027 26.2949 55.2324 26.2949 55.748ZM33.543 59H32.1777V50.1172H33.543V59ZM36.0039 51.7402C35.7812 51.7402 35.5898 51.668 35.4297 51.5234C35.2734 51.3789 35.1953 51.1953 35.1953 50.9727C35.1953 50.75 35.2734 50.5645 35.4297 50.416C35.5898 50.2676 35.7812 50.1934 36.0039 50.1934C36.2344 50.1934 36.4297 50.2676 36.5898 50.416C36.75 50.5645 36.8301 50.75 36.8301 50.9727C36.8301 51.1836 36.75 51.3652 36.5898 51.5176C36.4297 51.666 36.2344 51.7402 36.0039 51.7402ZM36.6777 59H35.3184V53H36.6777V59ZM42.7539 58.7246C42.2734 59.002 41.7051 59.1406 41.0488 59.1406C40.1582 59.1406 39.4395 58.8633 38.8926 58.3086C38.3457 57.75 38.0723 57.0273 38.0723 56.1406C38.0723 55.1523 38.3652 54.3594 38.9512 53.7617C39.541 53.1602 40.3281 52.8594 41.3125 52.8594C41.8594 52.8594 42.3418 52.9551 42.7598 53.1465V54.4121C42.3418 54.0996 41.8965 53.9434 41.4238 53.9434C40.8496 53.9434 40.3789 54.1387 40.0117 54.5293C39.6445 54.916 39.4609 55.4238 39.4609 56.0527C39.4609 56.6738 39.6328 57.1641 39.9766 57.5234C40.3242 57.8828 40.7891 58.0625 41.3711 58.0625C41.8594 58.0625 42.3203 57.8887 42.7539 57.541V58.7246ZM48.7129 59H47.3945V58.0625H47.3711C46.957 58.7812 46.3496 59.1406 45.5488 59.1406C44.959 59.1406 44.4961 58.9805 44.1602 58.6602C43.8281 58.3398 43.6621 57.916 43.6621 57.3887C43.6621 56.2559 44.3145 55.5957 45.6191 55.4082L47.4004 55.1562C47.4004 54.3008 46.9941 53.873 46.1816 53.873C45.4668 53.873 44.8223 54.1191 44.248 54.6113V53.4219C44.8809 53.0469 45.6113 52.8594 46.4395 52.8594C47.9551 52.8594 48.7129 53.6055 48.7129 55.0977V59ZM47.4004 56.0527L46.1406 56.2285C45.75 56.2793 45.4551 56.375 45.2559 56.5156C45.0605 56.6523 44.9629 56.8945 44.9629 57.2422C44.9629 57.4961 45.0527 57.7051 45.2324 57.8691C45.416 58.0293 45.6602 58.1094 45.9648 58.1094C46.3789 58.1094 46.7207 57.9648 46.9902 57.6758C47.2637 57.3828 47.4004 57.0156 47.4004 56.5742V56.0527ZM54.6719 58.7246C54.1914 59.002 53.623 59.1406 52.9668 59.1406C52.0762 59.1406 51.3574 58.8633 50.8105 58.3086C50.2637 57.75 49.9902 57.0273 49.9902 56.1406C49.9902 55.1523 50.2832 54.3594 50.8691 53.7617C51.459 53.1602 52.2461 52.8594 53.2305 52.8594C53.7773 52.8594 54.2598 52.9551 54.6777 53.1465V54.4121C54.2598 54.0996 53.8145 53.9434 53.3418 53.9434C52.7676 53.9434 52.2969 54.1387 51.9297 54.5293C51.5625 54.916 51.3789 55.4238 51.3789 56.0527C51.3789 56.6738 51.5508 57.1641 51.8945 57.5234C52.2422 57.8828 52.707 58.0625 53.2891 58.0625C53.7773 58.0625 54.2383 57.8887 54.6719 57.541V58.7246ZM54.1855 60.4531C54.1855 61.2109 53.623 61.5898 52.498 61.5898C52.3145 61.5898 52.1562 61.584 52.0234 61.5723V60.9219C52.1953 60.9453 52.334 60.957 52.4395 60.957C52.959 60.957 53.2188 60.7969 53.2188 60.4766C53.2188 60.1875 52.9824 60.043 52.5098 60.043C52.4707 60.043 52.3945 60.0508 52.2812 60.0664V59H53.0781V59.5508C53.418 59.5508 53.6875 59.6289 53.8867 59.7852C54.0859 59.9453 54.1855 60.168 54.1855 60.4531ZM60.6309 59H59.3125V58.0625H59.2891C58.875 58.7812 58.2676 59.1406 57.4668 59.1406C56.877 59.1406 56.4141 58.9805 56.0781 58.6602C55.7461 58.3398 55.5801 57.916 55.5801 57.3887C55.5801 56.2559 56.2324 55.5957 57.5371 55.4082L59.3184 55.1562C59.3184 54.3008 58.9121 53.873 58.0996 53.873C57.3848 53.873 56.7402 54.1191 56.166 54.6113V53.4219C56.7988 53.0469 57.5293 52.8594 58.3574 52.8594C59.873 52.8594 60.6309 53.6055 60.6309 55.0977V59ZM59.3184 56.0527L58.0586 56.2285C57.668 56.2793 57.373 56.375 57.1738 56.5156C56.9785 56.6523 56.8809 56.8945 56.8809 57.2422C56.8809 57.4961 56.9707 57.7051 57.1504 57.8691C57.334 58.0293 57.5781 58.1094 57.8828 58.1094C58.2969 58.1094 58.6387 57.9648 58.9082 57.6758C59.1816 57.3828 59.3184 57.0156 59.3184 56.5742V56.0527ZM60.25 50.3574C60.25 50.8105 60.1484 51.1816 59.9453 51.4707C59.7461 51.7559 59.4746 51.8984 59.1309 51.8984C58.8496 51.8984 58.5273 51.8047 58.1641 51.6172C57.8594 51.4414 57.623 51.3535 57.4551 51.3535C57.127 51.3535 56.9629 51.5703 56.9629 52.0039H56.2891C56.2891 51.5391 56.3887 51.168 56.5879 50.8906C56.7871 50.6094 57.0664 50.4688 57.4258 50.4688C57.6914 50.4688 57.998 50.5684 58.3457 50.7676C58.627 50.9395 58.8711 51.0254 59.0781 51.0254C59.3945 51.0254 59.5527 50.8027 59.5527 50.3574H60.25ZM64.9551 59.1406C64.0293 59.1406 63.2891 58.8613 62.7344 58.3027C62.1836 57.7402 61.9082 56.9961 61.9082 56.0703C61.9082 55.0625 62.1953 54.2754 62.7695 53.709C63.3477 53.1426 64.125 52.8594 65.1016 52.8594C66.0391 52.8594 66.7695 53.1348 67.293 53.6855C67.8164 54.2363 68.0781 55 68.0781 55.9766C68.0781 56.9336 67.7949 57.7012 67.2285 58.2793C66.666 58.8535 65.9082 59.1406 64.9551 59.1406ZM65.0195 53.9434C64.4883 53.9434 64.0684 54.1289 63.7598 54.5C63.4512 54.8711 63.2969 55.3828 63.2969 56.0352C63.2969 56.6641 63.4531 57.1602 63.7656 57.5234C64.0781 57.8828 64.4961 58.0625 65.0195 58.0625C65.5547 58.0625 65.9648 57.8848 66.25 57.5293C66.5391 57.1738 66.6836 56.668 66.6836 56.0117C66.6836 55.3516 66.5391 54.8418 66.25 54.4824C65.9648 54.123 65.5547 53.9434 65.0195 53.9434ZM78.2266 59H76.8672V57.9805H76.8438C76.4062 58.7539 75.7324 59.1406 74.8223 59.1406C74.084 59.1406 73.4922 58.873 73.0469 58.3379C72.6055 57.7988 72.3848 57.0664 72.3848 56.1406C72.3848 55.1484 72.6289 54.3535 73.1172 53.7559C73.6094 53.1582 74.2637 52.8594 75.0801 52.8594C75.8887 52.8594 76.4766 53.1836 76.8438 53.832H76.8672V50.1172H78.2266V59ZM76.8848 56.2578V55.4727C76.8848 55.0469 76.7461 54.6855 76.4688 54.3887C76.1914 54.0918 75.8379 53.9434 75.4082 53.9434C74.9004 53.9434 74.5 54.1328 74.207 54.5117C73.918 54.8906 73.7734 55.416 73.7734 56.0879C73.7734 56.6973 73.9121 57.1797 74.1895 57.5352C74.4707 57.8867 74.8477 58.0625 75.3203 58.0625C75.7852 58.0625 76.1621 57.8926 76.4512 57.5527C76.7402 57.209 76.8848 56.7773 76.8848 56.2578ZM85.082 56.3691H80.9922C81.0078 56.9238 81.1777 57.3516 81.502 57.6523C81.8301 57.9531 82.2793 58.1035 82.8496 58.1035C83.4902 58.1035 84.0781 57.9121 84.6133 57.5293V58.625C84.0664 58.9688 83.3438 59.1406 82.4453 59.1406C81.5625 59.1406 80.8691 58.8691 80.3652 58.3262C79.8652 57.7793 79.6152 57.0117 79.6152 56.0234C79.6152 55.0898 79.8906 54.3301 80.4414 53.7441C80.9961 53.1543 81.6836 52.8594 82.5039 52.8594C83.3242 52.8594 83.959 53.123 84.4082 53.6504C84.8574 54.1777 85.082 54.9102 85.082 55.8477V56.3691ZM83.7695 55.4082C83.7656 54.9199 83.6504 54.541 83.4238 54.2715C83.1973 53.998 82.8848 53.8613 82.4863 53.8613C82.0957 53.8613 81.7637 54.0039 81.4902 54.2891C81.2207 54.5742 81.0547 54.9473 80.9922 55.4082H83.7695ZM86.002 58.8125V57.5527C86.5098 57.9395 87.0703 58.1328 87.6836 58.1328C88.5039 58.1328 88.9141 57.8906 88.9141 57.4062C88.9141 57.2695 88.8789 57.1543 88.8086 57.0605C88.7383 56.9629 88.6426 56.877 88.5215 56.8027C88.4043 56.7285 88.2637 56.6621 88.0996 56.6035C87.9395 56.5449 87.7598 56.4785 87.5605 56.4043C87.3145 56.3066 87.0918 56.2031 86.8926 56.0938C86.6973 55.9844 86.5332 55.8613 86.4004 55.7246C86.2715 55.584 86.1738 55.4258 86.1074 55.25C86.041 55.0742 86.0078 54.8691 86.0078 54.6348C86.0078 54.3457 86.0762 54.0918 86.2129 53.873C86.3496 53.6504 86.5332 53.4648 86.7637 53.3164C86.9941 53.1641 87.2559 53.0508 87.5488 52.9766C87.8418 52.8984 88.1445 52.8594 88.457 52.8594C89.0117 52.8594 89.5078 52.9434 89.9453 53.1113V54.3008C89.5234 54.0117 89.0391 53.8672 88.4922 53.8672C88.3203 53.8672 88.1641 53.8848 88.0234 53.9199C87.8867 53.9551 87.7695 54.0039 87.6719 54.0664C87.5742 54.1289 87.498 54.2051 87.4434 54.2949C87.3887 54.3809 87.3613 54.4766 87.3613 54.582C87.3613 54.7109 87.3887 54.8203 87.4434 54.9102C87.498 55 87.5781 55.0801 87.6836 55.1504C87.793 55.2168 87.9219 55.2793 88.0703 55.3379C88.2227 55.3926 88.3965 55.4531 88.5918 55.5195C88.8496 55.625 89.0801 55.7324 89.2832 55.8418C89.4902 55.9512 89.666 56.0762 89.8105 56.2168C89.9551 56.3535 90.0664 56.5137 90.1445 56.6973C90.2227 56.877 90.2617 57.0918 90.2617 57.3418C90.2617 57.6465 90.1914 57.9121 90.0508 58.1387C89.9102 58.3652 89.7227 58.5527 89.4883 58.7012C89.2539 58.8496 88.9824 58.959 88.6738 59.0293C88.3691 59.1035 88.0469 59.1406 87.707 59.1406C87.0508 59.1406 86.4824 59.0312 86.002 58.8125ZM96.6367 56.3691H92.5469C92.5625 56.9238 92.7324 57.3516 93.0566 57.6523C93.3848 57.9531 93.834 58.1035 94.4043 58.1035C95.0449 58.1035 95.6328 57.9121 96.168 57.5293V58.625C95.6211 58.9688 94.8984 59.1406 94 59.1406C93.1172 59.1406 92.4238 58.8691 91.9199 58.3262C91.4199 57.7793 91.1699 57.0117 91.1699 56.0234C91.1699 55.0898 91.4453 54.3301 91.9961 53.7441C92.5508 53.1543 93.2383 52.8594 94.0586 52.8594C94.8789 52.8594 95.5137 53.123 95.9629 53.6504C96.4121 54.1777 96.6367 54.9102 96.6367 55.8477V56.3691ZM95.3242 55.4082C95.3203 54.9199 95.2051 54.541 94.9785 54.2715C94.752 53.998 94.4395 53.8613 94.041 53.8613C93.6504 53.8613 93.3184 54.0039 93.0449 54.2891C92.7754 54.5742 92.6094 54.9473 92.5469 55.4082H95.3242ZM103.275 59H101.916V55.6191C101.916 54.498 101.52 53.9375 100.727 53.9375C100.312 53.9375 99.9707 54.0938 99.7012 54.4062C99.4316 54.7148 99.2969 55.1055 99.2969 55.5781V59H97.9316V53H99.2969V53.9961H99.3203C99.7695 53.2383 100.418 52.8594 101.266 52.8594C101.918 52.8594 102.416 53.0723 102.76 53.498C103.104 53.9199 103.275 54.5312 103.275 55.332V59ZM110.107 53L107.787 59H106.316L104.107 53H105.584L106.914 57.1953C107.016 57.5039 107.078 57.7734 107.102 58.0039H107.119C107.154 57.7148 107.209 57.4531 107.283 57.2188L108.678 53H110.107ZM113.6 59.1406C112.674 59.1406 111.934 58.8613 111.379 58.3027C110.828 57.7402 110.553 56.9961 110.553 56.0703C110.553 55.0625 110.84 54.2754 111.414 53.709C111.992 53.1426 112.77 52.8594 113.746 52.8594C114.684 52.8594 115.414 53.1348 115.938 53.6855C116.461 54.2363 116.723 55 116.723 55.9766C116.723 56.9336 116.439 57.7012 115.873 58.2793C115.311 58.8535 114.553 59.1406 113.6 59.1406ZM113.664 53.9434C113.133 53.9434 112.713 54.1289 112.404 54.5C112.096 54.8711 111.941 55.3828 111.941 56.0352C111.941 56.6641 112.098 57.1602 112.41 57.5234C112.723 57.8828 113.141 58.0625 113.664 58.0625C114.199 58.0625 114.609 57.8848 114.895 57.5293C115.184 57.1738 115.328 56.668 115.328 56.0117C115.328 55.3516 115.184 54.8418 114.895 54.4824C114.609 54.123 114.199 53.9434 113.664 53.9434ZM119.477 59H118.111V50.1172H119.477V59ZM126.42 53L124.1 59H122.629L120.42 53H121.896L123.227 57.1953C123.328 57.5039 123.391 57.7734 123.414 58.0039H123.432C123.467 57.7148 123.521 57.4531 123.596 57.2188L124.99 53H126.42ZM128.031 51.7402C127.809 51.7402 127.617 51.668 127.457 51.5234C127.301 51.3789 127.223 51.1953 127.223 50.9727C127.223 50.75 127.301 50.5645 127.457 50.416C127.617 50.2676 127.809 50.1934 128.031 50.1934C128.262 50.1934 128.457 50.2676 128.617 50.416C128.777 50.5645 128.857 50.75 128.857 50.9727C128.857 51.1836 128.777 51.3652 128.617 51.5176C128.457 51.666 128.262 51.7402 128.031 51.7402ZM128.705 59H127.346V53H128.705V59ZM135.941 59H134.582V57.9805H134.559C134.121 58.7539 133.447 59.1406 132.537 59.1406C131.799 59.1406 131.207 58.873 130.762 58.3379C130.32 57.7988 130.1 57.0664 130.1 56.1406C130.1 55.1484 130.344 54.3535 130.832 53.7559C131.324 53.1582 131.979 52.8594 132.795 52.8594C133.604 52.8594 134.191 53.1836 134.559 53.832H134.582V50.1172H135.941V59ZM134.6 56.2578V55.4727C134.6 55.0469 134.461 54.6855 134.184 54.3887C133.906 54.0918 133.553 53.9434 133.123 53.9434C132.615 53.9434 132.215 54.1328 131.922 54.5117C131.633 54.8906 131.488 55.416 131.488 56.0879C131.488 56.6973 131.627 57.1797 131.904 57.5352C132.186 57.8867 132.562 58.0625 133.035 58.0625C133.5 58.0625 133.877 57.8926 134.166 57.5527C134.455 57.209 134.6 56.7773 134.6 56.2578ZM142.322 59H141.004V58.0625H140.98C140.566 58.7812 139.959 59.1406 139.158 59.1406C138.568 59.1406 138.105 58.9805 137.77 58.6602C137.438 58.3398 137.271 57.916 137.271 57.3887C137.271 56.2559 137.924 55.5957 139.229 55.4082L141.01 55.1562C141.01 54.3008 140.604 53.873 139.791 53.873C139.076 53.873 138.432 54.1191 137.857 54.6113V53.4219C138.49 53.0469 139.221 52.8594 140.049 52.8594C141.564 52.8594 142.322 53.6055 142.322 55.0977V59ZM141.01 56.0527L139.75 56.2285C139.359 56.2793 139.064 56.375 138.865 56.5156C138.67 56.6523 138.572 56.8945 138.572 57.2422C138.572 57.4961 138.662 57.7051 138.842 57.8691C139.025 58.0293 139.27 58.1094 139.574 58.1094C139.988 58.1094 140.33 57.9648 140.6 57.6758C140.873 57.3828 141.01 57.0156 141.01 56.5742V56.0527ZM151.586 58.7246C151.105 59.002 150.537 59.1406 149.881 59.1406C148.99 59.1406 148.271 58.8633 147.725 58.3086C147.178 57.75 146.904 57.0273 146.904 56.1406C146.904 55.1523 147.197 54.3594 147.783 53.7617C148.373 53.1602 149.16 52.8594 150.145 52.8594C150.691 52.8594 151.174 52.9551 151.592 53.1465V54.4121C151.174 54.0996 150.729 53.9434 150.256 53.9434C149.682 53.9434 149.211 54.1387 148.844 54.5293C148.477 54.916 148.293 55.4238 148.293 56.0527C148.293 56.6738 148.465 57.1641 148.809 57.5234C149.156 57.8828 149.621 58.0625 150.203 58.0625C150.691 58.0625 151.152 57.8887 151.586 57.541V58.7246ZM155.6 59.1406C154.674 59.1406 153.934 58.8613 153.379 58.3027C152.828 57.7402 152.553 56.9961 152.553 56.0703C152.553 55.0625 152.84 54.2754 153.414 53.709C153.992 53.1426 154.77 52.8594 155.746 52.8594C156.684 52.8594 157.414 53.1348 157.938 53.6855C158.461 54.2363 158.723 55 158.723 55.9766C158.723 56.9336 158.439 57.7012 157.873 58.2793C157.311 58.8535 156.553 59.1406 155.6 59.1406ZM155.664 53.9434C155.133 53.9434 154.713 54.1289 154.404 54.5C154.096 54.8711 153.941 55.3828 153.941 56.0352C153.941 56.6641 154.098 57.1602 154.41 57.5234C154.723 57.8828 155.141 58.0625 155.664 58.0625C156.199 58.0625 156.609 57.8848 156.895 57.5293C157.184 57.1738 157.328 56.668 157.328 56.0117C157.328 55.3516 157.184 54.8418 156.895 54.4824C156.609 54.123 156.199 53.9434 155.664 53.9434ZM169.082 59H167.723V55.7305C167.723 55.1016 167.633 54.6465 167.453 54.3652C167.277 54.084 166.979 53.9434 166.557 53.9434C166.201 53.9434 165.898 54.1211 165.648 54.4766C165.402 54.832 165.279 55.2578 165.279 55.7539V59H163.914V55.6191C163.914 54.502 163.52 53.9434 162.73 53.9434C162.363 53.9434 162.061 54.1113 161.822 54.4473C161.588 54.7832 161.471 55.2188 161.471 55.7539V59H160.111V53H161.471V53.9492H161.494C161.928 53.2227 162.559 52.8594 163.387 52.8594C163.801 52.8594 164.162 52.9746 164.471 53.2051C164.783 53.4316 164.996 53.7305 165.109 54.1016C165.555 53.2734 166.219 52.8594 167.102 52.8594C168.422 52.8594 169.082 53.6738 169.082 55.3027V59ZM180.689 59H179.061L177.719 56.75C177.598 56.543 177.479 56.3672 177.361 56.2227C177.248 56.0742 177.131 55.9531 177.01 55.8594C176.893 55.7656 176.764 55.6973 176.623 55.6543C176.482 55.6113 176.324 55.5898 176.148 55.5898H175.586V59H174.197V50.5977H176.963C177.357 50.5977 177.721 50.6445 178.053 50.7383C178.385 50.832 178.674 50.9746 178.92 51.166C179.166 51.3535 179.357 51.5898 179.494 51.875C179.635 52.1562 179.705 52.4863 179.705 52.8652C179.705 53.1621 179.66 53.4355 179.57 53.6855C179.484 53.9316 179.359 54.1523 179.195 54.3477C179.035 54.5391 178.84 54.7031 178.609 54.8398C178.383 54.9766 178.127 55.082 177.842 55.1562V55.1797C177.994 55.2656 178.127 55.3613 178.24 55.4668C178.354 55.5684 178.461 55.6738 178.562 55.7832C178.664 55.8926 178.764 56.0176 178.861 56.1582C178.963 56.2949 179.074 56.4551 179.195 56.6387L180.689 59ZM175.586 51.7285V54.459H176.746C176.961 54.459 177.158 54.4258 177.338 54.3594C177.521 54.293 177.68 54.1973 177.812 54.0723C177.945 53.9473 178.049 53.7949 178.123 53.6152C178.197 53.4355 178.234 53.2344 178.234 53.0117C178.234 52.6094 178.107 52.2949 177.854 52.0684C177.6 51.8418 177.234 51.7285 176.758 51.7285H175.586ZM186.285 56.3691H182.195C182.211 56.9238 182.381 57.3516 182.705 57.6523C183.033 57.9531 183.482 58.1035 184.053 58.1035C184.693 58.1035 185.281 57.9121 185.816 57.5293V58.625C185.27 58.9688 184.547 59.1406 183.648 59.1406C182.766 59.1406 182.072 58.8691 181.568 58.3262C181.068 57.7793 180.818 57.0117 180.818 56.0234C180.818 55.0898 181.094 54.3301 181.645 53.7441C182.199 53.1543 182.887 52.8594 183.707 52.8594C184.527 52.8594 185.162 53.123 185.611 53.6504C186.061 54.1777 186.285 54.9102 186.285 55.8477V56.3691ZM184.973 55.4082C184.969 54.9199 184.854 54.541 184.627 54.2715C184.4 53.998 184.088 53.8613 183.689 53.8613C183.299 53.8613 182.967 54.0039 182.693 54.2891C182.424 54.5742 182.258 54.9473 182.195 55.4082H184.973ZM192.186 59H190.867V58.0625H190.844C190.43 58.7812 189.822 59.1406 189.021 59.1406C188.432 59.1406 187.969 58.9805 187.633 58.6602C187.301 58.3398 187.135 57.916 187.135 57.3887C187.135 56.2559 187.787 55.5957 189.092 55.4082L190.873 55.1562C190.873 54.3008 190.467 53.873 189.654 53.873C188.939 53.873 188.295 54.1191 187.721 54.6113V53.4219C188.354 53.0469 189.084 52.8594 189.912 52.8594C191.428 52.8594 192.186 53.6055 192.186 55.0977V59ZM190.873 56.0527L189.613 56.2285C189.223 56.2793 188.928 56.375 188.729 56.5156C188.533 56.6523 188.436 56.8945 188.436 57.2422C188.436 57.4961 188.525 57.7051 188.705 57.8691C188.889 58.0293 189.133 58.1094 189.438 58.1094C189.852 58.1094 190.193 57.9648 190.463 57.6758C190.736 57.3828 190.873 57.0156 190.873 56.5742V56.0527ZM198.145 58.7246C197.664 59.002 197.096 59.1406 196.439 59.1406C195.549 59.1406 194.83 58.8633 194.283 58.3086C193.736 57.75 193.463 57.0273 193.463 56.1406C193.463 55.1523 193.756 54.3594 194.342 53.7617C194.932 53.1602 195.719 52.8594 196.703 52.8594C197.25 52.8594 197.732 52.9551 198.15 53.1465V54.4121C197.732 54.0996 197.287 53.9434 196.814 53.9434C196.24 53.9434 195.77 54.1387 195.402 54.5293C195.035 54.916 194.852 55.4238 194.852 56.0527C194.852 56.6738 195.023 57.1641 195.367 57.5234C195.715 57.8828 196.18 58.0625 196.762 58.0625C197.25 58.0625 197.711 57.8887 198.145 57.541V58.7246ZM202.662 58.9355C202.396 59.0684 202.047 59.1348 201.613 59.1348C200.449 59.1348 199.867 58.5762 199.867 57.459V54.0664H198.865V53H199.867V51.6113L201.227 51.2246V53H202.662V54.0664H201.227V57.0664C201.227 57.4219 201.291 57.6758 201.42 57.8281C201.549 57.9805 201.764 58.0566 202.064 58.0566C202.295 58.0566 202.494 57.9902 202.662 57.8574V58.9355ZM204.396 59.1289C204.162 59.1289 203.963 59.0527 203.799 58.9004C203.635 58.7441 203.553 58.5586 203.553 58.3438C203.553 58.125 203.635 57.9375 203.799 57.7812C203.963 57.625 204.162 57.5469 204.396 57.5469C204.635 57.5469 204.836 57.625 205 57.7812C205.168 57.9375 205.252 58.125 205.252 58.3438C205.252 58.5586 205.168 58.7441 205 58.9004C204.836 59.0527 204.635 59.1289 204.396 59.1289ZM208.088 58.748C208.088 59.7324 207.881 60.4902 207.467 61.0215C207.053 61.5566 206.461 61.8242 205.691 61.8242C205.406 61.8242 205.129 61.7617 204.859 61.6367V60.4707C205.113 60.6465 205.354 60.7344 205.58 60.7344C206.346 60.7344 206.729 60.0586 206.729 58.707V53H208.088V58.748ZM207.42 51.7402C207.197 51.7402 207.006 51.668 206.846 51.5234C206.689 51.3789 206.611 51.1953 206.611 50.9727C206.611 50.75 206.689 50.5645 206.846 50.416C207.006 50.2676 207.197 50.1934 207.42 50.1934C207.646 50.1934 207.84 50.2676 208 50.416C208.16 50.5645 208.24 50.75 208.24 50.9727C208.24 51.1836 208.16 51.3652 208 51.5176C207.84 51.666 207.646 51.7402 207.42 51.7402ZM209.494 58.8125V57.5527C210.002 57.9395 210.562 58.1328 211.176 58.1328C211.996 58.1328 212.406 57.8906 212.406 57.4062C212.406 57.2695 212.371 57.1543 212.301 57.0605C212.23 56.9629 212.135 56.877 212.014 56.8027C211.896 56.7285 211.756 56.6621 211.592 56.6035C211.432 56.5449 211.252 56.4785 211.053 56.4043C210.807 56.3066 210.584 56.2031 210.385 56.0938C210.189 55.9844 210.025 55.8613 209.893 55.7246C209.764 55.584 209.666 55.4258 209.6 55.25C209.533 55.0742 209.5 54.8691 209.5 54.6348C209.5 54.3457 209.568 54.0918 209.705 53.873C209.842 53.6504 210.025 53.4648 210.256 53.3164C210.486 53.1641 210.748 53.0508 211.041 52.9766C211.334 52.8984 211.637 52.8594 211.949 52.8594C212.504 52.8594 213 52.9434 213.438 53.1113V54.3008C213.016 54.0117 212.531 53.8672 211.984 53.8672C211.812 53.8672 211.656 53.8848 211.516 53.9199C211.379 53.9551 211.262 54.0039 211.164 54.0664C211.066 54.1289 210.99 54.2051 210.936 54.2949C210.881 54.3809 210.854 54.4766 210.854 54.582C210.854 54.7109 210.881 54.8203 210.936 54.9102C210.99 55 211.07 55.0801 211.176 55.1504C211.285 55.2168 211.414 55.2793 211.562 55.3379C211.715 55.3926 211.889 55.4531 212.084 55.5195C212.342 55.625 212.572 55.7324 212.775 55.8418C212.982 55.9512 213.158 56.0762 213.303 56.2168C213.447 56.3535 213.559 56.5137 213.637 56.6973C213.715 56.877 213.754 57.0918 213.754 57.3418C213.754 57.6465 213.684 57.9121 213.543 58.1387C213.402 58.3652 213.215 58.5527 212.98 58.7012C212.746 58.8496 212.475 58.959 212.166 59.0293C211.861 59.1035 211.539 59.1406 211.199 59.1406C210.543 59.1406 209.975 59.0312 209.494 58.8125ZM223.434 56.3691H219.344C219.359 56.9238 219.529 57.3516 219.854 57.6523C220.182 57.9531 220.631 58.1035 221.201 58.1035C221.842 58.1035 222.43 57.9121 222.965 57.5293V58.625C222.418 58.9688 221.695 59.1406 220.797 59.1406C219.914 59.1406 219.221 58.8691 218.717 58.3262C218.217 57.7793 217.967 57.0117 217.967 56.0234C217.967 55.0898 218.242 54.3301 218.793 53.7441C219.348 53.1543 220.035 52.8594 220.855 52.8594C221.676 52.8594 222.311 53.123 222.76 53.6504C223.209 54.1777 223.434 54.9102 223.434 55.8477V56.3691ZM222.121 55.4082C222.117 54.9199 222.002 54.541 221.775 54.2715C221.549 53.998 221.236 53.8613 220.838 53.8613C220.447 53.8613 220.115 54.0039 219.842 54.2891C219.572 54.5742 219.406 54.9473 219.344 55.4082H222.121ZM234.678 59H233.049L231.707 56.75C231.586 56.543 231.467 56.3672 231.35 56.2227C231.236 56.0742 231.119 55.9531 230.998 55.8594C230.881 55.7656 230.752 55.6973 230.611 55.6543C230.471 55.6113 230.312 55.5898 230.137 55.5898H229.574V59H228.186V50.5977H230.951C231.346 50.5977 231.709 50.6445 232.041 50.7383C232.373 50.832 232.662 50.9746 232.908 51.166C233.154 51.3535 233.346 51.5898 233.482 51.875C233.623 52.1562 233.693 52.4863 233.693 52.8652C233.693 53.1621 233.648 53.4355 233.559 53.6855C233.473 53.9316 233.348 54.1523 233.184 54.3477C233.023 54.5391 232.828 54.7031 232.598 54.8398C232.371 54.9766 232.115 55.082 231.83 55.1562V55.1797C231.982 55.2656 232.115 55.3613 232.229 55.4668C232.342 55.5684 232.449 55.6738 232.551 55.7832C232.652 55.8926 232.752 56.0176 232.85 56.1582C232.951 56.2949 233.062 56.4551 233.184 56.6387L234.678 59ZM229.574 51.7285V54.459H230.734C230.949 54.459 231.146 54.4258 231.326 54.3594C231.51 54.293 231.668 54.1973 231.801 54.0723C231.934 53.9473 232.037 53.7949 232.111 53.6152C232.186 53.4355 232.223 53.2344 232.223 53.0117C232.223 52.6094 232.096 52.2949 231.842 52.0684C231.588 51.8418 231.223 51.7285 230.746 51.7285H229.574ZM240.273 56.3691H236.184C236.199 56.9238 236.369 57.3516 236.693 57.6523C237.021 57.9531 237.471 58.1035 238.041 58.1035C238.682 58.1035 239.27 57.9121 239.805 57.5293V58.625C239.258 58.9688 238.535 59.1406 237.637 59.1406C236.754 59.1406 236.061 58.8691 235.557 58.3262C235.057 57.7793 234.807 57.0117 234.807 56.0234C234.807 55.0898 235.082 54.3301 235.633 53.7441C236.188 53.1543 236.875 52.8594 237.695 52.8594C238.516 52.8594 239.15 53.123 239.6 53.6504C240.049 54.1777 240.273 54.9102 240.273 55.8477V56.3691ZM238.961 55.4082C238.957 54.9199 238.842 54.541 238.615 54.2715C238.389 53.998 238.076 53.8613 237.678 53.8613C237.287 53.8613 236.955 54.0039 236.682 54.2891C236.412 54.5742 236.246 54.9473 236.184 55.4082H238.961ZM247.023 59H245.664V57.9805H245.641C245.203 58.7539 244.529 59.1406 243.619 59.1406C242.881 59.1406 242.289 58.873 241.844 58.3379C241.402 57.7988 241.182 57.0664 241.182 56.1406C241.182 55.1484 241.426 54.3535 241.914 53.7559C242.406 53.1582 243.061 52.8594 243.877 52.8594C244.686 52.8594 245.273 53.1836 245.641 53.832H245.664V50.1172H247.023V59ZM245.682 56.2578V55.4727C245.682 55.0469 245.543 54.6855 245.266 54.3887C244.988 54.0918 244.635 53.9434 244.205 53.9434C243.697 53.9434 243.297 54.1328 243.004 54.5117C242.715 54.8906 242.57 55.416 242.57 56.0879C242.57 56.6973 242.709 57.1797 242.986 57.5352C243.268 57.8867 243.645 58.0625 244.117 58.0625C244.582 58.0625 244.959 57.8926 245.248 57.5527C245.537 57.209 245.682 56.7773 245.682 56.2578ZM254.031 59H252.672V58.0508H252.648C252.254 58.7773 251.641 59.1406 250.809 59.1406C249.391 59.1406 248.682 58.2891 248.682 56.5859V53H250.041V56.4453C250.041 57.5234 250.457 58.0625 251.289 58.0625C251.691 58.0625 252.021 57.9141 252.279 57.6172C252.541 57.3203 252.672 56.9316 252.672 56.4512V53H254.031V59ZM260.822 53L258.824 56.0352L260.799 59H259.223L258.168 57.1426C258.102 57.0293 258.023 56.8848 257.934 56.709H257.91C257.895 56.7441 257.812 56.8887 257.664 57.1426L256.592 59H255.021L257.061 56.0586L255.127 53H256.709L257.746 54.9512C257.824 55.0957 257.9 55.2441 257.975 55.3965H257.992L259.334 53H260.822ZM263.09 57.5996L262.182 60.5234H261.162L261.807 57.5996H263.09ZM272.312 58.7246C271.832 59.002 271.264 59.1406 270.607 59.1406C269.717 59.1406 268.998 58.8633 268.451 58.3086C267.904 57.75 267.631 57.0273 267.631 56.1406C267.631 55.1523 267.924 54.3594 268.51 53.7617C269.1 53.1602 269.887 52.8594 270.871 52.8594C271.418 52.8594 271.9 52.9551 272.318 53.1465V54.4121C271.9 54.0996 271.455 53.9434 270.982 53.9434C270.408 53.9434 269.938 54.1387 269.57 54.5293C269.203 54.916 269.02 55.4238 269.02 56.0527C269.02 56.6738 269.191 57.1641 269.535 57.5234C269.883 57.8828 270.348 58.0625 270.93 58.0625C271.418 58.0625 271.879 57.8887 272.312 57.541V58.7246ZM276.326 59.1406C275.4 59.1406 274.66 58.8613 274.105 58.3027C273.555 57.7402 273.279 56.9961 273.279 56.0703C273.279 55.0625 273.566 54.2754 274.141 53.709C274.719 53.1426 275.496 52.8594 276.473 52.8594C277.41 52.8594 278.141 53.1348 278.664 53.6855C279.188 54.2363 279.449 55 279.449 55.9766C279.449 56.9336 279.166 57.7012 278.6 58.2793C278.037 58.8535 277.279 59.1406 276.326 59.1406ZM276.391 53.9434C275.859 53.9434 275.439 54.1289 275.131 54.5C274.822 54.8711 274.668 55.3828 274.668 56.0352C274.668 56.6641 274.824 57.1602 275.137 57.5234C275.449 57.8828 275.867 58.0625 276.391 58.0625C276.926 58.0625 277.336 57.8848 277.621 57.5293C277.91 57.1738 278.055 56.668 278.055 56.0117C278.055 55.3516 277.91 54.8418 277.621 54.4824C277.336 54.123 276.926 53.9434 276.391 53.9434ZM289.809 59H288.449V55.7305C288.449 55.1016 288.359 54.6465 288.18 54.3652C288.004 54.084 287.705 53.9434 287.283 53.9434C286.928 53.9434 286.625 54.1211 286.375 54.4766C286.129 54.832 286.006 55.2578 286.006 55.7539V59H284.641V55.6191C284.641 54.502 284.246 53.9434 283.457 53.9434C283.09 53.9434 282.787 54.1113 282.549 54.4473C282.314 54.7832 282.197 55.2188 282.197 55.7539V59H280.838V53H282.197V53.9492H282.221C282.654 53.2227 283.285 52.8594 284.113 52.8594C284.527 52.8594 284.889 52.9746 285.197 53.2051C285.51 53.4316 285.723 53.7305 285.836 54.1016C286.281 53.2734 286.945 52.8594 287.828 52.8594C289.148 52.8594 289.809 53.6738 289.809 55.3027V59ZM297.432 59.1406C296.506 59.1406 295.766 58.8613 295.211 58.3027C294.66 57.7402 294.385 56.9961 294.385 56.0703C294.385 55.0625 294.672 54.2754 295.246 53.709C295.824 53.1426 296.602 52.8594 297.578 52.8594C298.516 52.8594 299.246 53.1348 299.77 53.6855C300.293 54.2363 300.555 55 300.555 55.9766C300.555 56.9336 300.271 57.7012 299.705 58.2793C299.143 58.8535 298.385 59.1406 297.432 59.1406ZM297.496 53.9434C296.965 53.9434 296.545 54.1289 296.236 54.5C295.928 54.8711 295.773 55.3828 295.773 56.0352C295.773 56.6641 295.93 57.1602 296.242 57.5234C296.555 57.8828 296.973 58.0625 297.496 58.0625C298.031 58.0625 298.441 57.8848 298.727 57.5293C299.016 57.1738 299.16 56.668 299.16 56.0117C299.16 55.3516 299.016 54.8418 298.727 54.4824C298.441 54.123 298.031 53.9434 297.496 53.9434ZM308.641 51.2246C308.457 51.1191 308.248 51.0664 308.014 51.0664C307.354 51.0664 307.023 51.4395 307.023 52.1855V53H308.418V54.0664H307.029V59H305.67V54.0664H304.645V53H305.67V52.0273C305.67 51.3945 305.877 50.8965 306.291 50.5332C306.705 50.166 307.223 49.9824 307.844 49.9824C308.18 49.9824 308.445 50.0195 308.641 50.0938V51.2246ZM312.045 59.1406C311.119 59.1406 310.379 58.8613 309.824 58.3027C309.273 57.7402 308.998 56.9961 308.998 56.0703C308.998 55.0625 309.285 54.2754 309.859 53.709C310.438 53.1426 311.215 52.8594 312.191 52.8594C313.129 52.8594 313.859 53.1348 314.383 53.6855C314.906 54.2363 315.168 55 315.168 55.9766C315.168 56.9336 314.885 57.7012 314.318 58.2793C313.756 58.8535 312.998 59.1406 312.045 59.1406ZM312.109 53.9434C311.578 53.9434 311.158 54.1289 310.85 54.5C310.541 54.8711 310.387 55.3828 310.387 56.0352C310.387 56.6641 310.543 57.1602 310.855 57.5234C311.168 57.8828 311.586 58.0625 312.109 58.0625C312.645 58.0625 313.055 57.8848 313.34 57.5293C313.629 57.1738 313.773 56.668 313.773 56.0117C313.773 55.3516 313.629 54.8418 313.34 54.4824C313.055 54.123 312.645 53.9434 312.109 53.9434ZM320.852 58.7246C320.371 59.002 319.803 59.1406 319.146 59.1406C318.256 59.1406 317.537 58.8633 316.99 58.3086C316.443 57.75 316.17 57.0273 316.17 56.1406C316.17 55.1523 316.463 54.3594 317.049 53.7617C317.639 53.1602 318.426 52.8594 319.41 52.8594C319.957 52.8594 320.439 52.9551 320.857 53.1465V54.4121C320.439 54.0996 319.994 53.9434 319.521 53.9434C318.947 53.9434 318.477 54.1387 318.109 54.5293C317.742 54.916 317.559 55.4238 317.559 56.0527C317.559 56.6738 317.73 57.1641 318.074 57.5234C318.422 57.8828 318.887 58.0625 319.469 58.0625C319.957 58.0625 320.418 57.8887 320.852 57.541V58.7246ZM324.865 59.1406C323.939 59.1406 323.199 58.8613 322.645 58.3027C322.094 57.7402 321.818 56.9961 321.818 56.0703C321.818 55.0625 322.105 54.2754 322.68 53.709C323.258 53.1426 324.035 52.8594 325.012 52.8594C325.949 52.8594 326.68 53.1348 327.203 53.6855C327.727 54.2363 327.988 55 327.988 55.9766C327.988 56.9336 327.705 57.7012 327.139 58.2793C326.576 58.8535 325.818 59.1406 324.865 59.1406ZM324.93 53.9434C324.398 53.9434 323.979 54.1289 323.67 54.5C323.361 54.8711 323.207 55.3828 323.207 56.0352C323.207 56.6641 323.363 57.1602 323.676 57.5234C323.988 57.8828 324.406 58.0625 324.93 58.0625C325.465 58.0625 325.875 57.8848 326.16 57.5293C326.449 57.1738 326.594 56.668 326.594 56.0117C326.594 55.3516 326.449 54.8418 326.16 54.4824C325.875 54.123 325.465 53.9434 324.93 53.9434ZM21.9648 72.3691H17.875C17.8906 72.9238 18.0605 73.3516 18.3848 73.6523C18.7129 73.9531 19.1621 74.1035 19.7324 74.1035C20.373 74.1035 20.9609 73.9121 21.4961 73.5293V74.625C20.9492 74.9688 20.2266 75.1406 19.3281 75.1406C18.4453 75.1406 17.752 74.8691 17.248 74.3262C16.748 73.7793 16.498 73.0117 16.498 72.0234C16.498 71.0898 16.7734 70.3301 17.3242 69.7441C17.8789 69.1543 18.5664 68.8594 19.3867 68.8594C20.207 68.8594 20.8418 69.123 21.291 69.6504C21.7402 70.1777 21.9648 70.9102 21.9648 71.8477V72.3691ZM20.6523 71.4082C20.6484 70.9199 20.5332 70.541 20.3066 70.2715C20.0801 69.998 19.7676 69.8613 19.3691 69.8613C18.9785 69.8613 18.6465 70.0039 18.373 70.2891C18.1035 70.5742 17.9375 70.9473 17.875 71.4082H20.6523ZM32.2305 75H30.8711V71.7305C30.8711 71.1016 30.7812 70.6465 30.6016 70.3652C30.4258 70.084 30.127 69.9434 29.7051 69.9434C29.3496 69.9434 29.0469 70.1211 28.7969 70.4766C28.5508 70.832 28.4277 71.2578 28.4277 71.7539V75H27.0625V71.6191C27.0625 70.502 26.668 69.9434 25.8789 69.9434C25.5117 69.9434 25.209 70.1113 24.9707 70.4473C24.7363 70.7832 24.6191 71.2188 24.6191 71.7539V75H23.2598V69H24.6191V69.9492H24.6426C25.0762 69.2227 25.707 68.8594 26.5352 68.8594C26.9492 68.8594 27.3105 68.9746 27.6191 69.2051C27.9316 69.4316 28.1445 69.7305 28.2578 70.1016C28.7031 69.2734 29.3672 68.8594 30.25 68.8594C31.5703 68.8594 32.2305 69.6738 32.2305 71.3027V75ZM41.7988 75H40.4805V74.0625H40.457C40.043 74.7812 39.4355 75.1406 38.6348 75.1406C38.0449 75.1406 37.582 74.9805 37.2461 74.6602C36.9141 74.3398 36.748 73.916 36.748 73.3887C36.748 72.2559 37.4004 71.5957 38.7051 71.4082L40.4863 71.1562C40.4863 70.3008 40.0801 69.873 39.2676 69.873C38.5527 69.873 37.9082 70.1191 37.334 70.6113V69.4219C37.9668 69.0469 38.6973 68.8594 39.5254 68.8594C41.041 68.8594 41.7988 69.6055 41.7988 71.0977V75ZM40.4863 72.0527L39.2266 72.2285C38.8359 72.2793 38.541 72.375 38.3418 72.5156C38.1465 72.6523 38.0488 72.8945 38.0488 73.2422C38.0488 73.4961 38.1387 73.7051 38.3184 73.8691C38.502 74.0293 38.7461 74.1094 39.0508 74.1094C39.4648 74.1094 39.8066 73.9648 40.0762 73.6758C40.3496 73.3828 40.4863 73.0156 40.4863 72.5742V72.0527ZM44.8223 74.748C44.8223 75.7324 44.6152 76.4902 44.2012 77.0215C43.7871 77.5566 43.1953 77.8242 42.4258 77.8242C42.1406 77.8242 41.8633 77.7617 41.5938 77.6367V76.4707C41.8477 76.6465 42.0879 76.7344 42.3145 76.7344C43.0801 76.7344 43.4629 76.0586 43.4629 74.707V69H44.8223V74.748ZM44.1543 67.7402C43.9316 67.7402 43.7402 67.668 43.5801 67.5234C43.4238 67.3789 43.3457 67.1953 43.3457 66.9727C43.3457 66.75 43.4238 66.5645 43.5801 66.416C43.7402 66.2676 43.9316 66.1934 44.1543 66.1934C44.3809 66.1934 44.5742 66.2676 44.7344 66.416C44.8945 66.5645 44.9746 66.75 44.9746 66.9727C44.9746 67.1836 44.8945 67.3652 44.7344 67.5176C44.5742 67.666 44.3809 67.7402 44.1543 67.7402ZM51.8359 75H50.4766V74.0508H50.4531C50.0586 74.7773 49.4453 75.1406 48.6133 75.1406C47.1953 75.1406 46.4863 74.2891 46.4863 72.5859V69H47.8457V72.4453C47.8457 73.5234 48.2617 74.0625 49.0938 74.0625C49.4961 74.0625 49.8262 73.9141 50.084 73.6172C50.3457 73.3203 50.4766 72.9316 50.4766 72.4512V69H51.8359V75ZM59.0664 75H57.707V73.9805H57.6836C57.2461 74.7539 56.5723 75.1406 55.6621 75.1406C54.9238 75.1406 54.332 74.873 53.8867 74.3379C53.4453 73.7988 53.2246 73.0664 53.2246 72.1406C53.2246 71.1484 53.4688 70.3535 53.957 69.7559C54.4492 69.1582 55.1035 68.8594 55.9199 68.8594C56.7285 68.8594 57.3164 69.1836 57.6836 69.832H57.707V66.1172H59.0664V75ZM57.7246 72.2578V71.4727C57.7246 71.0469 57.5859 70.6855 57.3086 70.3887C57.0312 70.0918 56.6777 69.9434 56.248 69.9434C55.7402 69.9434 55.3398 70.1328 55.0469 70.5117C54.7578 70.8906 54.6133 71.416 54.6133 72.0879C54.6133 72.6973 54.752 73.1797 55.0293 73.5352C55.3105 73.8867 55.6875 74.0625 56.1602 74.0625C56.625 74.0625 57.002 73.8926 57.291 73.5527C57.5801 73.209 57.7246 72.7773 57.7246 72.2578ZM65.4473 75H64.1289V74.0625H64.1055C63.6914 74.7812 63.084 75.1406 62.2832 75.1406C61.6934 75.1406 61.2305 74.9805 60.8945 74.6602C60.5625 74.3398 60.3965 73.916 60.3965 73.3887C60.3965 72.2559 61.0488 71.5957 62.3535 71.4082L64.1348 71.1562C64.1348 70.3008 63.7285 69.873 62.916 69.873C62.2012 69.873 61.5566 70.1191 60.9824 70.6113V69.4219C61.6152 69.0469 62.3457 68.8594 63.1738 68.8594C64.6895 68.8594 65.4473 69.6055 65.4473 71.0977V75ZM64.1348 72.0527L62.875 72.2285C62.4844 72.2793 62.1895 72.375 61.9902 72.5156C61.7949 72.6523 61.6973 72.8945 61.6973 73.2422C61.6973 73.4961 61.7871 73.7051 61.9668 73.8691C62.1504 74.0293 62.3945 74.1094 62.6992 74.1094C63.1133 74.1094 63.4551 73.9648 63.7246 73.6758C63.998 73.3828 64.1348 73.0156 64.1348 72.5742V72.0527ZM70.5918 70.2949C70.4277 70.166 70.1914 70.1016 69.8828 70.1016C69.4805 70.1016 69.1445 70.2832 68.875 70.6465C68.6055 71.0098 68.4707 71.5039 68.4707 72.1289V75H67.1113V69H68.4707V70.2363H68.4941C68.627 69.8145 68.8301 69.4863 69.1035 69.252C69.3809 69.0137 69.6895 68.8945 70.0293 68.8945C70.2754 68.8945 70.4629 68.9316 70.5918 69.0059V70.2949ZM80.0898 75H78.7305V74.0508H78.707C78.3125 74.7773 77.6992 75.1406 76.8672 75.1406C75.4492 75.1406 74.7402 74.2891 74.7402 72.5859V69H76.0996V72.4453C76.0996 73.5234 76.5156 74.0625 77.3477 74.0625C77.75 74.0625 78.0801 73.9141 78.3379 73.6172C78.5996 73.3203 78.7305 72.9316 78.7305 72.4512V69H80.0898V75ZM81.4902 74.8125V73.5527C81.998 73.9395 82.5586 74.1328 83.1719 74.1328C83.9922 74.1328 84.4023 73.8906 84.4023 73.4062C84.4023 73.2695 84.3672 73.1543 84.2969 73.0605C84.2266 72.9629 84.1309 72.877 84.0098 72.8027C83.8926 72.7285 83.752 72.6621 83.5879 72.6035C83.4277 72.5449 83.248 72.4785 83.0488 72.4043C82.8027 72.3066 82.5801 72.2031 82.3809 72.0938C82.1855 71.9844 82.0215 71.8613 81.8887 71.7246C81.7598 71.584 81.6621 71.4258 81.5957 71.25C81.5293 71.0742 81.4961 70.8691 81.4961 70.6348C81.4961 70.3457 81.5645 70.0918 81.7012 69.873C81.8379 69.6504 82.0215 69.4648 82.252 69.3164C82.4824 69.1641 82.7441 69.0508 83.0371 68.9766C83.3301 68.8984 83.6328 68.8594 83.9453 68.8594C84.5 68.8594 84.9961 68.9434 85.4336 69.1113V70.3008C85.0117 70.0117 84.5273 69.8672 83.9805 69.8672C83.8086 69.8672 83.6523 69.8848 83.5117 69.9199C83.375 69.9551 83.2578 70.0039 83.1602 70.0664C83.0625 70.1289 82.9863 70.2051 82.9316 70.2949C82.877 70.3809 82.8496 70.4766 82.8496 70.582C82.8496 70.7109 82.877 70.8203 82.9316 70.9102C82.9863 71 83.0664 71.0801 83.1719 71.1504C83.2812 71.2168 83.4102 71.2793 83.5586 71.3379C83.7109 71.3926 83.8848 71.4531 84.0801 71.5195C84.3379 71.625 84.5684 71.7324 84.7715 71.8418C84.9785 71.9512 85.1543 72.0762 85.2988 72.2168C85.4434 72.3535 85.5547 72.5137 85.6328 72.6973C85.7109 72.877 85.75 73.0918 85.75 73.3418C85.75 73.6465 85.6797 73.9121 85.5391 74.1387C85.3984 74.3652 85.2109 74.5527 84.9766 74.7012C84.7422 74.8496 84.4707 74.959 84.1621 75.0293C83.8574 75.1035 83.5352 75.1406 83.1953 75.1406C82.5391 75.1406 81.9707 75.0312 81.4902 74.8125ZM92.2773 75H90.918V74.0508H90.8945C90.5 74.7773 89.8867 75.1406 89.0547 75.1406C87.6367 75.1406 86.9277 74.2891 86.9277 72.5859V69H88.2871V72.4453C88.2871 73.5234 88.7031 74.0625 89.5352 74.0625C89.9375 74.0625 90.2676 73.9141 90.5254 73.6172C90.7871 73.3203 90.918 72.9316 90.918 72.4512V69H92.2773V75ZM98.6582 75H97.3398V74.0625H97.3164C96.9023 74.7812 96.2949 75.1406 95.4941 75.1406C94.9043 75.1406 94.4414 74.9805 94.1055 74.6602C93.7734 74.3398 93.6074 73.916 93.6074 73.3887C93.6074 72.2559 94.2598 71.5957 95.5645 71.4082L97.3457 71.1562C97.3457 70.3008 96.9395 69.873 96.127 69.873C95.4121 69.873 94.7676 70.1191 94.1934 70.6113V69.4219C94.8262 69.0469 95.5566 68.8594 96.3848 68.8594C97.9004 68.8594 98.6582 69.6055 98.6582 71.0977V75ZM97.3457 72.0527L96.0859 72.2285C95.6953 72.2793 95.4004 72.375 95.2012 72.5156C95.0059 72.6523 94.9082 72.8945 94.9082 73.2422C94.9082 73.4961 94.998 73.7051 95.1777 73.8691C95.3613 74.0293 95.6055 74.1094 95.9102 74.1094C96.3242 74.1094 96.666 73.9648 96.9355 73.6758C97.209 73.3828 97.3457 73.0156 97.3457 72.5742V72.0527ZM98.0195 65.9414L96.3438 67.8633H95.3359L96.7539 65.9414H98.0195ZM103.803 70.2949C103.639 70.166 103.402 70.1016 103.094 70.1016C102.691 70.1016 102.355 70.2832 102.086 70.6465C101.816 71.0098 101.682 71.5039 101.682 72.1289V75H100.322V69H101.682V70.2363H101.705C101.838 69.8145 102.041 69.4863 102.314 69.252C102.592 69.0137 102.9 68.8945 103.24 68.8945C103.486 68.8945 103.674 68.9316 103.803 69.0059V70.2949ZM105.449 67.7402C105.227 67.7402 105.035 67.668 104.875 67.5234C104.719 67.3789 104.641 67.1953 104.641 66.9727C104.641 66.75 104.719 66.5645 104.875 66.416C105.035 66.2676 105.227 66.1934 105.449 66.1934C105.68 66.1934 105.875 66.2676 106.035 66.416C106.195 66.5645 106.275 66.75 106.275 66.9727C106.275 67.1836 106.195 67.3652 106.035 67.5176C105.875 67.666 105.68 67.7402 105.449 67.7402ZM106.123 75H104.764V69H106.123V75ZM110.564 75.1406C109.639 75.1406 108.898 74.8613 108.344 74.3027C107.793 73.7402 107.518 72.9961 107.518 72.0703C107.518 71.0625 107.805 70.2754 108.379 69.709C108.957 69.1426 109.734 68.8594 110.711 68.8594C111.648 68.8594 112.379 69.1348 112.902 69.6855C113.426 70.2363 113.688 71 113.688 71.9766C113.688 72.9336 113.404 73.7012 112.838 74.2793C112.275 74.8535 111.518 75.1406 110.564 75.1406ZM110.629 69.9434C110.098 69.9434 109.678 70.1289 109.369 70.5C109.061 70.8711 108.906 71.3828 108.906 72.0352C108.906 72.6641 109.062 73.1602 109.375 73.5234C109.688 73.8828 110.105 74.0625 110.629 74.0625C111.164 74.0625 111.574 73.8848 111.859 73.5293C112.148 73.1738 112.293 72.668 112.293 72.0117C112.293 71.3516 112.148 70.8418 111.859 70.4824C111.574 70.123 111.164 69.9434 110.629 69.9434ZM114.701 74.8125V73.5527C115.209 73.9395 115.77 74.1328 116.383 74.1328C117.203 74.1328 117.613 73.8906 117.613 73.4062C117.613 73.2695 117.578 73.1543 117.508 73.0605C117.438 72.9629 117.342 72.877 117.221 72.8027C117.104 72.7285 116.963 72.6621 116.799 72.6035C116.639 72.5449 116.459 72.4785 116.26 72.4043C116.014 72.3066 115.791 72.2031 115.592 72.0938C115.396 71.9844 115.232 71.8613 115.1 71.7246C114.971 71.584 114.873 71.4258 114.807 71.25C114.74 71.0742 114.707 70.8691 114.707 70.6348C114.707 70.3457 114.775 70.0918 114.912 69.873C115.049 69.6504 115.232 69.4648 115.463 69.3164C115.693 69.1641 115.955 69.0508 116.248 68.9766C116.541 68.8984 116.844 68.8594 117.156 68.8594C117.711 68.8594 118.207 68.9434 118.645 69.1113V70.3008C118.223 70.0117 117.738 69.8672 117.191 69.8672C117.02 69.8672 116.863 69.8848 116.723 69.9199C116.586 69.9551 116.469 70.0039 116.371 70.0664C116.273 70.1289 116.197 70.2051 116.143 70.2949C116.088 70.3809 116.061 70.4766 116.061 70.582C116.061 70.7109 116.088 70.8203 116.143 70.9102C116.197 71 116.277 71.0801 116.383 71.1504C116.492 71.2168 116.621 71.2793 116.77 71.3379C116.922 71.3926 117.096 71.4531 117.291 71.5195C117.549 71.625 117.779 71.7324 117.982 71.8418C118.189 71.9512 118.365 72.0762 118.51 72.2168C118.654 72.3535 118.766 72.5137 118.844 72.6973C118.922 72.877 118.961 73.0918 118.961 73.3418C118.961 73.6465 118.891 73.9121 118.75 74.1387C118.609 74.3652 118.422 74.5527 118.188 74.7012C117.953 74.8496 117.682 74.959 117.373 75.0293C117.068 75.1035 116.746 75.1406 116.406 75.1406C115.75 75.1406 115.182 75.0312 114.701 74.8125ZM128.166 75H126.848V74.0625H126.824C126.41 74.7812 125.803 75.1406 125.002 75.1406C124.412 75.1406 123.949 74.9805 123.613 74.6602C123.281 74.3398 123.115 73.916 123.115 73.3887C123.115 72.2559 123.768 71.5957 125.072 71.4082L126.854 71.1562C126.854 70.3008 126.447 69.873 125.635 69.873C124.92 69.873 124.275 70.1191 123.701 70.6113V69.4219C124.334 69.0469 125.064 68.8594 125.893 68.8594C127.408 68.8594 128.166 69.6055 128.166 71.0977V75ZM126.854 72.0527L125.594 72.2285C125.203 72.2793 124.908 72.375 124.709 72.5156C124.514 72.6523 124.416 72.8945 124.416 73.2422C124.416 73.4961 124.506 73.7051 124.686 73.8691C124.869 74.0293 125.113 74.1094 125.418 74.1094C125.832 74.1094 126.174 73.9648 126.443 73.6758C126.717 73.3828 126.854 73.0156 126.854 72.5742V72.0527ZM135.795 75.1406C134.869 75.1406 134.129 74.8613 133.574 74.3027C133.023 73.7402 132.748 72.9961 132.748 72.0703C132.748 71.0625 133.035 70.2754 133.609 69.709C134.188 69.1426 134.965 68.8594 135.941 68.8594C136.879 68.8594 137.609 69.1348 138.133 69.6855C138.656 70.2363 138.918 71 138.918 71.9766C138.918 72.9336 138.635 73.7012 138.068 74.2793C137.506 74.8535 136.748 75.1406 135.795 75.1406ZM135.859 69.9434C135.328 69.9434 134.908 70.1289 134.6 70.5C134.291 70.8711 134.137 71.3828 134.137 72.0352C134.137 72.6641 134.293 73.1602 134.605 73.5234C134.918 73.8828 135.336 74.0625 135.859 74.0625C136.395 74.0625 136.805 73.8848 137.09 73.5293C137.379 73.1738 137.523 72.668 137.523 72.0117C137.523 71.3516 137.379 70.8418 137.09 70.4824C136.805 70.123 136.395 69.9434 135.859 69.9434ZM143.787 70.2949C143.623 70.166 143.387 70.1016 143.078 70.1016C142.676 70.1016 142.34 70.2832 142.07 70.6465C141.801 71.0098 141.666 71.5039 141.666 72.1289V75H140.307V69H141.666V70.2363H141.689C141.822 69.8145 142.025 69.4863 142.299 69.252C142.576 69.0137 142.885 68.8945 143.225 68.8945C143.471 68.8945 143.658 68.9316 143.787 69.0059V70.2949ZM150.104 74.5195C150.104 76.7227 148.996 77.8242 146.781 77.8242C146 77.8242 145.318 77.6934 144.736 77.4316V76.1895C145.393 76.5645 146.016 76.752 146.605 76.752C148.031 76.752 148.744 76.0508 148.744 74.6484V73.9922H148.721C148.271 74.7578 147.596 75.1406 146.693 75.1406C145.963 75.1406 145.373 74.875 144.924 74.3438C144.479 73.8086 144.256 73.0918 144.256 72.1934C144.256 71.1738 144.496 70.3633 144.977 69.7617C145.457 69.1602 146.117 68.8594 146.957 68.8594C147.75 68.8594 148.338 69.1836 148.721 69.832H148.744V69H150.104V74.5195ZM148.756 72.252V71.4727C148.756 71.0508 148.615 70.6914 148.334 70.3945C148.057 70.0938 147.709 69.9434 147.291 69.9434C146.775 69.9434 146.371 70.1348 146.078 70.5176C145.789 70.8965 145.645 71.4277 145.645 72.1113C145.645 72.7012 145.783 73.1738 146.061 73.5293C146.342 73.8809 146.713 74.0566 147.174 74.0566C147.643 74.0566 148.023 73.8887 148.316 73.5527C148.609 73.2129 148.756 72.7793 148.756 72.252ZM156.479 75H155.16V74.0625H155.137C154.723 74.7812 154.115 75.1406 153.314 75.1406C152.725 75.1406 152.262 74.9805 151.926 74.6602C151.594 74.3398 151.428 73.916 151.428 73.3887C151.428 72.2559 152.08 71.5957 153.385 71.4082L155.166 71.1562C155.166 70.3008 154.76 69.873 153.947 69.873C153.232 69.873 152.588 70.1191 152.014 70.6113V69.4219C152.646 69.0469 153.377 68.8594 154.205 68.8594C155.721 68.8594 156.479 69.6055 156.479 71.0977V75ZM155.166 72.0527L153.906 72.2285C153.516 72.2793 153.221 72.375 153.021 72.5156C152.826 72.6523 152.729 72.8945 152.729 73.2422C152.729 73.4961 152.818 73.7051 152.998 73.8691C153.182 74.0293 153.426 74.1094 153.73 74.1094C154.145 74.1094 154.486 73.9648 154.756 73.6758C155.029 73.3828 155.166 73.0156 155.166 72.5742V72.0527ZM163.486 75H162.127V71.6191C162.127 70.498 161.73 69.9375 160.938 69.9375C160.523 69.9375 160.182 70.0938 159.912 70.4062C159.643 70.7148 159.508 71.1055 159.508 71.5781V75H158.143V69H159.508V69.9961H159.531C159.98 69.2383 160.629 68.8594 161.477 68.8594C162.129 68.8594 162.627 69.0723 162.971 69.498C163.314 69.9199 163.486 70.5312 163.486 71.332V75ZM165.836 67.7402C165.613 67.7402 165.422 67.668 165.262 67.5234C165.105 67.3789 165.027 67.1953 165.027 66.9727C165.027 66.75 165.105 66.5645 165.262 66.416C165.422 66.2676 165.613 66.1934 165.836 66.1934C166.066 66.1934 166.262 66.2676 166.422 66.416C166.582 66.5645 166.662 66.75 166.662 66.9727C166.662 67.1836 166.582 67.3652 166.422 67.5176C166.262 67.666 166.066 67.7402 165.836 67.7402ZM166.51 75H165.15V69H166.51V75ZM172.721 69.5684L169.48 73.9395H172.709V75H167.576V74.4902L170.887 70.0605H167.893V69H172.721V69.5684ZM178.475 75H177.156V74.0625H177.133C176.719 74.7812 176.111 75.1406 175.311 75.1406C174.721 75.1406 174.258 74.9805 173.922 74.6602C173.59 74.3398 173.424 73.916 173.424 73.3887C173.424 72.2559 174.076 71.5957 175.381 71.4082L177.162 71.1562C177.162 70.3008 176.756 69.873 175.943 69.873C175.229 69.873 174.584 70.1191 174.01 70.6113V69.4219C174.643 69.0469 175.373 68.8594 176.201 68.8594C177.717 68.8594 178.475 69.6055 178.475 71.0977V75ZM177.162 72.0527L175.902 72.2285C175.512 72.2793 175.217 72.375 175.018 72.5156C174.822 72.6523 174.725 72.8945 174.725 73.2422C174.725 73.4961 174.814 73.7051 174.994 73.8691C175.178 74.0293 175.422 74.1094 175.727 74.1094C176.141 74.1094 176.482 73.9648 176.752 73.6758C177.025 73.3828 177.162 73.0156 177.162 72.5742V72.0527ZM183.619 70.2949C183.455 70.166 183.219 70.1016 182.91 70.1016C182.508 70.1016 182.172 70.2832 181.902 70.6465C181.633 71.0098 181.498 71.5039 181.498 72.1289V75H180.139V69H181.498V70.2363H181.521C181.654 69.8145 181.857 69.4863 182.131 69.252C182.408 69.0137 182.717 68.8945 183.057 68.8945C183.303 68.8945 183.49 68.9316 183.619 69.0059V70.2949ZM193.34 75H191.98V73.9805H191.957C191.52 74.7539 190.846 75.1406 189.936 75.1406C189.197 75.1406 188.605 74.873 188.16 74.3379C187.719 73.7988 187.498 73.0664 187.498 72.1406C187.498 71.1484 187.742 70.3535 188.23 69.7559C188.723 69.1582 189.377 68.8594 190.193 68.8594C191.002 68.8594 191.59 69.1836 191.957 69.832H191.98V66.1172H193.34V75ZM191.998 72.2578V71.4727C191.998 71.0469 191.859 70.6855 191.582 70.3887C191.305 70.0918 190.951 69.9434 190.521 69.9434C190.014 69.9434 189.613 70.1328 189.32 70.5117C189.031 70.8906 188.887 71.416 188.887 72.0879C188.887 72.6973 189.025 73.1797 189.303 73.5352C189.584 73.8867 189.961 74.0625 190.434 74.0625C190.898 74.0625 191.275 73.8926 191.564 73.5527C191.854 73.209 191.998 72.7773 191.998 72.2578ZM200.195 72.3691H196.105C196.121 72.9238 196.291 73.3516 196.615 73.6523C196.943 73.9531 197.393 74.1035 197.963 74.1035C198.604 74.1035 199.191 73.9121 199.727 73.5293V74.625C199.18 74.9688 198.457 75.1406 197.559 75.1406C196.676 75.1406 195.982 74.8691 195.479 74.3262C194.979 73.7793 194.729 73.0117 194.729 72.0234C194.729 71.0898 195.004 70.3301 195.555 69.7441C196.109 69.1543 196.797 68.8594 197.617 68.8594C198.438 68.8594 199.072 69.123 199.521 69.6504C199.971 70.1777 200.195 70.9102 200.195 71.8477V72.3691ZM198.883 71.4082C198.879 70.9199 198.764 70.541 198.537 70.2715C198.311 69.998 197.998 69.8613 197.6 69.8613C197.209 69.8613 196.877 70.0039 196.604 70.2891C196.334 70.5742 196.168 70.9473 196.105 71.4082H198.883ZM201.115 74.8125V73.5527C201.623 73.9395 202.184 74.1328 202.797 74.1328C203.617 74.1328 204.027 73.8906 204.027 73.4062C204.027 73.2695 203.992 73.1543 203.922 73.0605C203.852 72.9629 203.756 72.877 203.635 72.8027C203.518 72.7285 203.377 72.6621 203.213 72.6035C203.053 72.5449 202.873 72.4785 202.674 72.4043C202.428 72.3066 202.205 72.2031 202.006 72.0938C201.811 71.9844 201.646 71.8613 201.514 71.7246C201.385 71.584 201.287 71.4258 201.221 71.25C201.154 71.0742 201.121 70.8691 201.121 70.6348C201.121 70.3457 201.189 70.0918 201.326 69.873C201.463 69.6504 201.646 69.4648 201.877 69.3164C202.107 69.1641 202.369 69.0508 202.662 68.9766C202.955 68.8984 203.258 68.8594 203.57 68.8594C204.125 68.8594 204.621 68.9434 205.059 69.1113V70.3008C204.637 70.0117 204.152 69.8672 203.605 69.8672C203.434 69.8672 203.277 69.8848 203.137 69.9199C203 69.9551 202.883 70.0039 202.785 70.0664C202.688 70.1289 202.611 70.2051 202.557 70.2949C202.502 70.3809 202.475 70.4766 202.475 70.582C202.475 70.7109 202.502 70.8203 202.557 70.9102C202.611 71 202.691 71.0801 202.797 71.1504C202.906 71.2168 203.035 71.2793 203.184 71.3379C203.336 71.3926 203.51 71.4531 203.705 71.5195C203.963 71.625 204.193 71.7324 204.396 71.8418C204.604 71.9512 204.779 72.0762 204.924 72.2168C205.068 72.3535 205.18 72.5137 205.258 72.6973C205.336 72.877 205.375 73.0918 205.375 73.3418C205.375 73.6465 205.305 73.9121 205.164 74.1387C205.023 74.3652 204.836 74.5527 204.602 74.7012C204.367 74.8496 204.096 74.959 203.787 75.0293C203.482 75.1035 203.16 75.1406 202.82 75.1406C202.164 75.1406 201.596 75.0312 201.115 74.8125ZM208.053 74.1152H208.029V77.7598H206.67V69H208.029V70.0547H208.053C208.518 69.2578 209.197 68.8594 210.092 68.8594C210.854 68.8594 211.447 69.127 211.873 69.6621C212.299 70.1973 212.512 70.916 212.512 71.8184C212.512 72.8184 212.271 73.6191 211.791 74.2207C211.311 74.8223 210.654 75.123 209.822 75.123C209.057 75.123 208.467 74.7871 208.053 74.1152ZM208.018 71.748V72.4922C208.018 72.9297 208.156 73.3008 208.434 73.6055C208.715 73.9102 209.07 74.0625 209.5 74.0625C210.004 74.0625 210.398 73.8672 210.684 73.4766C210.973 73.082 211.117 72.5332 211.117 71.8301C211.117 71.2402 210.982 70.7793 210.713 70.4473C210.447 70.1113 210.086 69.9434 209.629 69.9434C209.145 69.9434 208.754 70.1152 208.457 70.459C208.164 70.8027 208.018 71.2324 208.018 71.748ZM218.98 72.3691H214.891C214.906 72.9238 215.076 73.3516 215.4 73.6523C215.729 73.9531 216.178 74.1035 216.748 74.1035C217.389 74.1035 217.977 73.9121 218.512 73.5293V74.625C217.965 74.9688 217.242 75.1406 216.344 75.1406C215.461 75.1406 214.768 74.8691 214.264 74.3262C213.764 73.7793 213.514 73.0117 213.514 72.0234C213.514 71.0898 213.789 70.3301 214.34 69.7441C214.895 69.1543 215.582 68.8594 216.402 68.8594C217.223 68.8594 217.857 69.123 218.307 69.6504C218.756 70.1777 218.98 70.9102 218.98 71.8477V72.3691ZM217.668 71.4082C217.664 70.9199 217.549 70.541 217.322 70.2715C217.096 69.998 216.783 69.8613 216.385 69.8613C215.994 69.8613 215.662 70.0039 215.389 70.2891C215.119 70.5742 214.953 70.9473 214.891 71.4082H217.668ZM219.9 74.8125V73.5527C220.408 73.9395 220.969 74.1328 221.582 74.1328C222.402 74.1328 222.812 73.8906 222.812 73.4062C222.812 73.2695 222.777 73.1543 222.707 73.0605C222.637 72.9629 222.541 72.877 222.42 72.8027C222.303 72.7285 222.162 72.6621 221.998 72.6035C221.838 72.5449 221.658 72.4785 221.459 72.4043C221.213 72.3066 220.99 72.2031 220.791 72.0938C220.596 71.9844 220.432 71.8613 220.299 71.7246C220.17 71.584 220.072 71.4258 220.006 71.25C219.939 71.0742 219.906 70.8691 219.906 70.6348C219.906 70.3457 219.975 70.0918 220.111 69.873C220.248 69.6504 220.432 69.4648 220.662 69.3164C220.893 69.1641 221.154 69.0508 221.447 68.9766C221.74 68.8984 222.043 68.8594 222.355 68.8594C222.91 68.8594 223.406 68.9434 223.844 69.1113V70.3008C223.422 70.0117 222.938 69.8672 222.391 69.8672C222.219 69.8672 222.062 69.8848 221.922 69.9199C221.785 69.9551 221.668 70.0039 221.57 70.0664C221.473 70.1289 221.396 70.2051 221.342 70.2949C221.287 70.3809 221.26 70.4766 221.26 70.582C221.26 70.7109 221.287 70.8203 221.342 70.9102C221.396 71 221.477 71.0801 221.582 71.1504C221.691 71.2168 221.82 71.2793 221.969 71.3379C222.121 71.3926 222.295 71.4531 222.49 71.5195C222.748 71.625 222.979 71.7324 223.182 71.8418C223.389 71.9512 223.564 72.0762 223.709 72.2168C223.854 72.3535 223.965 72.5137 224.043 72.6973C224.121 72.877 224.16 73.0918 224.16 73.3418C224.16 73.6465 224.09 73.9121 223.949 74.1387C223.809 74.3652 223.621 74.5527 223.387 74.7012C223.152 74.8496 222.881 74.959 222.572 75.0293C222.268 75.1035 221.945 75.1406 221.605 75.1406C220.949 75.1406 220.381 75.0312 219.9 74.8125ZM230.061 75H228.742V74.0625H228.719C228.305 74.7812 227.697 75.1406 226.896 75.1406C226.307 75.1406 225.844 74.9805 225.508 74.6602C225.176 74.3398 225.01 73.916 225.01 73.3887C225.01 72.2559 225.662 71.5957 226.967 71.4082L228.748 71.1562C228.748 70.3008 228.342 69.873 227.529 69.873C226.814 69.873 226.17 70.1191 225.596 70.6113V69.4219C226.229 69.0469 226.959 68.8594 227.787 68.8594C229.303 68.8594 230.061 69.6055 230.061 71.0977V75ZM228.748 72.0527L227.488 72.2285C227.098 72.2793 226.803 72.375 226.604 72.5156C226.408 72.6523 226.311 72.8945 226.311 73.2422C226.311 73.4961 226.4 73.7051 226.58 73.8691C226.764 74.0293 227.008 74.1094 227.312 74.1094C227.727 74.1094 228.068 73.9648 228.338 73.6758C228.611 73.3828 228.748 73.0156 228.748 72.5742V72.0527ZM231.35 74.8125V73.5527C231.857 73.9395 232.418 74.1328 233.031 74.1328C233.852 74.1328 234.262 73.8906 234.262 73.4062C234.262 73.2695 234.227 73.1543 234.156 73.0605C234.086 72.9629 233.99 72.877 233.869 72.8027C233.752 72.7285 233.611 72.6621 233.447 72.6035C233.287 72.5449 233.107 72.4785 232.908 72.4043C232.662 72.3066 232.439 72.2031 232.24 72.0938C232.045 71.9844 231.881 71.8613 231.748 71.7246C231.619 71.584 231.521 71.4258 231.455 71.25C231.389 71.0742 231.355 70.8691 231.355 70.6348C231.355 70.3457 231.424 70.0918 231.561 69.873C231.697 69.6504 231.881 69.4648 232.111 69.3164C232.342 69.1641 232.604 69.0508 232.896 68.9766C233.189 68.8984 233.492 68.8594 233.805 68.8594C234.359 68.8594 234.855 68.9434 235.293 69.1113V70.3008C234.871 70.0117 234.387 69.8672 233.84 69.8672C233.668 69.8672 233.512 69.8848 233.371 69.9199C233.234 69.9551 233.117 70.0039 233.02 70.0664C232.922 70.1289 232.846 70.2051 232.791 70.2949C232.736 70.3809 232.709 70.4766 232.709 70.582C232.709 70.7109 232.736 70.8203 232.791 70.9102C232.846 71 232.926 71.0801 233.031 71.1504C233.141 71.2168 233.27 71.2793 233.418 71.3379C233.57 71.3926 233.744 71.4531 233.939 71.5195C234.197 71.625 234.428 71.7324 234.631 71.8418C234.838 71.9512 235.014 72.0762 235.158 72.2168C235.303 72.3535 235.414 72.5137 235.492 72.6973C235.57 72.877 235.609 73.0918 235.609 73.3418C235.609 73.6465 235.539 73.9121 235.398 74.1387C235.258 74.3652 235.07 74.5527 234.836 74.7012C234.602 74.8496 234.33 74.959 234.021 75.0293C233.717 75.1035 233.395 75.1406 233.055 75.1406C232.398 75.1406 231.83 75.0312 231.35 74.8125ZM245.289 72.3691H241.199C241.215 72.9238 241.385 73.3516 241.709 73.6523C242.037 73.9531 242.486 74.1035 243.057 74.1035C243.697 74.1035 244.285 73.9121 244.82 73.5293V74.625C244.273 74.9688 243.551 75.1406 242.652 75.1406C241.77 75.1406 241.076 74.8691 240.572 74.3262C240.072 73.7793 239.822 73.0117 239.822 72.0234C239.822 71.0898 240.098 70.3301 240.648 69.7441C241.203 69.1543 241.891 68.8594 242.711 68.8594C243.531 68.8594 244.166 69.123 244.615 69.6504C245.064 70.1777 245.289 70.9102 245.289 71.8477V72.3691ZM243.977 71.4082C243.973 70.9199 243.857 70.541 243.631 70.2715C243.404 69.998 243.092 69.8613 242.693 69.8613C242.303 69.8613 241.971 70.0039 241.697 70.2891C241.428 70.5742 241.262 70.9473 241.199 71.4082H243.977ZM253.369 70.2949C253.205 70.166 252.969 70.1016 252.66 70.1016C252.258 70.1016 251.922 70.2832 251.652 70.6465C251.383 71.0098 251.248 71.5039 251.248 72.1289V75H249.889V69H251.248V70.2363H251.271C251.404 69.8145 251.607 69.4863 251.881 69.252C252.158 69.0137 252.467 68.8945 252.807 68.8945C253.053 68.8945 253.24 68.9316 253.369 69.0059V70.2949ZM259.305 72.3691H255.215C255.23 72.9238 255.4 73.3516 255.725 73.6523C256.053 73.9531 256.502 74.1035 257.072 74.1035C257.713 74.1035 258.301 73.9121 258.836 73.5293V74.625C258.289 74.9688 257.566 75.1406 256.668 75.1406C255.785 75.1406 255.092 74.8691 254.588 74.3262C254.088 73.7793 253.838 73.0117 253.838 72.0234C253.838 71.0898 254.113 70.3301 254.664 69.7441C255.219 69.1543 255.906 68.8594 256.727 68.8594C257.547 68.8594 258.182 69.123 258.631 69.6504C259.08 70.1777 259.305 70.9102 259.305 71.8477V72.3691ZM257.992 71.4082C257.988 70.9199 257.873 70.541 257.646 70.2715C257.42 69.998 257.107 69.8613 256.709 69.8613C256.318 69.8613 255.986 70.0039 255.713 70.2891C255.443 70.5742 255.277 70.9473 255.215 71.4082H257.992ZM265.205 75H263.887V74.0625H263.863C263.449 74.7812 262.842 75.1406 262.041 75.1406C261.451 75.1406 260.988 74.9805 260.652 74.6602C260.32 74.3398 260.154 73.916 260.154 73.3887C260.154 72.2559 260.807 71.5957 262.111 71.4082L263.893 71.1562C263.893 70.3008 263.486 69.873 262.674 69.873C261.959 69.873 261.314 70.1191 260.74 70.6113V69.4219C261.373 69.0469 262.104 68.8594 262.932 68.8594C264.447 68.8594 265.205 69.6055 265.205 71.0977V75ZM263.893 72.0527L262.633 72.2285C262.242 72.2793 261.947 72.375 261.748 72.5156C261.553 72.6523 261.455 72.8945 261.455 73.2422C261.455 73.4961 261.545 73.7051 261.725 73.8691C261.908 74.0293 262.152 74.1094 262.457 74.1094C262.871 74.1094 263.213 73.9648 263.482 73.6758C263.756 73.3828 263.893 73.0156 263.893 72.5742V72.0527ZM268.234 75H266.869V66.1172H268.234V75ZM270.695 67.7402C270.473 67.7402 270.281 67.668 270.121 67.5234C269.965 67.3789 269.887 67.1953 269.887 66.9727C269.887 66.75 269.965 66.5645 270.121 66.416C270.281 66.2676 270.473 66.1934 270.695 66.1934C270.926 66.1934 271.121 66.2676 271.281 66.416C271.441 66.5645 271.521 66.75 271.521 66.9727C271.521 67.1836 271.441 67.3652 271.281 67.5176C271.121 67.666 270.926 67.7402 270.695 67.7402ZM271.369 75H270.01V69H271.369V75ZM277.58 69.5684L274.34 73.9395H277.568V75H272.436V74.4902L275.746 70.0605H272.752V69H277.58V69.5684ZM283.334 75H282.016V74.0625H281.992C281.578 74.7812 280.971 75.1406 280.17 75.1406C279.58 75.1406 279.117 74.9805 278.781 74.6602C278.449 74.3398 278.283 73.916 278.283 73.3887C278.283 72.2559 278.936 71.5957 280.24 71.4082L282.021 71.1562C282.021 70.3008 281.615 69.873 280.803 69.873C280.088 69.873 279.443 70.1191 278.869 70.6113V69.4219C279.502 69.0469 280.232 68.8594 281.061 68.8594C282.576 68.8594 283.334 69.6055 283.334 71.0977V75ZM282.021 72.0527L280.762 72.2285C280.371 72.2793 280.076 72.375 279.877 72.5156C279.682 72.6523 279.584 72.8945 279.584 73.2422C279.584 73.4961 279.674 73.7051 279.854 73.8691C280.037 74.0293 280.281 74.1094 280.586 74.1094C281 74.1094 281.342 73.9648 281.611 73.6758C281.885 73.3828 282.021 73.0156 282.021 72.5742V72.0527ZM288.479 70.2949C288.314 70.166 288.078 70.1016 287.77 70.1016C287.367 70.1016 287.031 70.2832 286.762 70.6465C286.492 71.0098 286.357 71.5039 286.357 72.1289V75H284.998V69H286.357V70.2363H286.381C286.514 69.8145 286.717 69.4863 286.99 69.252C287.268 69.0137 287.576 68.8945 287.916 68.8945C288.162 68.8945 288.35 68.9316 288.479 69.0059V70.2949ZM21.1797 90.7246C20.6992 91.002 20.1309 91.1406 19.4746 91.1406C18.584 91.1406 17.8652 90.8633 17.3184 90.3086C16.7715 89.75 16.498 89.0273 16.498 88.1406C16.498 87.1523 16.791 86.3594 17.377 85.7617C17.9668 85.1602 18.7539 84.8594 19.7383 84.8594C20.2852 84.8594 20.7676 84.9551 21.1855 85.1465V86.4121C20.7676 86.0996 20.3223 85.9434 19.8496 85.9434C19.2754 85.9434 18.8047 86.1387 18.4375 86.5293C18.0703 86.916 17.8867 87.4238 17.8867 88.0527C17.8867 88.6738 18.0586 89.1641 18.4023 89.5234C18.75 89.8828 19.2148 90.0625 19.7969 90.0625C20.2852 90.0625 20.7461 89.8887 21.1797 89.541V90.7246ZM25.1934 91.1406C24.2676 91.1406 23.5273 90.8613 22.9727 90.3027C22.4219 89.7402 22.1465 88.9961 22.1465 88.0703C22.1465 87.0625 22.4336 86.2754 23.0078 85.709C23.5859 85.1426 24.3633 84.8594 25.3398 84.8594C26.2773 84.8594 27.0078 85.1348 27.5312 85.6855C28.0547 86.2363 28.3164 87 28.3164 87.9766C28.3164 88.9336 28.0332 89.7012 27.4668 90.2793C26.9043 90.8535 26.1465 91.1406 25.1934 91.1406ZM25.2578 85.9434C24.7266 85.9434 24.3066 86.1289 23.998 86.5C23.6895 86.8711 23.5352 87.3828 23.5352 88.0352C23.5352 88.6641 23.6914 89.1602 24.0039 89.5234C24.3164 89.8828 24.7344 90.0625 25.2578 90.0625C25.793 90.0625 26.2031 89.8848 26.4883 89.5293C26.7773 89.1738 26.9219 88.668 26.9219 88.0117C26.9219 87.3516 26.7773 86.8418 26.4883 86.4824C26.2031 86.123 25.793 85.9434 25.2578 85.9434ZM35.0488 91H33.6895V87.6191C33.6895 86.498 33.293 85.9375 32.5 85.9375C32.0859 85.9375 31.7441 86.0938 31.4746 86.4062C31.2051 86.7148 31.0703 87.1055 31.0703 87.5781V91H29.7051V85H31.0703V85.9961H31.0938C31.543 85.2383 32.1914 84.8594 33.0391 84.8594C33.6914 84.8594 34.1895 85.0723 34.5332 85.498C34.877 85.9199 35.0488 86.5312 35.0488 87.332V91ZM41.8809 85L39.5605 91H38.0898L35.8809 85H37.3574L38.6875 89.1953C38.7891 89.5039 38.8516 89.7734 38.875 90.0039H38.8926C38.9277 89.7148 38.9824 89.4531 39.0566 89.2188L40.4512 85H41.8809ZM47.793 88.3691H43.7031C43.7188 88.9238 43.8887 89.3516 44.2129 89.6523C44.541 89.9531 44.9902 90.1035 45.5605 90.1035C46.2012 90.1035 46.7891 89.9121 47.3242 89.5293V90.625C46.7773 90.9688 46.0547 91.1406 45.1562 91.1406C44.2734 91.1406 43.5801 90.8691 43.0762 90.3262C42.5762 89.7793 42.3262 89.0117 42.3262 88.0234C42.3262 87.0898 42.6016 86.3301 43.1523 85.7441C43.707 85.1543 44.3945 84.8594 45.2148 84.8594C46.0352 84.8594 46.6699 85.123 47.1191 85.6504C47.5684 86.1777 47.793 86.9102 47.793 87.8477V88.3691ZM46.4805 87.4082C46.4766 86.9199 46.3613 86.541 46.1348 86.2715C45.9082 85.998 45.5957 85.8613 45.1973 85.8613C44.8066 85.8613 44.4746 86.0039 44.2012 86.2891C43.9316 86.5742 43.7656 86.9473 43.7031 87.4082H46.4805ZM52.5684 86.2949C52.4043 86.166 52.168 86.1016 51.8594 86.1016C51.457 86.1016 51.1211 86.2832 50.8516 86.6465C50.582 87.0098 50.4473 87.5039 50.4473 88.1289V91H49.0879V85H50.4473V86.2363H50.4707C50.6035 85.8145 50.8066 85.4863 51.0801 85.252C51.3574 85.0137 51.666 84.8945 52.0059 84.8945C52.252 84.8945 52.4395 84.9316 52.5684 85.0059V86.2949ZM53.2363 90.8125V89.5527C53.7441 89.9395 54.3047 90.1328 54.918 90.1328C55.7383 90.1328 56.1484 89.8906 56.1484 89.4062C56.1484 89.2695 56.1133 89.1543 56.043 89.0605C55.9727 88.9629 55.877 88.877 55.7559 88.8027C55.6387 88.7285 55.498 88.6621 55.334 88.6035C55.1738 88.5449 54.9941 88.4785 54.7949 88.4043C54.5488 88.3066 54.3262 88.2031 54.127 88.0938C53.9316 87.9844 53.7676 87.8613 53.6348 87.7246C53.5059 87.584 53.4082 87.4258 53.3418 87.25C53.2754 87.0742 53.2422 86.8691 53.2422 86.6348C53.2422 86.3457 53.3105 86.0918 53.4473 85.873C53.584 85.6504 53.7676 85.4648 53.998 85.3164C54.2285 85.1641 54.4902 85.0508 54.7832 84.9766C55.0762 84.8984 55.3789 84.8594 55.6914 84.8594C56.2461 84.8594 56.7422 84.9434 57.1797 85.1113V86.3008C56.7578 86.0117 56.2734 85.8672 55.7266 85.8672C55.5547 85.8672 55.3984 85.8848 55.2578 85.9199C55.1211 85.9551 55.0039 86.0039 54.9062 86.0664C54.8086 86.1289 54.7324 86.2051 54.6777 86.2949C54.623 86.3809 54.5957 86.4766 54.5957 86.582C54.5957 86.7109 54.623 86.8203 54.6777 86.9102C54.7324 87 54.8125 87.0801 54.918 87.1504C55.0273 87.2168 55.1562 87.2793 55.3047 87.3379C55.457 87.3926 55.6309 87.4531 55.8262 87.5195C56.084 87.625 56.3145 87.7324 56.5176 87.8418C56.7246 87.9512 56.9004 88.0762 57.0449 88.2168C57.1895 88.3535 57.3008 88.5137 57.3789 88.6973C57.457 88.877 57.4961 89.0918 57.4961 89.3418C57.4961 89.6465 57.4258 89.9121 57.2852 90.1387C57.1445 90.3652 56.957 90.5527 56.7227 90.7012C56.4883 90.8496 56.2168 90.959 55.9082 91.0293C55.6035 91.1035 55.2812 91.1406 54.9414 91.1406C54.2852 91.1406 53.7168 91.0312 53.2363 90.8125ZM63.3965 91H62.0781V90.0625H62.0547C61.6406 90.7812 61.0332 91.1406 60.2324 91.1406C59.6426 91.1406 59.1797 90.9805 58.8438 90.6602C58.5117 90.3398 58.3457 89.916 58.3457 89.3887C58.3457 88.2559 58.998 87.5957 60.3027 87.4082L62.084 87.1562C62.084 86.3008 61.6777 85.873 60.8652 85.873C60.1504 85.873 59.5059 86.1191 58.9316 86.6113V85.4219C59.5645 85.0469 60.2949 84.8594 61.123 84.8594C62.6387 84.8594 63.3965 85.6055 63.3965 87.0977V91ZM62.084 88.0527L60.8242 88.2285C60.4336 88.2793 60.1387 88.375 59.9395 88.5156C59.7441 88.6523 59.6465 88.8945 59.6465 89.2422C59.6465 89.4961 59.7363 89.7051 59.916 89.8691C60.0996 90.0293 60.3438 90.1094 60.6484 90.1094C61.0625 90.1094 61.4043 89.9648 61.6738 89.6758C61.9473 89.3828 62.084 89.0156 62.084 88.5742V88.0527ZM63.0156 82.3574C63.0156 82.8105 62.9141 83.1816 62.7109 83.4707C62.5117 83.7559 62.2402 83.8984 61.8965 83.8984C61.6152 83.8984 61.293 83.8047 60.9297 83.6172C60.625 83.4414 60.3887 83.3535 60.2207 83.3535C59.8926 83.3535 59.7285 83.5703 59.7285 84.0039H59.0547C59.0547 83.5391 59.1543 83.168 59.3535 82.8906C59.5527 82.6094 59.832 82.4688 60.1914 82.4688C60.457 82.4688 60.7637 82.5684 61.1113 82.7676C61.3926 82.9395 61.6367 83.0254 61.8438 83.0254C62.1602 83.0254 62.3184 82.8027 62.3184 82.3574H63.0156ZM67.7207 91.1406C66.7949 91.1406 66.0547 90.8613 65.5 90.3027C64.9492 89.7402 64.6738 88.9961 64.6738 88.0703C64.6738 87.0625 64.9609 86.2754 65.5352 85.709C66.1133 85.1426 66.8906 84.8594 67.8672 84.8594C68.8047 84.8594 69.5352 85.1348 70.0586 85.6855C70.582 86.2363 70.8438 87 70.8438 87.9766C70.8438 88.9336 70.5605 89.7012 69.9941 90.2793C69.4316 90.8535 68.6738 91.1406 67.7207 91.1406ZM67.7852 85.9434C67.2539 85.9434 66.834 86.1289 66.5254 86.5C66.2168 86.8711 66.0625 87.3828 66.0625 88.0352C66.0625 88.6641 66.2188 89.1602 66.5312 89.5234C66.8438 89.8828 67.2617 90.0625 67.7852 90.0625C68.3203 90.0625 68.7305 89.8848 69.0156 89.5293C69.3047 89.1738 69.4492 88.668 69.4492 88.0117C69.4492 87.3516 69.3047 86.8418 69.0156 86.4824C68.7305 86.123 68.3203 85.9434 67.7852 85.9434ZM80.9922 91H79.6328V89.9805H79.6094C79.1719 90.7539 78.498 91.1406 77.5879 91.1406C76.8496 91.1406 76.2578 90.873 75.8125 90.3379C75.3711 89.7988 75.1504 89.0664 75.1504 88.1406C75.1504 87.1484 75.3945 86.3535 75.8828 85.7559C76.375 85.1582 77.0293 84.8594 77.8457 84.8594C78.6543 84.8594 79.2422 85.1836 79.6094 85.832H79.6328V82.1172H80.9922V91ZM79.6504 88.2578V87.4727C79.6504 87.0469 79.5117 86.6855 79.2344 86.3887C78.957 86.0918 78.6035 85.9434 78.1738 85.9434C77.666 85.9434 77.2656 86.1328 76.9727 86.5117C76.6836 86.8906 76.5391 87.416 76.5391 88.0879C76.5391 88.6973 76.6777 89.1797 76.9551 89.5352C77.2363 89.8867 77.6133 90.0625 78.0859 90.0625C78.5508 90.0625 78.9277 89.8926 79.2168 89.5527C79.5059 89.209 79.6504 88.7773 79.6504 88.2578ZM87.8477 88.3691H83.7578C83.7734 88.9238 83.9434 89.3516 84.2676 89.6523C84.5957 89.9531 85.0449 90.1035 85.6152 90.1035C86.2559 90.1035 86.8438 89.9121 87.3789 89.5293V90.625C86.832 90.9688 86.1094 91.1406 85.2109 91.1406C84.3281 91.1406 83.6348 90.8691 83.1309 90.3262C82.6309 89.7793 82.3809 89.0117 82.3809 88.0234C82.3809 87.0898 82.6562 86.3301 83.207 85.7441C83.7617 85.1543 84.4492 84.8594 85.2695 84.8594C86.0898 84.8594 86.7246 85.123 87.1738 85.6504C87.623 86.1777 87.8477 86.9102 87.8477 87.8477V88.3691ZM86.5352 87.4082C86.5312 86.9199 86.416 86.541 86.1895 86.2715C85.9629 85.998 85.6504 85.8613 85.252 85.8613C84.8613 85.8613 84.5293 86.0039 84.2559 86.2891C83.9863 86.5742 83.8203 86.9473 83.7578 87.4082H86.5352ZM101.418 91H100.059V87.7305C100.059 87.1016 99.9688 86.6465 99.7891 86.3652C99.6133 86.084 99.3145 85.9434 98.8926 85.9434C98.5371 85.9434 98.2344 86.1211 97.9844 86.4766C97.7383 86.832 97.6152 87.2578 97.6152 87.7539V91H96.25V87.6191C96.25 86.502 95.8555 85.9434 95.0664 85.9434C94.6992 85.9434 94.3965 86.1113 94.1582 86.4473C93.9238 86.7832 93.8066 87.2188 93.8066 87.7539V91H92.4473V85H93.8066V85.9492H93.8301C94.2637 85.2227 94.8945 84.8594 95.7227 84.8594C96.1367 84.8594 96.498 84.9746 96.8066 85.2051C97.1191 85.4316 97.332 85.7305 97.4453 86.1016C97.8906 85.2734 98.5547 84.8594 99.4375 84.8594C100.758 84.8594 101.418 85.6738 101.418 87.3027V91ZM105.736 91.1406C104.811 91.1406 104.07 90.8613 103.516 90.3027C102.965 89.7402 102.689 88.9961 102.689 88.0703C102.689 87.0625 102.977 86.2754 103.551 85.709C104.129 85.1426 104.906 84.8594 105.883 84.8594C106.82 84.8594 107.551 85.1348 108.074 85.6855C108.598 86.2363 108.859 87 108.859 87.9766C108.859 88.9336 108.576 89.7012 108.01 90.2793C107.447 90.8535 106.689 91.1406 105.736 91.1406ZM105.801 85.9434C105.27 85.9434 104.85 86.1289 104.541 86.5C104.232 86.8711 104.078 87.3828 104.078 88.0352C104.078 88.6641 104.234 89.1602 104.547 89.5234C104.859 89.8828 105.277 90.0625 105.801 90.0625C106.336 90.0625 106.746 89.8848 107.031 89.5293C107.32 89.1738 107.465 88.668 107.465 88.0117C107.465 87.3516 107.32 86.8418 107.031 86.4824C106.746 86.123 106.336 85.9434 105.801 85.9434ZM115.328 88.3691H111.238C111.254 88.9238 111.424 89.3516 111.748 89.6523C112.076 89.9531 112.525 90.1035 113.096 90.1035C113.736 90.1035 114.324 89.9121 114.859 89.5293V90.625C114.312 90.9688 113.59 91.1406 112.691 91.1406C111.809 91.1406 111.115 90.8691 110.611 90.3262C110.111 89.7793 109.861 89.0117 109.861 88.0234C109.861 87.0898 110.137 86.3301 110.688 85.7441C111.242 85.1543 111.93 84.8594 112.75 84.8594C113.57 84.8594 114.205 85.123 114.654 85.6504C115.104 86.1777 115.328 86.9102 115.328 87.8477V88.3691ZM114.016 87.4082C114.012 86.9199 113.896 86.541 113.67 86.2715C113.443 85.998 113.131 85.8613 112.732 85.8613C112.342 85.8613 112.01 86.0039 111.736 86.2891C111.467 86.5742 111.301 86.9473 111.238 87.4082H114.016ZM122.078 91H120.719V89.9805H120.695C120.258 90.7539 119.584 91.1406 118.674 91.1406C117.936 91.1406 117.344 90.873 116.898 90.3379C116.457 89.7988 116.236 89.0664 116.236 88.1406C116.236 87.1484 116.48 86.3535 116.969 85.7559C117.461 85.1582 118.115 84.8594 118.932 84.8594C119.74 84.8594 120.328 85.1836 120.695 85.832H120.719V82.1172H122.078V91ZM120.736 88.2578V87.4727C120.736 87.0469 120.598 86.6855 120.32 86.3887C120.043 86.0918 119.689 85.9434 119.26 85.9434C118.752 85.9434 118.352 86.1328 118.059 86.5117C117.77 86.8906 117.625 87.416 117.625 88.0879C117.625 88.6973 117.764 89.1797 118.041 89.5352C118.322 89.8867 118.699 90.0625 119.172 90.0625C119.637 90.0625 120.014 89.8926 120.303 89.5527C120.592 89.209 120.736 88.7773 120.736 88.2578ZM128.459 91H127.141V90.0625H127.117C126.703 90.7812 126.096 91.1406 125.295 91.1406C124.705 91.1406 124.242 90.9805 123.906 90.6602C123.574 90.3398 123.408 89.916 123.408 89.3887C123.408 88.2559 124.061 87.5957 125.365 87.4082L127.146 87.1562C127.146 86.3008 126.74 85.873 125.928 85.873C125.213 85.873 124.568 86.1191 123.994 86.6113V85.4219C124.627 85.0469 125.357 84.8594 126.186 84.8594C127.701 84.8594 128.459 85.6055 128.459 87.0977V91ZM127.146 88.0527L125.887 88.2285C125.496 88.2793 125.201 88.375 125.002 88.5156C124.807 88.6523 124.709 88.8945 124.709 89.2422C124.709 89.4961 124.799 89.7051 124.979 89.8691C125.162 90.0293 125.406 90.1094 125.711 90.1094C126.125 90.1094 126.467 89.9648 126.736 89.6758C127.01 89.3828 127.146 89.0156 127.146 88.5742V88.0527ZM129.748 90.8125V89.5527C130.256 89.9395 130.816 90.1328 131.43 90.1328C132.25 90.1328 132.66 89.8906 132.66 89.4062C132.66 89.2695 132.625 89.1543 132.555 89.0605C132.484 88.9629 132.389 88.877 132.268 88.8027C132.15 88.7285 132.01 88.6621 131.846 88.6035C131.686 88.5449 131.506 88.4785 131.307 88.4043C131.061 88.3066 130.838 88.2031 130.639 88.0938C130.443 87.9844 130.279 87.8613 130.146 87.7246C130.018 87.584 129.92 87.4258 129.854 87.25C129.787 87.0742 129.754 86.8691 129.754 86.6348C129.754 86.3457 129.822 86.0918 129.959 85.873C130.096 85.6504 130.279 85.4648 130.51 85.3164C130.74 85.1641 131.002 85.0508 131.295 84.9766C131.588 84.8984 131.891 84.8594 132.203 84.8594C132.758 84.8594 133.254 84.9434 133.691 85.1113V86.3008C133.27 86.0117 132.785 85.8672 132.238 85.8672C132.066 85.8672 131.91 85.8848 131.77 85.9199C131.633 85.9551 131.516 86.0039 131.418 86.0664C131.32 86.1289 131.244 86.2051 131.189 86.2949C131.135 86.3809 131.107 86.4766 131.107 86.582C131.107 86.7109 131.135 86.8203 131.189 86.9102C131.244 87 131.324 87.0801 131.43 87.1504C131.539 87.2168 131.668 87.2793 131.816 87.3379C131.969 87.3926 132.143 87.4531 132.338 87.5195C132.596 87.625 132.826 87.7324 133.029 87.8418C133.236 87.9512 133.412 88.0762 133.557 88.2168C133.701 88.3535 133.812 88.5137 133.891 88.6973C133.969 88.877 134.008 89.0918 134.008 89.3418C134.008 89.6465 133.938 89.9121 133.797 90.1387C133.656 90.3652 133.469 90.5527 133.234 90.7012C133 90.8496 132.729 90.959 132.42 91.0293C132.115 91.1035 131.793 91.1406 131.453 91.1406C130.797 91.1406 130.229 91.0312 129.748 90.8125Z" fill="#1A1B1C"/>
<defs>
<linearGradient id="paint0_linear_2_62" x1="0" y1="66.3619" x2="438" y2="66.3619" gradientUnits="userSpaceOnUse">
<stop offset="0.283598" stop-color="#CFF0E1"/>
<stop offset="0.728306" stop-color="#2EC18B"/>
</linearGradient>
<clipPath id="clip0_2_62">
<rect x="332" width="106" height="134" rx="5" fill="white"/>
</clipPath>
</defs>
</svg>
