<svg width="1389" height="1495" viewBox="0 0 1389 1495" fill="none" xmlns="http://www.w3.org/2000/svg">
<mask id="path-1-outside-1_32_26" maskUnits="userSpaceOnUse" x="-53.4005" y="-58.9415" width="1501" height="1612.86" fill="black">
<rect fill="white" x="-53.4005" y="-58.9415" width="1501" height="1612.86"/>
<path d="M1207.7 372.392C1203.39 351.097 1195.04 333.197 1182.56 318.911C1170.31 304.851 1154.07 294.276 1133.77 287.422C966.255 231.214 798.651 175.3 631.171 118.995C586.02 103.818 546.985 112.591 511.629 144.374C459.019 191.647 194.604 423.315 115.925 492.91C83.5217 521.564 72.2306 557.675 80.7527 599.922C115.826 773.904 151.014 947.862 186.088 1121.84C190.294 1142.67 198.391 1160.25 210.409 1174.37C222.767 1188.91 239.27 1199.81 260.039 1206.82C359.563 1240.43 693.193 1351.32 760.015 1374.49C804.954 1390.07 844.333 1383 880.069 1351.48C1012.58 1234.59 1145.36 1118.02 1277.96 1001.21C1294.38 986.696 1305.36 970.235 1311.11 952.057C1316.69 934.373 1317.34 915.035 1313.13 894.201C1313.13 894.201 1242.89 546.354 1207.7 372.392Z"/>
</mask>
<path d="M1207.7 372.392C1203.39 351.097 1195.04 333.197 1182.56 318.911C1170.31 304.851 1154.07 294.276 1133.77 287.422C966.255 231.214 798.651 175.3 631.171 118.995C586.02 103.818 546.985 112.591 511.629 144.374C459.019 191.647 194.604 423.315 115.925 492.91C83.5217 521.564 72.2306 557.675 80.7527 599.922C115.826 773.904 151.014 947.862 186.088 1121.84C190.294 1142.67 198.391 1160.25 210.409 1174.37C222.767 1188.91 239.27 1199.81 260.039 1206.82C359.563 1240.43 693.193 1351.32 760.015 1374.49C804.954 1390.07 844.333 1383 880.069 1351.48C1012.58 1234.59 1145.36 1118.02 1277.96 1001.21C1294.38 986.696 1305.36 970.235 1311.11 952.057C1316.69 934.373 1317.34 915.035 1313.13 894.201C1313.13 894.201 1242.89 546.354 1207.7 372.392Z" fill="#A179DC"/>
<path d="M1334.95 959.581C1341.99 937.269 1342.54 913.583 1337.64 889.263L1288.63 899.14C1292.12 916.491 1291.39 931.476 1287.27 944.534L1334.95 959.581ZM1207.7 372.392L1256.71 362.479L1256.71 362.475L1207.7 372.392ZM1182.56 318.911L1144.88 351.767L1144.89 351.781L1144.9 351.794L1182.56 318.911ZM1133.77 287.422L1149.76 240.049L1149.72 240.034L1149.67 240.019L1133.77 287.422ZM631.171 118.995L647.104 71.6016L647.102 71.6008L631.171 118.995ZM511.629 144.374L545.048 181.566L545.056 181.558L511.629 144.374ZM115.925 492.91L149.047 530.366L149.052 530.361L115.925 492.91ZM80.7527 599.922L129.767 590.042L129.765 590.036L80.7527 599.922ZM186.088 1121.84L137.074 1131.72L137.075 1131.73L137.077 1131.74L186.088 1121.84ZM210.409 1174.37L248.502 1141.99L248.497 1141.98L248.492 1141.97L210.409 1174.37ZM260.039 1206.82L276.036 1159.45L276.024 1159.44L260.039 1206.82ZM760.015 1374.49L776.395 1327.24L776.395 1327.24L760.015 1374.49ZM880.069 1351.48L913.14 1388.98L913.145 1388.98L880.069 1351.48ZM1277.96 1001.21L1311.01 1038.73L1311.04 1038.7L1311.07 1038.68L1277.96 1001.21ZM1311.11 952.057L1358.78 967.141L1358.78 967.122L1358.79 967.104L1311.11 952.057ZM1313.13 894.201L1264.12 904.098L1264.12 904.098L1313.13 894.201ZM1256.71 362.475C1250.96 334.07 1239.28 307.853 1220.23 286.028L1144.9 351.794C1150.79 358.542 1155.82 368.124 1158.7 382.309L1256.71 362.475ZM1220.25 286.054C1201.49 264.532 1177.4 249.381 1149.76 240.049L1117.77 334.794C1130.73 339.171 1139.12 345.171 1144.88 351.767L1220.25 286.054ZM1149.67 240.019C981.993 183.755 814.624 127.92 647.104 71.6016L615.238 166.388C782.679 222.681 950.516 278.673 1117.86 334.824L1149.67 240.019ZM647.102 71.6008C617.427 61.6259 587.177 58.7389 557.2 65.1949C527.309 71.6324 501.076 86.6278 478.203 107.19L545.056 181.558C557.539 170.337 568.501 165.054 578.254 162.954C587.921 160.872 599.764 161.187 615.24 166.389L647.102 71.6008ZM478.211 107.182C425.731 154.338 162.05 385.357 82.7982 455.459L149.052 530.361C227.158 461.273 492.307 228.955 545.048 181.566L478.211 107.182ZM82.8037 455.454C36.4693 496.426 19.8431 550.832 31.7399 609.809L129.765 590.036C124.618 564.518 130.574 546.701 149.047 530.366L82.8037 455.454ZM31.7387 609.803C49.2774 696.803 66.8444 783.796 84.4095 870.78C101.975 957.766 119.539 1044.74 137.074 1131.72L235.102 1111.96C217.563 1024.96 199.996 937.969 182.431 850.986C164.865 764 147.301 677.023 129.767 590.042L31.7387 609.803ZM137.077 1131.74C142.693 1159.55 154.003 1185.24 172.327 1206.77L248.492 1141.97C242.779 1135.26 237.895 1125.8 235.098 1111.95L137.077 1131.74ZM172.316 1206.76C191.226 1229 215.742 1244.64 244.054 1254.2L276.024 1159.44C262.797 1154.98 254.308 1148.81 248.502 1141.99L172.316 1206.76ZM244.042 1254.19C344.302 1288.05 676.989 1398.62 743.635 1421.73L776.395 1327.24C709.398 1304.01 374.824 1192.81 276.036 1159.45L244.042 1254.19ZM743.635 1421.73C772.705 1431.81 802.708 1435.45 832.762 1429.78C862.9 1424.09 889.66 1409.69 913.14 1388.98L846.997 1313.98C834.741 1324.79 823.944 1329.68 814.225 1331.51C804.42 1333.36 792.264 1332.75 776.395 1327.24L743.635 1421.73ZM913.145 1388.98C1045.68 1272.07 1178.29 1155.65 1311.01 1038.73L1244.9 963.692C1112.43 1080.4 979.483 1197.11 846.993 1313.99L913.145 1388.98ZM1311.07 1038.68C1333.47 1018.88 1349.98 994.944 1358.78 967.141L1263.44 936.974C1260.73 945.526 1255.29 954.512 1244.85 963.744L1311.07 1038.68ZM1358.79 967.104C1367.29 940.179 1367.76 912.137 1362.14 884.304L1264.12 904.098C1266.92 917.934 1266.09 928.567 1263.43 937.011L1358.79 967.104ZM1313.13 894.201C1362.14 884.304 1362.14 884.303 1362.14 884.3C1362.14 884.298 1362.14 884.294 1362.14 884.288C1362.14 884.278 1362.14 884.262 1362.13 884.241C1362.12 884.199 1362.11 884.135 1362.09 884.052C1362.06 883.884 1362.01 883.633 1361.94 883.301C1361.81 882.638 1361.61 881.65 1361.35 880.355C1360.82 877.765 1360.05 873.943 1359.06 869.017C1357.07 859.166 1354.19 844.899 1350.62 827.234C1343.48 791.905 1333.6 742.987 1322.62 688.632C1300.66 579.925 1274.31 449.467 1256.71 362.479L1158.69 382.305C1176.29 469.279 1202.64 599.726 1224.6 708.433C1235.58 762.786 1245.46 811.702 1252.6 847.03C1256.17 864.695 1259.05 878.962 1261.04 888.813C1262.03 893.738 1262.8 897.56 1263.33 900.15C1263.59 901.445 1263.79 902.432 1263.92 903.095C1263.99 903.427 1264.04 903.678 1264.07 903.846C1264.09 903.93 1264.1 903.993 1264.11 904.035C1264.11 904.056 1264.12 904.072 1264.12 904.083C1264.12 904.088 1264.12 904.092 1264.12 904.094C1264.12 904.097 1264.12 904.098 1313.13 894.201Z" fill="white" mask="url(#path-1-outside-1_32_26)"/>
<path d="M1202.78 372.798C1198.47 351.503 1190.12 333.603 1177.64 319.317C1165.39 305.257 1149.15 294.682 1128.85 287.828C961.335 231.62 793.732 175.706 626.251 119.401C581.1 104.224 542.066 112.997 506.709 144.78C454.099 192.053 189.684 423.721 111.005 493.316C78.6018 521.97 67.3107 558.081 75.8328 600.328C110.906 774.31 146.094 948.268 181.168 1122.25C185.374 1143.08 193.471 1160.65 205.489 1174.78C217.847 1189.31 234.35 1200.22 255.119 1207.23C354.643 1240.83 688.274 1351.72 755.095 1374.89C800.035 1390.47 839.413 1383.4 875.149 1351.89C1007.66 1235 1140.44 1118.43 1273.04 1001.62C1289.46 987.102 1300.44 970.641 1306.19 952.463C1311.77 934.779 1312.42 915.441 1308.21 894.607C1308.21 894.607 1237.97 546.76 1202.78 372.798Z" fill="#A179DC"/>
<path d="M693.381 745.454L205.489 1174.78C217.847 1189.31 234.35 1200.22 255.119 1207.23C354.643 1240.83 688.274 1351.72 755.095 1374.89C800.035 1390.47 839.413 1383.4 875.149 1351.89C1007.66 1235 1140.44 1118.43 1273.04 1001.62C1289.46 987.102 1300.44 970.641 1306.19 952.463L693.381 745.454Z" fill="#280068"/>
<path d="M1202.78 372.798C1198.47 351.502 1190.12 333.603 1177.64 319.317L693.382 745.459L1306.19 952.463C1311.77 934.779 1312.41 915.443 1308.21 894.607C1308.21 894.607 1237.97 546.76 1202.78 372.798" fill="#390091"/>
<path d="M994.431 560.998L1006.43 620.41L1065.85 608.411L1053.85 549L1083.56 543.001L1095.55 602.412L1154.97 590.413L1160.97 620.119L1101.55 632.117L1113.55 691.524L1172.97 679.526L1178.97 709.231L1119.55 721.23L1131.55 780.641L1101.84 786.64L1089.84 727.229L1030.42 739.227L1042.42 798.639L1012.71 804.638L1000.71 745.227L941.301 757.224L935.302 727.519L994.715 715.521L982.719 656.114L923.306 668.112L917.307 638.406L976.72 626.409L964.723 566.998L994.431 560.998ZM1071.84 638.112L1012.43 650.111L1024.42 709.522L1083.84 697.523L1071.84 638.112Z" fill="white"/>
<path d="M610.349 328.022C765.325 296.726 917.624 353.56 1015.36 464.017L1014.41 462.956L853.266 604.754C805.063 551.191 730.919 523.443 655.195 537.853L652.811 538.321C537.606 561.585 463.066 673.835 486.328 789.028C493.622 825.344 510.314 859.111 534.738 886.959C583.37 942.465 659.516 971.148 737.057 955.49C815.079 939.735 874.403 883.135 897.365 812.474L896.803 814.171L1100.17 882.868C1053.53 1021.38 937.021 1132.22 784.185 1164.82L779.525 1165.79C624.059 1197.19 471.271 1139.91 373.583 1028.76C325.895 974.491 291.331 907.398 276.004 831.5C229.288 600.161 378.972 374.74 610.343 328.018L610.349 328.022Z" fill="white"/>
</svg>
