<svg width="128" height="145" viewBox="0 0 128 145" fill="none" xmlns="http://www.w3.org/2000/svg">
<mask id="path-1-outside-1_21_142" maskUnits="userSpaceOnUse" x="-12.1162" y="0.375961" width="140.664" height="152.009" fill="black">
<rect fill="white" x="-12.1162" y="0.375961" width="140.664" height="152.009"/>
<path d="M7.12309 120.335L10.6812 7.17299L120.362 20.4374L96.8335 131.167L50.4118 138.188L7.12309 120.335Z"/>
<path d="M51.6304 128.678L89.1419 123.005L109.249 28.3806L64.4157 22.9586L51.6304 128.678Z"/>
<path d="M59.5103 63.5201L77.68 65.7174L80.6352 51.8086L61.2108 49.4595L62.8713 35.7286L97.3025 39.8925L88.5759 80.9669L57.8498 77.251L59.5103 63.5201Z"/>
<path d="M55.2792 99.1901L55.2164 99.2006L40.4242 93.2224L40.7707 82.1529L26.9891 80.4863L26.3047 102.279L53.4868 113.486L53.5515 113.476L55.2792 99.1901Z"/>
<path d="M74.9221 78.7264L71.0444 96.9144L55.2301 99.1962L53.5024 113.482L82.5947 109.085L88.6978 80.3924L74.9221 78.7264Z"/>
<path d="M62.918 35.7342L61.2574 49.4651L28.0911 45.4541L28.5226 31.5746L62.918 35.7342ZM59.5101 63.522L57.8495 77.253L42.7506 75.427L43.0641 65.2712L43.1821 61.5474L59.5101 63.522Z"/>
</mask>
<path d="M7.12309 120.335L10.6812 7.17299L120.362 20.4374L96.8335 131.167L50.4118 138.188L7.12309 120.335Z" fill="#1572B6"/>
<path d="M51.6304 128.678L89.1419 123.005L109.249 28.3806L64.4157 22.9586L51.6304 128.678Z" fill="#33A9DC"/>
<path d="M59.5103 63.5201L77.68 65.7174L80.6352 51.8086L61.2108 49.4595L62.8713 35.7286L97.3025 39.8925L88.5759 80.9669L57.8498 77.251L59.5103 63.5201Z" fill="white"/>
<path d="M55.2792 99.1901L55.2164 99.2006L40.4242 93.2224L40.7707 82.1529L26.9891 80.4863L26.3047 102.279L53.4868 113.486L53.5515 113.476L55.2792 99.1901Z" fill="#EBEBEB"/>
<path d="M74.9221 78.7264L71.0444 96.9144L55.2301 99.1962L53.5024 113.482L82.5947 109.085L88.6978 80.3924L74.9221 78.7264Z" fill="white"/>
<path d="M62.918 35.7342L61.2574 49.4651L28.0911 45.4541L28.5226 31.5746L62.918 35.7342ZM59.5101 63.522L57.8495 77.253L42.7506 75.427L43.0641 65.2712L43.1821 61.5474L59.5101 63.522Z" fill="#EBEBEB"/>
<path d="M7.12309 120.335L1.12606 120.147L0.995513 124.299L4.83556 125.882L7.12309 120.335ZM10.6812 7.17299L11.4016 1.21639L4.89033 0.428942L4.68421 6.98442L10.6812 7.17299ZM120.362 20.4374L126.231 21.6844L127.594 15.2683L121.082 14.4808L120.362 20.4374ZM96.8335 131.167L97.7307 137.1L101.839 136.479L102.702 132.415L96.8335 131.167ZM50.4118 138.188L48.1243 143.735L49.6632 144.369L51.309 144.12L50.4118 138.188ZM51.6304 128.678L45.6738 127.958L44.7265 135.791L52.5276 134.611L51.6304 128.678ZM89.1419 123.005L90.0391 128.937L94.1472 128.316L95.0108 124.252L89.1419 123.005ZM109.249 28.3806L115.118 29.6277L116.481 23.2115L109.969 22.424L109.249 28.3806ZM64.4157 22.9586L65.1361 17.002L59.1795 16.2816L58.4591 22.2382L64.4157 22.9586ZM59.5103 63.5201L60.2307 57.5635L54.2741 56.8431L53.5538 62.7997L59.5103 63.5201ZM77.68 65.7174L76.9596 71.674L82.4083 72.333L83.5489 66.9644L77.68 65.7174ZM80.6352 51.8086L86.5042 53.0556L87.8675 46.6395L81.3556 45.852L80.6352 51.8086ZM61.2108 49.4595L55.2542 48.7391L54.5338 54.6957L60.4904 55.4161L61.2108 49.4595ZM62.8713 35.7286L63.5917 29.772L57.6351 29.0516L56.9147 35.0082L62.8713 35.7286ZM97.3025 39.8925L103.171 41.1394L104.535 34.7234L98.0228 33.9359L97.3025 39.8925ZM88.5759 80.9669L87.8555 86.9235L93.3043 87.5825L94.4449 82.2138L88.5759 80.9669ZM57.8498 77.251L51.8932 76.5306L51.1728 82.4872L57.1294 83.2076L57.8498 77.251ZM55.2792 99.1901L61.2358 99.9104L62.1994 91.9424L54.2844 93.2731L55.2792 99.1901ZM55.2164 99.2006L52.9682 104.763L54.5397 105.399L56.2112 105.118L55.2164 99.2006ZM40.4242 93.2224L34.4271 93.0347L34.2962 97.2173L38.176 98.7853L40.4242 93.2224ZM40.7707 82.1529L46.7678 82.3407L46.9395 76.8553L41.4911 76.1963L40.7707 82.1529ZM26.9891 80.4863L27.7095 74.5297L21.198 73.7422L20.9921 80.2979L26.9891 80.4863ZM26.3047 102.279L20.3077 102.09L20.1773 106.242L24.0176 107.826L26.3047 102.279ZM53.4868 113.486L51.1997 119.033L52.762 119.677L54.4309 119.412L53.4868 113.486ZM53.5515 113.476L54.4956 119.401L58.9647 118.689L59.5081 114.196L53.5515 113.476ZM74.9221 78.7264L75.6425 72.7698L70.1976 72.1113L69.054 77.4753L74.9221 78.7264ZM71.0444 96.9144L71.9013 102.853L76.0405 102.256L76.9125 98.1655L71.0444 96.9144ZM55.2301 99.1962L54.3732 93.2577L49.8252 93.914L49.2735 98.4759L55.2301 99.1962ZM53.5024 113.482L47.5458 112.762L46.5986 120.594L54.399 119.415L53.5024 113.482ZM82.5947 109.085L83.4914 115.018L87.5991 114.397L88.4634 110.333L82.5947 109.085ZM88.6978 80.3924L94.5665 81.6407L95.9314 75.2235L89.4181 74.4358L88.6978 80.3924ZM62.918 35.7342L68.8746 36.4546L69.595 30.498L63.6384 29.7776L62.918 35.7342ZM61.2574 49.4651L60.5371 55.4217L66.4937 56.1421L67.214 50.1855L61.2574 49.4651ZM28.0911 45.4541L22.094 45.2677L21.9235 50.752L27.3707 51.4107L28.0911 45.4541ZM28.5226 31.5746L29.243 25.618L22.7294 24.8302L22.5255 31.3881L28.5226 31.5746ZM59.5101 63.522L65.4667 64.2424L66.1871 58.2858L60.2305 57.5654L59.5101 63.522ZM57.8495 77.253L57.1292 83.2096L63.0858 83.93L63.8061 77.9734L57.8495 77.253ZM42.7506 75.427L36.7534 75.2418L36.5841 80.725L42.0302 81.3836L42.7506 75.427ZM43.0641 65.2712L37.0672 65.0812L37.067 65.086L43.0641 65.2712ZM43.1821 61.5474L43.9024 55.5908L37.3927 54.8035L37.1851 61.3575L43.1821 61.5474ZM13.1201 120.524L16.6783 7.36155L4.68421 6.98442L1.12606 120.147L13.1201 120.524ZM9.96088 13.1296L119.642 26.394L121.082 14.4808L11.4016 1.21639L9.96088 13.1296ZM114.493 19.1903L90.9645 129.92L102.702 132.415L126.231 21.6844L114.493 19.1903ZM95.9363 125.235L49.5147 132.255L51.309 144.12L97.7307 137.1L95.9363 125.235ZM52.6994 132.641L9.41062 114.789L4.83556 125.882L48.1243 143.735L52.6994 132.641ZM52.5276 134.611L90.0391 128.937L88.2446 117.072L50.7331 122.746L52.5276 134.611ZM95.0108 124.252L115.118 29.6277L103.38 27.1334L83.2729 121.758L95.0108 124.252ZM109.969 22.424L65.1361 17.002L63.6953 28.9152L108.529 34.3372L109.969 22.424ZM58.4591 22.2382L45.6738 127.958L57.587 129.399L70.3723 23.679L58.4591 22.2382ZM58.79 69.4767L76.9596 71.674L78.4003 59.7608L60.2307 57.5635L58.79 69.4767ZM83.5489 66.9644L86.5042 53.0556L74.7663 50.5616L71.811 64.4704L83.5489 66.9644ZM81.3556 45.852L61.9311 43.5029L60.4904 55.4161L79.9149 57.7652L81.3556 45.852ZM67.1674 50.1799L68.8279 36.4489L56.9147 35.0082L55.2542 48.7391L67.1674 50.1799ZM62.151 41.6852L96.5821 45.8491L98.0228 33.9359L63.5917 29.772L62.151 41.6852ZM89.2963 75.0103L58.5701 71.2944L57.1294 83.2076L87.8555 86.9235L89.2963 75.0103ZM63.8064 77.9714L65.4669 64.2404L53.5538 62.7997L51.8932 76.5306L63.8064 77.9714ZM54.2844 93.2731L54.2217 93.2837L56.2112 105.118L56.2739 105.107L54.2844 93.2731ZM57.4646 93.6377L42.6724 87.6595L38.176 98.7853L52.9682 104.763L57.4646 93.6377ZM46.4213 93.4101L46.7678 82.3407L34.7737 81.9652L34.4271 93.0347L46.4213 93.4101ZM41.4911 76.1963L27.7095 74.5297L26.2688 86.4428L40.0503 88.1095L41.4911 76.1963ZM20.9921 80.2979L20.3077 102.09L32.3018 102.467L32.9862 80.6746L20.9921 80.2979ZM24.0176 107.826L51.1997 119.033L55.7739 107.939L28.5919 96.7317L24.0176 107.826ZM54.4309 119.412L54.4956 119.401L52.6073 107.551L52.5426 107.561L54.4309 119.412ZM59.5081 114.196L61.2358 99.9104L49.3226 98.4697L47.5949 112.756L59.5081 114.196ZM69.054 77.4753L65.1763 95.6633L76.9125 98.1655L80.7903 79.9775L69.054 77.4753ZM70.1876 90.9759L54.3732 93.2577L56.0869 105.135L71.9013 102.853L70.1876 90.9759ZM49.2735 98.4759L47.5458 112.762L59.459 114.203L61.1867 99.9166L49.2735 98.4759ZM54.399 119.415L83.4914 115.018L81.6981 103.153L52.6057 107.55L54.399 119.415ZM89.4181 74.4358L75.6425 72.7698L74.2018 84.683L87.9774 86.349L89.4181 74.4358ZM56.9614 35.0138L55.3008 48.7448L67.214 50.1855L68.8746 36.4546L56.9614 35.0138ZM61.9778 43.5085L28.8115 39.4975L27.3707 51.4107L60.5371 55.4217L61.9778 43.5085ZM27.8023 37.5312L62.1976 41.6908L63.6384 29.7776L29.243 25.618L27.8023 37.5312ZM53.5535 62.8017L51.8929 76.5326L63.8061 77.9734L65.4667 64.2424L53.5535 62.8017ZM58.5699 71.2964L43.4709 69.4704L42.0302 81.3836L57.1292 83.2096L58.5699 71.2964ZM49.0611 65.4611L49.1791 61.7373L37.1851 61.3575L37.0672 65.0812L49.0611 65.4611ZM42.4617 67.504L58.7897 69.4786L60.2305 57.5654L43.9024 55.5908L42.4617 67.504ZM91.4335 38.6456L82.7069 79.72L94.4449 82.2138L103.171 41.1394L91.4335 38.6456ZM88.4634 110.333L94.5665 81.6407L82.8291 79.1441L76.726 107.837L88.4634 110.333ZM34.0882 45.6406L34.5197 31.761L22.5255 31.3881L22.094 45.2677L34.0882 45.6406ZM48.7477 75.6122L49.0613 65.4564L37.067 65.086L36.7534 75.2418L48.7477 75.6122Z" fill="white" mask="url(#path-1-outside-1_21_142)"/>
</svg>
