<svg width="387" height="266" viewBox="0 0 387 266" fill="none" xmlns="http://www.w3.org/2000/svg">
<path d="M57.3701 158.584C57.7832 163.436 58.5596 168.233 59.6854 172.936L38.0554 169.261L38.0551 169.262L38.0529 169.265L38.043 169.281L38.0021 169.346C37.9657 169.404 37.9112 169.49 37.8405 169.602C37.6992 169.825 37.4936 170.148 37.2388 170.546C36.7286 171.343 36.0245 172.433 35.2477 173.608C33.6277 176.056 31.9012 178.551 30.9164 179.703C30.7 179.956 30.1058 180.496 29.0413 181.273C28.0489 181.998 26.8835 182.761 25.7368 183.471C24.5984 184.176 23.525 184.801 22.734 185.251C22.3399 185.475 22.0192 185.654 21.7998 185.775C21.6902 185.835 21.606 185.881 21.5508 185.912L21.5001 185.939C21.3628 186.012 21.1867 186.114 20.9958 186.247C20.8262 186.369 20.4357 186.697 20.2213 186.909C19.9217 187.254 19.314 188.236 19.0617 188.89C18.8659 189.86 19.0813 191.892 19.5138 192.865C19.9914 193.551 21.0143 194.485 21.4871 194.772C22.3016 195.207 23.0388 195.3 23.1969 195.32L23.209 195.322C23.6461 195.378 24.0017 195.362 24.0777 195.359L24.0849 195.358C24.2169 195.353 24.3258 195.343 24.3885 195.337C24.6093 195.316 24.8403 195.281 24.9831 195.258C25.326 195.205 25.8117 195.122 26.3886 195.019C27.5587 194.81 29.256 194.495 31.293 194.111C35.3733 193.342 40.8793 192.283 46.4014 191.215C51.9254 190.147 57.4727 189.067 61.6386 188.255C62.6859 188.05 63.6459 187.863 64.4964 187.697C67.0861 193.905 70.3251 199.852 74.1761 205.435L74.2363 205.522L74.3001 205.606L78.1934 210.768L78.2975 210.906L78.4108 211.036L78.8231 211.51L78.8724 211.567L78.9234 211.622C91.8118 225.584 108.23 235.808 126.445 241.216C144.612 246.609 163.896 247.012 182.271 242.383C244.496 230.459 293.417 196.371 315.391 139.812C315.498 139.793 315.607 139.775 315.718 139.756C317.713 139.415 320.545 138.931 323.896 138.353C330.595 137.198 339.374 135.671 347.678 134.185C355.964 132.702 363.837 131.249 368.695 130.245C370.889 129.791 373.029 129.324 374.071 128.921C374.232 128.859 374.612 128.709 375.029 128.454C375.225 128.335 375.653 128.061 376.09 127.601C376.452 127.221 377.455 126.054 377.483 124.201C377.515 122.052 376.254 120.693 375.473 120.106C374.764 119.574 374.088 119.362 373.829 119.286C373.251 119.118 372.752 119.084 372.583 119.073C371.847 119.026 370.863 119.097 369.972 119.174C362.203 119.846 357.921 119.691 355.363 118.71C354.285 118.296 353.597 117.758 353.049 117.02C352.446 116.208 351.834 114.908 351.349 112.73L349.044 102.377C356.324 96.5333 361.867 88.7886 365.045 79.9819L365.098 79.8349L365.142 79.6849L366.549 74.8619L367.878 70.3087L363.401 68.7421L358.645 67.0776L358.547 67.0434L358.448 67.0132C346.657 63.4284 334.046 64.04 322.731 68.6444C317.244 57.5204 308.162 48.5022 296.881 43.1072L292.482 40.7638L288.222 38.4944L285.804 42.6718L283.251 47.0834L283.136 47.2815L283.04 47.4893C277.966 58.4593 277.19 70.9314 280.861 82.4436C282.513 88.6024 285.455 94.3159 289.468 99.2164C287.957 100.288 286.388 101.278 284.767 102.181L284.751 102.19L284.734 102.199C278.686 105.631 272.122 108.062 265.298 109.398L254.457 111.469L249.312 84.5312L248.374 79.62L243.463 80.5581L217.22 85.5709L206.256 28.1743L205.318 23.2631L200.407 24.2013L163.022 31.3423L158.111 32.2805L159.049 37.1917L164.062 63.4343L106.665 74.398L101.754 75.3361L102.692 80.2473L107.705 106.49L81.4624 111.503L76.5512 112.441L77.4893 117.352L82.6325 144.277L60.945 148.42L56.4653 149.276L56.9066 153.815L57.3701 158.584ZM23.8508 190.352C26.1579 194.627 26.224 194.749 26.2262 194.752L23.8508 190.352ZM342.139 111.316C338.192 118.15 329.824 122.562 320.481 124.621C321.541 120.896 322.492 117.09 323.332 113.203C331.453 112.218 339.23 109.286 345.994 104.643L342.139 111.316Z" fill="white" stroke="white" stroke-width="10"/>
<path d="M213.775 91.9755L244.916 86.0269L251 117.876L266.763 114.865C274.12 113.426 281.197 110.805 287.717 107.106C291.15 105.192 294.373 102.925 297.334 100.342C291.941 95.2538 288.076 88.7604 286.176 81.5934C282.844 71.2419 283.528 60.0158 288.093 50.1458L290.647 45.7343L295.144 48.13C306.932 53.7373 316.093 63.6875 320.71 75.8973C332.027 69.903 345.256 68.6294 357.509 72.3546L362.265 74.019L360.858 78.842C357.77 87.3958 352.209 94.8386 344.881 100.224C337.554 105.61 328.79 108.695 319.704 109.088C305.567 181.425 252.972 224.444 181.703 238.058C164.157 242.504 145.736 242.131 128.383 236.98C111.031 231.828 95.3907 222.089 83.1128 208.789L82.7005 208.314L78.8072 203.153C69.7136 189.972 64.2184 174.645 62.8651 158.688L62.3985 153.889L88.9973 148.808L82.916 116.972L114.07 111.021L108.119 79.8668L170.427 67.965L164.476 36.8111L201.86 29.6701L213.762 91.9778L213.775 91.9755Z" fill="#3A4E55"/>
<path d="M316.973 84.4844C315.88 77.6034 313.086 71.1043 308.845 65.5769C304.603 60.0494 299.048 55.6687 292.685 52.8324C289.184 60.9034 288.529 69.9241 290.827 78.4161C293.125 86.9082 298.239 94.368 305.331 99.5731C295.402 110.354 282.198 117.564 267.761 120.09L68.0908 158.231C69.4204 174.492 75.3665 190.035 85.2295 203.032L88.2951 206.757C90.1979 208.921 92.2187 210.979 94.3482 212.92V212.92C102.658 211.882 110.26 210.623 117.156 209.143C128.392 207.068 139.25 203.307 149.361 197.987C149.923 197.664 150.589 197.578 151.213 197.747C151.838 197.916 152.37 198.327 152.692 198.888C153.014 199.449 153.1 200.115 152.931 200.74C152.762 201.364 152.352 201.896 151.791 202.218C150.747 202.816 149.651 203.412 148.512 203.977C141.44 207.493 133.997 210.209 126.323 212.074C126.869 211.97 125.768 212.27 125.768 212.27L124.767 212.552C121.193 213.44 117.368 214.222 113.334 214.993C108.977 215.825 104.629 216.566 99.83 217.238L99.7225 217.348C111.327 225.569 124.557 231.208 138.523 233.888C152.489 236.569 166.867 236.227 180.69 232.887C249.7 219.705 302.39 177.928 315.196 104.275C333.951 102.648 350.729 94.5806 355.763 77.358C349.185 75.4621 342.256 75.1191 335.523 76.3562C328.79 77.5933 322.435 80.3765 316.961 84.4868" fill="#00AADA"/>
<path d="M316.973 84.4844C315.88 77.6034 313.086 71.1043 308.845 65.5769C304.603 60.0494 299.048 55.6687 292.685 52.8323C289.184 60.9034 288.529 69.9241 290.827 78.4161C293.125 86.9082 298.239 94.368 305.331 99.5731C295.402 110.354 282.198 117.564 267.761 120.09L79.9193 155.971C81.0203 167.292 85.0284 178.136 91.5548 187.452C98.0813 196.768 106.905 204.239 117.169 209.14V209.14C128.405 207.066 139.262 203.304 149.374 197.984C149.652 197.825 149.958 197.721 150.276 197.68C150.594 197.639 150.916 197.661 151.226 197.745C151.535 197.829 151.825 197.972 152.078 198.168C152.332 198.364 152.545 198.607 152.704 198.885C152.864 199.163 152.967 199.47 153.008 199.787C153.049 200.105 153.027 200.428 152.943 200.737C152.86 201.046 152.716 201.336 152.52 201.59C152.325 201.844 152.081 202.056 151.803 202.216C150.759 202.814 149.664 203.409 148.524 203.974C141.263 207.589 133.63 210.402 125.76 212.362L125.472 212.134C151.258 219.7 185.307 213.145 221.49 190.693C262.607 164.181 295.947 127.229 318.106 83.612L316.978 84.4448" fill="#27B9EC"/>
<path d="M72.432 178.937C75.3105 187.624 79.6356 195.762 85.2247 203.008L88.2903 206.732C90.1931 208.896 92.2139 210.954 94.3435 212.896C102.653 211.857 110.256 210.598 117.152 209.118C128.387 207.043 139.245 203.282 149.357 197.962C149.634 197.802 149.941 197.699 150.259 197.658C150.577 197.617 150.899 197.639 151.209 197.723C151.518 197.806 151.808 197.95 152.061 198.146C152.315 198.341 152.528 198.585 152.687 198.863C152.847 199.141 152.95 199.447 152.991 199.765C153.032 200.083 153.01 200.405 152.926 200.715C152.843 201.024 152.699 201.314 152.503 201.567C152.307 201.821 152.064 202.034 151.786 202.193C150.742 202.791 149.647 203.387 148.507 203.952C141.249 207.533 133.623 210.314 125.764 212.246L124.523 212.483C120.949 213.371 117.137 214.228 113.14 214.991C108.784 215.823 104.324 216.585 99.4257 217.277C111.062 225.498 124.32 231.139 138.313 233.82C152.306 236.5 166.711 236.16 180.561 232.821C239.642 221.536 286.743 189.292 307.065 134.041L72.432 178.937Z" fill="#088CB9"/>
<path d="M85.6755 176.407C91.5737 190.951 102.846 202.665 117.152 209.118C128.387 207.043 139.245 203.282 149.357 197.962C149.918 197.64 150.584 197.554 151.209 197.723C151.833 197.892 152.365 198.302 152.687 198.863C153.009 199.424 153.095 200.09 152.926 200.715C152.757 201.339 152.347 201.871 151.786 202.193C150.742 202.791 149.647 203.387 148.507 203.952C141.209 207.536 133.547 210.324 125.652 212.267C151.437 219.833 185.363 213.173 221.532 190.71C243.81 176.622 263.812 159.223 280.85 139.113L85.6755 176.407Z" fill="#039CC7"/>
<path d="M112.154 119.106L114.288 118.698L118.587 141.201L116.452 141.608L112.154 119.106ZM108.058 119.888L110.279 119.464L114.578 141.966L112.356 142.391L108.058 119.888ZM103.962 120.67L106.183 120.246L110.482 142.749L108.273 143.171L103.974 120.668L103.962 120.67ZM99.8658 121.453L102.088 121.028L106.386 143.531L104.177 143.953L99.8782 121.45L99.8658 121.453ZM95.7699 122.235L97.9916 121.811L102.29 144.314L100.081 144.736L95.7823 122.233L95.7699 122.235ZM91.7608 123.001L93.8957 122.593L98.1941 145.096L96.084 145.499L91.7856 122.996L91.7608 123.001ZM89.0851 121.184L116.081 116.027L121.24 143.035L94.2566 148.189L89.0975 121.181L89.0851 121.184Z" fill="#00ACD3"/>
<path d="M137.369 81.9985L139.504 81.5907L143.802 104.093L141.667 104.501L137.369 81.9985ZM133.273 82.7809L135.495 82.3565L139.793 104.859L137.571 105.284L133.273 82.7809ZM129.177 83.5632L131.399 83.1389L135.697 105.642L133.475 106.066L129.177 83.5632ZM125.081 84.3456L127.303 83.9212L131.601 106.424L129.38 106.848L125.081 84.3456ZM120.985 85.128L123.195 84.706L127.493 107.209L125.284 107.631L120.985 85.128ZM116.976 85.8938L119.111 85.486L123.409 107.989L121.275 108.397L116.976 85.8938ZM114.301 84.0764L141.309 78.9174L146.468 105.926L119.472 111.082L114.311 84.0616L114.301 84.0764Z" fill="#00ACD3"/>
<path d="M143.32 113.152L145.455 112.745L149.753 135.247L147.618 135.655L143.32 113.152ZM139.224 113.935L141.446 113.51L145.744 136.013L143.522 136.438L139.224 113.935ZM135.128 114.717L137.35 114.293L141.648 136.796L139.426 137.22L135.128 114.717ZM131.032 115.5L133.254 115.075L137.552 137.578L135.33 138.002L131.032 115.5ZM126.936 116.282L129.145 115.86L133.444 138.363L131.235 138.785L126.936 116.282ZM122.927 117.048L125.062 116.64L129.36 139.143L127.225 139.55L122.927 117.048ZM120.251 115.23L147.26 110.071L152.419 137.08L125.423 142.236L120.264 115.228L120.251 115.23Z" fill="#26C2EE"/>
<path d="M174.461 107.204L176.596 106.796L180.895 129.299L178.76 129.707L174.461 107.204ZM170.365 107.986L172.587 107.562L176.886 130.065L174.676 130.487L170.378 107.984L170.365 107.986ZM166.269 108.769L168.491 108.344L172.79 130.847L170.58 131.269L166.282 108.766L166.269 108.769ZM162.174 109.551L164.42 109.122L168.719 131.625L166.497 132.049L162.198 109.546L162.174 109.551ZM158.078 110.333L160.299 109.909L164.598 132.412L162.376 132.836L158.078 110.333ZM154.069 111.099L156.203 110.691L160.502 133.194L158.367 133.602L154.069 111.099ZM151.393 109.282L178.401 104.123L183.56 131.131L156.577 136.285L151.418 109.277L151.393 109.282Z" fill="#00ACD3"/>
<path d="M168.51 76.0499L170.645 75.6421L174.944 98.1449L172.809 98.5527L168.51 76.0499ZM164.415 76.8323L166.636 76.4079L170.935 98.9107L168.725 99.3327L164.427 76.83L164.415 76.8323ZM160.319 77.6147L162.54 77.1903L166.839 99.6931L164.629 100.115L160.331 77.6123L160.319 77.6147ZM156.223 78.3971L158.469 77.968L162.768 100.471L160.546 100.895L156.247 78.3924L156.223 78.3971ZM152.127 79.1795L154.348 78.7551L158.647 101.258L156.425 101.682L152.127 79.1795ZM148.118 79.9453L150.253 79.5375L154.551 102.04L152.416 102.448L148.118 79.9453ZM145.442 78.1278L172.45 72.9688L177.609 99.9771L150.626 105.131L145.464 78.1107L145.442 78.1278Z" fill="#26C2EE"/>
<path d="M205.628 101.251L207.762 100.843L212.061 123.346L209.926 123.753L205.628 101.251ZM201.532 102.033L203.753 101.609L208.052 124.111L205.83 124.536L201.532 102.033V102.033ZM197.436 102.815L199.657 102.391L203.956 124.894L201.734 125.318L197.436 102.815V102.815ZM193.34 103.598L195.562 103.173L199.86 125.676L197.638 126.101L193.34 103.598ZM189.244 104.38L191.466 103.956L195.764 126.459L193.542 126.883L189.244 104.38V104.38ZM185.235 105.146L187.37 104.738L191.668 127.241L189.533 127.649L185.235 105.146ZM182.609 103.319L209.617 98.16L214.776 125.168L187.768 130.327L182.609 103.319Z" fill="#26C2EE"/>
<path d="M199.677 70.0967L201.812 69.6889L206.11 92.1917L203.975 92.5994L199.677 70.0967ZM195.581 70.8791L197.803 70.4547L202.101 92.9574L199.879 93.3818L195.581 70.8791V70.8791ZM191.485 71.6614L193.707 71.2371L198.005 93.7398L195.783 94.1642L191.485 71.6614V71.6614ZM187.389 72.4438L189.611 72.0195L193.909 94.5222L191.687 94.9466L187.389 72.4438ZM183.293 73.2262L185.515 72.8018L189.813 95.3046L187.591 95.729L183.293 73.2262V73.2262ZM179.284 73.992L181.419 73.5842L185.717 96.087L183.582 96.4948L179.284 73.992ZM176.608 72.1746L203.617 67.0156L208.776 94.0239L181.817 99.1734L176.656 72.1527L176.608 72.1746Z" fill="#00ACD3"/>
<path d="M193.723 38.9304L195.858 38.5226L200.157 61.0254L198.022 61.4332L193.723 38.9304ZM189.628 39.7128L191.849 39.2884L196.148 61.7912L193.926 62.2155L189.628 39.7128V39.7128ZM185.532 40.4951L187.753 40.0708L192.052 62.5735L189.83 62.9979L185.532 40.4951V40.4951ZM181.436 41.2775L183.657 40.8532L187.956 63.3559L185.734 63.7803L181.436 41.2775ZM177.34 42.0599L179.561 41.6355L183.86 64.1383L181.638 64.5627L177.34 42.0599V42.0599ZM173.331 42.8257L175.466 42.4179L179.764 64.9207L177.629 65.3285L173.331 42.8257ZM170.705 40.9988L197.713 35.8398L202.872 62.8481L175.864 68.0071L170.705 40.9988Z" fill="#26C2EE"/>
<path d="M236.782 95.2996L238.892 94.8966L243.19 117.399L241.08 117.802L236.782 95.2996ZM232.686 96.082L234.895 95.66L239.193 118.163L236.984 118.585L232.686 96.082ZM228.59 96.8644L230.811 96.44L235.11 118.943L232.888 119.367L228.59 96.8644ZM224.494 97.6468L226.715 97.2224L231.014 119.725L228.792 120.15L224.494 97.6468ZM220.398 98.4292L222.62 98.0048L226.918 120.508L224.696 120.932L220.398 98.4292ZM216.389 99.195L218.524 98.7872L222.822 121.29L220.687 121.698L216.389 99.195ZM213.713 97.3776L240.721 92.2185L245.88 119.227L218.885 124.384L213.725 97.3752L213.713 97.3776Z" fill="#00ACD3"/>
<path d="M159.093 181.179C160.566 180.897 162.089 181.059 163.47 181.644C164.851 182.228 166.028 183.209 166.851 184.462C167.675 185.715 168.108 187.184 168.097 188.684C168.085 190.183 167.63 191.646 166.787 192.886C165.945 194.126 164.753 195.089 163.363 195.652C161.974 196.216 160.448 196.354 158.98 196.051C157.511 195.747 156.166 195.014 155.114 193.946C154.061 192.878 153.35 191.521 153.068 190.048C152.691 188.073 153.114 186.029 154.244 184.366C155.373 182.702 157.118 181.556 159.093 181.179" fill="#D5EEF2"/>
<path d="M159.496 183.289C160.158 183.161 160.838 183.158 161.501 183.279C161.243 183.502 161.041 183.782 160.91 184.096C160.778 184.411 160.721 184.751 160.743 185.091C160.765 185.431 160.865 185.762 161.036 186.057C161.206 186.352 161.443 186.603 161.727 186.792C162.01 186.98 162.334 187.1 162.672 187.143C163.01 187.186 163.353 187.15 163.675 187.038C163.997 186.927 164.289 186.742 164.528 186.499C164.766 186.256 164.946 185.961 165.052 185.637C165.692 186.609 166.004 187.761 165.94 188.924C165.876 190.087 165.44 191.198 164.697 192.094C163.954 192.991 162.942 193.625 161.811 193.903C160.681 194.18 159.491 194.088 158.416 193.638C157.342 193.189 156.441 192.406 155.845 191.406C155.25 190.405 154.991 189.24 155.108 188.081C155.225 186.923 155.711 185.832 156.494 184.971C157.277 184.109 158.316 183.522 159.459 183.296" fill="#3A4E55"/>
<path d="M24.3787 190.908L370.919 124.713C363.008 124.243 346.193 124.779 346.984 114.374C336.301 132.869 302.313 134.486 292.459 128.225C285.739 143.492 230.619 148.708 224.838 138.916C215.791 154.795 179.66 161.697 165.397 150.27C163.682 161.494 110.471 176.971 98.597 165.255C91.7399 174.683 59.5654 185.73 42.8055 172.477C47.3956 181.893 31.5352 187.559 24.3662 190.91" fill="#3A4E55"/>
<path d="M189.144 231.079C172.662 227.494 158.146 217.808 148.509 203.964C140.857 207.642 132.826 210.47 124.558 212.399C120.988 213.286 117.214 214.115 113.236 214.883C108.651 215.759 103.793 216.545 98.6602 217.243C110.413 225.578 123.823 231.285 137.978 233.975C152.133 236.666 166.701 236.277 180.693 232.835C183.539 232.291 186.355 231.697 189.139 231.054" fill="#C0DBE1"/>
<path d="M157.651 214.645C154.231 211.422 151.166 207.841 148.509 203.964C140.857 207.642 132.826 210.47 124.558 212.399C135.311 215.444 146.583 216.201 157.646 214.621" fill="#D5EEF2"/>
</svg>
