<svg width="128" height="56" viewBox="0 0 128 56" fill="none" xmlns="http://www.w3.org/2000/svg">
<mask id="path-1-outside-1_17_19" maskUnits="userSpaceOnUse" x="-4.23519" y="-3.56429" width="134.627" height="68.2104" fill="black">
<rect fill="white" x="-4.23519" y="-3.56429" width="134.627" height="68.2104"/>
<path d="M36.5791 37.9012L43.758 11.7901L45.1754 12.1798L44.046 16.2874C44.2635 16.1515 44.4713 16.0007 44.6679 15.8361C45.5777 14.7931 46.7659 14.031 48.0933 13.6391C49.4206 13.2473 50.8322 13.242 52.1626 13.6237C55.4192 14.4154 57.7132 16.3321 58.4659 19.6296C58.9568 21.6845 58.9488 23.827 58.4426 25.8782C57.9364 27.9293 56.9467 29.8296 55.5562 31.4201C53.2341 34.2456 49.2457 34.8707 45.6084 33.238C44.4538 32.8123 43.4243 32.1042 42.6136 31.1785C41.8029 30.2527 41.237 29.1387 40.9673 27.9381L38.1122 38.3227L36.5791 37.9012ZM42.6357 21.417C42.4111 22.7243 42.2102 23.6439 42.1109 24.5708C41.7105 28.215 43.204 30.8554 46.3404 32.1222C47.7929 32.7904 49.4321 32.9344 50.9789 32.5294C52.5256 32.1244 53.884 31.1956 54.8226 29.9013C55.8533 28.5879 56.5929 27.0703 56.9921 25.4492C57.3913 23.828 57.441 22.1405 57.138 20.4987C56.9154 19.0461 56.2261 17.7054 55.1743 16.6791C54.1225 15.6527 52.7653 14.9965 51.3076 14.8095C49.9641 14.5428 48.5709 14.7013 47.3217 15.2631C46.0725 15.8248 45.0294 16.7618 44.3373 17.9439C43.7035 19.0678 43.1354 20.2274 42.6357 21.417V21.417ZM86.4097 37.2685C85.6895 39.0479 84.3476 40.5051 82.6335 41.3692C80.9193 42.2333 78.9497 42.4455 77.0909 41.9662C71.0692 40.6322 69.3668 35.9224 70.1745 31.2493C70.5462 28.6931 71.637 26.2954 73.3198 24.3357C74.4852 22.9946 76.0472 22.0591 77.7796 21.6647C79.5121 21.2703 81.3251 21.4374 82.9562 22.1418C84.5315 22.722 85.8845 23.783 86.8234 25.1747C87.7623 26.5664 88.2396 28.2181 88.1877 29.8961C88.0956 31.412 87.9194 32.9216 87.6601 34.418L72.0494 30.1261C70.6255 34.1734 71.9312 38.1001 74.8546 39.7646C78.5042 41.8051 82.3166 41.028 84.5548 37.6401C85.0873 36.7598 85.6161 36.76 86.4097 37.2685V37.2685ZM72.4125 28.8051L86.3648 32.6411C87.4869 28.2204 85.6233 24.2856 81.9243 23.2167C77.7389 21.9934 73.8682 24.2272 72.4125 28.8051ZM89.2566 38.155L90.6258 38.5314C90.3994 39.5528 90.4589 40.6168 90.7979 41.6066C91.1369 42.5963 91.7422 43.4734 92.5473 44.1415C93.5588 44.9784 94.7461 45.5763 96.0207 45.8908C97.2953 46.2053 98.6244 46.2283 99.9091 45.9581C100.598 45.8502 101.238 45.5335 101.742 45.0507C102.245 44.5679 102.589 43.9423 102.726 43.2581C102.939 42.6207 102.938 41.931 102.724 41.2939C102.51 40.6567 102.094 40.1067 101.539 39.7273C100.189 38.7545 98.673 38.0059 97.2751 37.0926C95.8048 36.1998 94.4019 35.2005 93.0775 34.1029C90.9404 32.219 92.0772 27.4808 95.2817 26.7647C96.9356 26.3503 98.667 26.3568 100.318 26.7835C101.969 27.2102 103.486 28.0435 104.732 29.2074C105.48 29.9373 105.988 30.8779 106.188 31.9037C106.387 32.9296 106.27 33.9919 105.85 34.9492L104.674 34.6257C104.69 34.5679 104.597 34.4905 104.613 34.4327C105.499 30.6421 102.674 28.6208 99.2092 28.0208C98.1676 27.8681 97.1075 27.8959 96.0753 28.1029C95.4621 28.2023 94.8948 28.4895 94.4518 28.9251C94.0089 29.3606 93.712 29.9229 93.6023 30.5343C93.4399 31.1316 93.4662 31.7645 93.6776 32.3462C93.889 32.9279 94.2752 33.43 94.7831 33.7836C96.1196 34.7318 97.5765 35.5058 98.9834 36.3489C100.115 37.023 101.327 37.5947 102.402 38.3258C103.163 38.8303 103.754 39.5543 104.095 40.4018C104.436 41.2493 104.512 42.1805 104.312 43.072C104.19 44.0754 103.755 45.0149 103.069 45.7571C102.382 46.4993 101.48 47.0064 100.489 47.2065C96.7674 48.1434 91.5967 46.2033 89.868 43.2493C89.4348 42.4826 89.1577 41.6376 89.0528 40.7633C88.9479 39.8889 89.0171 39.0024 89.2566 38.155ZM123.852 39.8985L122.57 39.5459C122.617 39.3724 122.592 39.1995 122.613 39.0496C122.856 38.0826 122.76 37.0613 122.341 36.1568C121.921 35.2522 121.203 34.5193 120.308 34.0807C118.666 33.0792 116.739 32.6479 114.827 32.8539C114.091 32.8619 113.378 33.1077 112.793 33.5544C112.209 34.0012 111.784 34.625 111.584 35.3328C111.368 36.0229 111.397 36.7661 111.666 37.4372C111.935 38.1082 112.427 38.6658 113.06 39.016C114.824 40.144 116.7 41.0538 118.509 42.1319C119.101 42.4586 119.674 42.8203 120.223 43.2151C121.047 43.793 121.677 44.6059 122.031 45.5475C122.385 46.4892 122.447 47.5157 122.208 48.4931C121.97 49.4705 121.442 50.3532 120.694 51.0259C119.946 51.6986 119.012 52.1299 118.015 52.2636C116.485 52.5074 114.92 52.4288 113.422 52.0329C111.923 51.637 110.524 50.9325 109.313 49.9645C108.318 49.1672 107.592 48.0843 107.231 46.8614C106.87 45.6385 106.892 44.3344 107.295 43.1246L108.548 43.4692C108.472 44.6517 108.686 45.8349 109.171 46.9162C109.655 47.9975 110.396 48.9444 111.329 49.6749C112.262 50.4054 113.359 50.8974 114.525 51.1084C115.691 51.3194 116.891 51.243 118.021 50.8858C118.689 50.7428 119.301 50.4114 119.786 49.9308C120.271 49.4502 120.608 48.8406 120.758 48.1742C120.965 47.5347 120.957 46.845 120.737 46.2099C120.517 45.5747 120.096 45.0287 119.537 44.6547C118.186 43.6819 116.668 42.943 115.27 42.0297C113.789 41.1414 112.374 40.1459 111.038 39.0513C108.954 37.2026 110.041 32.4923 113.198 31.763C114.879 31.3197 116.646 31.3191 118.327 31.7614C120.008 32.2036 121.547 33.0736 122.792 34.2867C123.494 35.0186 123.967 35.9388 124.156 36.9351C124.344 37.9314 124.238 38.961 123.852 39.8985V39.8985ZM36.1739 30.2086C35.6165 30.261 35.0593 30.1073 34.6074 29.7767C34.1556 29.4461 33.8406 28.9615 33.7218 28.4144C32.797 25.6295 31.6791 22.9057 30.6419 20.1523L30.1838 18.9892C27.4659 21.1044 24.7771 23.1135 22.2353 25.2667C21.8734 25.6589 21.3814 25.9062 20.8507 25.9625C20.3201 26.0189 19.7871 25.8804 19.3509 25.573L29.5534 17.6232L25.1046 6.68241C25.6532 6.63942 26.1998 6.78705 26.6522 7.10036C27.1045 7.41368 27.4349 7.87349 27.5875 8.40216C28.551 11.1976 29.7171 13.9346 30.8365 16.804C33.2698 14.9321 35.6546 13.161 37.945 11.2809C38.3061 10.8965 38.7959 10.6582 39.3212 10.6114C39.8466 10.5646 40.3708 10.7126 40.7942 11.0271L37.1231 13.8551C35.4805 15.1147 33.8544 16.3893 32.1741 17.597C32.0482 17.6597 31.937 17.7482 31.8477 17.8568C31.7583 17.9653 31.6929 18.0915 31.6556 18.2271C31.6183 18.3627 31.61 18.5046 31.6313 18.6436C31.6526 18.7826 31.703 18.9155 31.7791 19.0337C33.2432 22.7239 34.6854 26.4184 36.1739 30.2086V30.2086ZM73.0819 19.7693L72.7107 21.1192C71.7531 20.7871 70.7365 20.6595 69.7265 20.7446C68.7165 20.8298 67.7355 21.1257 66.847 21.6134C65.9584 22.1011 65.182 22.7697 64.5679 23.576C63.9537 24.3823 63.5154 25.3085 63.2814 26.2947L60.3653 36.9011L58.9864 36.522L64.238 17.4208L65.5879 17.7919L64.5116 21.7066C66.9644 19.3112 69.8305 18.9583 73.0819 19.7693V19.7693ZM4.27704 10.5391C4.74462 9.63052 5.15893 8.61398 5.70895 7.70735C9.0074 2.23601 16.4838 1.63654 20.1503 6.59594C22.2975 9.49903 22.1444 12.7342 21.0656 16.1297L5.6381 11.8881C3.70138 17.9517 7.10919 22.8711 13.2888 22.5373C14.2972 22.4613 15.2708 22.1354 16.1218 21.589C16.9727 21.0426 17.6742 20.2928 18.1629 19.4075C18.7269 18.5254 19.254 18.494 20.0932 19.0255C19.6196 20.1579 18.8954 21.1681 17.9751 21.9803C17.0549 22.7925 15.9624 23.3856 14.78 23.7148C12.8504 24.1709 10.8261 24.0052 8.9964 23.2413C7.16672 22.4775 5.62541 21.1547 4.59288 19.462C3.64106 17.5342 3.34614 15.3479 3.75316 13.2367C3.84329 12.9089 3.80808 12.5466 3.82541 12.2195C3.97627 11.6456 4.12682 11.0855 4.27704 10.5391V10.5391ZM6.02057 10.5725L19.9729 14.4084C21.1082 9.9395 19.1692 6.01507 15.4359 4.95756C11.2864 3.75449 7.45864 6.02085 6.01623 10.5505L6.02057 10.5725Z"/>
</mask>
<path d="M36.5791 37.9012L43.758 11.7901L45.1754 12.1798L44.046 16.2874C44.2635 16.1515 44.4713 16.0007 44.6679 15.8361C45.5777 14.7931 46.7659 14.031 48.0933 13.6391C49.4206 13.2473 50.8322 13.242 52.1626 13.6237C55.4192 14.4154 57.7132 16.3321 58.4659 19.6296C58.9568 21.6845 58.9488 23.827 58.4426 25.8782C57.9364 27.9293 56.9467 29.8296 55.5562 31.4201C53.2341 34.2456 49.2457 34.8707 45.6084 33.238C44.4538 32.8123 43.4243 32.1042 42.6136 31.1785C41.8029 30.2527 41.237 29.1387 40.9673 27.9381L38.1122 38.3227L36.5791 37.9012ZM42.6357 21.417C42.4111 22.7243 42.2102 23.6439 42.1109 24.5708C41.7105 28.215 43.204 30.8554 46.3404 32.1222C47.7929 32.7904 49.4321 32.9344 50.9789 32.5294C52.5256 32.1244 53.884 31.1956 54.8226 29.9013C55.8533 28.5879 56.5929 27.0703 56.9921 25.4492C57.3913 23.828 57.441 22.1405 57.138 20.4987C56.9154 19.0461 56.2261 17.7054 55.1743 16.6791C54.1225 15.6527 52.7653 14.9965 51.3076 14.8095C49.9641 14.5428 48.5709 14.7013 47.3217 15.2631C46.0725 15.8248 45.0294 16.7618 44.3373 17.9439C43.7035 19.0678 43.1354 20.2274 42.6357 21.417V21.417ZM86.4097 37.2685C85.6895 39.0479 84.3476 40.5051 82.6335 41.3692C80.9193 42.2333 78.9497 42.4455 77.0909 41.9662C71.0692 40.6322 69.3668 35.9224 70.1745 31.2493C70.5462 28.6931 71.637 26.2954 73.3198 24.3357C74.4852 22.9946 76.0472 22.0591 77.7796 21.6647C79.5121 21.2703 81.3251 21.4374 82.9562 22.1418C84.5315 22.722 85.8845 23.783 86.8234 25.1747C87.7623 26.5664 88.2396 28.2181 88.1877 29.8961C88.0956 31.412 87.9194 32.9216 87.6601 34.418L72.0494 30.1261C70.6255 34.1734 71.9312 38.1001 74.8546 39.7646C78.5042 41.8051 82.3166 41.028 84.5548 37.6401C85.0873 36.7598 85.6161 36.76 86.4097 37.2685V37.2685ZM72.4125 28.8051L86.3648 32.6411C87.4869 28.2204 85.6233 24.2856 81.9243 23.2167C77.7389 21.9934 73.8682 24.2272 72.4125 28.8051ZM89.2566 38.155L90.6258 38.5314C90.3994 39.5528 90.4589 40.6168 90.7979 41.6066C91.1369 42.5963 91.7422 43.4734 92.5473 44.1415C93.5588 44.9784 94.7461 45.5763 96.0207 45.8908C97.2953 46.2053 98.6244 46.2283 99.9091 45.9581C100.598 45.8502 101.238 45.5335 101.742 45.0507C102.245 44.5679 102.589 43.9423 102.726 43.2581C102.939 42.6207 102.938 41.931 102.724 41.2939C102.51 40.6567 102.094 40.1067 101.539 39.7273C100.189 38.7545 98.673 38.0059 97.2751 37.0926C95.8048 36.1998 94.4019 35.2005 93.0775 34.1029C90.9404 32.219 92.0772 27.4808 95.2817 26.7647C96.9356 26.3503 98.667 26.3568 100.318 26.7835C101.969 27.2102 103.486 28.0435 104.732 29.2074C105.48 29.9373 105.988 30.8779 106.188 31.9037C106.387 32.9296 106.27 33.9919 105.85 34.9492L104.674 34.6257C104.69 34.5679 104.597 34.4905 104.613 34.4327C105.499 30.6421 102.674 28.6208 99.2092 28.0208C98.1676 27.8681 97.1075 27.8959 96.0753 28.1029C95.4621 28.2023 94.8948 28.4895 94.4518 28.9251C94.0089 29.3606 93.712 29.9229 93.6023 30.5343C93.4399 31.1316 93.4662 31.7645 93.6776 32.3462C93.889 32.9279 94.2752 33.43 94.7831 33.7836C96.1196 34.7318 97.5765 35.5058 98.9834 36.3489C100.115 37.023 101.327 37.5947 102.402 38.3258C103.163 38.8303 103.754 39.5543 104.095 40.4018C104.436 41.2493 104.512 42.1805 104.312 43.072C104.19 44.0754 103.755 45.0149 103.069 45.7571C102.382 46.4993 101.48 47.0064 100.489 47.2065C96.7674 48.1434 91.5967 46.2033 89.868 43.2493C89.4348 42.4826 89.1577 41.6376 89.0528 40.7633C88.9479 39.8889 89.0171 39.0024 89.2566 38.155ZM123.852 39.8985L122.57 39.5459C122.617 39.3724 122.592 39.1995 122.613 39.0496C122.856 38.0826 122.76 37.0613 122.341 36.1568C121.921 35.2522 121.203 34.5193 120.308 34.0807C118.666 33.0792 116.739 32.6479 114.827 32.8539C114.091 32.8619 113.378 33.1077 112.793 33.5544C112.209 34.0012 111.784 34.625 111.584 35.3328C111.368 36.0229 111.397 36.7661 111.666 37.4372C111.935 38.1082 112.427 38.6658 113.06 39.016C114.824 40.144 116.7 41.0538 118.509 42.1319C119.101 42.4586 119.674 42.8203 120.223 43.2151C121.047 43.793 121.677 44.6059 122.031 45.5475C122.385 46.4892 122.447 47.5157 122.208 48.4931C121.97 49.4705 121.442 50.3532 120.694 51.0259C119.946 51.6986 119.012 52.1299 118.015 52.2636C116.485 52.5074 114.92 52.4288 113.422 52.0329C111.923 51.637 110.524 50.9325 109.313 49.9645C108.318 49.1672 107.592 48.0843 107.231 46.8614C106.87 45.6385 106.892 44.3344 107.295 43.1246L108.548 43.4692C108.472 44.6517 108.686 45.8349 109.171 46.9162C109.655 47.9975 110.396 48.9444 111.329 49.6749C112.262 50.4054 113.359 50.8974 114.525 51.1084C115.691 51.3194 116.891 51.243 118.021 50.8858C118.689 50.7428 119.301 50.4114 119.786 49.9308C120.271 49.4502 120.608 48.8406 120.758 48.1742C120.965 47.5347 120.957 46.845 120.737 46.2099C120.517 45.5747 120.096 45.0287 119.537 44.6547C118.186 43.6819 116.668 42.943 115.27 42.0297C113.789 41.1414 112.374 40.1459 111.038 39.0513C108.954 37.2026 110.041 32.4923 113.198 31.763C114.879 31.3197 116.646 31.3191 118.327 31.7614C120.008 32.2036 121.547 33.0736 122.792 34.2867C123.494 35.0186 123.967 35.9388 124.156 36.9351C124.344 37.9314 124.238 38.961 123.852 39.8985V39.8985ZM36.1739 30.2086C35.6165 30.261 35.0593 30.1073 34.6074 29.7767C34.1556 29.4461 33.8406 28.9615 33.7218 28.4144C32.797 25.6295 31.6791 22.9057 30.6419 20.1523L30.1838 18.9892C27.4659 21.1044 24.7771 23.1135 22.2353 25.2667C21.8734 25.6589 21.3814 25.9062 20.8507 25.9625C20.3201 26.0189 19.7871 25.8804 19.3509 25.573L29.5534 17.6232L25.1046 6.68241C25.6532 6.63942 26.1998 6.78705 26.6522 7.10036C27.1045 7.41368 27.4349 7.87349 27.5875 8.40216C28.551 11.1976 29.7171 13.9346 30.8365 16.804C33.2698 14.9321 35.6546 13.161 37.945 11.2809C38.3061 10.8965 38.7959 10.6582 39.3212 10.6114C39.8466 10.5646 40.3708 10.7126 40.7942 11.0271L37.1231 13.8551C35.4805 15.1147 33.8544 16.3893 32.1741 17.597C32.0482 17.6597 31.937 17.7482 31.8477 17.8568C31.7583 17.9653 31.6929 18.0915 31.6556 18.2271C31.6183 18.3627 31.61 18.5046 31.6313 18.6436C31.6526 18.7826 31.703 18.9155 31.7791 19.0337C33.2432 22.7239 34.6854 26.4184 36.1739 30.2086V30.2086ZM73.0819 19.7693L72.7107 21.1192C71.7531 20.7871 70.7365 20.6595 69.7265 20.7446C68.7165 20.8298 67.7355 21.1257 66.847 21.6134C65.9584 22.1011 65.182 22.7697 64.5679 23.576C63.9537 24.3823 63.5154 25.3085 63.2814 26.2947L60.3653 36.9011L58.9864 36.522L64.238 17.4208L65.5879 17.7919L64.5116 21.7066C66.9644 19.3112 69.8305 18.9583 73.0819 19.7693V19.7693ZM4.27704 10.5391C4.74462 9.63052 5.15893 8.61398 5.70895 7.70735C9.0074 2.23601 16.4838 1.63654 20.1503 6.59594C22.2975 9.49903 22.1444 12.7342 21.0656 16.1297L5.6381 11.8881C3.70138 17.9517 7.10919 22.8711 13.2888 22.5373C14.2972 22.4613 15.2708 22.1354 16.1218 21.589C16.9727 21.0426 17.6742 20.2928 18.1629 19.4075C18.7269 18.5254 19.254 18.494 20.0932 19.0255C19.6196 20.1579 18.8954 21.1681 17.9751 21.9803C17.0549 22.7925 15.9624 23.3856 14.78 23.7148C12.8504 24.1709 10.8261 24.0052 8.9964 23.2413C7.16672 22.4775 5.62541 21.1547 4.59288 19.462C3.64106 17.5342 3.34614 15.3479 3.75316 13.2367C3.84329 12.9089 3.80808 12.5466 3.82541 12.2195C3.97627 11.6456 4.12682 11.0855 4.27704 10.5391V10.5391ZM6.02057 10.5725L19.9729 14.4084C21.1082 9.9395 19.1692 6.01507 15.4359 4.95756C11.2864 3.75449 7.45864 6.02085 6.01623 10.5505L6.02057 10.5725Z" fill="black"/>
<path d="M36.5791 37.9012L43.758 11.7901L45.1754 12.1798L44.046 16.2874C44.2635 16.1515 44.4713 16.0007 44.6679 15.8361C45.5777 14.7931 46.7659 14.031 48.0933 13.6391C49.4206 13.2473 50.8322 13.242 52.1626 13.6237C55.4192 14.4154 57.7132 16.3321 58.4659 19.6296C58.9568 21.6845 58.9488 23.827 58.4426 25.8782C57.9364 27.9293 56.9467 29.8296 55.5562 31.4201C53.2341 34.2456 49.2457 34.8707 45.6084 33.238C44.4538 32.8123 43.4243 32.1042 42.6136 31.1785C41.8029 30.2527 41.237 29.1387 40.9673 27.9381L38.1122 38.3227L36.5791 37.9012ZM42.6357 21.417C42.4111 22.7243 42.2102 23.6439 42.1109 24.5708C41.7105 28.215 43.204 30.8554 46.3404 32.1222C47.7929 32.7904 49.4321 32.9344 50.9789 32.5294C52.5256 32.1244 53.884 31.1956 54.8226 29.9013C55.8533 28.5879 56.5929 27.0703 56.9921 25.4492C57.3913 23.828 57.441 22.1405 57.138 20.4987C56.9154 19.0461 56.2261 17.7054 55.1743 16.6791C54.1225 15.6527 52.7653 14.9965 51.3076 14.8095C49.9641 14.5428 48.5709 14.7013 47.3217 15.2631C46.0725 15.8248 45.0294 16.7618 44.3373 17.9439C43.7035 19.0678 43.1354 20.2274 42.6357 21.417V21.417ZM86.4097 37.2685C85.6895 39.0479 84.3476 40.5051 82.6335 41.3692C80.9193 42.2333 78.9497 42.4455 77.0909 41.9662C71.0692 40.6322 69.3668 35.9224 70.1745 31.2493C70.5462 28.6931 71.637 26.2954 73.3198 24.3357C74.4852 22.9946 76.0472 22.0591 77.7796 21.6647C79.5121 21.2703 81.3251 21.4374 82.9562 22.1418C84.5315 22.722 85.8845 23.783 86.8234 25.1747C87.7623 26.5664 88.2396 28.2181 88.1877 29.8961C88.0956 31.412 87.9194 32.9216 87.6601 34.418L72.0494 30.1261C70.6255 34.1734 71.9312 38.1001 74.8546 39.7646C78.5042 41.8051 82.3166 41.028 84.5548 37.6401C85.0873 36.7598 85.6161 36.76 86.4097 37.2685V37.2685ZM72.4125 28.8051L86.3648 32.6411C87.4869 28.2204 85.6233 24.2856 81.9243 23.2167C77.7389 21.9934 73.8682 24.2272 72.4125 28.8051ZM89.2566 38.155L90.6258 38.5314C90.3994 39.5528 90.4589 40.6168 90.7979 41.6066C91.1369 42.5963 91.7422 43.4734 92.5473 44.1415C93.5588 44.9784 94.7461 45.5763 96.0207 45.8908C97.2953 46.2053 98.6244 46.2283 99.9091 45.9581C100.598 45.8502 101.238 45.5335 101.742 45.0507C102.245 44.5679 102.589 43.9423 102.726 43.2581C102.939 42.6207 102.938 41.931 102.724 41.2939C102.51 40.6567 102.094 40.1067 101.539 39.7273C100.189 38.7545 98.673 38.0059 97.2751 37.0926C95.8048 36.1998 94.4019 35.2005 93.0775 34.1029C90.9404 32.219 92.0772 27.4808 95.2817 26.7647C96.9356 26.3503 98.667 26.3568 100.318 26.7835C101.969 27.2102 103.486 28.0435 104.732 29.2074C105.48 29.9373 105.988 30.8779 106.188 31.9037C106.387 32.9296 106.27 33.9919 105.85 34.9492L104.674 34.6257C104.69 34.5679 104.597 34.4905 104.613 34.4327C105.499 30.6421 102.674 28.6208 99.2092 28.0208C98.1676 27.8681 97.1075 27.8959 96.0753 28.1029C95.4621 28.2023 94.8948 28.4895 94.4518 28.9251C94.0089 29.3606 93.712 29.9229 93.6023 30.5343C93.4399 31.1316 93.4662 31.7645 93.6776 32.3462C93.889 32.9279 94.2752 33.43 94.7831 33.7836C96.1196 34.7318 97.5765 35.5058 98.9834 36.3489C100.115 37.023 101.327 37.5947 102.402 38.3258C103.163 38.8303 103.754 39.5543 104.095 40.4018C104.436 41.2493 104.512 42.1805 104.312 43.072C104.19 44.0754 103.755 45.0149 103.069 45.7571C102.382 46.4993 101.48 47.0064 100.489 47.2065C96.7674 48.1434 91.5967 46.2033 89.868 43.2493C89.4348 42.4826 89.1577 41.6376 89.0528 40.7633C88.9479 39.8889 89.0171 39.0024 89.2566 38.155ZM123.852 39.8985L122.57 39.5459C122.617 39.3724 122.592 39.1995 122.613 39.0496C122.856 38.0826 122.76 37.0613 122.341 36.1568C121.921 35.2522 121.203 34.5193 120.308 34.0807C118.666 33.0792 116.739 32.6479 114.827 32.8539C114.091 32.8619 113.378 33.1077 112.793 33.5544C112.209 34.0012 111.784 34.625 111.584 35.3328C111.368 36.0229 111.397 36.7661 111.666 37.4372C111.935 38.1082 112.427 38.6658 113.06 39.016C114.824 40.144 116.7 41.0538 118.509 42.1319C119.101 42.4586 119.674 42.8203 120.223 43.2151C121.047 43.793 121.677 44.6059 122.031 45.5475C122.385 46.4892 122.447 47.5157 122.208 48.4931C121.97 49.4705 121.442 50.3532 120.694 51.0259C119.946 51.6986 119.012 52.1299 118.015 52.2636C116.485 52.5074 114.92 52.4288 113.422 52.0329C111.923 51.637 110.524 50.9325 109.313 49.9645C108.318 49.1672 107.592 48.0843 107.231 46.8614C106.87 45.6385 106.892 44.3344 107.295 43.1246L108.548 43.4692C108.472 44.6517 108.686 45.8349 109.171 46.9162C109.655 47.9975 110.396 48.9444 111.329 49.6749C112.262 50.4054 113.359 50.8974 114.525 51.1084C115.691 51.3194 116.891 51.243 118.021 50.8858C118.689 50.7428 119.301 50.4114 119.786 49.9308C120.271 49.4502 120.608 48.8406 120.758 48.1742C120.965 47.5347 120.957 46.845 120.737 46.2099C120.517 45.5747 120.096 45.0287 119.537 44.6547C118.186 43.6819 116.668 42.943 115.27 42.0297C113.789 41.1414 112.374 40.1459 111.038 39.0513C108.954 37.2026 110.041 32.4923 113.198 31.763C114.879 31.3197 116.646 31.3191 118.327 31.7614C120.008 32.2036 121.547 33.0736 122.792 34.2867C123.494 35.0186 123.967 35.9388 124.156 36.9351C124.344 37.9314 124.238 38.961 123.852 39.8985V39.8985ZM36.1739 30.2086C35.6165 30.261 35.0593 30.1073 34.6074 29.7767C34.1556 29.4461 33.8406 28.9615 33.7218 28.4144C32.797 25.6295 31.6791 22.9057 30.6419 20.1523L30.1838 18.9892C27.4659 21.1044 24.7771 23.1135 22.2353 25.2667C21.8734 25.6589 21.3814 25.9062 20.8507 25.9625C20.3201 26.0189 19.7871 25.8804 19.3509 25.573L29.5534 17.6232L25.1046 6.68241C25.6532 6.63942 26.1998 6.78705 26.6522 7.10036C27.1045 7.41368 27.4349 7.87349 27.5875 8.40216C28.551 11.1976 29.7171 13.9346 30.8365 16.804C33.2698 14.9321 35.6546 13.161 37.945 11.2809C38.3061 10.8965 38.7959 10.6582 39.3212 10.6114C39.8466 10.5646 40.3708 10.7126 40.7942 11.0271L37.1231 13.8551C35.4805 15.1147 33.8544 16.3893 32.1741 17.597C32.0482 17.6597 31.937 17.7482 31.8477 17.8568C31.7583 17.9653 31.6929 18.0915 31.6556 18.2271C31.6183 18.3627 31.61 18.5046 31.6313 18.6436C31.6526 18.7826 31.703 18.9155 31.7791 19.0337C33.2432 22.7239 34.6854 26.4184 36.1739 30.2086V30.2086ZM73.0819 19.7693L72.7107 21.1192C71.7531 20.7871 70.7365 20.6595 69.7265 20.7446C68.7165 20.8298 67.7355 21.1257 66.847 21.6134C65.9584 22.1011 65.182 22.7697 64.5679 23.576C63.9537 24.3823 63.5154 25.3085 63.2814 26.2947L60.3653 36.9011L58.9864 36.522L64.238 17.4208L65.5879 17.7919L64.5116 21.7066C66.9644 19.3112 69.8305 18.9583 73.0819 19.7693V19.7693ZM4.27704 10.5391C4.74462 9.63052 5.15893 8.61398 5.70895 7.70735C9.0074 2.23601 16.4838 1.63654 20.1503 6.59594C22.2975 9.49903 22.1444 12.7342 21.0656 16.1297L5.6381 11.8881C3.70138 17.9517 7.10919 22.8711 13.2888 22.5373C14.2972 22.4613 15.2708 22.1354 16.1218 21.589C16.9727 21.0426 17.6742 20.2928 18.1629 19.4075C18.7269 18.5254 19.254 18.494 20.0932 19.0255C19.6196 20.1579 18.8954 21.1681 17.9751 21.9803C17.0549 22.7925 15.9624 23.3856 14.78 23.7148C12.8504 24.1709 10.8261 24.0052 8.9964 23.2413C7.16672 22.4775 5.62541 21.1547 4.59288 19.462C3.64106 17.5342 3.34614 15.3479 3.75316 13.2367C3.84329 12.9089 3.80808 12.5466 3.82541 12.2195C3.97627 11.6456 4.12682 11.0855 4.27704 10.5391V10.5391ZM6.02057 10.5725L19.9729 14.4084C21.1082 9.9395 19.1692 6.01507 15.4359 4.95756C11.2864 3.75449 7.45864 6.02085 6.01623 10.5505L6.02057 10.5725Z" stroke="white" stroke-width="6" mask="url(#path-1-outside-1_17_19)"/>
</svg>
