<svg width="114" height="143" viewBox="0 0 114 143" fill="none" xmlns="http://www.w3.org/2000/svg">
<mask id="path-1-outside-1_23_162" maskUnits="userSpaceOnUse" x="-2.8277" y="-3.48735" width="119.655" height="155.975" fill="black">
<rect fill="white" x="-2.8277" y="-3.48735" width="119.655" height="155.975"/>
<path d="M26.3856 135.206C38.1601 136.93 49.0492 128.821 50.7726 117.047L53.8863 95.7733L32.613 92.6597C20.8384 90.9363 9.94934 99.0448 8.22595 110.819C6.50256 122.594 14.6111 133.483 26.3856 135.206Z"/>
<path d="M14.4533 68.2726C16.1767 56.4981 27.0658 48.3896 38.8403 50.113L60.1137 53.2267L53.8863 95.7733L32.613 92.6597C20.8384 90.9363 12.7299 80.0472 14.4533 68.2726Z"/>
<path d="M20.6807 25.726C22.4041 13.9514 33.2932 5.84291 45.0677 7.5663L66.3411 10.68L60.1137 53.2267L38.8403 50.113C27.0658 48.3896 18.9573 37.5005 20.6807 25.726Z"/>
<path d="M66.3411 10.68L87.6144 13.7937C99.3889 15.5171 107.497 26.4061 105.774 38.1807C104.051 49.9552 93.1616 58.0637 81.387 56.3403L60.1137 53.2267L66.3411 10.68Z"/>
<path d="M99.5467 80.7274C97.8233 92.5019 86.9342 100.61 75.1597 98.887C63.3851 97.1636 55.2766 86.2745 57 74.5C58.7234 62.7255 69.6125 54.617 81.387 56.3403C93.1616 58.0637 101.27 68.9528 99.5467 80.7274Z"/>
</mask>
<path d="M26.3856 135.206C38.1601 136.93 49.0492 128.821 50.7726 117.047L53.8863 95.7733L32.613 92.6597C20.8384 90.9363 9.94934 99.0448 8.22595 110.819C6.50256 122.594 14.6111 133.483 26.3856 135.206Z" fill="#0ACF83"/>
<path d="M14.4533 68.2726C16.1767 56.4981 27.0658 48.3896 38.8403 50.113L60.1137 53.2267L53.8863 95.7733L32.613 92.6597C20.8384 90.9363 12.7299 80.0472 14.4533 68.2726Z" fill="#A259FF"/>
<path d="M20.6807 25.726C22.4041 13.9514 33.2932 5.84291 45.0677 7.5663L66.3411 10.68L60.1137 53.2267L38.8403 50.113C27.0658 48.3896 18.9573 37.5005 20.6807 25.726Z" fill="#F24E1E"/>
<path d="M66.3411 10.68L87.6144 13.7937C99.3889 15.5171 107.497 26.4061 105.774 38.1807C104.051 49.9552 93.1616 58.0637 81.387 56.3403L60.1137 53.2267L66.3411 10.68Z" fill="#FF7262"/>
<path d="M99.5467 80.7274C97.8233 92.5019 86.9342 100.61 75.1597 98.887C63.3851 97.1636 55.2766 86.2745 57 74.5C58.7234 62.7255 69.6125 54.617 81.387 56.3403C93.1616 58.0637 101.27 68.9528 99.5467 80.7274Z" fill="#1ABCFE"/>
<path d="M60.1137 53.2267L59.6068 56.6898L63.0699 57.1966L63.5768 53.7335L60.1137 53.2267ZM54.3932 92.3102L33.1199 89.1966L32.1061 96.1228L53.3794 99.2364L54.3932 92.3102ZM38.3335 53.5761L59.6068 56.6898L60.6206 49.7636L39.3472 46.6499L38.3335 53.5761ZM62.878 10.1731L56.6506 52.7198L63.5768 53.7335L69.8042 11.1869L62.878 10.1731ZM60.1137 53.2267L61.1274 46.3005L54.2012 45.2867L53.1875 52.2129L60.1137 53.2267ZM25.3718 142.133C40.9716 144.416 55.4156 133.66 57.6988 118.06L43.8464 116.033C42.6829 123.982 35.3487 129.444 27.3994 128.28L25.3718 142.133ZM57.6988 118.06L60.8125 96.7871L46.9601 94.7596L43.8464 116.033L57.6988 118.06ZM33.6267 85.7335C18.0269 83.4502 3.58302 94.2058 1.29974 109.806L15.1522 111.833C16.3157 103.884 23.6499 98.4224 31.5992 99.5859L33.6267 85.7335ZM1.29974 109.806C-0.983527 125.405 9.77206 139.849 25.3718 142.133L27.3994 128.28C19.4501 127.117 13.9886 119.782 15.1522 111.833L1.29974 109.806ZM21.3795 69.2864C22.543 61.3371 29.8773 55.8757 37.8266 57.0392L39.8541 43.1868C24.2543 40.9035 9.81039 51.6591 7.52711 67.2589L21.3795 69.2864ZM53.1875 52.2129L46.9601 94.7596L60.8125 96.7871L67.0399 54.2404L53.1875 52.2129ZM33.6267 85.7335C25.6774 84.5699 20.216 77.2357 21.3795 69.2864L7.52711 67.2589C5.24384 82.8587 15.9994 97.3026 31.5992 99.5859L33.6267 85.7335ZM27.6069 26.7397C28.7704 18.7904 36.1046 13.329 44.054 14.4925L46.0815 0.640095C30.4817 -1.64318 16.0378 9.11241 13.7545 24.7122L27.6069 26.7397ZM44.054 14.4925L65.3273 17.6062L67.3548 3.75378L46.0815 0.640095L44.054 14.4925ZM39.8541 43.1868C31.9048 42.0233 26.4434 34.689 27.6069 26.7397L13.7545 24.7122C11.4712 40.312 22.2268 54.7559 37.8266 57.0392L39.8541 43.1868ZM65.3273 17.6062L86.6006 20.7199L88.6281 6.86746L67.3548 3.75378L65.3273 17.6062ZM86.6006 20.7199C94.5499 21.8834 100.011 29.2176 98.8478 37.1669L112.7 39.1945C114.984 23.5947 104.228 9.15074 88.6281 6.86746L86.6006 20.7199ZM98.8478 37.1669C97.6843 45.1162 90.3501 50.5776 82.4008 49.4141L80.3733 63.2666C95.973 65.5498 110.417 54.7942 112.7 39.1945L98.8478 37.1669ZM82.4008 49.4141L61.1274 46.3005L59.0999 60.1529L80.3733 63.2666L82.4008 49.4141ZM92.6205 79.7136C91.457 87.6629 84.1227 93.1243 76.1734 91.9608L74.1459 105.813C89.7457 108.097 104.19 97.3409 106.473 81.7411L92.6205 79.7136ZM76.1734 91.9608C68.2241 90.7973 62.7627 83.4631 63.9262 75.5138L50.0738 73.4862C47.7905 89.086 58.5461 103.53 74.1459 105.813L76.1734 91.9608ZM63.9262 75.5138C65.0897 67.5645 72.424 62.103 80.3733 63.2666L82.4008 49.4141C66.801 47.1309 52.3571 57.8865 50.0738 73.4862L63.9262 75.5138ZM80.3733 63.2666C88.3226 64.4301 93.784 71.7643 92.6205 79.7136L106.473 81.7411C108.756 66.1413 98.0006 51.6974 82.4008 49.4141L80.3733 63.2666Z" fill="white" mask="url(#path-1-outside-1_23_162)"/>
</svg>
