<svg width="305" height="307" viewBox="0 0 305 307" fill="none" xmlns="http://www.w3.org/2000/svg">
<path d="M106.976 35.6341L106.976 35.6342C105.048 36.9208 103.643 38.9522 102.123 41.5517C100.519 44.2958 98.3477 48.4953 95.109 54.9544L95.1089 54.9545L87.1112 70.9065L87.1058 70.9172L87.1005 70.9279L80.1263 85.006L80.1259 85.0067L56.2933 133.133L32.4606 181.26L31.8145 182.565L31.9698 184.012L32.3712 187.755C32.3712 187.755 32.3712 187.755 32.3712 187.755C33.0485 194.075 36.061 199.141 41.2551 202.876L41.2554 202.876C41.8768 203.323 42.9908 203.957 44.1607 204.605C45.4536 205.321 47.1686 206.244 49.2321 207.338C53.3634 209.529 58.9624 212.441 65.5246 215.82C78.653 222.582 95.6861 231.241 112.651 239.794C129.616 248.347 146.525 256.801 159.405 263.152C165.842 266.326 171.288 268.983 175.236 270.866C177.206 271.805 178.829 272.564 180.024 273.102C180.618 273.369 181.143 273.598 181.569 273.772C181.779 273.858 182.006 273.947 182.226 274.024L182.237 274.028C182.374 274.076 182.821 274.234 183.345 274.317L183.346 274.318C185.999 274.741 188.865 274.409 191.422 273.706C194.009 272.996 196.652 271.807 198.854 270.172L198.855 270.171C199.797 269.472 200.489 268.513 200.905 267.911C201.419 267.165 202.008 266.206 202.688 265.025C204.055 262.654 205.972 259.073 208.685 253.823C214.122 243.302 222.893 225.803 237.117 197.233C250.392 170.57 259.085 152.966 264.494 141.723C267.196 136.107 269.1 132.033 270.351 129.192C270.975 127.776 271.46 126.612 271.807 125.689C272.09 124.938 272.477 123.854 272.586 122.839C273.207 117.057 270.92 110.239 266.845 106.127L266.845 106.127C266.309 105.587 265.623 105.148 265.348 104.973L265.32 104.955C264.889 104.68 264.354 104.359 263.747 104.006C262.527 103.296 260.866 102.37 258.85 101.269C254.808 99.0642 249.22 96.0954 242.616 92.6319C229.4 85.7016 212.037 76.7526 194.659 67.891C177.281 59.0294 159.871 50.2467 146.558 43.6494C139.906 40.3524 134.257 37.5918 130.142 35.6377C128.089 34.6629 126.386 33.8737 125.118 33.315C124.489 33.0378 123.923 32.7978 123.454 32.6156C123.222 32.5254 122.967 32.4312 122.715 32.3497L122.71 32.3482C122.546 32.2954 122.049 32.1352 121.458 32.0696L121.458 32.0695C119.032 31.7999 116.329 32.1283 113.946 32.7166C111.558 33.3062 109.013 34.2751 106.976 35.6341Z" fill="white" stroke="white" stroke-width="10"/>
<path fill-rule="evenodd" clip-rule="evenodd" d="M109.751 39.7933C107.984 40.9726 106.079 44.2312 99.5786 57.1955L91.5809 73.1474L108.992 82.0407L126.404 90.934L129.108 89.3731C139.386 83.4405 154.416 91.2188 155.763 103.168L156.139 106.505L172.609 114.948L189.078 123.39L193.486 121.558C201.353 118.286 208.399 119.672 214.208 125.633C218.753 130.296 220.219 134.743 219.347 141.216C217.271 156.628 198.984 162.724 188.156 151.613C185.57 148.96 184.715 147.596 183.714 144.527C183.033 142.438 182.515 139.932 182.563 138.959C182.648 137.28 181.861 136.787 167.16 129.301L151.667 121.412L161.962 152.548L172.256 183.683L176.123 185.304C188.628 190.546 191.917 205.641 182.69 215.443C179.961 218.341 178.995 218.962 175.356 220.156C168.126 222.528 161.293 220.78 156.033 215.213C149.651 208.458 149.101 197.877 154.775 191.009L157.141 188.144L146.709 156.591L136.276 125.037L132.697 124.083C128.713 123.02 124.304 119.858 122.088 116.472C120.641 114.264 118.681 107.749 118.86 105.75C118.925 105.021 113.855 102.118 101.78 95.9696L84.6066 87.2256L60.774 135.352L36.9413 183.479L37.3427 187.222C37.8643 192.089 40.1025 195.888 44.1742 198.816C49.474 202.627 180.828 268.852 184.134 269.38C187.642 269.94 192.618 268.574 195.874 266.157C197.625 264.857 204.185 252.162 232.642 195.005C259.194 141.672 267.357 124.704 267.615 122.305C268.082 117.96 266.269 112.648 263.294 109.647C260.235 106.561 124.732 37.4643 120.906 37.039C117.59 36.6704 112.577 37.9078 109.751 39.7933Z" fill="#F05033"/>
</svg>
