<svg width="134" height="147" viewBox="0 0 134 147" fill="none" xmlns="http://www.w3.org/2000/svg">
<mask id="path-1-outside-1_21_155" maskUnits="userSpaceOnUse" x="0.533936" y="0.429807" width="147.054" height="157.445" fill="black">
<rect fill="white" x="0.533936" y="0.429807" width="147.054" height="157.445"/>
<path d="M38.9631 136.286L8.51691 27.818L116.583 7.62522L127.345 119.754L85.3844 140.291L38.9631 136.286Z"/>
<path d="M83.6982 130.902L117.605 114.305L108.407 18.4866L64.235 26.7405L83.6982 130.902Z"/>
<path d="M71.8794 67.6514L53.9773 70.9966L50.1519 57.3734L69.2907 53.7972L66.7629 40.2694L32.8391 46.6083L44.1324 86.8374L74.4074 81.1803L71.8794 67.6514ZM78.4446 102.786L78.3878 102.814L62.5611 101.56L59.5829 90.9514L46.001 93.4893L51.8653 114.377L81.0161 116.891L81.0749 116.863L78.4446 102.786Z"/>
<path d="M71.8322 67.6602L74.3602 81.1891L91.0189 78.0763L92.7275 95.915L78.3996 102.807L81.0297 116.882L107.328 104.013L103.629 65.4789L103.279 61.7842L71.8322 67.6602ZM66.7157 40.2782L69.2435 53.806L101.922 47.6999L100.606 33.9455L66.7157 40.2782Z"/>
</mask>
<path d="M38.9631 136.286L8.51691 27.818L116.583 7.62522L127.345 119.754L85.3844 140.291L38.9631 136.286Z" fill="#E44D26"/>
<path d="M83.6982 130.902L117.605 114.305L108.407 18.4866L64.235 26.7405L83.6982 130.902Z" fill="#F16529"/>
<path d="M71.8794 67.6514L53.9773 70.9966L50.1519 57.3734L69.2907 53.7972L66.7629 40.2694L32.8391 46.6083L44.1324 86.8374L74.4074 81.1803L71.8794 67.6514ZM78.4446 102.786L78.3878 102.814L62.5611 101.56L59.5829 90.9514L46.001 93.4893L51.8653 114.377L81.0161 116.891L81.0749 116.863L78.4446 102.786Z" fill="#EBEBEB"/>
<path d="M71.8322 67.6602L74.3602 81.1891L91.0189 78.0763L92.7275 95.915L78.3996 102.807L81.0297 116.882L107.328 104.013L103.629 65.4789L103.279 61.7842L71.8322 67.6602ZM66.7157 40.2782L69.2435 53.806L101.922 47.6999L100.606 33.9455L66.7157 40.2782Z" fill="white"/>
<path d="M38.9631 136.286L33.1863 137.908L34.3089 141.907L38.4474 142.264L38.9631 136.286ZM8.51691 27.818L7.41484 21.9201L0.967673 23.1248L2.74016 29.4395L8.51691 27.818ZM116.583 7.62522L122.555 7.05195L121.928 0.522474L115.48 1.7273L116.583 7.62522ZM127.345 119.754L129.983 125.143L133.715 123.317L133.318 119.181L127.345 119.754ZM85.3844 140.291L84.8687 146.269L86.527 146.412L88.022 145.68L85.3844 140.291ZM83.6982 130.902L77.8002 132.004L79.2494 139.759L86.3359 136.291L83.6982 130.902ZM117.605 114.305L120.242 119.695L123.974 117.868L123.577 113.732L117.605 114.305ZM108.407 18.4866L114.38 17.9133L113.753 11.3838L107.305 12.5887L108.407 18.4866ZM64.235 26.7405L63.1329 20.8426L57.235 21.9447L58.337 27.8426L64.235 26.7405ZM71.8794 67.6514L77.7773 66.5494L76.6753 60.6514L70.7774 61.7535L71.8794 67.6514ZM53.9773 70.9966L48.2007 72.6186L49.6844 77.9026L55.0793 76.8945L53.9773 70.9966ZM50.1519 57.3734L49.0499 51.4755L42.6021 52.6803L44.3753 58.9955L50.1519 57.3734ZM69.2907 53.7972L70.3927 59.6951L76.2907 58.5931L75.1886 52.6952L69.2907 53.7972ZM66.7629 40.2694L72.6608 39.1673L71.5588 33.2694L65.6608 34.3714L66.7629 40.2694ZM32.8391 46.6083L31.737 40.7103L25.2896 41.9151L27.0624 48.2299L32.8391 46.6083ZM44.1324 86.8374L38.3557 88.459L39.8391 93.7434L45.2344 92.7353L44.1324 86.8374ZM74.4074 81.1803L75.5094 87.0782L81.4074 85.9761L80.3053 80.0782L74.4074 81.1803ZM78.4446 102.786L84.3425 101.684L82.8914 93.9183L75.7999 97.4006L78.4446 102.786ZM78.3878 102.814L77.9137 108.795L79.5548 108.926L81.0325 108.2L78.3878 102.814ZM62.5611 101.56L56.7844 103.182L57.9155 107.211L62.0871 107.541L62.5611 101.56ZM59.5829 90.9514L65.3596 89.3297L63.8761 84.0454L58.4808 85.0535L59.5829 90.9514ZM46.001 93.4893L44.8989 87.5914L38.4513 88.7962L40.2243 95.1112L46.001 93.4893ZM51.8653 114.377L46.0886 115.998L47.2114 119.997L51.3496 120.354L51.8653 114.377ZM81.0161 116.891L80.5004 122.869L82.1369 123.01L83.617 122.298L81.0161 116.891ZM81.0749 116.863L83.6758 122.27L87.8168 120.278L86.9728 115.761L81.0749 116.863ZM71.8322 67.6602L70.7302 61.7623L64.8323 62.8644L65.9343 68.7623L71.8322 67.6602ZM74.3602 81.1891L68.4623 82.2912L69.5643 88.1891L75.4623 87.087L74.3602 81.1891ZM91.0189 78.0763L96.9915 77.5042L96.366 70.9733L89.9168 72.1784L91.0189 78.0763ZM92.7275 95.915L95.3284 101.322L99.0991 99.5082L98.7002 95.3429L92.7275 95.915ZM78.3996 102.807L75.7988 97.3999L71.6577 99.3919L72.5017 103.909L78.3996 102.807ZM81.0297 116.882L75.1318 117.984L76.5808 125.739L83.667 122.272L81.0297 116.882ZM107.328 104.013L109.966 109.402L113.698 107.576L113.301 103.439L107.328 104.013ZM103.629 65.4789L97.6552 66.044L97.656 66.0523L103.629 65.4789ZM103.279 61.7842L109.252 61.219L108.634 54.6798L102.177 55.8863L103.279 61.7842ZM66.7157 40.2782L65.6137 34.3803L59.7157 35.4823L60.8178 41.3802L66.7157 40.2782ZM69.2435 53.806L63.3456 54.9081L64.4476 60.806L70.3456 59.704L69.2435 53.806ZM101.922 47.6999L103.024 53.5978L108.417 52.59L107.895 47.1285L101.922 47.6999ZM100.606 33.9455L106.579 33.3742L105.954 26.8424L99.5041 28.0476L100.606 33.9455ZM44.7398 134.665L14.2937 26.1965L2.74016 29.4395L33.1863 137.908L44.7398 134.665ZM9.61897 33.7159L117.685 13.5231L115.48 1.7273L7.41484 21.9201L9.61897 33.7159ZM110.61 8.1985L121.373 120.327L133.318 119.181L122.555 7.05195L110.61 8.1985ZM124.708 114.365L82.7468 134.902L88.022 145.68L129.983 125.143L124.708 114.365ZM85.9001 134.313L39.4787 130.308L38.4474 142.264L84.8687 146.269L85.9001 134.313ZM86.3359 136.291L120.242 119.695L114.967 108.916L81.0604 125.513L86.3359 136.291ZM123.577 113.732L114.38 17.9133L102.435 19.0599L111.632 114.879L123.577 113.732ZM107.305 12.5887L63.1329 20.8426L65.337 32.6384L109.509 24.3845L107.305 12.5887ZM58.337 27.8426L77.8002 132.004L89.5961 129.8L70.1329 25.6384L58.337 27.8426ZM70.7774 61.7535L52.8752 65.0986L55.0793 76.8945L72.9815 73.5493L70.7774 61.7535ZM59.7539 69.3745L55.9285 55.7514L44.3753 58.9955L48.2007 72.6186L59.7539 69.3745ZM51.254 63.2713L70.3927 59.6951L68.1886 47.8993L49.0499 51.4755L51.254 63.2713ZM75.1886 52.6952L72.6608 39.1673L60.865 41.3714L63.3928 54.8993L75.1886 52.6952ZM65.6608 34.3714L31.737 40.7103L33.9411 52.5062L67.865 46.1673L65.6608 34.3714ZM45.2344 92.7353L75.5094 87.0782L73.3053 75.2824L43.0303 80.9394L45.2344 92.7353ZM80.3053 80.0782L77.7773 66.5494L65.9815 68.7535L68.5095 82.2823L80.3053 80.0782ZM75.7999 97.4006L75.7431 97.4286L81.0325 108.2L81.0893 108.172L75.7999 97.4006ZM78.8618 96.833L63.0352 95.5786L62.0871 107.541L77.9137 108.795L78.8618 96.833ZM68.3378 99.9382L65.3596 89.3297L53.8062 92.5732L56.7844 103.182L68.3378 99.9382ZM58.4808 85.0535L44.8989 87.5914L47.1031 99.3872L60.685 96.8494L58.4808 85.0535ZM40.2243 95.1112L46.0886 115.998L57.6419 112.755L51.7776 91.8675L40.2243 95.1112ZM51.3496 120.354L80.5004 122.869L81.5317 110.913L52.3809 108.399L51.3496 120.354ZM83.617 122.298L83.6758 122.27L78.4739 111.456L78.4151 111.484L83.617 122.298ZM86.9728 115.761L84.3425 101.684L72.5467 103.888L75.177 117.965L86.9728 115.761ZM65.9343 68.7623L68.4623 82.2912L80.2581 80.087L77.7302 66.5582L65.9343 68.7623ZM75.4623 87.087L92.1209 83.9742L89.9168 72.1784L73.2581 75.2912L75.4623 87.087ZM85.0462 78.6484L86.7548 96.487L98.7002 95.3429L96.9915 77.5042L85.0462 78.6484ZM90.1266 90.508L75.7988 97.3999L81.0005 108.214L95.3284 101.322L90.1266 90.508ZM72.5017 103.909L75.1318 117.984L86.9276 115.78L84.2976 101.705L72.5017 103.909ZM83.667 122.272L109.966 109.402L104.691 98.6236L78.3924 111.493L83.667 122.272ZM109.602 64.9137L109.252 61.219L97.3056 62.3494L97.6552 66.044L109.602 64.9137ZM60.8178 41.3802L63.3456 54.9081L75.1414 52.704L72.6136 39.1761L60.8178 41.3802ZM70.3456 59.704L103.024 53.5978L100.82 41.8019L68.1414 47.9081L70.3456 59.704ZM99.5041 28.0476L65.6137 34.3803L67.8178 46.1761L101.708 39.8434L99.5041 28.0476ZM27.0624 48.2299L38.3557 88.459L49.9091 85.2157L38.6158 44.9866L27.0624 48.2299ZM113.301 103.439L109.601 64.9054L97.656 66.0523L101.356 104.586L113.301 103.439ZM102.177 55.8863L70.7302 61.7623L72.9343 73.5582L104.381 67.6821L102.177 55.8863ZM107.895 47.1285L106.579 33.3742L94.6334 34.5169L95.9492 48.2712L107.895 47.1285Z" fill="white" mask="url(#path-1-outside-1_21_155)"/>
</svg>
