<svg width="201" height="201" viewBox="0 0 201 201" fill="none" xmlns="http://www.w3.org/2000/svg">
<path d="M6.37592 19.1891L179.801 5.45799C180.352 5.41439 180.834 5.82538 180.877 6.37594L194.608 179.801C194.652 180.352 194.241 180.834 193.69 180.877L20.2648 194.608C19.7143 194.652 19.2326 194.241 19.189 193.69L5.45797 20.2649C5.41438 19.7143 5.82536 19.2326 6.37592 19.1891Z" fill="#F5DE19" stroke="white" stroke-width="10" stroke-linejoin="round"/>
<path d="M136.002 149.652C137.835 152.736 140.503 155.238 143.697 156.872C146.891 158.505 150.482 159.202 154.055 158.883C161.272 158.312 165.601 154.338 165.205 149.339C164.734 143.38 159.824 141.623 151.604 138.776L147.099 137.254C134.095 132.894 125.222 126.847 124.099 112.665C123.065 99.6019 132.208 88.8642 147.787 87.6307C152.802 86.8673 157.93 87.597 162.532 89.729C167.135 91.861 171.008 95.3009 173.668 99.6196L160.738 109.404C159.674 107.243 157.978 105.456 155.875 104.28C153.773 103.104 151.362 102.596 148.963 102.821C147.907 102.799 146.858 102.998 145.883 103.404C144.908 103.81 144.028 104.414 143.3 105.179C142.571 105.943 142.01 106.852 141.652 107.845C141.293 108.839 141.146 109.896 141.219 110.95C141.633 116.174 145.038 118.036 152.77 120.695L157.275 122.217C172.582 127.395 181.463 133.201 182.615 147.747C183.857 163.432 172.216 173.002 155.67 174.312C149.255 175.233 142.712 174.279 136.828 171.563C130.944 168.848 125.972 164.487 122.511 159.009L136.002 149.652ZM74.579 156.035C77.6978 160.671 80.5123 164.579 86.4977 164.105C92.2182 163.652 95.6561 161.128 94.9667 152.422L90.2765 93.1836L107.696 91.8043L112.405 151.274C113.833 169.31 103.889 178.359 88.4691 179.579C83.0419 180.309 77.521 179.379 72.6322 176.912C67.7434 174.446 63.7154 170.557 61.0778 165.758L74.579 156.035Z" fill="black"/>
</svg>
