<svg width="160" height="154" viewBox="0 0 160 154" fill="none" xmlns="http://www.w3.org/2000/svg">
<path d="M128.875 69.6042C135.637 73.7793 139.611 81.4813 137.902 89.3077C137.239 92.3623 135.765 95.1729 133.647 97.4495C134.969 102.631 134.692 108.091 132.533 113.13L132.53 113.137C129.48 120.179 123.147 125.42 115.21 127.614L115.21 127.614C108.484 129.473 101.637 128.88 95.4098 128.34L95.3435 128.335L128.875 69.6042ZM128.875 69.6042L154.846 29.3396L156.408 26.9173L153.593 26.3016L68.7566 7.75317L65.9415 7.13769L66.3495 9.99018L73.1624 57.6244C65.4861 58.7535 58.9065 64.0361 57.2281 71.7128C56.0423 77.1363 57.6188 82.5236 60.9315 86.711C59.1869 88.0195 57.2979 89.2121 55.2554 90.3173C50.5209 92.8399 45.5548 94.5269 40.443 95.3231C37.7081 92.2622 37.1742 88.4989 38.7051 85.5508C46.7438 84.692 53.7075 79.2756 55.4387 71.3574C57.6641 61.1792 50.3335 51.2714 39.6437 48.9342C28.9129 46.588 18.1169 52.5721 15.8916 62.7497C14.9141 67.2207 15.8153 71.7213 18.0451 75.4806C17.9749 75.564 17.9043 75.6485 17.8333 75.7342L17.703 75.887C14.0056 80.2209 9.60962 85.3737 6.96387 91.699L6.96363 91.6996C1.65158 104.41 3.18439 116.317 11.7558 124.752L11.7596 124.756C16.4617 129.359 22.0987 132.403 28.5559 133.815C39.4841 136.204 51.5607 133.656 62.7039 131.304L62.815 131.281L62.8183 131.28L63.3132 131.176C71.2471 129.516 79.1716 127.857 86.5812 127.826L86.5825 127.826C89.2376 127.814 91.9593 128.046 94.9413 128.3C95.0739 128.312 95.207 128.323 95.3407 128.334L128.875 69.6042Z" fill="white" stroke="white" stroke-width="4"/>
<path d="M135.947 88.8839C137.59 81.3695 133.279 73.801 126.03 70.3255L153.165 28.2555L68.3294 9.70701L75.439 59.4157C67.6095 59.7471 60.794 64.7671 59.182 72.14C57.9974 77.558 59.9344 83.0157 63.8246 86.9698C61.5293 88.8909 58.9909 90.5705 56.2012 92.0795C50.9607 94.8726 45.4289 96.69 39.717 97.4484C35.5798 93.4771 34.6404 87.8578 37.5216 83.6409C45.2486 83.2114 51.8973 78.1917 53.4849 70.9302C55.4357 62.008 49.0131 53.03 39.2165 50.888C29.3828 48.738 19.7969 54.2518 17.8455 63.1769C16.8815 67.5858 17.9853 72.0649 20.5404 75.6504C20.15 76.0973 19.7625 76.5398 19.3646 77.0209C15.607 81.4259 11.3482 86.4001 8.80896 92.4708C3.73638 104.608 5.29774 115.59 13.1587 123.327C17.592 127.667 22.8919 130.529 28.9831 131.861C39.4498 134.149 51.1246 131.704 62.4054 129.323C70.4506 127.64 78.765 125.858 86.573 125.826C89.4554 125.813 92.4 126.077 95.5132 126.342C101.815 126.888 108.328 127.441 114.678 125.686C122.091 123.636 127.909 118.774 130.694 112.342C132.816 107.391 132.961 101.973 131.407 96.8633C133.699 94.7288 135.283 91.9444 135.946 88.8837L135.947 88.8839ZM128.185 87.1869C127.088 92.2083 121.695 95.308 116.162 94.0982C110.628 92.8884 107.022 87.8211 108.119 82.7997C108.475 81.1731 109.292 79.7253 110.42 78.5715C110.848 78.1329 111.359 77.7173 111.849 77.3691C112.367 77.0137 112.922 76.7165 113.504 76.483L113.554 76.4541C113.918 76.3064 114.324 76.167 114.73 76.0314C114.73 76.0314 114.769 76.04 114.777 76.0019C114.952 75.9644 115.136 75.892 115.313 75.8549C115.351 75.8632 115.397 75.8335 115.438 75.8424C115.615 75.8093 115.829 75.7804 116.042 75.7502C116.245 75.7257 116.447 75.694 116.647 75.6553C116.686 75.6639 116.736 75.6338 116.774 75.6421C116.941 75.6439 117.118 75.6057 117.282 75.6059C117.325 75.6151 117.413 75.5945 117.451 75.6028C117.657 75.612 117.825 75.6089 118.031 75.6171L118.073 75.6263L118.693 75.6462C118.734 75.6551 118.811 75.6718 118.86 75.6468C119.02 75.6818 119.186 75.6781 119.346 75.7131L119.545 75.7565C119.743 75.7999 119.953 75.8099 120.189 75.8616L120.708 75.975C120.864 76.0092 120.987 76.0361 121.136 76.1044L121.216 76.122C121.528 76.2311 121.837 76.3335 122.142 76.4768C126.49 78.3345 129.149 82.7791 128.185 87.1869V87.1869ZM77.8545 19.3593L140.477 33.0511L117.693 68.3869C117.073 68.367 116.435 68.4149 115.801 68.4646L106.796 37.1587L85.5438 61.6599C84.9841 61.3501 84.3712 61.1005 83.7607 60.8544L77.8545 19.3593ZM95.1499 76.668C95.1374 73.1061 93.8887 69.6548 91.6724 66.823L103.217 53.525L108.163 70.7684C105.205 72.4688 102.79 74.9318 101.362 78.0262L95.1499 76.668ZM76.4544 66.6025C76.6612 66.6067 76.8287 66.6086 77.0353 66.6138L77.1535 66.6397C77.3212 66.6405 77.4824 66.6757 77.6473 66.6708L77.8075 66.7059C77.9677 66.7409 78.0934 66.7326 78.2536 66.7676L79.8069 67.1072C79.9632 67.1414 80.0779 67.2023 80.1961 67.2281C80.2762 67.2456 80.3143 67.254 80.3858 67.3105C80.5386 67.3798 80.6568 67.4056 80.8097 67.479C80.8468 67.4871 80.8888 67.4963 80.9614 67.548C81.1524 67.6296 81.3432 67.7072 81.4941 67.7801L81.5332 67.7886C81.6859 67.8579 81.8387 67.9271 81.979 68.0345C82.021 68.0437 82.0507 68.0901 82.1309 68.1077C82.2416 68.1677 82.3935 68.2408 82.4959 68.339C82.5379 68.3482 82.5685 68.3907 82.6105 68.3999C82.7508 68.5073 82.9037 68.5806 83.0481 68.688L83.0862 68.6963C83.2695 68.808 83.4139 68.9154 83.5498 69.0618L83.5889 69.0703C83.7323 69.1774 83.8693 69.3189 84.0137 69.4262C84.0527 69.4348 84.0442 69.4739 84.0813 69.482C84.2266 69.5854 84.3216 69.7218 84.466 69.8292L84.5006 69.8725C84.9062 70.3021 85.2656 70.7604 85.6211 71.2179L85.6556 71.2613C85.9665 71.7449 86.2681 72.2663 86.4858 72.8063C87.2042 74.4783 87.4316 76.3081 87.0288 78.1506C85.9307 83.173 80.539 86.2688 75.0057 85.059C69.4724 83.8492 65.8647 78.7857 66.9628 73.7634C67.8462 69.5263 71.8528 66.6558 76.4544 66.6025V66.6025ZM37.3338 57.781C42.868 58.991 46.4739 64.0581 45.3761 69.0795C44.278 74.1019 38.8867 77.2008 33.3524 75.9908C27.8191 74.781 24.212 69.7146 25.3101 64.6923C26.408 59.6709 31.8005 56.5712 37.3338 57.781V57.781ZM123.087 109.354C121.202 113.784 117.168 117.145 112.023 118.555C107.185 119.884 101.692 119.438 95.9211 118.933C92.7708 118.66 89.4509 118.39 86.1941 118.397C77.5107 118.43 68.7596 120.303 60.2785 122.08C49.4336 124.367 39.1987 126.52 30.5636 124.632C26.0639 123.648 22.2946 121.613 19.0039 118.358C11.4464 110.952 14.1322 100.751 16.4031 95.3411C18.5104 90.2722 22.2605 85.9065 25.8439 81.7315C26.0637 81.4756 26.2409 81.2502 26.4606 80.9942C27.2755 81.4764 28.1432 81.8944 29.066 82.2477C25.8802 89.5763 28.447 98.4268 35.955 104.159L37.3115 105.211L39.0606 105.025C46.5187 104.309 53.765 102.071 60.5249 98.4377C64.3504 96.3957 67.7459 94.0355 70.7577 91.3232C71.6413 91.6689 72.5493 91.9073 73.4647 92.1075C81.746 93.9181 89.8404 90.2729 93.3491 83.7713L100.035 85.2331C100.503 92.6409 106.348 99.2961 114.629 101.107C117.934 101.829 121.181 101.669 124.114 100.834C124.56 103.77 124.26 106.656 123.087 109.354V109.354Z" fill="#99425B"/>
</svg>
