<svg width="158" height="277" viewBox="0 0 158 277" fill="none" xmlns="http://www.w3.org/2000/svg">
<mask id="path-1-outside-1_18_101" maskUnits="userSpaceOnUse" x="-5.73145" y="-5.36498" width="169.535" height="288.863" fill="black">
<rect fill="white" x="-5.73145" y="-5.36498" width="169.535" height="288.863"/>
<path fill-rule="evenodd" clip-rule="evenodd" d="M98.5955 9.81339C98.4298 9.28588 98.1447 9.50154 97.8596 9.71721C97.8155 9.75052 97.7715 9.78384 97.7279 9.81441C97.4119 12.6549 96.0257 15.0096 94.1019 17.1622C92.2598 19.0378 90.0563 20.4057 87.7912 21.8118L87.7912 21.8118C87.5058 21.989 87.2195 22.1667 86.9327 22.3462C72.714 31.1474 60.7917 42.6224 50.5778 55.958C36.9514 73.9249 28.1719 94.1163 23.0792 116.04C21.0935 123.924 19.7882 152.66 21.0005 161.207C24.4043 183.926 33.8471 204.022 47.3222 222.313C50.6438 226.73 54.2832 230.916 58.0896 234.989C58.0898 234.989 58.09 234.989 58.0903 234.989C58.0555 235.227 58.0342 235.483 58.0919 235.849C59.4248 243.696 58.8996 251.385 58.0854 259.176L57.6324 261.995C57.3628 263.673 57.2218 264.333 57.472 264.768C57.7236 265.206 58.3711 265.416 59.6817 266.207C59.9985 266.386 60.3307 266.543 60.6674 266.702C61.4573 267.074 62.2715 267.458 62.9676 268.172C63.8132 268.308 64.0626 267.63 64.1532 267.066L64.4786 262.368L66.5543 249.451C66.7403 247.573 67.3026 245.767 67.8424 244.033C67.9569 243.665 68.0704 243.3 68.1792 242.938L68.1885 242.932C68.9876 239.757 70.962 237.333 73.0724 234.939C73.1387 234.952 73.2063 234.965 73.2752 234.976C78.3051 232.463 83.0937 229.499 87.655 226.201C115.709 205.224 132.448 177.249 137.478 142.346C139.213 130.68 139.235 118.87 137.673 107.103C135.013 87.8246 129.884 69.5698 120.69 52.3967C116.816 45.1489 112.317 38.2385 107.485 31.5554C105.827 29.2734 104.491 26.8944 103.328 24.2623L98.5293 10.2472L98.5955 9.81339Z"/>
</mask>
<path fill-rule="evenodd" clip-rule="evenodd" d="M98.5955 9.81339C98.4298 9.28588 98.1447 9.50154 97.8596 9.71721C97.8155 9.75052 97.7715 9.78384 97.7279 9.81441C97.4119 12.6549 96.0257 15.0096 94.1019 17.1622C92.2598 19.0378 90.0563 20.4057 87.7912 21.8118L87.7912 21.8118C87.5058 21.989 87.2195 22.1667 86.9327 22.3462C72.714 31.1474 60.7917 42.6224 50.5778 55.958C36.9514 73.9249 28.1719 94.1163 23.0792 116.04C21.0935 123.924 19.7882 152.66 21.0005 161.207C24.4043 183.926 33.8471 204.022 47.3222 222.313C50.6438 226.73 54.2832 230.916 58.0896 234.989C58.0898 234.989 58.09 234.989 58.0903 234.989C58.0555 235.227 58.0342 235.483 58.0919 235.849C59.4248 243.696 58.8996 251.385 58.0854 259.176L57.6324 261.995C57.3628 263.673 57.2218 264.333 57.472 264.768C57.7236 265.206 58.3711 265.416 59.6817 266.207C59.9985 266.386 60.3307 266.543 60.6674 266.702C61.4573 267.074 62.2715 267.458 62.9676 268.172C63.8132 268.308 64.0626 267.63 64.1532 267.066L64.4786 262.368L66.5543 249.451C66.7403 247.573 67.3026 245.767 67.8424 244.033C67.9569 243.665 68.0704 243.3 68.1792 242.938L68.1885 242.932C68.9876 239.757 70.962 237.333 73.0724 234.939C73.1387 234.952 73.2063 234.965 73.2752 234.976C78.3051 232.463 83.0937 229.499 87.655 226.201C115.709 205.224 132.448 177.249 137.478 142.346C139.213 130.68 139.235 118.87 137.673 107.103C135.013 87.8246 129.884 69.5698 120.69 52.3967C116.816 45.1489 112.317 38.2385 107.485 31.5554C105.827 29.2734 104.491 26.8944 103.328 24.2623L98.5293 10.2472L98.5955 9.81339Z" fill="#C2BFBF"/>
<path d="M97.8596 9.71721L94.8432 5.72958L94.8431 5.72961L97.8596 9.71721ZM98.5955 9.81339L103.538 10.5676L103.713 9.42139L103.366 8.3152L98.5955 9.81339ZM97.7279 9.81441L94.8571 5.7207L93.0083 7.01724L92.7586 9.26153L97.7279 9.81441ZM94.1019 17.1622L97.6692 20.6657L97.7516 20.5817L97.8301 20.494L94.1019 17.1622ZM87.7912 21.8118L85.1541 17.5638L85.1458 17.569L85.1375 17.5742L87.7912 21.8118ZM87.7912 21.8118L90.4283 26.0598L90.4367 26.0546L90.445 26.0494L87.7912 21.8118ZM86.9327 22.3462L89.5643 26.5976L89.5749 26.5911L89.5854 26.5845L86.9327 22.3462ZM50.5778 55.958L46.6083 52.9178L46.6011 52.9272L46.594 52.9366L50.5778 55.958ZM23.0792 116.04L27.9278 117.261L27.939 117.216L27.9495 117.171L23.0792 116.04ZM21.0005 161.207L16.05 161.909L16.0528 161.929L16.0557 161.948L21.0005 161.207ZM47.3222 222.313L43.2967 225.279L43.3114 225.299L43.3263 225.319L47.3222 222.313ZM58.0896 234.989L54.4365 238.403L55.6057 239.654L57.2963 239.926L58.0896 234.989ZM58.0903 234.989L63.0375 235.714L63.7519 230.835L58.8836 230.053L58.0903 234.989ZM58.0919 235.849L53.1531 236.629L53.1576 236.657L53.1625 236.686L58.0919 235.849ZM58.0854 259.176L63.022 259.97L63.0439 259.833L63.0583 259.696L58.0854 259.176ZM57.472 264.768L53.1369 267.259L53.137 267.26L57.472 264.768ZM59.6817 266.207L57.0989 270.488L57.1586 270.524L57.2192 270.558L59.6817 266.207ZM60.6674 266.702L62.8001 262.179L62.8 262.179L60.6674 266.702ZM62.9676 268.172L59.3869 271.662L60.5413 272.846L62.1743 273.109L62.9676 268.172ZM64.1532 267.066L69.0899 267.859L69.1257 267.636L69.1413 267.411L64.1532 267.066ZM64.4786 262.368L59.5419 261.575L59.5061 261.798L59.4905 262.023L64.4786 262.368ZM66.5543 249.451L71.491 250.244L71.515 250.095L71.53 249.944L66.5543 249.451ZM67.8424 244.033L63.0683 242.546L63.0683 242.546L67.8424 244.033ZM68.1792 242.938L65.2418 238.892L63.8768 239.883L63.391 241.498L68.1792 242.938ZM68.1885 242.932L71.1259 246.978L72.5943 245.912L73.0372 244.152L68.1885 242.932ZM73.0724 234.939L74.0873 230.043L71.2427 229.453L69.3216 231.632L73.0724 234.939ZM73.2752 234.976L72.4819 239.913L74.0704 240.168L75.5096 239.449L73.2752 234.976ZM87.655 226.201L90.5848 230.252L90.6172 230.229L90.6491 230.205L87.655 226.201ZM137.478 142.346L132.533 141.611L132.531 141.622L132.529 141.633L137.478 142.346ZM137.673 107.103L142.63 106.445L142.628 106.433L142.626 106.42L137.673 107.103ZM120.69 52.3967L116.281 54.7539L116.282 54.7566L120.69 52.3967ZM107.485 31.5554L111.536 28.6256L111.53 28.6173L107.485 31.5554ZM103.328 24.2623L98.598 25.882L98.6678 26.086L98.755 26.2832L103.328 24.2623ZM98.5293 10.2472L93.5865 9.49301L93.4014 10.7061L93.7989 11.867L98.5293 10.2472ZM100.876 13.7048C100.995 13.6149 100.859 13.7236 100.674 13.8366C100.531 13.9235 99.8604 14.3349 98.8535 14.4527C97.5559 14.6046 96.1337 14.2173 95.0483 13.2093C94.1902 12.4125 93.901 11.5531 93.8252 11.3116L103.366 8.3152C103.207 7.80994 102.82 6.7797 101.853 5.88166C100.659 4.77246 99.1163 4.35372 97.6912 4.5205C96.5566 4.65327 95.7508 5.12601 95.4694 5.29758C95.1453 5.49511 94.8668 5.71169 94.8432 5.72958L100.876 13.7048ZM100.599 13.9081C100.729 13.8167 100.846 13.7276 100.876 13.7048L94.8431 5.72961C94.8374 5.73391 94.833 5.73726 94.8288 5.74046C94.8246 5.74357 94.8214 5.746 94.8188 5.748C94.8133 5.75211 94.8116 5.75338 94.8122 5.75295C94.8128 5.75246 94.8172 5.74922 94.8244 5.74402C94.8315 5.73881 94.8427 5.7308 94.8571 5.7207L100.599 13.9081ZM97.8301 20.494C100.158 17.889 102.226 14.6002 102.697 10.3673L92.7586 9.26153C92.5975 10.7096 91.8932 12.1302 90.3737 13.8304L97.8301 20.494ZM90.4284 26.0598C92.6066 24.7076 95.3369 23.0404 97.6692 20.6657L90.5346 13.6587C89.1828 15.0351 87.5059 16.1038 85.1541 17.5638L90.4284 26.0598ZM90.445 26.0494L90.445 26.0494L85.1375 17.5742L85.1374 17.5742L90.445 26.0494ZM89.5854 26.5845C89.8631 26.4107 90.1417 26.2378 90.4283 26.0598L85.1541 17.5638C84.87 17.7402 84.5758 17.9228 84.28 18.1079L89.5854 26.5845ZM54.5473 58.9983C64.459 46.0572 75.947 35.0266 89.5643 26.5976L84.3011 18.0948C69.4811 27.2682 57.1244 39.1876 46.6083 52.9178L54.5473 58.9983ZM27.9495 117.171C32.9054 95.8363 41.4166 76.3116 54.5616 58.9795L46.594 52.9366C32.4862 71.5381 23.4383 92.3962 18.2088 114.909L27.9495 117.171ZM25.9509 160.505C25.4198 156.76 25.4103 147.887 25.8354 138.604C26.2619 129.29 27.0778 120.636 27.9278 117.261L18.2306 114.819C17.0949 119.328 16.2654 128.984 15.8459 138.146C15.4249 147.339 15.3689 157.107 16.05 161.909L25.9509 160.505ZM51.3477 219.347C38.2575 201.579 29.2061 182.231 25.9453 160.466L16.0557 161.948C19.6026 185.622 29.4368 206.466 43.2967 225.279L51.3477 219.347ZM61.7427 231.575C58.0143 227.586 54.5004 223.539 51.3182 219.308L43.3263 225.319C46.7873 229.92 50.5522 234.247 54.4365 238.403L61.7427 231.575ZM58.8836 230.053C58.8836 230.053 58.8836 230.053 58.8836 230.053C58.8836 230.053 58.8836 230.053 58.8836 230.053C58.8836 230.053 58.8836 230.053 58.8836 230.053C58.8836 230.053 58.8836 230.053 58.8836 230.053C58.8836 230.053 58.8836 230.053 58.8836 230.053C58.8836 230.053 58.8836 230.053 58.8836 230.053C58.8836 230.053 58.8836 230.053 58.8836 230.053C58.8836 230.053 58.8836 230.053 58.8836 230.053C58.8836 230.053 58.8836 230.053 58.8836 230.053C58.8836 230.053 58.8836 230.053 58.8836 230.053C58.8836 230.053 58.8836 230.053 58.8836 230.053C58.8836 230.053 58.8836 230.053 58.8836 230.053C58.8836 230.053 58.8836 230.053 58.8836 230.053C58.8836 230.053 58.8836 230.053 58.8836 230.053C58.8836 230.053 58.8836 230.053 58.8836 230.053C58.8836 230.053 58.8836 230.053 58.8836 230.053C58.8836 230.053 58.8836 230.053 58.8836 230.053C58.8836 230.053 58.8836 230.053 58.8836 230.053C58.8836 230.053 58.8836 230.053 58.8836 230.053C58.8836 230.053 58.8836 230.053 58.8836 230.053C58.8836 230.053 58.8836 230.053 58.8836 230.053C58.8836 230.053 58.8836 230.053 58.8836 230.053C58.8836 230.053 58.8836 230.053 58.8836 230.053C58.8836 230.053 58.8836 230.053 58.8836 230.053C58.8836 230.053 58.8836 230.053 58.8836 230.053C58.8836 230.053 58.8836 230.053 58.8836 230.053C58.8836 230.053 58.8836 230.053 58.8836 230.053C58.8836 230.053 58.8836 230.053 58.8836 230.053C58.8835 230.053 58.8835 230.053 58.8835 230.053C58.8835 230.053 58.8835 230.053 58.8835 230.053C58.8835 230.053 58.8835 230.053 58.8835 230.053C58.8835 230.053 58.8835 230.053 58.8835 230.053C58.8835 230.053 58.8835 230.053 58.8835 230.053C58.8835 230.053 58.8835 230.053 58.8835 230.053C58.8835 230.053 58.8835 230.053 58.8835 230.053C58.8835 230.053 58.8835 230.053 58.8835 230.053C58.8835 230.053 58.8835 230.053 58.8835 230.053C58.8835 230.053 58.8835 230.053 58.8835 230.053C58.8835 230.053 58.8835 230.053 58.8835 230.053C58.8835 230.053 58.8835 230.053 58.8835 230.053C58.8835 230.053 58.8835 230.053 58.8835 230.053C58.8835 230.053 58.8835 230.053 58.8835 230.053C58.8835 230.053 58.8835 230.053 58.8835 230.053C58.8835 230.053 58.8835 230.053 58.8835 230.053C58.8835 230.053 58.8835 230.053 58.8835 230.053C58.8835 230.053 58.8835 230.053 58.8835 230.053C58.8835 230.053 58.8835 230.053 58.8835 230.053C58.8835 230.053 58.8835 230.053 58.8835 230.053C58.8835 230.053 58.8835 230.053 58.8835 230.053C58.8835 230.053 58.8835 230.053 58.8835 230.053C58.8835 230.053 58.8835 230.053 58.8835 230.053C58.8835 230.053 58.8835 230.053 58.8835 230.053C58.8835 230.053 58.8835 230.053 58.8835 230.053C58.8835 230.053 58.8835 230.053 58.8835 230.053C58.8835 230.053 58.8835 230.053 58.8835 230.053C58.8835 230.053 58.8835 230.053 58.8835 230.053C58.8835 230.053 58.8835 230.053 58.8835 230.053C58.8835 230.053 58.8835 230.053 58.8835 230.053C58.8835 230.053 58.8835 230.053 58.8835 230.053C58.8835 230.053 58.8835 230.053 58.8835 230.053C58.8835 230.053 58.8835 230.053 58.8835 230.053C58.8835 230.053 58.8835 230.053 58.8835 230.053C58.8835 230.053 58.8835 230.053 58.8835 230.053C58.8835 230.053 58.8835 230.053 58.8835 230.053C58.8835 230.053 58.8835 230.053 58.8835 230.053C58.8835 230.053 58.8835 230.053 58.8835 230.053C58.8835 230.053 58.8835 230.053 58.8835 230.053C58.8835 230.053 58.8835 230.053 58.8835 230.053C58.8835 230.053 58.8835 230.053 58.8835 230.053C58.8835 230.053 58.8835 230.053 58.8835 230.053C58.8835 230.053 58.8835 230.053 58.8835 230.053C58.8835 230.053 58.8835 230.053 58.8835 230.053C58.8835 230.053 58.8835 230.053 58.8835 230.053C58.8835 230.053 58.8835 230.053 58.8835 230.053C58.8835 230.053 58.8835 230.053 58.8835 230.053C58.8835 230.053 58.8835 230.053 58.8835 230.053C58.8835 230.053 58.8835 230.053 58.8835 230.053C58.8835 230.053 58.8835 230.053 58.8835 230.053C58.8835 230.053 58.8835 230.053 58.8835 230.053C58.8835 230.053 58.8835 230.053 58.8835 230.053C58.8835 230.053 58.8835 230.053 58.8835 230.053C58.8835 230.053 58.8835 230.053 58.8835 230.053C58.8835 230.053 58.8835 230.053 58.8835 230.053C58.8835 230.053 58.8835 230.053 58.8835 230.053C58.8835 230.053 58.8835 230.053 58.8835 230.053C58.8835 230.053 58.8835 230.053 58.8835 230.053C58.8835 230.053 58.8835 230.053 58.8835 230.053C58.8835 230.053 58.8835 230.053 58.8835 230.053C58.8835 230.053 58.8835 230.053 58.8835 230.053C58.8835 230.053 58.8835 230.053 58.8835 230.053C58.8835 230.053 58.8835 230.053 58.8835 230.053C58.8835 230.053 58.8835 230.053 58.8835 230.053C58.8835 230.053 58.8835 230.053 58.8835 230.053C58.8835 230.053 58.8835 230.053 58.8835 230.053C58.8835 230.053 58.8835 230.053 58.8835 230.053C58.8835 230.053 58.8835 230.053 58.8835 230.053C58.8835 230.053 58.8835 230.053 58.8835 230.053C58.8835 230.053 58.8835 230.053 58.8835 230.053C58.8835 230.053 58.8835 230.053 58.8835 230.053C58.8835 230.053 58.8835 230.053 58.8835 230.053C58.8835 230.053 58.8835 230.053 58.8835 230.053C58.8835 230.053 58.8835 230.053 58.8835 230.053C58.8835 230.053 58.8835 230.053 58.8835 230.053C58.8835 230.053 58.8835 230.053 58.8835 230.053C58.8834 230.053 58.8834 230.053 58.8834 230.053C58.8834 230.053 58.8834 230.053 58.8834 230.053C58.8834 230.053 58.8834 230.053 58.8834 230.053C58.8834 230.053 58.8834 230.053 58.8834 230.053C58.8834 230.053 58.8834 230.053 58.8834 230.053C58.8834 230.053 58.8834 230.053 58.8834 230.053C58.8834 230.053 58.8834 230.053 58.8834 230.053C58.8834 230.053 58.8834 230.053 58.8834 230.053C58.8834 230.053 58.8834 230.053 58.8834 230.053C58.8834 230.053 58.8834 230.053 58.8834 230.053C58.8834 230.053 58.8834 230.053 58.8834 230.053C58.8834 230.053 58.8834 230.053 58.8834 230.053C58.8834 230.053 58.8834 230.053 58.8834 230.053C58.8834 230.053 58.8834 230.053 58.8834 230.053C58.8834 230.053 58.8834 230.053 58.8834 230.053C58.8834 230.053 58.8834 230.053 58.8834 230.053C58.8834 230.053 58.8834 230.053 58.8834 230.053C58.8834 230.053 58.8834 230.053 58.8834 230.053C58.8834 230.053 58.8834 230.053 58.8834 230.053C58.8834 230.053 58.8834 230.053 58.8834 230.053C58.8834 230.053 58.8834 230.053 58.8834 230.053C58.8834 230.053 58.8834 230.053 58.8834 230.053C58.8834 230.053 58.8834 230.053 58.8834 230.053C58.8834 230.053 58.8834 230.053 58.8834 230.053C58.8834 230.053 58.8834 230.053 58.8834 230.053C58.8834 230.053 58.8834 230.053 58.8834 230.053C58.8834 230.053 58.8834 230.053 58.8834 230.053C58.8834 230.053 58.8834 230.053 58.8834 230.053C58.8834 230.053 58.8834 230.053 58.8834 230.053C58.8834 230.053 58.8834 230.053 58.8834 230.053C58.8834 230.053 58.8834 230.053 58.8834 230.053C58.8834 230.053 58.8834 230.053 58.8834 230.053C58.8834 230.053 58.8834 230.053 58.8834 230.053C58.8834 230.053 58.8834 230.053 58.8834 230.053C58.8834 230.053 58.8834 230.053 58.8834 230.053C58.8834 230.053 58.8834 230.053 58.8834 230.053C58.8834 230.053 58.8834 230.053 58.8834 230.053C58.8834 230.053 58.8834 230.053 58.8834 230.053C58.8834 230.053 58.8834 230.053 58.8834 230.053C58.8834 230.053 58.8834 230.053 58.8834 230.053C58.8834 230.053 58.8834 230.053 58.8834 230.053C58.8834 230.053 58.8834 230.053 58.8834 230.053C58.8834 230.053 58.8834 230.053 58.8834 230.053C58.8834 230.053 58.8834 230.053 58.8834 230.053C58.8834 230.053 58.8834 230.053 58.8834 230.053C58.8834 230.053 58.8834 230.053 58.8834 230.053C58.8834 230.053 58.8834 230.053 58.8834 230.053C58.8834 230.053 58.8834 230.053 58.8834 230.053C58.8834 230.053 58.8834 230.053 58.8834 230.053C58.8834 230.053 58.8834 230.053 58.8834 230.053C58.8834 230.053 58.8834 230.053 58.8834 230.053C58.8834 230.053 58.8834 230.053 58.8834 230.053C58.8834 230.053 58.8834 230.053 58.8834 230.053C58.8834 230.053 58.8834 230.053 58.8834 230.053C58.8834 230.053 58.8834 230.053 58.8834 230.053C58.8834 230.053 58.8834 230.053 58.8834 230.053C58.8834 230.053 58.8834 230.053 58.8834 230.053C58.8834 230.053 58.8834 230.053 58.8834 230.053C58.8834 230.053 58.8834 230.053 58.8834 230.053C58.8834 230.053 58.8834 230.053 58.8834 230.053C58.8834 230.053 58.8834 230.053 58.8834 230.053C58.8834 230.053 58.8834 230.053 58.8834 230.053C58.8834 230.053 58.8834 230.053 58.8834 230.053C58.8834 230.053 58.8834 230.053 58.8834 230.053C58.8834 230.053 58.8834 230.053 58.8834 230.053C58.8834 230.053 58.8834 230.053 58.8834 230.053C58.8834 230.053 58.8834 230.053 58.8834 230.053C58.8834 230.053 58.8834 230.053 58.8834 230.053C58.8834 230.053 58.8834 230.053 58.8834 230.053C58.8834 230.053 58.8834 230.053 58.8834 230.053C58.8834 230.053 58.8834 230.053 58.8834 230.053C58.8834 230.053 58.8834 230.053 58.8834 230.053C58.8834 230.053 58.8834 230.053 58.8834 230.053C58.8834 230.053 58.8834 230.053 58.8834 230.053C58.8834 230.053 58.8834 230.053 58.8834 230.053C58.8834 230.053 58.8834 230.053 58.8834 230.053C58.8833 230.053 58.8833 230.053 58.8833 230.053C58.8833 230.053 58.8833 230.053 58.8833 230.053C58.8833 230.053 58.8833 230.053 58.8833 230.053C58.8833 230.053 58.8833 230.053 58.8833 230.053C58.8833 230.053 58.8833 230.053 58.8833 230.053C58.8833 230.053 58.8833 230.053 58.8833 230.053C58.8833 230.053 58.8833 230.053 58.8833 230.053C58.8833 230.053 58.8833 230.053 58.8833 230.053C58.8833 230.053 58.8833 230.053 58.8833 230.053C58.8833 230.053 58.8833 230.053 58.8833 230.053C58.8833 230.053 58.8833 230.053 58.8833 230.053C58.8833 230.053 58.8833 230.053 58.8833 230.053C58.8833 230.053 58.8833 230.053 58.8833 230.053C58.8833 230.053 58.8833 230.053 58.8833 230.053C58.8833 230.053 58.8833 230.053 58.8833 230.053C58.8833 230.053 58.8833 230.053 58.8833 230.053C58.8833 230.053 58.8833 230.053 58.8833 230.053C58.8833 230.053 58.8833 230.053 58.8833 230.053C58.8833 230.053 58.8833 230.053 58.8833 230.053C58.8833 230.053 58.8833 230.053 58.8833 230.053C58.8833 230.053 58.8833 230.053 58.8833 230.053C58.8833 230.053 58.8833 230.053 58.8833 230.053C58.8833 230.053 58.8833 230.053 58.8833 230.053C58.8833 230.053 58.8833 230.053 58.8833 230.053C58.8833 230.053 58.8833 230.053 58.8833 230.053C58.8833 230.053 58.8833 230.053 58.8833 230.053C58.8833 230.053 58.8833 230.053 58.8833 230.053C58.8833 230.053 58.8833 230.053 58.8833 230.053C58.8833 230.053 58.8833 230.053 58.8833 230.053C58.8833 230.053 58.8833 230.053 58.8833 230.053C58.8833 230.053 58.8833 230.053 58.8833 230.053C58.8833 230.053 58.8833 230.053 58.8833 230.053C58.8833 230.053 58.8833 230.053 58.8833 230.053C58.8833 230.053 58.8833 230.053 58.8833 230.053C58.8833 230.053 58.8833 230.053 58.8833 230.053C58.8833 230.053 58.8833 230.053 58.8833 230.053C58.8833 230.053 58.8833 230.053 58.8833 230.053C58.8833 230.053 58.8833 230.053 58.8833 230.053C58.8833 230.053 58.8833 230.053 58.8833 230.053C58.8833 230.053 58.8833 230.053 58.8833 230.053C58.8833 230.053 58.8833 230.053 58.8833 230.053C58.8833 230.053 58.8833 230.053 58.8833 230.053C58.8833 230.053 58.8833 230.053 58.8833 230.053C58.8833 230.053 58.8833 230.053 58.8833 230.053C58.8833 230.053 58.8833 230.053 58.8833 230.053C58.8833 230.053 58.8833 230.053 58.8833 230.053C58.8833 230.053 58.8833 230.053 58.8833 230.053C58.8833 230.053 58.8833 230.053 58.8833 230.053C58.8833 230.053 58.8833 230.053 58.8833 230.053C58.8833 230.053 58.8833 230.053 58.8833 230.053C58.8833 230.053 58.8833 230.053 58.8833 230.053C58.8833 230.053 58.8833 230.053 58.8833 230.053C58.8833 230.053 58.8833 230.053 58.8833 230.053C58.8833 230.053 58.8833 230.053 58.8833 230.053C58.8833 230.053 58.8833 230.053 58.8833 230.053C58.8833 230.053 58.8833 230.053 58.8833 230.053C58.8833 230.053 58.8833 230.053 58.8833 230.053C58.8833 230.053 58.8833 230.053 58.8833 230.053C58.8833 230.053 58.8833 230.053 58.8833 230.053C58.8833 230.053 58.8833 230.053 58.8833 230.053C58.8833 230.053 58.8833 230.053 58.8833 230.053C58.8833 230.053 58.8833 230.053 58.8833 230.053C58.8833 230.053 58.8833 230.053 58.8833 230.053C58.8833 230.053 58.8833 230.053 58.8833 230.053C58.8833 230.053 58.8833 230.053 58.8833 230.053C58.8833 230.053 58.8833 230.053 58.8833 230.053C58.8833 230.053 58.8833 230.053 58.8833 230.053C58.8833 230.053 58.8833 230.053 58.8833 230.053C58.8833 230.053 58.8833 230.053 58.8833 230.053C58.8833 230.053 58.8833 230.053 58.8833 230.053C58.8833 230.053 58.8833 230.053 58.8833 230.053C58.8833 230.053 58.8833 230.053 58.8833 230.053C58.8833 230.053 58.8833 230.053 58.8833 230.053C58.8833 230.053 58.8833 230.053 58.8833 230.053C58.8833 230.053 58.8833 230.053 58.8833 230.053C58.8833 230.053 58.8833 230.053 58.8833 230.053C58.8832 230.053 58.8832 230.053 58.8832 230.053C58.8832 230.053 58.8832 230.053 58.8832 230.053C58.8832 230.053 58.8832 230.053 58.8832 230.053C58.8832 230.053 58.8832 230.053 58.8832 230.053C58.8832 230.053 58.8832 230.053 58.8832 230.053C58.8832 230.053 58.8832 230.053 58.8832 230.053C58.8832 230.053 58.8832 230.053 58.8832 230.053C58.8832 230.053 58.8832 230.053 58.8832 230.053C58.8832 230.053 58.8832 230.053 58.8832 230.053C58.8832 230.053 58.8832 230.053 58.8832 230.053C58.8832 230.053 58.8832 230.053 58.8832 230.053C58.8832 230.053 58.8832 230.053 58.8832 230.053C58.8832 230.053 58.8832 230.053 58.8832 230.053C58.8832 230.053 58.8832 230.053 58.8832 230.053C58.8832 230.053 58.8832 230.053 58.8832 230.053C58.8832 230.053 58.8832 230.053 58.8832 230.053C58.8832 230.053 58.8832 230.053 58.8832 230.053C58.8832 230.053 58.8832 230.053 58.8832 230.053C58.8832 230.053 58.8832 230.053 58.8832 230.053C58.8832 230.053 58.8832 230.053 58.8832 230.053C58.8832 230.053 58.8832 230.053 58.8832 230.053C58.8832 230.053 58.8832 230.053 58.8832 230.053C58.8832 230.053 58.8832 230.053 58.8832 230.053C58.8832 230.053 58.8832 230.053 58.8832 230.053C58.8832 230.053 58.8832 230.053 58.8832 230.053C58.8832 230.053 58.8832 230.053 58.8832 230.053C58.8832 230.053 58.8832 230.053 58.8832 230.053C58.8832 230.053 58.8832 230.053 58.8832 230.053C58.8832 230.053 58.8832 230.053 58.8832 230.053C58.8832 230.053 58.8832 230.053 58.8832 230.053C58.8832 230.053 58.8832 230.053 58.8832 230.053C58.8832 230.053 58.8832 230.053 58.8832 230.053C58.8832 230.053 58.8832 230.053 58.8832 230.053C58.8832 230.053 58.8832 230.053 58.8832 230.053C58.8832 230.053 58.8832 230.053 58.8832 230.053C58.8832 230.053 58.8832 230.053 58.8832 230.053C58.8832 230.053 58.8832 230.053 58.8832 230.053C58.8832 230.053 58.8832 230.053 58.8832 230.053C58.8832 230.053 58.8832 230.053 58.8832 230.053C58.8832 230.053 58.8832 230.053 58.8832 230.053C58.8832 230.053 58.8832 230.053 58.8832 230.053C58.8832 230.053 58.8832 230.053 58.8832 230.053C58.8832 230.053 58.8832 230.053 58.8832 230.053C58.8832 230.053 58.8832 230.053 58.8832 230.053C58.8832 230.053 58.8832 230.053 58.8832 230.053C58.8832 230.053 58.8832 230.053 58.8832 230.053C58.8832 230.053 58.8832 230.053 58.8832 230.053C58.8832 230.053 58.8832 230.053 58.8832 230.053C58.8832 230.053 58.8832 230.053 58.8832 230.053C58.8832 230.053 58.8832 230.053 58.8832 230.053C58.8832 230.053 58.8832 230.053 58.8832 230.053C58.8832 230.053 58.8832 230.053 58.8832 230.053C58.8832 230.053 58.8832 230.053 58.8832 230.053C58.8832 230.053 58.8832 230.053 58.8832 230.053C58.8832 230.053 58.8832 230.053 58.8832 230.053C58.8832 230.053 58.8832 230.053 58.8832 230.053C58.8832 230.053 58.8832 230.053 58.8832 230.053C58.8832 230.053 58.8832 230.053 58.8832 230.053C58.8832 230.053 58.8832 230.053 58.8832 230.053C58.8832 230.053 58.8832 230.053 58.8832 230.053C58.8832 230.053 58.8832 230.053 58.8832 230.053C58.8832 230.053 58.8832 230.053 58.8832 230.053C58.8832 230.053 58.8832 230.053 58.8832 230.053C58.8832 230.053 58.8832 230.053 58.8832 230.053C58.8832 230.053 58.8832 230.053 58.8832 230.053C58.8832 230.053 58.8832 230.053 58.8832 230.053C58.8832 230.053 58.8832 230.053 58.8832 230.053C58.8832 230.053 58.8832 230.053 58.8832 230.053C58.8832 230.053 58.8832 230.053 58.8832 230.053C58.8832 230.053 58.8832 230.053 58.8832 230.053C58.8832 230.053 58.8832 230.053 58.8832 230.053C58.8832 230.053 58.8832 230.053 58.8832 230.053C58.8832 230.053 58.8832 230.053 58.8832 230.053C58.8832 230.053 58.8832 230.053 58.8832 230.053C58.8832 230.053 58.8832 230.053 58.8832 230.053C58.8832 230.053 58.8832 230.053 58.8832 230.053C58.8831 230.053 58.8831 230.053 58.8831 230.053C58.8831 230.053 58.8831 230.053 58.8831 230.053C58.8831 230.053 58.8831 230.053 58.8831 230.053C58.8831 230.053 58.8831 230.053 58.8831 230.053C58.8831 230.053 58.8831 230.053 58.8831 230.053C58.8831 230.053 58.8831 230.053 58.8831 230.053C58.8831 230.053 58.8831 230.053 58.8831 230.053C58.8831 230.053 58.8831 230.053 58.8831 230.053C58.8831 230.053 58.8831 230.053 58.8831 230.053C58.8831 230.053 58.8831 230.053 58.8831 230.053C58.8831 230.053 58.8831 230.053 58.8831 230.053C58.8831 230.053 58.8831 230.053 58.8831 230.053C58.8831 230.053 58.8831 230.053 58.8831 230.053C58.8831 230.053 58.8831 230.053 58.8831 230.053C58.8831 230.053 58.8831 230.053 58.8831 230.053C58.8831 230.053 58.8831 230.053 58.8831 230.053C58.8831 230.053 58.8831 230.053 58.8831 230.053C58.8831 230.053 58.8831 230.053 58.8831 230.053C58.8831 230.053 58.8831 230.053 58.8831 230.053C58.8831 230.053 58.8831 230.053 58.8831 230.053C58.8831 230.053 58.8831 230.053 58.8831 230.053C58.8831 230.053 58.8831 230.053 58.8831 230.053C58.8831 230.053 58.8831 230.053 58.8831 230.053C58.8831 230.053 58.8831 230.053 58.8831 230.053C58.8831 230.053 58.8831 230.053 58.8831 230.053C58.8831 230.053 58.8831 230.053 58.8831 230.053C58.8831 230.053 58.8831 230.053 58.8831 230.053C58.8831 230.053 58.8831 230.053 58.8831 230.053C58.8831 230.053 58.8831 230.053 58.8831 230.053C58.8831 230.053 58.8831 230.053 58.8831 230.053C58.8831 230.053 58.8831 230.053 58.8831 230.053C58.8831 230.053 58.8831 230.053 58.8831 230.053C58.8831 230.053 58.8831 230.053 58.8831 230.053C58.8831 230.053 58.8831 230.053 58.8831 230.053C58.8831 230.053 58.8831 230.053 58.8831 230.053C58.8831 230.053 58.8831 230.053 58.8831 230.053C58.8831 230.053 58.8831 230.053 58.8831 230.053C58.8831 230.053 58.8831 230.053 58.8831 230.053C58.8831 230.053 58.8831 230.053 58.8831 230.053C58.8831 230.053 58.8831 230.053 58.8831 230.053C58.8831 230.053 58.8831 230.053 58.8831 230.053C58.8831 230.053 58.8831 230.053 58.8831 230.053C58.8831 230.053 58.8831 230.053 58.8831 230.053C58.8831 230.053 58.8831 230.053 58.8831 230.053C58.8831 230.053 58.8831 230.053 58.8831 230.053C58.8831 230.053 58.8831 230.053 58.8831 230.053C58.8831 230.053 58.8831 230.053 58.8831 230.053C58.8831 230.053 58.8831 230.053 58.8831 230.053C58.8831 230.053 58.8831 230.053 58.8831 230.053C58.8831 230.053 58.8831 230.053 58.8831 230.053C58.8831 230.053 58.8831 230.053 58.8831 230.053C58.8831 230.053 58.8831 230.053 58.8831 230.053C58.8831 230.053 58.8831 230.053 58.8831 230.053C58.8831 230.053 58.8831 230.053 58.8831 230.053C58.8831 230.053 58.8831 230.053 58.8831 230.053C58.8831 230.053 58.8831 230.053 58.8831 230.053C58.8831 230.053 58.8831 230.053 58.8831 230.053C58.8831 230.053 58.8831 230.053 58.8831 230.053C58.8831 230.053 58.8831 230.053 58.8831 230.053C58.8831 230.053 58.8831 230.053 58.8831 230.053C58.8831 230.053 58.8831 230.053 58.8831 230.053C58.8831 230.053 58.8831 230.053 58.8831 230.053C58.8831 230.053 58.8831 230.053 58.8831 230.053C58.8831 230.053 58.8831 230.053 58.8831 230.053C58.8831 230.053 58.8831 230.053 58.8831 230.053C58.8831 230.053 58.8831 230.053 58.8831 230.053C58.8831 230.053 58.8831 230.053 58.8831 230.053C58.8831 230.053 58.8831 230.053 58.8831 230.053C58.8831 230.053 58.8831 230.053 58.8831 230.053C58.8831 230.053 58.8831 230.053 58.8831 230.053C58.8831 230.053 58.8831 230.053 58.8831 230.053C58.8831 230.053 58.8831 230.053 58.8831 230.053C58.8831 230.053 58.8831 230.053 58.8831 230.053C58.8831 230.053 58.8831 230.053 58.8831 230.053C58.8831 230.053 58.8831 230.053 58.8831 230.053C58.8831 230.053 58.8831 230.053 58.8831 230.053C58.8831 230.053 58.883 230.053 58.883 230.053C58.883 230.053 58.883 230.053 58.883 230.053C58.883 230.053 58.883 230.053 58.883 230.053C58.883 230.053 58.883 230.053 58.883 230.053C58.883 230.053 58.883 230.053 58.883 230.053C58.883 230.053 58.883 230.053 58.883 230.053C58.883 230.053 58.883 230.053 58.883 230.053C58.883 230.053 58.883 230.053 58.883 230.053C58.883 230.053 58.883 230.053 58.883 230.053C58.883 230.053 58.883 230.053 58.883 230.053C58.883 230.053 58.883 230.053 58.883 230.053C58.883 230.053 58.883 230.053 58.883 230.053C58.883 230.053 58.883 230.053 58.883 230.053C58.883 230.053 58.883 230.053 58.883 230.053C58.883 230.053 58.883 230.053 58.883 230.053C58.883 230.052 58.883 230.052 58.883 230.052C58.883 230.052 58.883 230.052 58.883 230.052C58.883 230.052 58.883 230.052 58.883 230.052C58.883 230.052 58.883 230.052 58.883 230.052C58.883 230.052 58.883 230.052 58.883 230.052C58.883 230.052 58.883 230.052 58.883 230.052C58.883 230.052 58.883 230.052 58.883 230.052C58.883 230.052 58.883 230.052 58.883 230.052C58.883 230.052 58.883 230.052 58.883 230.052C58.883 230.052 58.883 230.052 58.883 230.052C58.883 230.052 58.883 230.052 58.883 230.052C58.883 230.052 58.883 230.052 58.883 230.052C58.883 230.052 58.883 230.052 58.883 230.052C58.883 230.052 58.883 230.052 58.883 230.052C58.883 230.052 58.883 230.052 58.883 230.052C58.883 230.052 58.883 230.052 58.883 230.052C58.883 230.052 58.883 230.052 58.883 230.052C58.883 230.052 58.883 230.052 58.883 230.052C58.883 230.052 58.883 230.052 58.883 230.052C58.883 230.052 58.883 230.052 58.883 230.052C58.883 230.052 58.883 230.052 58.883 230.052C58.883 230.052 58.883 230.052 58.883 230.052C58.883 230.052 58.883 230.052 58.883 230.052C58.883 230.052 58.883 230.052 58.883 230.052C58.883 230.052 58.883 230.052 58.883 230.052C58.883 230.052 58.883 230.052 58.883 230.052C58.883 230.052 58.883 230.052 58.883 230.052C58.883 230.052 58.883 230.052 58.883 230.052C58.883 230.052 58.883 230.052 58.883 230.052C58.883 230.052 58.883 230.052 58.883 230.052C58.883 230.052 58.883 230.052 58.883 230.052C58.883 230.052 58.883 230.052 58.883 230.052C58.883 230.052 58.883 230.052 58.883 230.052C58.883 230.052 58.883 230.052 58.883 230.052C58.883 230.052 58.883 230.052 58.883 230.052C58.883 230.052 58.883 230.052 58.883 230.052C58.883 230.052 58.883 230.052 58.883 230.052C58.883 230.052 58.883 230.052 58.883 230.052C58.883 230.052 58.883 230.052 58.883 230.052C58.883 230.052 58.883 230.052 58.883 230.052C58.883 230.052 58.883 230.052 58.883 230.052C58.883 230.052 58.883 230.052 58.883 230.052C58.883 230.052 58.883 230.052 58.883 230.052C58.883 230.052 58.883 230.052 58.883 230.052C58.883 230.052 58.883 230.052 58.883 230.052C58.883 230.052 58.883 230.052 58.883 230.052C58.883 230.052 58.883 230.052 58.883 230.052C58.883 230.052 58.883 230.052 58.883 230.052C58.883 230.052 58.883 230.052 58.883 230.052C58.883 230.052 58.883 230.052 58.883 230.052C58.883 230.052 58.883 230.052 58.883 230.052C58.883 230.052 58.883 230.052 58.883 230.052C58.883 230.052 58.883 230.052 58.883 230.052C58.883 230.052 58.883 230.052 58.883 230.052C58.883 230.052 58.883 230.052 58.883 230.052C58.883 230.052 58.883 230.052 58.883 230.052C58.883 230.052 58.883 230.052 58.883 230.052C58.883 230.052 58.883 230.052 58.883 230.052C58.883 230.052 58.883 230.052 58.883 230.052C58.883 230.052 58.883 230.052 58.883 230.052C58.883 230.052 58.883 230.052 58.883 230.052C58.8829 230.052 58.8829 230.052 58.8829 230.052C58.8829 230.052 58.8829 230.052 58.8829 230.052C58.8829 230.052 58.8829 230.052 58.8829 230.052C58.8829 230.052 58.8829 230.052 58.8829 230.052C58.8829 230.052 58.8829 230.052 58.8829 230.052C58.8829 230.052 58.8829 230.052 58.8829 230.052C58.8829 230.052 58.8829 230.052 58.8829 230.052C58.8829 230.052 58.8829 230.052 58.8829 230.052C58.8829 230.052 58.8829 230.052 58.8829 230.052C58.8829 230.052 58.8829 230.052 58.8829 230.052C58.8829 230.052 58.8829 230.052 58.8829 230.052C58.8829 230.052 58.8829 230.052 58.8829 230.052C58.8829 230.052 58.8829 230.052 58.8829 230.052C58.8829 230.052 58.8829 230.052 58.8829 230.052C58.8829 230.052 58.8829 230.052 58.8829 230.052C58.8829 230.052 58.8829 230.052 58.8829 230.052C58.8829 230.052 58.8829 230.052 58.8829 230.052C58.8829 230.052 58.8829 230.052 58.8829 230.052C58.8829 230.052 58.8829 230.052 58.8829 230.052C58.8829 230.052 58.8829 230.052 58.8829 230.052C58.8829 230.052 58.8829 230.052 58.8829 230.052C58.8829 230.052 58.8829 230.052 58.8829 230.052C58.8829 230.052 58.8829 230.052 58.8829 230.052C58.8829 230.052 58.8829 230.052 58.8829 230.052C58.8829 230.052 58.8829 230.052 58.8829 230.052C58.8829 230.052 58.8829 230.052 58.8829 230.052C58.8829 230.052 58.8829 230.052 58.8829 230.052C58.8829 230.052 58.8829 230.052 58.8829 230.052L57.2963 239.926C57.2963 239.926 57.2963 239.926 57.2963 239.926C57.2963 239.926 57.2963 239.926 57.2963 239.926C57.2963 239.926 57.2963 239.926 57.2963 239.926C57.2963 239.926 57.2963 239.926 57.2963 239.926C57.2963 239.926 57.2963 239.926 57.2963 239.926C57.2963 239.926 57.2963 239.926 57.2963 239.926C57.2963 239.926 57.2963 239.926 57.2963 239.926C57.2963 239.926 57.2963 239.926 57.2963 239.926C57.2963 239.926 57.2963 239.926 57.2963 239.926C57.2963 239.926 57.2963 239.926 57.2963 239.926C57.2963 239.926 57.2963 239.926 57.2963 239.926C57.2963 239.926 57.2963 239.926 57.2963 239.926C57.2963 239.926 57.2963 239.926 57.2963 239.926C57.2963 239.926 57.2963 239.926 57.2963 239.926C57.2963 239.926 57.2963 239.926 57.2963 239.926C57.2963 239.926 57.2963 239.926 57.2963 239.926C57.2963 239.926 57.2963 239.926 57.2963 239.926C57.2963 239.926 57.2963 239.926 57.2963 239.926C57.2963 239.926 57.2963 239.926 57.2963 239.926C57.2963 239.926 57.2963 239.926 57.2963 239.926C57.2963 239.926 57.2963 239.926 57.2963 239.926C57.2963 239.926 57.2963 239.926 57.2963 239.926C57.2963 239.926 57.2963 239.926 57.2963 239.926C57.2963 239.926 57.2963 239.926 57.2963 239.926C57.2963 239.926 57.2963 239.926 57.2963 239.926C57.2963 239.926 57.2963 239.926 57.2963 239.926C57.2963 239.926 57.2963 239.926 57.2963 239.926C57.2963 239.926 57.2963 239.926 57.2963 239.926C57.2963 239.926 57.2963 239.926 57.2963 239.926C57.2963 239.926 57.2963 239.926 57.2963 239.926C57.2963 239.926 57.2963 239.926 57.2963 239.926C57.2963 239.926 57.2963 239.926 57.2963 239.926C57.2963 239.926 57.2963 239.926 57.2963 239.926C57.2963 239.926 57.2963 239.926 57.2963 239.926C57.2963 239.926 57.2963 239.926 57.2963 239.926C57.2963 239.926 57.2963 239.926 57.2963 239.926C57.2963 239.926 57.2963 239.926 57.2963 239.926C57.2963 239.926 57.2963 239.926 57.2963 239.926C57.2963 239.926 57.2963 239.926 57.2963 239.926C57.2963 239.926 57.2963 239.926 57.2963 239.926C57.2963 239.926 57.2963 239.926 57.2963 239.926C57.2963 239.926 57.2963 239.926 57.2963 239.926C57.2963 239.926 57.2963 239.926 57.2963 239.926C57.2963 239.926 57.2963 239.926 57.2963 239.926C57.2963 239.926 57.2963 239.926 57.2963 239.926C57.2963 239.926 57.2963 239.926 57.2963 239.926C57.2963 239.926 57.2963 239.926 57.2963 239.926C57.2963 239.926 57.2963 239.926 57.2963 239.926C57.2963 239.926 57.2963 239.926 57.2963 239.926C57.2963 239.926 57.2963 239.926 57.2963 239.926C57.2964 239.926 57.2964 239.926 57.2964 239.926C57.2964 239.926 57.2964 239.926 57.2964 239.926C57.2964 239.926 57.2964 239.926 57.2964 239.926C57.2964 239.926 57.2964 239.926 57.2964 239.926C57.2964 239.926 57.2964 239.926 57.2964 239.926C57.2964 239.926 57.2964 239.926 57.2964 239.926C57.2964 239.926 57.2964 239.926 57.2964 239.926C57.2964 239.926 57.2964 239.926 57.2964 239.926C57.2964 239.926 57.2964 239.926 57.2964 239.926C57.2964 239.926 57.2964 239.926 57.2964 239.926C57.2964 239.926 57.2964 239.926 57.2964 239.926C57.2964 239.926 57.2964 239.926 57.2964 239.926C57.2964 239.926 57.2964 239.926 57.2964 239.926C57.2964 239.926 57.2964 239.926 57.2964 239.926C57.2964 239.926 57.2964 239.926 57.2964 239.926C57.2964 239.926 57.2964 239.926 57.2964 239.926C57.2964 239.926 57.2964 239.926 57.2964 239.926C57.2964 239.926 57.2964 239.926 57.2964 239.926C57.2964 239.926 57.2964 239.926 57.2964 239.926C57.2964 239.926 57.2964 239.926 57.2964 239.926C57.2964 239.926 57.2964 239.926 57.2964 239.926C57.2964 239.926 57.2964 239.926 57.2964 239.926C57.2964 239.926 57.2964 239.926 57.2964 239.926C57.2964 239.926 57.2964 239.926 57.2964 239.926C57.2964 239.926 57.2964 239.926 57.2964 239.926C57.2964 239.926 57.2964 239.926 57.2964 239.926C57.2964 239.926 57.2964 239.926 57.2964 239.926C57.2964 239.926 57.2964 239.926 57.2964 239.926C57.2964 239.926 57.2964 239.926 57.2964 239.926C57.2964 239.926 57.2964 239.926 57.2964 239.926C57.2964 239.926 57.2964 239.926 57.2964 239.926C57.2964 239.926 57.2964 239.926 57.2964 239.926C57.2964 239.926 57.2964 239.926 57.2964 239.926C57.2964 239.926 57.2964 239.926 57.2964 239.926C57.2964 239.926 57.2964 239.926 57.2964 239.926C57.2964 239.926 57.2964 239.926 57.2964 239.926C57.2964 239.926 57.2964 239.926 57.2964 239.926C57.2964 239.926 57.2964 239.926 57.2964 239.926C57.2964 239.926 57.2964 239.926 57.2964 239.926C57.2964 239.926 57.2964 239.926 57.2964 239.926C57.2964 239.926 57.2964 239.926 57.2964 239.926C57.2964 239.926 57.2964 239.926 57.2964 239.926C57.2964 239.926 57.2964 239.926 57.2964 239.926C57.2964 239.926 57.2964 239.926 57.2964 239.926C57.2964 239.926 57.2964 239.926 57.2964 239.926C57.2964 239.926 57.2964 239.926 57.2964 239.926C57.2964 239.926 57.2964 239.926 57.2964 239.926C57.2964 239.926 57.2964 239.926 57.2964 239.926C57.2964 239.926 57.2964 239.926 57.2964 239.926C57.2964 239.926 57.2964 239.926 57.2964 239.926C57.2964 239.926 57.2964 239.926 57.2964 239.926C57.2964 239.926 57.2964 239.926 57.2964 239.926C57.2964 239.926 57.2964 239.926 57.2964 239.926C57.2964 239.926 57.2964 239.926 57.2964 239.926C57.2964 239.926 57.2964 239.926 57.2964 239.926C57.2964 239.926 57.2964 239.926 57.2964 239.926C57.2964 239.926 57.2964 239.926 57.2964 239.926C57.2964 239.926 57.2964 239.926 57.2964 239.926C57.2964 239.926 57.2964 239.926 57.2964 239.926C57.2964 239.926 57.2964 239.926 57.2964 239.926C57.2964 239.926 57.2964 239.926 57.2964 239.926C57.2964 239.926 57.2964 239.926 57.2964 239.926C57.2964 239.926 57.2964 239.926 57.2964 239.926C57.2964 239.926 57.2964 239.926 57.2964 239.926C57.2964 239.926 57.2964 239.926 57.2964 239.926C57.2964 239.926 57.2964 239.926 57.2964 239.926C57.2964 239.926 57.2964 239.926 57.2964 239.926C57.2964 239.926 57.2964 239.926 57.2964 239.926C57.2964 239.926 57.2964 239.926 57.2964 239.926C57.2964 239.926 57.2964 239.926 57.2964 239.926C57.2964 239.926 57.2964 239.926 57.2964 239.926C57.2964 239.926 57.2964 239.926 57.2964 239.926C57.2964 239.926 57.2964 239.926 57.2964 239.926C57.2964 239.926 57.2964 239.926 57.2964 239.926C57.2964 239.926 57.2964 239.926 57.2964 239.926C57.2964 239.926 57.2964 239.926 57.2964 239.926C57.2965 239.926 57.2965 239.926 57.2965 239.926C57.2965 239.926 57.2965 239.926 57.2965 239.926C57.2965 239.926 57.2965 239.926 57.2965 239.926C57.2965 239.926 57.2965 239.926 57.2965 239.926C57.2965 239.926 57.2965 239.926 57.2965 239.926C57.2965 239.926 57.2965 239.926 57.2965 239.926C57.2965 239.926 57.2965 239.926 57.2965 239.926C57.2965 239.926 57.2965 239.926 57.2965 239.926C57.2965 239.926 57.2965 239.926 57.2965 239.926C57.2965 239.926 57.2965 239.926 57.2965 239.926C57.2965 239.926 57.2965 239.926 57.2965 239.926C57.2965 239.926 57.2965 239.926 57.2965 239.926C57.2965 239.926 57.2965 239.926 57.2965 239.926C57.2965 239.926 57.2965 239.926 57.2965 239.926C57.2965 239.926 57.2965 239.926 57.2965 239.926C57.2965 239.926 57.2965 239.926 57.2965 239.926C57.2965 239.926 57.2965 239.926 57.2965 239.926C57.2965 239.926 57.2965 239.926 57.2965 239.926C57.2965 239.926 57.2965 239.926 57.2965 239.926C57.2965 239.926 57.2965 239.926 57.2965 239.926C57.2965 239.926 57.2965 239.926 57.2965 239.926C57.2965 239.926 57.2965 239.926 57.2965 239.926C57.2965 239.926 57.2965 239.926 57.2965 239.926C57.2965 239.926 57.2965 239.926 57.2965 239.926C57.2965 239.926 57.2965 239.926 57.2965 239.926C57.2965 239.926 57.2965 239.926 57.2965 239.926C57.2965 239.926 57.2965 239.926 57.2965 239.926C57.2965 239.926 57.2965 239.926 57.2965 239.926C57.2965 239.926 57.2965 239.926 57.2965 239.926C57.2965 239.926 57.2965 239.926 57.2965 239.926C57.2965 239.926 57.2965 239.926 57.2965 239.926C57.2965 239.926 57.2965 239.926 57.2965 239.926C57.2965 239.926 57.2965 239.926 57.2965 239.926C57.2965 239.926 57.2965 239.926 57.2965 239.926C57.2965 239.926 57.2965 239.926 57.2965 239.926C57.2965 239.926 57.2965 239.926 57.2965 239.926C57.2965 239.926 57.2965 239.926 57.2965 239.926C57.2965 239.926 57.2965 239.926 57.2965 239.926C57.2965 239.926 57.2965 239.926 57.2965 239.926C57.2965 239.926 57.2965 239.926 57.2965 239.926C57.2965 239.926 57.2965 239.926 57.2965 239.926C57.2965 239.926 57.2965 239.926 57.2965 239.926C57.2965 239.926 57.2965 239.926 57.2965 239.926C57.2965 239.926 57.2965 239.926 57.2965 239.926C57.2965 239.926 57.2965 239.926 57.2965 239.926C57.2965 239.926 57.2965 239.926 57.2965 239.926C57.2965 239.926 57.2965 239.926 57.2965 239.926C57.2965 239.926 57.2965 239.926 57.2965 239.926C57.2965 239.926 57.2965 239.926 57.2965 239.926C57.2965 239.926 57.2965 239.926 57.2965 239.926C57.2965 239.926 57.2965 239.926 57.2965 239.926C57.2965 239.926 57.2965 239.926 57.2965 239.926C57.2965 239.926 57.2965 239.926 57.2965 239.926C57.2965 239.926 57.2965 239.926 57.2965 239.926C57.2965 239.926 57.2965 239.926 57.2965 239.926C57.2965 239.926 57.2965 239.926 57.2965 239.926C57.2965 239.926 57.2965 239.926 57.2965 239.926C57.2965 239.926 57.2965 239.926 57.2965 239.926C57.2965 239.926 57.2965 239.926 57.2965 239.926C57.2965 239.926 57.2965 239.926 57.2965 239.926C57.2965 239.926 57.2965 239.926 57.2965 239.926C57.2965 239.926 57.2965 239.926 57.2965 239.926C57.2965 239.926 57.2965 239.926 57.2965 239.926C57.2965 239.926 57.2965 239.926 57.2965 239.926C57.2965 239.926 57.2965 239.926 57.2965 239.926C57.2965 239.926 57.2965 239.926 57.2965 239.926C57.2965 239.926 57.2965 239.926 57.2965 239.926C57.2965 239.926 57.2965 239.926 57.2965 239.926C57.2965 239.926 57.2965 239.926 57.2965 239.926C57.2965 239.926 57.2965 239.926 57.2965 239.926C57.2965 239.926 57.2965 239.926 57.2965 239.926C57.2965 239.926 57.2965 239.926 57.2965 239.926C57.2965 239.926 57.2965 239.926 57.2965 239.926C57.2965 239.926 57.2965 239.926 57.2965 239.926C57.2965 239.926 57.2965 239.926 57.2965 239.926C57.2965 239.926 57.2965 239.926 57.2965 239.926C57.2966 239.926 57.2966 239.926 57.2966 239.926C57.2966 239.926 57.2966 239.926 57.2966 239.926C57.2966 239.926 57.2966 239.926 57.2966 239.926C57.2966 239.926 57.2966 239.926 57.2966 239.926C57.2966 239.926 57.2966 239.926 57.2966 239.926C57.2966 239.926 57.2966 239.926 57.2966 239.926C57.2966 239.926 57.2966 239.926 57.2966 239.926C57.2966 239.926 57.2966 239.926 57.2966 239.926C57.2966 239.926 57.2966 239.926 57.2966 239.926C57.2966 239.926 57.2966 239.926 57.2966 239.926C57.2966 239.926 57.2966 239.926 57.2966 239.926C57.2966 239.926 57.2966 239.926 57.2966 239.926C57.2966 239.926 57.2966 239.926 57.2966 239.926C57.2966 239.926 57.2966 239.926 57.2966 239.926C57.2966 239.926 57.2966 239.926 57.2966 239.926C57.2966 239.926 57.2966 239.926 57.2966 239.926C57.2966 239.926 57.2966 239.926 57.2966 239.926C57.2966 239.926 57.2966 239.926 57.2966 239.926C57.2966 239.926 57.2966 239.926 57.2966 239.926C57.2966 239.926 57.2966 239.926 57.2966 239.926C57.2966 239.926 57.2966 239.926 57.2966 239.926C57.2966 239.926 57.2966 239.926 57.2966 239.926C57.2966 239.926 57.2966 239.926 57.2966 239.926C57.2966 239.926 57.2966 239.926 57.2966 239.926C57.2966 239.926 57.2966 239.926 57.2966 239.926C57.2966 239.926 57.2966 239.926 57.2966 239.926C57.2966 239.926 57.2966 239.926 57.2966 239.926C57.2966 239.926 57.2966 239.926 57.2966 239.926C57.2966 239.926 57.2966 239.926 57.2966 239.926C57.2966 239.926 57.2966 239.926 57.2966 239.926C57.2966 239.926 57.2966 239.926 57.2966 239.926C57.2966 239.926 57.2966 239.926 57.2966 239.926C57.2966 239.926 57.2966 239.926 57.2966 239.926C57.2966 239.926 57.2966 239.926 57.2966 239.926C57.2966 239.926 57.2966 239.926 57.2966 239.926C57.2966 239.926 57.2966 239.926 57.2966 239.926C57.2966 239.926 57.2966 239.926 57.2966 239.926C57.2966 239.926 57.2966 239.926 57.2966 239.926C57.2966 239.926 57.2966 239.926 57.2966 239.926C57.2966 239.926 57.2966 239.926 57.2966 239.926C57.2966 239.926 57.2966 239.926 57.2966 239.926C57.2966 239.926 57.2966 239.926 57.2966 239.926C57.2966 239.926 57.2966 239.926 57.2966 239.926C57.2966 239.926 57.2966 239.926 57.2966 239.926C57.2966 239.926 57.2966 239.926 57.2966 239.926C57.2966 239.926 57.2966 239.926 57.2966 239.926C57.2966 239.926 57.2966 239.926 57.2966 239.926C57.2966 239.926 57.2966 239.926 57.2966 239.926C57.2966 239.926 57.2966 239.926 57.2966 239.926C57.2966 239.926 57.2966 239.926 57.2966 239.926C57.2966 239.926 57.2966 239.926 57.2966 239.926C57.2966 239.926 57.2966 239.926 57.2966 239.926C57.2966 239.926 57.2966 239.926 57.2966 239.926C57.2966 239.926 57.2966 239.926 57.2966 239.926C57.2966 239.926 57.2966 239.926 57.2966 239.926C57.2966 239.926 57.2966 239.926 57.2966 239.926C57.2966 239.926 57.2966 239.926 57.2966 239.926C57.2966 239.926 57.2966 239.926 57.2966 239.926C57.2966 239.926 57.2966 239.926 57.2966 239.926C57.2966 239.926 57.2966 239.926 57.2966 239.926C57.2966 239.926 57.2966 239.926 57.2966 239.926C57.2966 239.926 57.2966 239.926 57.2966 239.926C57.2966 239.926 57.2966 239.926 57.2966 239.926C57.2966 239.926 57.2966 239.926 57.2966 239.926C57.2966 239.926 57.2966 239.926 57.2966 239.926C57.2966 239.926 57.2966 239.926 57.2966 239.926C57.2966 239.926 57.2966 239.926 57.2966 239.926C57.2966 239.926 57.2966 239.926 57.2966 239.926C57.2966 239.926 57.2966 239.926 57.2966 239.926C57.2966 239.926 57.2966 239.926 57.2966 239.926C57.2966 239.926 57.2966 239.926 57.2966 239.926C57.2966 239.926 57.2966 239.926 57.2966 239.926C57.2966 239.926 57.2966 239.926 57.2966 239.926C57.2966 239.926 57.2966 239.926 57.2966 239.926C57.2966 239.926 57.2966 239.926 57.2966 239.926C57.2966 239.926 57.2966 239.926 57.2966 239.926C57.2967 239.926 57.2967 239.926 57.2967 239.926C57.2967 239.926 57.2967 239.926 57.2967 239.926C57.2967 239.926 57.2967 239.926 57.2967 239.926C57.2967 239.926 57.2967 239.926 57.2967 239.926C57.2967 239.926 57.2967 239.926 57.2967 239.926C57.2967 239.926 57.2967 239.926 57.2967 239.926C57.2967 239.926 57.2967 239.926 57.2967 239.926C57.2967 239.926 57.2967 239.926 57.2967 239.926C57.2967 239.926 57.2967 239.926 57.2967 239.926C57.2967 239.926 57.2967 239.926 57.2967 239.926C57.2967 239.926 57.2967 239.926 57.2967 239.926C57.2967 239.926 57.2967 239.926 57.2967 239.926C57.2967 239.926 57.2967 239.926 57.2967 239.926C57.2967 239.926 57.2967 239.926 57.2967 239.926C57.2967 239.926 57.2967 239.926 57.2967 239.926C57.2967 239.926 57.2967 239.926 57.2967 239.926C57.2967 239.926 57.2967 239.926 57.2967 239.926C57.2967 239.926 57.2967 239.926 57.2967 239.926C57.2967 239.926 57.2967 239.926 57.2967 239.926C57.2967 239.926 57.2967 239.926 57.2967 239.926C57.2967 239.926 57.2967 239.926 57.2967 239.926C57.2967 239.926 57.2967 239.926 57.2967 239.926C57.2967 239.926 57.2967 239.926 57.2967 239.926C57.2967 239.926 57.2967 239.926 57.2967 239.926C57.2967 239.926 57.2967 239.926 57.2967 239.926C57.2967 239.926 57.2967 239.926 57.2967 239.926C57.2967 239.926 57.2967 239.926 57.2967 239.926C57.2967 239.926 57.2967 239.926 57.2967 239.926C57.2967 239.926 57.2967 239.926 57.2967 239.926C57.2967 239.926 57.2967 239.926 57.2967 239.926C57.2967 239.926 57.2967 239.926 57.2967 239.926C57.2967 239.926 57.2967 239.926 57.2967 239.926C57.2967 239.926 57.2967 239.926 57.2967 239.926C57.2967 239.926 57.2967 239.926 57.2967 239.926C57.2967 239.926 57.2967 239.926 57.2967 239.926C57.2967 239.926 57.2967 239.926 57.2967 239.926C57.2967 239.926 57.2967 239.926 57.2967 239.926C57.2967 239.926 57.2967 239.926 57.2967 239.926C57.2967 239.926 57.2967 239.926 57.2967 239.926C57.2967 239.926 57.2967 239.926 57.2967 239.926C57.2967 239.926 57.2967 239.926 57.2967 239.926C57.2967 239.926 57.2967 239.926 57.2967 239.926C57.2967 239.926 57.2967 239.926 57.2967 239.926C57.2967 239.926 57.2967 239.926 57.2967 239.926C57.2967 239.926 57.2967 239.926 57.2967 239.926C57.2967 239.926 57.2967 239.926 57.2967 239.926C57.2967 239.926 57.2967 239.926 57.2967 239.926C57.2967 239.926 57.2967 239.926 57.2967 239.926C57.2967 239.926 57.2967 239.926 57.2967 239.926C57.2967 239.926 57.2967 239.926 57.2967 239.926C57.2967 239.926 57.2967 239.926 57.2967 239.926C57.2967 239.926 57.2967 239.926 57.2967 239.926C57.2967 239.926 57.2967 239.926 57.2967 239.926C57.2967 239.926 57.2967 239.926 57.2967 239.926C57.2967 239.926 57.2967 239.926 57.2967 239.926C57.2967 239.926 57.2967 239.926 57.2967 239.926C57.2967 239.926 57.2967 239.926 57.2967 239.926C57.2967 239.926 57.2967 239.926 57.2967 239.926C57.2967 239.926 57.2967 239.926 57.2967 239.926C57.2967 239.926 57.2967 239.926 57.2967 239.926C57.2967 239.926 57.2967 239.926 57.2967 239.926C57.2967 239.926 57.2967 239.926 57.2967 239.926C57.2967 239.926 57.2967 239.926 57.2967 239.926C57.2967 239.926 57.2967 239.926 57.2967 239.926C57.2967 239.926 57.2967 239.926 57.2967 239.926C57.2967 239.926 57.2967 239.926 57.2967 239.926C57.2967 239.926 57.2967 239.926 57.2967 239.926C57.2967 239.926 57.2967 239.926 57.2967 239.926C57.2967 239.926 57.2967 239.926 57.2967 239.926C57.2967 239.926 57.2967 239.926 57.2967 239.926C57.2967 239.926 57.2967 239.926 57.2967 239.926C57.2967 239.926 57.2967 239.926 57.2967 239.926C57.2967 239.926 57.2967 239.926 57.2967 239.926C57.2967 239.926 57.2967 239.926 57.2967 239.926C57.2967 239.926 57.2967 239.926 57.2967 239.926C57.2967 239.926 57.2967 239.926 57.2967 239.926C57.2967 239.926 57.2968 239.926 57.2968 239.926C57.2968 239.926 57.2968 239.926 57.2968 239.926C57.2968 239.926 57.2968 239.926 57.2968 239.926C57.2968 239.926 57.2968 239.926 57.2968 239.926C57.2968 239.926 57.2968 239.926 57.2968 239.926C57.2968 239.926 57.2968 239.926 57.2968 239.926C57.2968 239.926 57.2968 239.926 57.2968 239.926C57.2968 239.926 57.2968 239.926 57.2968 239.926C57.2968 239.926 57.2968 239.926 57.2968 239.926C57.2968 239.926 57.2968 239.926 57.2968 239.926C57.2968 239.926 57.2968 239.926 57.2968 239.926C57.2968 239.926 57.2968 239.926 57.2968 239.926C57.2968 239.926 57.2968 239.926 57.2968 239.926C57.2968 239.926 57.2968 239.926 57.2968 239.926C57.2968 239.926 57.2968 239.926 57.2968 239.926C57.2968 239.926 57.2968 239.926 57.2968 239.926C57.2968 239.926 57.2968 239.926 57.2968 239.926C57.2968 239.926 57.2968 239.926 57.2968 239.926C57.2968 239.926 57.2968 239.926 57.2968 239.926C57.2968 239.926 57.2968 239.926 57.2968 239.926C57.2968 239.926 57.2968 239.926 57.2968 239.926C57.2968 239.926 57.2968 239.926 57.2968 239.926C57.2968 239.926 57.2968 239.926 57.2968 239.926C57.2968 239.926 57.2968 239.926 57.2968 239.926C57.2968 239.926 57.2968 239.926 57.2968 239.926C57.2968 239.926 57.2968 239.926 57.2968 239.926C57.2968 239.926 57.2968 239.926 57.2968 239.926C57.2968 239.926 57.2968 239.926 57.2968 239.926C57.2968 239.926 57.2968 239.926 57.2968 239.926C57.2968 239.926 57.2968 239.926 57.2968 239.926C57.2968 239.926 57.2968 239.926 57.2968 239.926C57.2968 239.926 57.2968 239.926 57.2968 239.926C57.2968 239.926 57.2968 239.926 57.2968 239.926C57.2968 239.926 57.2968 239.926 57.2968 239.926C57.2968 239.926 57.2968 239.926 57.2968 239.926C57.2968 239.926 57.2968 239.926 57.2968 239.926C57.2968 239.926 57.2968 239.926 57.2968 239.926C57.2968 239.926 57.2968 239.926 57.2968 239.926C57.2968 239.926 57.2968 239.926 57.2968 239.926C57.2968 239.926 57.2968 239.926 57.2968 239.926C57.2968 239.926 57.2968 239.926 57.2968 239.926C57.2968 239.926 57.2968 239.926 57.2968 239.926C57.2968 239.926 57.2968 239.926 57.2968 239.926C57.2968 239.926 57.2968 239.926 57.2968 239.926C57.2968 239.926 57.2968 239.926 57.2968 239.926C57.2968 239.926 57.2968 239.926 57.2968 239.926C57.2968 239.926 57.2968 239.926 57.2968 239.926C57.2968 239.926 57.2968 239.926 57.2968 239.926C57.2968 239.926 57.2968 239.926 57.2968 239.926C57.2968 239.926 57.2968 239.926 57.2968 239.926C57.2968 239.926 57.2968 239.926 57.2968 239.926C57.2968 239.926 57.2968 239.926 57.2968 239.926C57.2968 239.926 57.2968 239.926 57.2968 239.926C57.2968 239.926 57.2968 239.926 57.2968 239.926C57.2968 239.926 57.2968 239.926 57.2968 239.926C57.2968 239.926 57.2968 239.926 57.2968 239.926C57.2968 239.926 57.2968 239.926 57.2968 239.926C57.2968 239.926 57.2968 239.926 57.2968 239.926C57.2968 239.926 57.2968 239.926 57.2968 239.926C57.2968 239.926 57.2968 239.926 57.2968 239.926C57.2968 239.926 57.2968 239.926 57.2968 239.926C57.2968 239.926 57.2968 239.926 57.2968 239.926C57.2968 239.926 57.2968 239.926 57.2968 239.926C57.2968 239.926 57.2968 239.926 57.2968 239.926C57.2968 239.926 57.2968 239.926 57.2968 239.926C57.2968 239.926 57.2968 239.926 57.2968 239.926C57.2968 239.926 57.2968 239.926 57.2968 239.926C57.2968 239.926 57.2968 239.926 57.2968 239.926C57.2968 239.926 57.2968 239.926 57.2968 239.926C57.2968 239.926 57.2968 239.926 57.2968 239.926C57.2968 239.926 57.2968 239.926 57.2968 239.926C57.2968 239.926 57.2968 239.926 57.2968 239.926C57.2968 239.926 57.2968 239.926 57.2968 239.926C57.2968 239.926 57.2968 239.926 57.2968 239.926C57.2968 239.926 57.2968 239.926 57.2968 239.926C57.2968 239.926 57.2968 239.926 57.2968 239.926C57.2969 239.926 57.2969 239.926 57.2969 239.926C57.2969 239.926 57.2969 239.926 57.2969 239.926C57.2969 239.926 57.2969 239.926 57.2969 239.926C57.2969 239.926 57.2969 239.926 57.2969 239.926C57.2969 239.926 57.2969 239.926 57.2969 239.926C57.2969 239.926 57.2969 239.926 57.2969 239.926C57.2969 239.926 57.2969 239.926 57.2969 239.926C57.2969 239.926 57.2969 239.926 57.2969 239.926C57.2969 239.926 57.2969 239.926 57.2969 239.926C57.2969 239.926 57.2969 239.926 57.2969 239.926C57.2969 239.926 57.2969 239.926 57.2969 239.926C57.2969 239.926 57.2969 239.926 57.2969 239.926C57.2969 239.926 57.2969 239.926 57.2969 239.926C57.2969 239.926 57.2969 239.926 57.2969 239.926C57.2969 239.926 57.2969 239.926 57.2969 239.926C57.2969 239.926 57.2969 239.926 57.2969 239.926C57.2969 239.926 57.2969 239.926 57.2969 239.926C57.2969 239.926 57.2969 239.926 57.2969 239.926C57.2969 239.926 57.2969 239.926 57.2969 239.926C57.2969 239.926 57.2969 239.926 57.2969 239.926C57.2969 239.926 57.2969 239.926 57.2969 239.926C57.2969 239.926 57.2969 239.926 57.2969 239.926C57.2969 239.926 57.2969 239.926 57.2969 239.926C57.2969 239.926 57.2969 239.926 57.2969 239.926C57.2969 239.926 57.2969 239.926 57.2969 239.926C57.2969 239.926 57.2969 239.926 57.2969 239.926C57.2969 239.926 57.2969 239.926 57.2969 239.926C57.2969 239.926 57.2969 239.926 57.2969 239.926C57.2969 239.926 57.2969 239.926 57.2969 239.926C57.2969 239.926 57.2969 239.926 57.2969 239.926C57.2969 239.926 57.2969 239.926 57.2969 239.926C57.2969 239.926 57.2969 239.926 57.2969 239.926C57.2969 239.926 57.2969 239.926 57.2969 239.926C57.2969 239.926 57.2969 239.926 57.2969 239.926C57.2969 239.926 57.2969 239.926 57.2969 239.926C57.2969 239.926 57.2969 239.926 57.2969 239.926C57.2969 239.926 57.2969 239.926 57.2969 239.926C57.2969 239.926 57.2969 239.926 57.2969 239.926C57.2969 239.926 57.2969 239.926 57.2969 239.926C57.2969 239.926 57.2969 239.926 57.2969 239.926C57.2969 239.926 57.2969 239.926 57.2969 239.926C57.2969 239.926 57.2969 239.926 57.2969 239.926C57.2969 239.926 57.2969 239.926 57.2969 239.926C57.2969 239.926 57.2969 239.926 57.2969 239.926C57.2969 239.926 57.2969 239.926 57.2969 239.926C57.2969 239.926 57.2969 239.926 57.2969 239.926C57.2969 239.926 57.2969 239.926 57.2969 239.926C57.2969 239.926 57.2969 239.926 57.2969 239.926C57.2969 239.926 57.2969 239.926 57.2969 239.926C57.2969 239.926 57.2969 239.926 57.2969 239.926C57.2969 239.926 57.2969 239.926 57.2969 239.926C57.2969 239.926 57.2969 239.926 57.2969 239.926C57.2969 239.926 57.2969 239.926 57.2969 239.926C57.2969 239.926 57.2969 239.926 57.2969 239.926C57.2969 239.926 57.2969 239.926 57.2969 239.926C57.2969 239.926 57.2969 239.926 57.2969 239.926C57.2969 239.926 57.2969 239.926 57.2969 239.926C57.2969 239.926 57.2969 239.926 57.2969 239.926C57.2969 239.926 57.2969 239.926 57.2969 239.926C57.2969 239.926 57.2969 239.926 57.2969 239.926C57.2969 239.926 57.2969 239.926 57.2969 239.926C57.2969 239.926 57.2969 239.926 57.2969 239.926C57.2969 239.926 57.2969 239.926 57.2969 239.926C57.2969 239.926 57.2969 239.926 57.2969 239.926C57.2969 239.926 57.2969 239.926 57.2969 239.926C57.2969 239.926 57.2969 239.926 57.2969 239.926C57.2969 239.926 57.2969 239.926 57.2969 239.926C57.2969 239.926 57.2969 239.926 57.2969 239.926C57.2969 239.926 57.2969 239.926 57.2969 239.926C57.2969 239.926 57.2969 239.926 57.2969 239.926C57.2969 239.926 57.2969 239.926 57.2969 239.926C57.2969 239.926 57.2969 239.926 57.2969 239.926C57.2969 239.926 57.2969 239.926 57.2969 239.926C57.2969 239.926 57.2969 239.926 57.2969 239.926C57.2969 239.926 57.2969 239.926 57.2969 239.926C57.2969 239.926 57.2969 239.926 57.2969 239.926C57.297 239.926 57.297 239.926 57.297 239.926C57.297 239.926 57.297 239.926 57.297 239.926C57.297 239.926 57.297 239.926 57.297 239.926C57.297 239.926 57.297 239.926 57.297 239.926C57.297 239.926 57.297 239.926 57.297 239.926C57.297 239.926 57.297 239.926 57.297 239.926L58.8836 230.053ZM53.143 234.265C53.0596 234.834 52.9941 235.622 53.1531 236.629L63.0307 235.069C63.0463 235.167 63.0584 235.302 63.0556 235.459C63.0529 235.611 63.0371 235.717 63.0375 235.714L53.143 234.265ZM53.1625 236.686C54.3738 243.817 53.92 250.929 53.1124 258.657L63.0583 259.696C63.8792 251.841 64.4758 243.575 63.0213 235.011L53.1625 236.686ZM53.1487 258.383L52.6958 261.202L62.5691 262.788L63.022 259.97L53.1487 258.383ZM52.6958 261.202C52.5877 261.874 52.4348 262.745 52.3764 263.41C52.319 264.065 52.2127 265.651 53.1369 267.259L61.807 262.277C61.9663 262.554 62.0859 262.836 62.171 263.11C62.2547 263.379 62.297 263.615 62.3186 263.797C62.3583 264.131 62.3335 264.337 62.3381 264.285C62.3418 264.243 62.3556 264.124 62.3994 263.841C62.4444 263.551 62.4944 263.253 62.5691 262.788L52.6958 261.202ZM53.137 267.26C54.0014 268.763 55.3467 269.493 55.6803 269.686C55.9102 269.818 56.2216 269.987 56.3981 270.085C56.6176 270.206 56.8446 270.335 57.0989 270.488L62.2644 261.926C61.8634 261.684 61.518 261.489 61.2397 261.335C61.1164 261.267 60.9675 261.185 60.8866 261.141C60.7865 261.086 60.7242 261.051 60.6792 261.025C60.6343 260.999 60.6345 260.998 60.6603 261.014C60.6861 261.031 60.7644 261.083 60.8705 261.168C61.0936 261.348 61.4786 261.705 61.8069 262.276L53.137 267.26ZM57.2192 270.558C57.7252 270.845 58.2278 271.079 58.5348 271.224L62.8 262.179C62.4337 262.006 62.2717 261.927 62.1441 261.855L57.2192 270.558ZM58.5347 271.224C58.9619 271.425 59.1456 271.516 59.2944 271.605C59.4087 271.673 59.4145 271.69 59.3869 271.662L66.5483 264.682C65.1348 263.232 63.5116 262.515 62.8001 262.179L58.5347 271.224ZM62.1743 273.109C63.0779 273.254 64.1449 273.229 65.2361 272.824C66.3395 272.414 67.1659 271.729 67.7403 271.014C68.76 269.746 69.0091 268.362 69.0899 267.859L59.2166 266.273C59.2234 266.23 59.2505 266.069 59.3301 265.842C59.4068 265.623 59.5797 265.205 59.9467 264.748C60.3418 264.257 60.9416 263.751 61.7576 263.448C62.5614 263.15 63.2801 263.158 63.7609 263.236L62.1743 273.109ZM69.1413 267.411L69.4666 262.714L59.4905 262.023L59.1652 266.72L69.1413 267.411ZM69.4152 263.161L71.491 250.244L61.6176 248.658L59.5419 261.575L69.4152 263.161ZM71.53 249.944C71.6575 248.656 72.0519 247.332 72.6164 245.519L63.0683 242.546C62.5533 244.201 61.823 246.49 61.5786 248.958L71.53 249.944ZM72.6164 245.519C72.7297 245.155 72.8505 244.767 72.9673 244.378L63.391 241.498C63.2904 241.833 63.1841 242.174 63.0683 242.546L72.6164 245.519ZM71.1165 246.985L71.1259 246.978L65.2511 238.885L65.2418 238.892L71.1165 246.985ZM73.0372 244.152C73.5114 242.269 74.7083 240.644 76.8232 238.245L69.3216 231.632C67.2158 234.021 64.4639 237.246 63.3398 241.711L73.0372 244.152ZM74.0685 230.039C74.0724 230.04 74.0787 230.041 74.0873 230.043L72.0575 239.835C72.1988 239.864 72.3403 239.89 72.4819 239.913L74.0685 230.039ZM84.7252 222.149C80.3567 225.308 75.7996 228.126 71.0408 230.503L75.5096 239.449C80.8106 236.801 85.8306 233.69 90.5848 230.252L84.7252 222.149ZM132.529 141.633C127.689 175.217 111.658 202.01 84.6609 222.196L90.6491 230.205C119.761 208.438 137.206 179.282 142.427 143.059L132.529 141.633ZM132.716 107.761C134.22 119.087 134.195 130.427 132.533 141.611L142.424 143.081C144.23 130.932 144.25 118.653 142.63 106.445L132.716 107.761ZM116.282 54.7566C125.136 71.2946 130.121 88.9526 132.72 107.787L142.626 106.42C139.905 86.6966 134.632 67.8451 125.098 50.0368L116.282 54.7566ZM103.433 34.4852C108.173 41.04 112.54 47.7562 116.281 54.7539L125.1 50.0396C121.092 42.5416 116.462 35.4371 111.536 28.6256L103.433 34.4852ZM98.755 26.2832C100.045 29.2032 101.552 31.8954 103.439 34.4935L111.53 28.6173C110.103 26.6515 108.938 24.5856 107.902 22.2413L98.755 26.2832ZM93.7989 11.867L98.598 25.882L108.059 22.6425L103.26 8.62742L93.7989 11.867ZM93.6527 9.0592L93.5865 9.49301L103.472 11.0014L103.538 10.5676L93.6527 9.0592Z" fill="white" mask="url(#path-1-outside-1_18_101)"/>
<path d="M98.4093 10.218L103.211 24.24C104.374 26.8722 105.71 29.2512 107.367 31.5332C112.2 38.2163 116.698 45.1266 120.573 52.3745C129.767 69.5476 134.896 87.8024 137.555 107.081C139.118 118.848 139.095 130.657 137.361 142.324C132.33 177.227 115.592 205.202 87.5375 226.178C82.9761 229.477 78.1876 232.441 73.1577 234.954C70.774 234.571 69.9404 232.562 69.2284 230.721C67.896 227.343 67.3422 223.644 67.3414 220.05C67.1726 215.702 67.2938 211.401 68.2664 207.097L68.5822 205.132C68.4562 204.682 97.4126 11.0739 98.4093 10.218Z" fill="#599636"/>
<path d="M98.4779 9.79117C98.2866 9.18218 97.9362 9.56369 97.6103 9.79219C97.2943 12.6327 95.9081 14.9874 93.9843 17.14C91.9102 19.2519 89.3777 20.7201 86.8152 22.324C72.5964 31.1252 60.6741 42.6002 50.4602 55.9358C36.8338 73.9027 28.0543 94.094 22.9616 116.018C20.976 123.902 19.6707 152.638 20.8829 161.185C24.2868 183.904 33.7296 204 47.2047 222.291C50.5263 226.707 54.1657 230.894 57.972 234.967C59.2363 235.17 59.5544 234.065 59.9789 233.274C60.8212 231.571 61.5379 229.808 62.1232 228.001L68.3245 207.404L98.4779 9.79117Z" fill="#6CAC48"/>
<path d="M68.0709 242.909C68.8704 239.733 70.8462 237.308 72.9576 234.913C71.3791 233.941 70.3467 232.346 69.614 230.634C68.9936 229.097 68.5635 227.301 68.2644 225.667C67.2467 219.456 67.8218 213.204 68.2261 207.09L68.8123 203.442C68.0211 203.893 67.1101 208.637 66.9962 209.346C65.5633 215.647 63.7011 221.842 61.4226 227.888C60.5975 230.35 59.9106 232.825 57.9953 234.822C57.95 235.104 57.9047 235.386 57.9743 235.826C59.3072 243.674 58.782 251.363 57.9678 259.154L57.5149 261.973C56.9739 265.339 56.9509 264.608 59.5641 266.185C60.6242 266.784 61.8572 267.131 62.85 268.15C63.6956 268.286 63.9451 267.607 64.0356 267.044L64.361 262.346L66.4367 249.429C66.6622 247.152 67.4407 244.981 68.0616 242.916L68.0709 242.909Z" fill="#C2BFBF"/>
</svg>
