<svg width="265" height="271" viewBox="0 0 265 271" fill="none" xmlns="http://www.w3.org/2000/svg">
<path d="M184.466 230.936L184.498 230.973L184.532 231.009C187.332 234.023 190.218 237.123 193.38 239.963L193.387 239.97L193.395 239.977C196.166 242.423 199.188 244.494 202.051 246.455L202.225 246.575C205.182 248.602 207.964 250.52 210.438 252.746C211.886 254.055 213.322 255.525 214.807 257.071C215.023 257.296 215.241 257.523 215.46 257.752C216.714 259.06 218.008 260.41 219.318 261.677C219.702 262.077 219.985 262.494 220.383 263.08C220.551 263.327 220.739 263.604 220.963 263.922C221.645 264.889 222.588 266.09 224.077 266.955C224.356 267.117 224.611 267.256 224.835 267.364L224.85 267.371C224.984 267.436 225.418 267.646 225.928 267.702L225.935 267.703C226.085 267.72 227.322 267.861 228.197 266.775C229.116 265.635 228.639 264.408 228.582 264.263L228.581 264.259C228.383 263.749 228.042 263.385 228.008 263.346C227.912 263.237 227.805 263.128 227.702 263.027C227.343 261.345 226.856 259.692 226.245 258.082L226.131 257.781L225.944 257.518C225.287 256.595 224.624 255.71 223.98 254.852L223.97 254.838C223.353 254.014 222.754 253.214 222.162 252.388C218.547 245.455 213.901 239.11 208.381 233.572L208.368 233.558L208.354 233.545C207.176 232.398 205.645 231.125 204.095 229.839L203.935 229.706C202.402 228.434 200.814 227.117 199.328 225.757C197.786 224.346 196.423 222.952 195.4 221.603C195.159 221.285 194.944 220.979 194.754 220.685C197.283 220.606 199.806 220.38 202.311 220.009C204.811 219.792 207.165 219.935 209.732 220.103L209.92 220.115C212.419 220.279 215.124 220.456 218.072 220.234L218.075 220.233C218.426 220.206 218.896 220.245 219.587 220.345C219.727 220.365 219.882 220.389 220.049 220.414C220.592 220.498 221.254 220.599 221.855 220.646C222.658 220.709 223.716 220.716 224.761 220.337C225.917 219.916 226.873 219.09 227.471 217.853C227.881 217.004 228.015 216.027 228.071 215.484C228.103 215.17 228.119 214.893 228.126 214.694C228.127 214.671 228.128 214.65 228.129 214.629C228.131 214.557 228.132 214.496 228.133 214.449C228.134 214.418 228.134 214.393 228.134 214.374L228.134 214.349L228.134 214.34L228.134 214.337L228.134 214.335L228.134 214.334C228.134 214.334 228.134 214.334 225.634 214.34L228.134 214.334L228.132 213.538L227.67 212.889C226.722 211.56 225.946 210.065 225.07 208.38C225.001 208.246 224.931 208.111 224.86 207.974C223.932 206.193 222.879 204.213 221.475 202.454L221.467 202.444L221.459 202.434C214.645 194.076 207.199 186.255 199.185 179.039C196.916 176.958 194.271 175.144 191.716 173.467C191.155 173.099 190.601 172.739 190.054 172.384C188.048 171.081 186.143 169.843 184.402 168.53L184.392 168.522L184.382 168.515C183.828 168.105 183.211 167.748 182.673 167.449C182.456 167.328 182.256 167.22 182.067 167.116C181.736 166.936 181.435 166.772 181.116 166.586C180.639 166.308 180.279 166.069 180.017 165.85C179.891 165.744 179.807 165.659 179.752 165.594C179.715 165.55 179.696 165.522 179.688 165.508C177.892 161.574 176.529 157.456 175.622 153.228L175.594 153.1L175.554 152.976C172.594 143.915 169.916 133.952 167.632 124.465C166.374 118.044 164.744 111.702 162.748 105.471L162.728 105.408L162.705 105.347C152.488 78.4058 135.138 54.7496 112.512 36.9092L112.465 36.8723L112.417 36.8376C106.543 32.6443 100.107 29.2991 93.3003 26.9007L93.1499 26.8477L92.994 26.8143C91.216 26.4328 89.4446 26.021 87.65 25.6039L87.3512 25.5344C85.6874 25.1477 84.0039 24.758 82.3088 24.3936C80.3942 22.5714 78.6032 20.6233 76.9478 18.5621L76.8218 18.4053L76.6724 18.2706C72.7168 14.7051 65.4005 8.77835 57.7701 5.62999C53.9525 4.05482 49.8188 3.074 45.8759 3.6387C41.8016 4.22222 38.1793 6.4247 35.5219 10.6894C32.0006 16.2864 32.971 22.4181 34.8218 27.4407C35.7567 29.978 36.961 32.3593 38.065 34.4125C38.4495 35.1276 38.8112 35.7847 39.1458 36.3926C39.8118 37.6024 40.3702 38.6169 40.7866 39.504L40.8324 39.6015L40.8863 39.6947C43.1378 43.5822 45.0108 47.6767 46.4797 51.922C46.7286 53.0738 46.8319 54.2637 46.9391 55.6407C46.9445 55.7099 46.9499 55.7797 46.9553 55.8499C47.0567 57.1584 47.1714 58.6384 47.468 60.1563C48.5308 67.6083 50.0415 74.9895 51.992 82.2599L52.002 82.297L52.0131 82.3338C53.1284 86.0329 54.5248 89.6414 56.19 93.1278L56.1993 93.1471L56.2088 93.1663C56.5558 93.8619 56.9776 94.4399 57.3304 94.8957C57.4797 95.0886 57.6056 95.2467 57.7187 95.3889C57.9113 95.6309 58.0671 95.8267 58.2392 96.069C58.53 96.4784 58.725 96.8337 58.8197 97.2495C56.644 100.533 54.8895 104.077 53.5983 107.8C49.3846 116.028 46.8218 125.002 46.0548 134.215C45.2828 143.489 46.3455 152.824 49.1821 161.687L49.215 161.79L49.2567 161.89C50.1535 164.035 51.8274 167.786 54.4915 170.768C57.207 173.807 61.2493 176.335 66.6174 175.13C71.5074 174.077 73.7947 170.466 75.2285 166.824C75.8368 165.279 76.344 163.594 76.8278 161.987C76.9066 161.725 76.9847 161.465 77.0626 161.209C77.2309 160.654 77.3994 160.108 77.5726 159.57C78.2341 162.099 78.9441 164.828 79.4391 166.769L79.49 166.968L79.5729 167.157C83.5825 176.279 89.0606 184.681 95.789 192.03C97.9077 194.644 99.5038 197.638 100.493 200.848C100.44 200.986 100.386 201.136 100.335 201.294C100.206 201.694 100.068 202.227 100.031 202.812C99.9952 203.378 100.039 204.209 100.492 205.024C100.668 205.34 100.973 205.741 101.473 206.038C101.999 206.351 102.566 206.444 103.07 206.399C103.926 206.321 104.502 205.856 104.694 205.694C105.169 205.294 105.558 204.749 105.821 204.355C106.411 203.473 107.073 202.247 107.666 201.083C108.234 199.967 108.78 198.824 109.197 197.931C109.566 197.984 109.986 198.044 110.453 198.112C112.43 198.397 115.256 198.808 118.652 199.315C125.446 200.328 134.516 201.719 143.629 203.232C152.751 204.747 161.882 206.379 168.812 207.873C172.286 208.622 175.149 209.324 177.164 209.947C178.179 210.261 178.9 210.53 179.352 210.745C179.573 211.51 179.802 212.625 180.049 214.061C180.22 215.056 180.378 216.066 180.543 217.125C180.686 218.037 180.834 218.985 181.001 219.99C181.345 222.06 181.742 224.195 182.243 226.04C182.716 227.779 183.382 229.673 184.466 230.936ZM105.021 203.129C105.021 203.128 105.021 203.127 105.021 203.126C105.021 203.136 105.021 203.137 105.021 203.129Z" fill="white" stroke="white" stroke-width="5"/>
<path fill-rule="evenodd" clip-rule="evenodd" d="M85.5666 50.0462C83.4269 49.6737 81.2479 49.5811 79.0843 49.7706L79.036 50.0535L79.3431 50.106C80.4438 52.5981 81.7351 55.0016 83.2055 57.295C84.0276 59.9807 84.6895 62.6306 85.5036 65.3148C85.6834 65.1875 85.8645 65.0521 85.8645 65.0521C87.1683 64.3369 88.2697 63.3031 89.066 62.0473C89.8623 60.7914 90.3275 59.3543 90.4184 57.8701C89.9199 56.7108 89.4837 55.5257 89.1118 54.3198C88.4461 52.6174 86.5663 51.4978 85.541 50.0501" fill="#5D87A1"/>
<path fill-rule="evenodd" clip-rule="evenodd" d="M216.042 211.138C205.97 208.68 195.488 208.41 185.302 210.345C182.824 210.878 179.123 210.246 178.298 213.125C179.332 214.574 179.136 216.595 179.933 218.503C181.438 222.448 183.613 226.104 186.363 229.308C189.174 232.333 191.985 235.35 195.05 238.103C200.435 242.857 206.879 246.178 212.113 250.89C215.153 253.639 218.073 256.999 221.086 259.909C222.571 261.435 223.305 263.615 225.333 264.793L225.413 264.325C225.07 262.498 224.567 260.706 223.908 258.969C222.626 257.169 221.314 255.506 220.026 253.698C216.516 246.929 211.992 240.737 206.61 235.336C202.238 231.08 192.207 224.558 191.177 218.56L190.916 218.191C194.628 218.297 198.343 218.074 202.017 217.526C207.507 217.033 212.246 218.167 217.883 217.741C220.471 217.542 225.22 216.765 225.22 216.765L225.634 214.34C223.339 211.12 221.987 207.105 219.521 204.014C212.786 195.752 205.425 188.021 197.504 180.889C193.283 177.016 187.502 173.999 182.897 170.526C181.228 169.292 178.282 168.323 177.437 166.599C175.555 162.484 174.126 158.177 173.177 153.752C170.184 144.591 167.485 134.539 165.189 124.998C163.948 118.654 162.339 112.389 160.367 106.233C150.311 79.7161 133.234 56.4321 110.964 38.8723C105.281 34.8154 99.0552 31.579 92.4695 29.2586C88.6663 28.4426 84.9028 27.492 81.105 26.6936C78.9135 24.6554 76.8727 22.461 74.9986 20.1276C67.1998 13.0978 46.7646 -2.63639 37.6408 12.0161C31.8197 21.2607 40.397 32.7902 43.0497 38.4418C45.4057 42.5097 47.3615 46.7965 48.8897 51.242C49.52 54.028 49.3564 56.8363 49.9337 59.738C50.9828 67.1128 52.4765 74.4175 54.4066 81.6121C55.4852 85.1893 56.8356 88.6789 58.4459 92.0503C59.3939 93.9506 61.4019 95.0505 61.3862 97.9174C59.0691 101.271 57.2242 104.927 55.9036 108.784C51.791 116.764 49.2909 125.476 48.5462 134.423C47.8014 143.369 48.8266 152.375 51.5632 160.925C53.3347 165.162 57.7326 174.572 66.081 172.688C73.428 171.115 73.3901 162.134 76.6828 154.836C77.4515 153.063 77.3596 151.799 78.4813 150.735L78.2273 152.222C78.2273 152.222 80.666 161.463 81.8616 166.151C85.771 175.045 91.1159 183.236 97.6823 190.396C100.23 193.521 102.093 197.146 103.151 201.037L102.677 203.809L106.128 204.398C106.27 203.136 106.132 201.858 105.723 200.656C105.315 199.453 104.646 198.355 103.765 197.44C101.433 194.044 99.3766 190.466 97.6162 186.741C92.8291 176.651 88.8751 166.187 85.7934 155.452C84.1972 150.189 83.0609 144.522 81.9482 139.35C81.3781 137.331 81.8599 134.51 80.5304 133.285C77.2117 136.08 74.2083 139.229 71.5735 142.676C67.8528 149.918 65.0926 157.614 63.3627 165.569C62.7452 165.63 63.0637 165.518 62.7203 165.776C58.1741 163.71 57.4129 158.282 56.3642 153.611C54.0286 139.359 56.0456 124.735 62.1517 111.647C63.7452 108.551 69.9922 99.0049 68.7323 95.5707C68.3446 92.4353 65.6537 90.2207 64.4229 87.59C62.8793 84.0701 61.6575 80.4177 60.7724 76.6776C58.71 67.3755 58.5724 57.3709 56.2058 47.9504C54.7871 43.3717 52.9848 38.9209 50.8181 34.6451C48.3519 30.3224 46.3018 25.7751 44.6955 21.0647C44.2461 19.2162 43.6839 16.2257 45.1922 14.5537C45.3614 14.0465 45.6912 13.6083 46.1316 13.3054C46.5721 13.0024 47.0992 12.8512 47.6333 12.8746C49.8495 11.4898 54.9966 14.6148 56.768 15.8822C61.6102 18.8127 66.1073 22.2789 70.1742 26.2154C71.9915 28.1394 76.2273 32.9469 76.2273 32.9469L77.6821 33.1954C82.4445 35.1152 88.1373 35.2891 92.5536 37.4825C99.9452 41.4341 106.813 46.2957 112.997 51.9538C131.243 68.5048 144.772 89.6012 152.201 113.089C153.454 116.955 153.682 120.346 154.746 124.337C156.681 132.486 159.397 140.935 161.368 148.874C162.971 156.669 165.472 164.253 168.82 171.473C170.579 175.1 179.572 178.4 183.46 180.811C186.874 182.686 190.189 184.738 193.39 186.957C198.099 191.088 202.707 195.71 207.055 200.104C209.203 202.384 216.277 207.568 216.217 210.744" fill="#00758F"/>
</svg>
