<svg width="148" height="119" viewBox="0 0 148 119" fill="none" xmlns="http://www.w3.org/2000/svg">
<path d="M35.3003 50.014L32.9254 50.7949L33.7064 53.1698L43.8614 84.0526L11.4873 59.0019L10.4374 58.1895L9.17642 58.6042L6.61153 59.4476L4.23663 60.2285L5.01755 62.6034L16.2317 96.707L17.0126 99.0819L19.3875 98.301L21.4774 97.6137L23.8452 96.8352L23.0737 94.4651L15.2783 70.5155L40.9349 90.0737L40.9798 90.1079L41.0261 90.14L65.4336 107.063L68.388 103.031L49.485 88.4041L67.5173 82.4747L71.2553 81.2455L72.2053 80.9332L73.6302 80.4646L74.6752 80.121L75.8856 79.723L76.2748 78.5097L81.5606 62.0311L95.5076 72.1771L96.5429 72.9303L97.7592 72.5304L100.324 71.687L104.992 70.1522L101.003 67.2827L83.9692 55.0275L88.5046 39.7826L90.6535 39.076L100.248 35.921L110.088 65.8448L110.869 68.2197L113.244 67.4388L115.333 66.7515L117.708 65.9706L116.927 63.5957L107.088 33.672L116.777 30.4858L119.152 29.7049L118.371 27.33L117.778 25.525L116.997 23.1501L114.622 23.9311L90.8998 31.7315L97.3127 10.1755L92.5642 8.61588L82.937 35.3614L82.9225 35.4014L82.9095 35.4419L77.9777 50.7598L65.0041 41.3385L63.9692 40.587L62.7542 40.9865L60.5693 41.7049L60.2843 41.7986L58.1944 42.4859L55.6479 43.3232L35.3003 50.014ZM69.1 74.6908L50.3857 80.8445L47.0121 70.5849L64.2064 64.931L66.5813 64.1501L65.8004 61.7752L65.2069 59.9703L64.426 57.5954L62.0511 58.3763L44.8568 64.0302L41.9205 55.1006L60.3497 49.0406L62.5227 48.3261L75.561 57.8142L70.1711 74.3386L69.1 74.6908ZM131.498 45.4803L131.422 45.25L129.047 46.0309L127.907 46.4058L125.532 47.1867L126.313 49.5616L127.313 52.6015L126.268 52.9451L123.893 53.726L124.674 56.1009L124.705 56.1959C125.119 57.4556 126.004 58.4594 127.194 58.9933C128.363 59.5175 129.655 59.5159 130.828 59.1301C131.902 58.7769 132.924 58.109 133.571 57.0407C134.828 57.4804 136.163 57.3758 137.383 56.9747C138.605 56.573 139.786 55.8486 140.55 54.6998C141.361 53.4808 141.542 52.0148 141.077 50.6019C140.972 50.2829 140.838 49.9741 140.671 49.6827L140.859 49.6208L139.822 47.1284C138.693 44.4156 135.808 43.7024 133.386 44.499C132.716 44.7192 132.067 45.0417 131.498 45.4803ZM129.15 54.4049C129.15 54.4048 129.151 54.4048 129.154 54.405C129.151 54.4051 129.15 54.405 129.15 54.4049ZM128.039 54.8114C128.039 54.8113 128.038 54.8078 128.036 54.8011C128.038 54.8081 128.039 54.8115 128.039 54.8114Z" fill="white" stroke="white" stroke-width="5"/>
<path d="M36.0812 52.3889L58.9753 44.8607L59.5688 46.6657L38.7646 53.5066L43.2628 67.186L62.832 60.7512L63.4255 62.5561L43.8563 68.9909L48.7917 84.0003L69.8809 77.0657L70.4744 78.8706L47.2953 86.4924L36.0812 52.3889ZM61.0652 44.1735L63.5351 43.3614L79.3001 54.8097L85.2892 36.2081L94.0511 12.2734L81.0661 56.0186L99.5431 69.3121L96.9783 70.1555L80.2359 57.9758L73.8942 77.7461L71.4243 78.5582L78.5012 56.862L61.0652 44.1735ZM89.8725 36.701L89.279 34.8961L115.403 26.3059L115.996 28.1109L103.932 32.078L114.553 64.3766L112.463 65.0638L101.842 32.7652L89.8725 36.701ZM7.39243 61.8225L9.95732 60.9791L63.9885 103.004L42.4505 88.0855L10.4207 63.6689L20.6964 95.2388L18.6065 95.926L7.39243 61.8225ZM125.646 58.0971C126.121 57.9409 126.312 57.5622 126.156 57.0872C126 56.6122 125.621 56.4209 125.146 56.5771C124.671 56.7333 124.48 57.112 124.636 57.587C124.792 58.062 125.266 58.222 125.646 58.0971ZM127.08 55.4149C127.486 56.6499 128.717 57.1925 130.047 56.7552C131.472 56.2866 132.046 55.1505 131.546 53.6306L129.828 48.4058L128.688 48.7806L130.406 54.0054C130.687 54.8604 130.432 55.3653 129.672 55.6152C129.007 55.8339 128.407 55.6101 128.189 54.9451L127.049 55.3199L127.08 55.4149ZM133.034 53.352C133.566 54.6507 134.892 55.1621 136.602 54.5998C138.312 54.0375 139.171 52.8077 138.702 51.3828C138.327 50.2428 137.475 49.8915 135.925 49.9801L135.008 50.0712C133.995 50.1936 133.49 49.9386 133.334 49.4636C133.115 48.7986 133.529 48.1362 134.479 47.8239C135.334 47.5427 136.029 47.7353 136.374 48.464L137.514 48.0892C137.013 46.8855 135.687 46.3741 134.167 46.8739C132.552 47.4049 131.788 48.6035 132.225 49.9334C132.569 50.9784 133.357 51.4559 134.781 51.3036L135.794 51.1812C136.806 51.0589 137.406 51.2827 137.593 51.8526C137.812 52.5176 137.303 53.2112 136.353 53.5236C135.403 53.836 134.487 53.6109 134.173 52.9772L133.034 53.352Z" fill="black"/>
</svg>
