<svg width="451" height="216" viewBox="0 0 451 216" fill="none" xmlns="http://www.w3.org/2000/svg">
<mask id="path-1-outside-1_17_94" maskUnits="userSpaceOnUse" x="6.85574" y="37.9452" width="437" height="140" fill="black">
<rect fill="white" x="6.85574" y="37.9452" width="437" height="140"/>
<path d="M47.4085 100.545L78.0824 115.556L90.9764 122.074L104.079 114.114L132.48 95.1023C133.541 94.3916 134.901 94.3006 136.047 94.8638L166.732 109.926L180.277 116.105L192.617 108.843L221.028 89.8267C222.089 89.1178 223.447 89.0261 224.593 89.5874L232.276 93.352C232.678 93.5498 233.154 93.518 233.525 93.2685C233.895 93.0198 234.106 92.5915 234.077 92.1467L231.049 46.8506C231.007 46.219 231.302 45.6112 231.826 45.2548C232.351 44.8985 233.025 44.846 233.599 45.1168L251.838 53.7455C253.01 54.3005 253.791 55.4448 253.877 56.7375L257.934 117.428L280.869 102.479L309.269 83.4636C310.335 82.7524 311.697 82.6623 312.847 83.2301L343.344 98.3006L355.852 103.867L369.831 95.0226L396.618 77.0738C398.313 75.9592 400.656 75.8025 402.471 76.6825L431.406 90.9064C431.406 90.9064 433.959 92.6321 434.342 93.6087C434.726 94.5853 434.854 98.5268 434.854 98.5268L436.819 127.913C436.958 129.999 435.967 132.016 434.232 133.186L407.448 151.122C406.591 151.697 405.6 152.03 404.567 152.099C403.548 152.168 402.519 151.969 401.594 151.513L391.923 146.635L382.997 142.614L357.187 131.339L334.65 146.23L317.554 157.278C316.504 157.956 315.177 158.038 314.053 157.493L283.58 142.741L269.882 137.175L257.98 144.916L229.566 163.945C228.504 164.656 227.144 164.747 225.996 164.183L195.307 149.106L182.011 142.047L169.426 150.202L141.019 169.228C139.957 169.939 138.597 170.03 137.449 169.466L106.77 154.39L84.3949 143.561L82.5151 155.772L83.0728 164.277C83.1153 164.913 82.8125 165.528 82.2892 165.876C81.766 166.24 81.0785 166.286 80.506 165.995L62.2846 157.124C61.1378 156.546 60.375 155.422 60.29 154.151L58.8615 132.782C58.7763 131.508 58.0193 130.374 56.8711 129.815L49.111 126.013C48.5479 125.727 47.913 125.612 47.3048 125.652C46.682 125.694 46.0837 125.892 45.5483 126.251L38.3614 131.052C37.2978 131.759 36.7011 132.984 36.7863 134.258L38.2148 155.627C38.2998 156.898 37.7019 158.106 36.6355 158.839L19.7523 170.056C19.2282 170.421 18.5499 170.466 17.9801 170.175C17.3994 169.9 17.0286 169.331 16.9861 168.695L13.8638 122.961C13.778 121.678 14.384 120.453 15.4427 119.744L43.8458 100.783C44.3332 100.456 44.8827 100.266 45.4457 100.205L45.7511 100.185C46.3191 100.17 46.8891 100.285 47.4085 100.545Z"/>
</mask>
<path d="M47.4085 100.545L78.0824 115.556L90.9764 122.074L104.079 114.114L132.48 95.1023C133.541 94.3916 134.901 94.3006 136.047 94.8638L166.732 109.926L180.277 116.105L192.617 108.843L221.028 89.8267C222.089 89.1178 223.447 89.0261 224.593 89.5874L232.276 93.352C232.678 93.5498 233.154 93.518 233.525 93.2685C233.895 93.0198 234.106 92.5915 234.077 92.1467L231.049 46.8506C231.007 46.219 231.302 45.6112 231.826 45.2548C232.351 44.8985 233.025 44.846 233.599 45.1168L251.838 53.7455C253.01 54.3005 253.791 55.4448 253.877 56.7375L257.934 117.428L280.869 102.479L309.269 83.4636C310.335 82.7524 311.697 82.6623 312.847 83.2301L343.344 98.3006L355.852 103.867L369.831 95.0226L396.618 77.0738C398.313 75.9592 400.656 75.8025 402.471 76.6825L431.406 90.9064C431.406 90.9064 433.959 92.6321 434.342 93.6087C434.726 94.5853 434.854 98.5268 434.854 98.5268L436.819 127.913C436.958 129.999 435.967 132.016 434.232 133.186L407.448 151.122C406.591 151.697 405.6 152.03 404.567 152.099C403.548 152.168 402.519 151.969 401.594 151.513L391.923 146.635L382.997 142.614L357.187 131.339L334.65 146.23L317.554 157.278C316.504 157.956 315.177 158.038 314.053 157.493L283.58 142.741L269.882 137.175L257.98 144.916L229.566 163.945C228.504 164.656 227.144 164.747 225.996 164.183L195.307 149.106L182.011 142.047L169.426 150.202L141.019 169.228C139.957 169.939 138.597 170.03 137.449 169.466L106.77 154.39L84.3949 143.561L82.5151 155.772L83.0728 164.277C83.1153 164.913 82.8125 165.528 82.2892 165.876C81.766 166.24 81.0785 166.286 80.506 165.995L62.2846 157.124C61.1378 156.546 60.375 155.422 60.29 154.151L58.8615 132.782C58.7763 131.508 58.0193 130.374 56.8711 129.815L49.111 126.013C48.5479 125.727 47.913 125.612 47.3048 125.652C46.682 125.694 46.0837 125.892 45.5483 126.251L38.3614 131.052C37.2978 131.759 36.7011 132.984 36.7863 134.258L38.2148 155.627C38.2998 156.898 37.7019 158.106 36.6355 158.839L19.7523 170.056C19.2282 170.421 18.5499 170.466 17.9801 170.175C17.3994 169.9 17.0286 169.331 16.9861 168.695L13.8638 122.961C13.778 121.678 14.384 120.453 15.4427 119.744L43.8458 100.783C44.3332 100.456 44.8827 100.266 45.4457 100.205L45.7511 100.185C46.3191 100.17 46.8891 100.285 47.4085 100.545Z" fill="white"/>
<path d="M78.0824 115.556L81.2403 109.309L81.2 109.289L81.1594 109.269L78.0824 115.556ZM47.4085 100.545L44.2789 106.806L44.3051 106.82L44.3315 106.832L47.4085 100.545ZM45.7511 100.185L45.5675 93.1874L45.4257 93.1911L45.2842 93.2006L45.7511 100.185ZM45.4457 100.205L44.9789 93.221L44.8369 93.2305L44.6954 93.2458L45.4457 100.205ZM43.8458 100.783L47.7323 106.605L47.7388 106.601L47.7454 106.596L43.8458 100.783ZM15.4427 119.744L11.5562 113.922L11.5451 113.929L15.4427 119.744ZM13.8638 122.961L6.87935 123.428L6.88003 123.438L13.8638 122.961ZM16.9861 168.695L23.9705 168.228L23.9698 168.218L16.9861 168.695ZM17.9801 170.175L21.1694 163.943L21.0699 163.892L20.9689 163.845L17.9801 170.175ZM19.7523 170.056L15.8785 164.226L15.8155 164.268L15.7533 164.311L19.7523 170.056ZM36.6355 158.839L40.5092 164.669L40.5561 164.638L40.6025 164.606L36.6355 158.839ZM38.2148 155.627L45.1992 155.16L45.1992 155.16L38.2148 155.627ZM36.7863 134.258L29.8019 134.725L29.8019 134.725L36.7863 134.258ZM38.3614 131.052L42.237 136.881L42.2435 136.877L42.2499 136.873L38.3614 131.052ZM45.5483 126.251L49.4367 132.072L49.4477 132.064L45.5483 126.251ZM47.3048 125.652L47.7717 132.637L47.3048 125.652ZM49.111 126.013L45.9434 132.255L45.9871 132.277L46.0312 132.299L49.111 126.013ZM56.8711 129.815L53.7913 136.101L53.7985 136.105L53.8057 136.108L56.8711 129.815ZM58.8615 132.782L65.8459 132.315L65.8459 132.315L58.8615 132.782ZM60.29 154.151L53.3056 154.618L53.3056 154.618L60.29 154.151ZM62.2846 157.124L59.1336 163.375L59.177 163.397L59.2207 163.418L62.2846 157.124ZM80.506 165.995L83.6818 159.757L83.6261 159.728L83.57 159.701L80.506 165.995ZM82.2892 165.876L78.4133 160.047L78.3493 160.089L78.2862 160.133L82.2892 165.876ZM83.0728 164.277L76.0878 164.735L76.0883 164.744L83.0728 164.277ZM233.599 45.1168L236.592 38.7891L236.585 38.7857L233.599 45.1168ZM231.826 45.2548L227.894 39.4638L227.887 39.4681L231.826 45.2548ZM231.049 46.8506L224.064 47.3175L231.049 46.8506ZM234.077 92.1467L241.061 91.6798L234.077 92.1467ZM233.525 93.2685L229.62 87.4588L229.619 87.46L233.525 93.2685ZM232.276 93.352L235.368 87.0719L235.356 87.066L232.276 93.352ZM224.593 89.5874L221.512 95.8732L221.513 95.8735L224.593 89.5874ZM221.028 89.8267L217.139 84.0065L217.135 84.0094L221.028 89.8267ZM192.617 108.843L196.167 114.876L196.342 114.773L196.51 114.66L192.617 108.843ZM195.307 149.106L192.025 155.289L192.122 155.34L192.221 155.389L195.307 149.106ZM225.996 164.183L222.909 170.466L222.912 170.467L225.996 164.183ZM229.566 163.945L233.459 169.762L233.461 169.761L229.566 163.945ZM257.98 144.916L254.163 139.049L254.124 139.074L254.085 139.1L257.98 144.916ZM253.877 56.7375L246.893 57.2044L246.893 57.2044L253.877 56.7375ZM251.838 53.7455L254.834 47.4189L254.831 47.4178L251.838 53.7455ZM343.344 98.3006L340.243 104.576L340.369 104.639L340.498 104.696L343.344 98.3006ZM312.847 83.2301L315.948 76.9545L315.947 76.9543L312.847 83.2301ZM309.269 83.4636L305.385 77.6401L305.374 77.647L309.269 83.4636ZM280.869 102.479L284.691 108.343L284.728 108.32L284.764 108.295L280.869 102.479ZM283.58 142.741L286.629 136.44L286.425 136.341L286.215 136.256L283.58 142.741ZM314.053 157.493L317.109 151.195L317.103 151.192L314.053 157.493ZM317.554 157.278L321.351 163.159L321.353 163.157L317.554 157.278ZM334.65 146.23L338.45 152.109L338.479 152.09L338.509 152.07L334.65 146.23ZM132.48 95.1023L136.374 100.919L136.377 100.917L132.48 95.1023ZM136.047 94.8638L132.961 101.147L132.963 101.148L136.047 94.8638ZM166.732 109.926L163.648 116.209L163.737 116.253L163.827 116.294L166.732 109.926ZM169.426 150.202L165.62 144.327L165.575 144.356L165.531 144.386L169.426 150.202ZM141.019 169.228L144.913 175.045L144.915 175.044L141.019 169.228ZM137.449 169.466L134.362 175.749L134.365 175.75L137.449 169.466ZM106.77 154.39L109.857 148.108L109.839 148.099L109.82 148.089L106.77 154.39ZM104.079 114.114L107.713 120.096L107.845 120.017L107.972 119.931L104.079 114.114ZM404.567 152.099L405.034 159.084L404.567 152.099ZM401.594 151.513L398.441 157.763L398.471 157.779L398.502 157.794L401.594 151.513ZM391.923 146.635L395.076 140.385L394.938 140.316L394.799 140.253L391.923 146.635ZM369.831 95.0226L373.574 100.938L373.651 100.889L373.728 100.838L369.831 95.0226ZM396.618 77.0738L392.773 71.2241L392.747 71.2412L392.721 71.2586L396.618 77.0738ZM402.471 76.6825L405.56 70.4005L405.542 70.392L405.525 70.3837L402.471 76.6825ZM431.406 90.9064L435.326 85.1069L434.927 84.837L434.494 84.6244L431.406 90.9064ZM436.819 127.913L429.834 128.379L436.819 127.913ZM434.232 133.186L438.127 139.003L438.137 138.996L438.147 138.99L434.232 133.186ZM407.448 151.122L403.553 145.306L403.547 145.309L407.448 151.122ZM434.854 98.5268L427.858 98.7554L427.862 98.8746L427.87 98.9937L434.854 98.5268ZM82.5151 155.772L75.5966 154.707L75.4799 155.465L75.5301 156.23L82.5151 155.772ZM382.997 142.614L385.872 136.231L385.836 136.215L385.799 136.199L382.997 142.614ZM180.277 116.105L177.372 122.473L180.687 123.986L183.827 122.138L180.277 116.105ZM90.9764 122.074L87.8184 128.322L91.2883 130.076L94.6111 128.057L90.9764 122.074ZM84.3949 143.561L87.4443 137.26L78.9177 133.134L77.4764 142.496L84.3949 143.561ZM182.011 142.047L185.294 135.864L181.659 133.934L178.205 136.172L182.011 142.047ZM269.882 137.175L272.517 130.69L269.13 129.314L266.065 131.307L269.882 137.175ZM257.934 117.428L250.95 117.895L251.747 129.817L261.757 123.292L257.934 117.428ZM357.187 131.339L359.989 124.924L356.503 123.401L353.328 125.499L357.187 131.339ZM355.852 103.867L353.006 110.262L356.428 111.785L359.594 109.782L355.852 103.867ZM81.1594 109.269L50.4855 94.2576L44.3315 106.832L75.0053 121.844L81.1594 109.269ZM50.5382 94.2836C48.9201 93.4748 47.2011 93.1446 45.5675 93.1874L45.9347 107.183C45.437 107.196 44.858 107.096 44.2789 106.806L50.5382 94.2836ZM45.2842 93.2006L44.9789 93.221L45.9126 107.19L46.218 107.169L45.2842 93.2006ZM44.6954 93.2458C43.0638 93.4217 41.4227 93.9795 39.9462 94.97L47.7454 106.596C47.2436 106.933 46.7017 107.111 46.1961 107.165L44.6954 93.2458ZM39.9593 94.9612L11.5562 113.922L19.3292 125.566L47.7323 106.605L39.9593 94.9612ZM11.5451 113.929C8.41284 116.029 6.62658 119.646 6.87936 123.428L20.8482 122.494C20.9295 123.71 20.3552 124.878 19.3403 125.558L11.5451 113.929ZM6.88003 123.438L10.0023 169.171L23.9698 168.218L20.8475 122.484L6.88003 123.438ZM10.0017 169.162C10.2058 172.216 12.0098 175.097 14.9914 176.505L20.9689 163.845C22.7891 164.704 23.8514 166.446 23.9705 168.228L10.0017 169.162ZM14.7908 176.406C17.6552 177.872 21.0981 177.648 23.7512 175.801L15.7533 164.311C17.3584 163.194 19.4446 163.061 21.1694 163.943L14.7908 176.406ZM23.626 175.887L40.5092 164.669L32.7618 153.009L15.8785 164.226L23.626 175.887ZM40.6025 164.606C43.6427 162.515 45.4539 158.97 45.1992 155.16L31.2304 156.094C31.1456 154.826 31.7611 153.696 32.6685 153.072L40.6025 164.606ZM45.1992 155.16L43.7707 133.791L29.8019 134.725L31.2304 156.094L45.1992 155.16ZM43.7707 133.791C43.8509 134.991 43.2887 136.182 42.237 136.881L34.4857 125.223C31.3069 127.337 29.5513 130.977 29.8019 134.725L43.7707 133.791ZM42.2499 136.873L49.4367 132.072L41.6598 120.43L34.4729 125.232L42.2499 136.873ZM49.4477 132.064C48.9407 132.404 48.3506 132.598 47.7717 132.637L46.8379 118.668C45.0134 118.79 43.2267 119.379 41.6488 120.438L49.4477 132.064ZM47.7717 132.637C47.2107 132.674 46.5784 132.577 45.9434 132.255L52.2786 119.771C50.5175 118.877 48.6152 118.549 46.8379 118.668L47.7717 132.637ZM46.0312 132.299L53.7913 136.101L59.9509 123.529L52.1908 119.727L46.0312 132.299ZM53.8057 136.108C52.6796 135.56 51.958 134.459 51.8771 133.249L65.8459 132.315C65.5947 128.557 63.359 125.189 59.9365 123.522L53.8057 136.108ZM51.8771 133.249L53.3056 154.618L67.2744 153.684L65.8459 132.315L51.8771 133.249ZM53.3056 154.618C53.5607 158.435 55.8442 161.717 59.1336 163.375L65.4357 150.874C66.4314 151.376 67.1892 152.41 67.2744 153.684L53.3056 154.618ZM59.2207 163.418L77.4421 172.289L83.57 159.701L65.3486 150.831L59.2207 163.418ZM77.3303 172.233C80.1827 173.685 83.6312 173.473 86.2922 171.618L78.2862 160.133C79.9009 159.008 81.9744 158.888 83.6818 159.757L77.3303 172.233ZM86.1651 171.705C88.7996 169.953 90.2654 166.925 90.0572 163.81L76.0883 164.744C75.9652 162.901 76.8254 161.102 78.4133 160.047L86.1651 171.705ZM236.585 38.7857C233.774 37.4597 230.469 37.7151 227.894 39.4638L235.759 51.0457C234.233 52.0819 232.276 52.2324 230.612 51.4478L236.585 38.7857ZM227.887 39.4681C225.311 41.2216 223.857 44.2089 224.064 47.3175L238.033 46.3837C238.157 48.2292 237.294 50.0009 235.765 51.0415L227.887 39.4681ZM224.064 47.3175L227.092 92.6136L241.061 91.6798L238.033 46.3837L224.064 47.3175ZM227.092 92.6136C226.955 90.5542 227.928 88.5962 229.62 87.4588L237.43 99.0782C239.862 97.4434 241.258 94.6287 241.061 91.6798L227.092 92.6136ZM229.619 87.46C231.333 86.3072 233.526 86.165 235.368 87.0719L229.184 99.6321C231.83 100.935 234.976 100.729 237.432 99.077L229.619 87.46ZM235.356 87.066L227.673 83.3014L221.513 95.8735L229.196 99.638L235.356 87.066ZM227.673 83.3017C224.283 81.6404 220.27 81.9142 217.139 84.0065L224.917 95.6468C223.908 96.3215 222.611 96.4117 221.512 95.8732L227.673 83.3017ZM217.135 84.0094L188.723 103.026L196.51 114.66L224.922 95.6439L217.135 84.0094ZM192.221 155.389L222.909 170.466L229.083 157.901L198.394 142.823L192.221 155.389ZM222.912 170.467C226.302 172.131 230.321 171.862 233.459 169.762L225.673 158.127C226.687 157.449 227.985 157.362 229.08 157.899L222.912 170.467ZM233.461 169.761L261.875 150.733L254.085 139.1L225.671 158.128L233.461 169.761ZM260.862 56.2706C260.606 52.4377 258.292 49.0563 254.834 47.4189L248.842 60.072C247.729 59.5448 246.976 58.4519 246.893 57.2044L260.862 56.2706ZM254.831 47.4178L236.592 38.7891L230.605 51.4444L248.845 60.0731L254.831 47.4178ZM346.445 92.025L315.948 76.9545L309.745 89.5057L340.243 104.576L346.445 92.025ZM315.947 76.9543C312.549 75.2754 308.525 75.5458 305.385 77.6401L313.153 89.287C312.146 89.9591 310.846 90.0493 309.746 89.506L315.947 76.9543ZM305.374 77.647L276.974 96.6623L284.764 108.295L313.163 89.2801L305.374 77.647ZM280.53 149.041L311.003 163.793L317.103 151.192L286.629 136.44L280.53 149.041ZM310.998 163.79C314.328 165.406 318.252 165.16 321.351 163.159L313.757 151.397C314.757 150.752 316.027 150.67 317.109 151.195L310.998 163.79ZM321.353 163.157L338.45 152.109L330.851 140.35L313.754 151.399L321.353 163.157ZM136.377 100.917C135.359 101.6 134.057 101.685 132.961 101.147L139.134 88.5809C135.745 86.9161 131.722 87.1835 128.583 89.2875L136.377 100.917ZM132.963 101.148L163.648 116.209L169.817 103.642L139.132 88.58L132.963 101.148ZM165.531 144.386L137.124 163.412L144.915 175.044L173.322 156.018L165.531 144.386ZM137.126 163.41C138.14 162.732 139.439 162.645 140.534 163.182L134.365 175.75C137.755 177.414 141.774 177.145 144.913 175.045L137.126 163.41ZM140.537 163.184L109.857 148.108L103.683 160.673L134.362 175.749L140.537 163.184ZM107.972 119.931L136.374 100.919L128.586 89.2853L100.185 108.297L107.972 119.931ZM404.1 145.115C404.292 145.102 404.492 145.138 404.686 145.233L398.502 157.794C400.546 158.8 402.805 159.233 405.034 159.084L404.1 145.115ZM404.746 145.263L395.076 140.385L388.77 152.885L398.441 157.763L404.746 145.263ZM373.728 100.838L400.514 82.889L392.721 71.2586L365.935 89.2074L373.728 100.838ZM400.462 82.9235C400.217 83.0848 400.042 83.1095 399.967 83.1146C399.892 83.1196 399.702 83.1193 399.418 82.9812L405.525 70.3837C401.475 68.4202 396.513 68.7658 392.773 71.2241L400.462 82.9235ZM399.383 82.9644L428.318 97.1884L434.494 84.6244L405.56 70.4005L399.383 82.9644ZM429.834 128.379C429.807 127.97 429.993 127.602 430.318 127.383L438.147 138.99C441.942 136.43 444.11 132.029 443.803 127.446L429.834 128.379ZM430.338 127.37L403.553 145.306L411.342 156.938L438.127 139.003L430.338 127.37ZM403.547 145.309C403.731 145.186 403.928 145.126 404.1 145.115L405.034 159.084C407.271 158.934 409.451 158.208 411.348 156.935L403.547 145.309ZM427.87 98.9937L429.834 128.379L443.803 127.446L441.839 98.0599L427.87 98.9937ZM90.0578 163.819L89.5001 155.314L75.5301 156.23L76.0878 164.735L90.0578 163.819ZM394.799 140.253L385.872 136.231L380.121 148.996L389.048 153.017L394.799 140.253ZM163.827 116.294L177.372 122.473L183.182 109.736L169.638 103.557L163.827 116.294ZM183.827 122.138L196.167 114.876L189.066 102.81L176.727 110.072L183.827 122.138ZM74.9244 121.804L87.8184 128.322L94.1343 115.827L81.2403 109.309L74.9244 121.804ZM94.6111 128.057L107.713 120.096L100.444 108.132L87.3417 116.092L94.6111 128.057ZM109.82 148.089L87.4443 137.26L81.3454 149.862L103.721 160.691L109.82 148.089ZM77.4764 142.496L75.5966 154.707L89.4336 156.837L91.3134 144.626L77.4764 142.496ZM198.59 142.923L185.294 135.864L178.729 148.23L192.025 155.289L198.59 142.923ZM178.205 136.172L165.62 144.327L173.233 156.076L185.818 147.921L178.205 136.172ZM261.797 150.784L273.699 143.043L266.065 131.307L254.163 139.049L261.797 150.784ZM267.247 143.66L280.944 149.226L286.215 136.256L272.517 130.69L267.247 143.66ZM277.047 96.6147L254.112 111.564L261.757 123.292L284.691 108.343L277.047 96.6147ZM338.509 152.07L361.046 137.179L353.328 125.499L330.791 140.389L338.509 152.07ZM354.385 137.754L380.194 149.028L385.799 136.199L359.989 124.924L354.385 137.754ZM340.498 104.696L353.006 110.262L358.698 97.4715L346.19 91.9053L340.498 104.696ZM359.594 109.782L373.574 100.938L366.089 89.107L352.109 97.9513L359.594 109.782ZM431.406 90.9064C427.486 96.7058 427.486 96.7054 427.485 96.7051C427.485 96.705 427.484 96.7046 427.484 96.7044C427.483 96.704 427.483 96.7035 427.482 96.7031C427.481 96.7024 427.48 96.7017 427.479 96.7011C427.477 96.6999 427.476 96.6991 427.475 96.6986C427.474 96.6977 427.475 96.6983 427.478 96.7003C427.484 96.7043 427.498 96.7139 427.519 96.7284C427.56 96.7576 427.629 96.8055 427.715 96.8676C427.893 96.9962 428.118 97.1643 428.336 97.3396C428.443 97.426 428.534 97.5033 428.608 97.5688C428.645 97.6008 428.673 97.6267 428.694 97.6463C428.715 97.6661 428.724 97.6756 428.723 97.6748C428.723 97.6745 428.706 97.6571 428.676 97.6231C428.647 97.5901 428.594 97.5277 428.525 97.4374C428.429 97.3099 428.102 96.8687 427.826 96.1655L440.859 91.0519C440.211 89.4001 439.095 88.2565 438.721 87.8741C438.161 87.3032 437.574 86.8051 437.125 86.443C436.657 86.0648 436.22 85.7404 435.907 85.5149C435.748 85.4 435.614 85.3055 435.515 85.2365C435.465 85.2019 435.423 85.1734 435.392 85.1517C435.376 85.1408 435.362 85.1316 435.351 85.1241C435.346 85.1204 435.341 85.1171 435.337 85.1142C435.335 85.1128 435.333 85.1114 435.331 85.1102C435.33 85.1096 435.329 85.1091 435.328 85.1085C435.328 85.1082 435.327 85.1078 435.327 85.1077C435.327 85.1073 435.326 85.1069 431.406 90.9064ZM427.826 96.1655C427.724 95.9062 427.67 95.7106 427.647 95.6276C427.622 95.5337 427.611 95.477 427.61 95.4715C427.609 95.4657 427.622 95.5325 427.643 95.6925C427.684 96.0111 427.725 96.4469 427.76 96.9389C427.795 97.4162 427.82 97.8774 427.836 98.2239C427.844 98.3953 427.85 98.5343 427.853 98.6278C427.855 98.6745 427.856 98.7096 427.857 98.7315C427.858 98.7424 427.858 98.75 427.858 98.754C427.858 98.7561 427.858 98.7572 427.858 98.7575C427.858 98.7576 427.858 98.7575 427.858 98.7571C427.858 98.7569 427.858 98.7567 427.858 98.7564C427.858 98.7563 427.858 98.756 427.858 98.7559C427.858 98.7557 427.858 98.7554 434.854 98.5268C441.851 98.2982 441.851 98.2979 441.851 98.2976C441.851 98.2974 441.851 98.2971 441.851 98.2968C441.851 98.2963 441.851 98.2957 441.851 98.2951C441.85 98.2938 441.85 98.2922 441.85 98.2904C441.85 98.2869 441.85 98.2824 441.85 98.2769C441.85 98.266 441.849 98.2513 441.848 98.2331C441.847 98.1968 441.845 98.1463 441.843 98.0833C441.838 97.9575 441.831 97.7809 441.821 97.5675C441.801 97.1445 441.769 96.5592 441.724 95.9291C441.679 95.3136 441.616 94.5809 441.526 93.8858C441.467 93.4335 441.309 92.199 440.859 91.0519L427.826 96.1655ZM264.919 116.961L260.862 56.2706L246.893 57.2044L250.95 117.895L264.919 116.961Z" fill="white" mask="url(#path-1-outside-1_17_94)"/>
<path fill-rule="evenodd" clip-rule="evenodd" d="M80.0735 118.535C79.9878 117.252 79.2336 116.118 78.0824 115.556L47.4085 100.545C46.8891 100.285 46.3191 100.17 45.7511 100.185C45.7004 100.188 45.4865 100.203 45.4458 100.205C44.8828 100.266 44.3332 100.456 43.8458 100.783L15.4427 119.744C14.384 120.453 13.7781 121.678 13.8638 122.961L16.9861 168.695C17.0286 169.331 17.3995 169.9 17.9802 170.175C18.5499 170.466 19.2282 170.421 19.7523 170.056L36.6355 158.839C37.7019 158.106 38.2998 156.898 38.2148 155.627L36.7863 134.258C36.7011 132.984 37.2978 131.759 38.3614 131.052L45.5483 126.251C46.0837 125.892 46.682 125.694 47.3048 125.652C47.913 125.612 48.548 125.727 49.111 126.013L56.8711 129.815C58.0193 130.374 58.7763 131.508 58.8615 132.782L60.29 154.151C60.375 155.422 61.1378 156.546 62.2846 157.124L80.5061 165.995C81.0786 166.286 81.766 166.24 82.2892 165.876C82.8125 165.528 83.1153 164.913 83.0728 164.277L80.0735 118.535" fill="#2E2D2D"/>
<path fill-rule="evenodd" clip-rule="evenodd" d="M236.652 131.99C236.673 132.308 236.523 132.614 236.256 132.791L226.502 139.313C226.237 139.489 225.897 139.512 225.611 139.372L215.074 134.207C214.788 134.067 214.598 133.783 214.577 133.465L213.794 121.76C213.773 121.442 213.923 121.136 214.188 120.957L223.942 114.424C224.208 114.246 224.548 114.223 224.835 114.364L235.373 119.541C235.658 119.683 235.848 119.966 235.869 120.284L236.652 131.99ZM233.599 45.1168C233.025 44.8461 232.351 44.8985 231.826 45.2548C231.302 45.6113 231.007 46.219 231.049 46.8506L234.077 92.1467C234.106 92.5915 233.895 93.0198 233.525 93.2685C233.154 93.518 232.678 93.5499 232.276 93.352L224.593 89.5875C223.447 89.0261 222.089 89.1178 221.028 89.8267L192.617 108.843C191.554 109.554 190.954 110.776 191.039 112.049L193.318 146.137C193.403 147.41 194.161 148.542 195.307 149.106L225.996 164.183C227.144 164.747 228.504 164.656 229.566 163.945L257.98 144.917C259.042 144.205 259.643 142.982 259.558 141.709L253.877 56.7375C253.791 55.4448 253.01 54.3006 251.838 53.7455L233.599 45.1168Z" fill="#2E2D2D"/>
<path fill-rule="evenodd" clip-rule="evenodd" d="M344.311 112.727C345.367 112.016 345.964 110.796 345.879 109.526L345.327 101.266C345.242 99.9951 344.488 98.8649 343.344 98.3006L312.847 83.2301C311.697 82.6624 310.335 82.7525 309.269 83.4636L280.869 102.479C279.808 103.19 279.206 104.411 279.292 105.685L281.57 139.764C281.655 141.045 282.424 142.182 283.58 142.741L314.053 157.493C315.177 158.038 316.504 157.956 317.554 157.278L334.65 146.23C335.193 145.879 335.504 145.265 335.464 144.622C335.425 143.979 335.042 143.407 334.464 143.124L303.598 128.063C303.02 127.782 302.64 127.214 302.597 126.577L301.883 115.897C301.84 115.26 302.142 114.648 302.673 114.293L311.57 108.344C312.098 107.99 312.778 107.944 313.349 108.225L322.963 112.936C323.537 113.218 323.917 113.784 323.96 114.421L324.521 122.823C324.564 123.462 324.945 124.028 325.518 124.31C326.094 124.591 326.773 124.543 327.304 124.186L344.311 112.727" fill="#2E2D2D"/>
<path fill-rule="evenodd" clip-rule="evenodd" d="M132.48 95.1023C133.541 94.3916 134.901 94.3007 136.047 94.8639L166.732 109.926C167.88 110.488 168.638 111.62 168.724 112.895L171.003 146.994C171.088 148.268 170.487 149.49 169.426 150.202L141.019 169.228C139.957 169.939 138.597 170.03 137.449 169.466L106.77 154.39C105.624 153.826 104.866 152.695 104.78 151.421L102.501 117.32C102.416 116.046 103.017 114.824 104.079 114.114L132.48 95.1023" fill="#72C42D"/>
<path d="M404.567 152.099C403.548 152.168 402.519 151.969 401.594 151.513L391.923 146.635C390.483 145.951 391.142 145.632 391.589 145.441C393.401 144.674 393.765 144.501 395.668 143.249C395.867 143.119 396.142 143.144 396.363 143.255L403.792 147.017C404.062 147.143 404.427 147.118 404.656 146.959L431.442 129.029C431.692 128.864 431.838 128.554 431.818 128.247L429.67 96.1195C429.649 95.8052 429.464 95.5223 429.188 95.3809L400.264 81.1878C399.996 81.0553 399.655 81.0781 399.405 81.2453L372.635 99.1661C372.375 99.3385 372.225 99.6531 372.246 99.9582L374.393 132.086C374.414 132.393 374.604 132.672 374.881 132.801L382.809 136.696C387.088 138.488 389.462 135.882 389.299 133.434L387.178 101.714C387.148 101.266 387.485 100.887 387.932 100.857L391.467 100.621C391.908 100.592 392.296 100.921 392.326 101.37L394.447 133.09C394.816 138.612 392.019 141.98 386.779 142.331C385.168 142.438 383.9 142.523 380.244 141.017L372.657 137.303C370.783 136.381 369.537 134.507 369.397 132.42L367.249 100.292C367.11 98.2044 368.095 96.1817 369.831 95.0226L396.618 77.0738C398.313 75.9592 400.656 75.8025 402.471 76.6825L431.406 90.9064C433.281 91.8287 434.532 93.6974 434.671 95.7852L436.819 127.913C436.958 129.999 435.967 132.016 434.232 133.186L407.448 151.122C406.591 151.697 405.6 152.03 404.567 152.099" fill="#72C42D"/>
<path d="M411.694 129.39C399.501 130.205 396.573 124.784 396.26 120.093C396.23 119.648 396.566 119.267 397.011 119.238L400.615 118.997C401.017 118.97 401.371 119.236 401.461 119.625C402.248 123.253 403.995 124.994 411.367 124.501C417.235 124.109 419.646 122.615 419.438 119.503C419.318 117.709 418.52 116.425 409.34 116.143C401.666 115.899 396.84 114.531 396.432 108.437C396.057 102.82 400.571 99.1533 408.514 98.6223C417.44 98.0256 422.063 100.826 423.066 107.43C423.103 107.658 423.037 107.882 422.897 108.063C422.753 108.234 422.547 108.345 422.324 108.36L418.707 108.602C418.332 108.627 417.983 108.382 417.883 108.025C416.758 104.227 414.565 103.136 408.841 103.518C402.433 103.947 401.838 106.228 401.95 107.899C402.085 109.924 403.004 110.455 411.732 111.02C420.369 111.579 424.544 112.908 424.946 118.922C425.351 124.987 420.521 128.8 411.694 129.39Z" fill="#72C42D"/>
<path fill-rule="evenodd" clip-rule="evenodd" d="M312.618 113.242C312.823 113.105 313.084 113.088 313.303 113.197L319.193 116.086C319.412 116.194 319.557 116.411 319.574 116.656L320.011 123.198C320.027 123.443 319.912 123.677 319.709 123.815L314.257 127.461C314.054 127.598 313.793 127.616 313.572 127.507L307.689 124.618C307.468 124.509 307.322 124.292 307.306 124.047L306.869 117.505C306.852 117.26 306.968 117.026 307.173 116.89L312.618 113.242Z" fill="#72C42D"/>
</svg>
