<svg width="134" height="132" viewBox="0 0 134 132" fill="none" xmlns="http://www.w3.org/2000/svg">
<mask id="path-1-outside-1_21_127" maskUnits="userSpaceOnUse" x="-0.511239" y="0.844086" width="135" height="131" fill="black">
<rect fill="white" x="-0.511239" y="0.844086" width="135" height="131"/>
<path d="M113.244 56.5216C111.256 55.2856 109.17 54.0291 106.965 52.8498C108.047 50.6248 109.031 48.3792 109.896 46.2109C114.669 33.7265 114.334 24.1522 108.813 19.3112C107.18 17.8434 105.228 16.9216 102.88 16.4273C96.0299 14.9855 86.2497 18.2409 75.6507 24.9006C68.6356 14.5334 60.9975 7.61178 54.1476 6.16999C51.799 5.67567 49.6411 5.73241 47.5553 6.41748C40.5304 8.71994 36.3642 17.3468 35.721 30.5985C35.6387 32.9315 35.6336 35.3831 35.7264 37.8552C33.2337 38.0458 30.8388 38.2571 28.5006 38.6847C15.28 40.8071 7.26641 45.865 5.74224 53.1064C4.21806 60.3477 9.61072 68.2274 20.7562 75.4785C22.7442 76.7145 24.8302 77.971 27.0345 79.1503C25.9531 81.3753 24.9694 83.6209 24.1043 85.7892C19.3305 98.2736 19.6657 107.848 25.187 112.689C26.8197 114.157 28.7717 115.079 31.1202 115.573C38.068 117.035 47.8482 113.78 58.3493 107.1C65.3644 117.467 73.0025 124.388 79.8524 125.83C82.2009 126.324 84.3589 126.268 86.4447 125.583C93.4696 123.28 97.6358 114.653 98.279 101.402C98.3613 99.0686 98.3664 96.617 98.2736 94.1449C100.766 93.9543 103.161 93.743 105.499 93.3154C118.72 91.193 126.734 86.1351 128.258 78.8937C129.782 71.6524 124.487 63.7933 113.244 56.5216Z"/>
<path d="M64.6519 77.1556C70.813 78.4524 76.8588 74.5091 78.1556 68.3481C79.4524 62.187 75.5091 56.1412 69.348 54.8445C63.187 53.5477 57.1412 57.4909 55.8444 63.652C54.5476 69.813 58.4909 75.8588 64.6519 77.1556Z"/>
<path d="M113.244 56.5216C111.256 55.2856 109.17 54.0291 106.965 52.8498C108.047 50.6248 109.031 48.3792 109.896 46.2109C114.669 33.7265 114.334 24.1522 108.813 19.3112C107.18 17.8434 105.228 16.9216 102.88 16.4273C96.0299 14.9855 86.2497 18.2409 75.6507 24.9006C68.6356 14.5334 60.9975 7.61178 54.1476 6.16999C51.799 5.67567 49.6411 5.73241 47.5553 6.41748C40.5304 8.71994 36.3642 17.3468 35.721 30.5985C35.6387 32.9315 35.6336 35.3831 35.7264 37.8552C33.2337 38.0458 30.8388 38.2571 28.5006 38.6847C15.28 40.8071 7.26641 45.865 5.74224 53.1064C4.21806 60.3477 9.61072 68.2274 20.7562 75.4785C22.7442 76.7145 24.8302 77.971 27.0345 79.1503C25.9531 81.3753 24.9694 83.6209 24.1043 85.7892C19.3305 98.2736 19.6657 107.848 25.187 112.689C26.8197 114.157 28.7717 115.079 31.1202 115.573C38.068 117.035 47.8482 113.78 58.3493 107.1C65.3644 117.467 73.0025 124.388 79.8524 125.83C82.2009 126.324 84.3589 126.268 86.4447 125.583C93.4696 123.28 97.6358 114.653 98.279 101.402C98.3613 99.0686 98.3664 96.617 98.2736 94.1449C100.766 93.9543 103.161 93.743 105.499 93.3154C118.72 91.193 126.734 86.1351 128.258 78.8937C129.782 71.6524 124.487 63.7933 113.244 56.5216ZM105.043 23.6272C108.561 26.8202 108.407 34.3499 104.581 44.2746C103.854 46.2678 102.912 48.3177 101.851 50.4448C97.0098 48.1994 91.7925 46.2838 86.2199 44.5999C83.8814 39.2025 81.3421 34.2738 78.7205 29.7365C87.4654 24.1172 95.8344 20.7692 101.804 22.0256C103.076 22.2934 104.188 22.8341 105.043 23.6272ZM81.8694 79.3489C79.4489 82.1095 76.7348 84.8084 73.9229 87.4866C70.2404 87.0181 66.5991 86.3539 62.8806 85.5712C59.0642 84.7679 55.4642 83.908 52.0031 82.8729C50.5094 79.2884 49.2114 75.7451 48.1091 72.2429C46.9295 68.6223 45.8684 64.9245 44.9824 61.3657C47.2278 58.466 49.6895 55.5097 52.2285 52.6718C54.649 49.9111 57.3631 47.2123 60.175 44.534C63.8575 45.0025 67.4987 45.6668 71.2172 46.4494C75.0336 47.2527 78.6337 48.1127 82.0947 49.1477C83.5884 52.7322 84.8865 56.2756 85.9888 59.7777C87.1683 63.3983 88.2294 67.0961 89.1154 70.6549C86.7722 73.534 84.4289 76.4131 81.8694 79.3489ZM90.6711 77.8292C91.418 81.5631 91.892 85.1373 92.2681 88.691C88.7763 88.7736 85.1299 88.6192 81.3084 88.3258C82.874 86.7137 84.558 85.0243 86.067 83.1959C87.6738 81.3881 89.1827 79.5597 90.6711 77.8292ZM60.0382 99.0753C58.2252 96.0367 56.5512 92.823 54.9957 89.5321C57.2258 90.1037 59.4559 90.6752 61.7066 91.149C63.9573 91.6227 66.2285 91.9986 68.4998 92.3744C65.7497 94.7591 62.9223 97.0254 60.0382 99.0753ZM44.9266 80.5659C41.311 79.2939 37.9118 77.9653 34.7495 76.4821C36.5056 73.4795 38.4008 70.3017 40.5895 67.1857C41.254 69.3694 41.8979 71.6509 42.6602 73.8552C43.3813 76.2552 44.1643 78.3616 44.9266 80.5659ZM43.3289 54.1708C42.582 50.4369 42.108 46.8627 41.7319 43.309C45.2237 43.2265 48.8701 43.3808 52.6916 43.6742C51.126 45.2863 49.442 46.9757 47.933 48.8041C46.3262 50.6119 44.8173 52.4403 43.3289 54.1708ZM73.9618 32.9247C75.7748 35.9633 77.4488 39.177 79.0043 42.468C76.7742 41.8964 74.5441 41.3248 72.2934 40.8511C70.0427 40.3773 67.7714 40.0015 65.5002 39.6256C68.2503 37.2409 71.0777 34.9747 73.9618 32.9247ZM91.3604 58.047L89.0734 51.4341C92.6889 52.7061 96.0882 54.0347 99.2505 55.5179C97.4944 58.5206 95.5992 61.6983 93.4105 64.8143C92.7666 62.5328 92.1227 60.2513 91.3604 58.047ZM41.3657 30.969C41.8648 20.344 44.759 13.391 49.2654 11.887C50.3675 11.5058 51.6036 11.4594 52.8757 11.7271C58.7471 12.963 65.077 19.3027 70.892 28.0888C66.6844 31.0864 62.3531 34.6712 58.0374 38.6679C52.2588 37.9626 46.6913 37.7105 41.3763 37.7158C41.2629 35.3416 41.3246 33.1064 41.3657 30.969ZM11.2222 54.2598C12.1902 49.6605 18.7979 45.9418 29.3455 44.3808C31.4674 44.0099 33.7644 43.778 36.0408 43.644C36.5767 48.8664 37.4422 54.4647 38.6991 60.1453C35.2589 64.8374 32.1329 69.4933 29.6352 74.0772C16.955 67.3206 10.0687 59.7397 11.2222 54.2598ZM28.9568 108.373C25.439 105.18 25.5932 97.6501 29.4194 87.7254C30.1456 85.7322 31.088 83.6824 32.1488 81.5553C36.9902 83.8006 42.2075 85.7163 47.7801 87.4002C50.1186 92.7975 52.6578 97.7262 55.2795 102.264C46.5346 107.883 38.1656 111.231 32.1964 109.974C30.9242 109.707 29.8118 109.166 28.9568 108.373ZM92.6343 101.031C92.1352 111.656 89.241 118.609 84.7346 120.113C83.6325 120.494 82.3964 120.541 81.1243 120.273C75.2529 119.037 68.923 112.697 63.108 103.911C67.3156 100.914 71.6468 97.3289 75.9626 93.3321C81.7412 94.0374 87.3087 94.2896 92.6237 94.2842C92.7371 96.6584 92.6754 98.8937 92.6343 101.031ZM104.654 87.6192C102.533 87.9901 100.236 88.222 97.9592 88.356C97.4233 83.1337 96.5578 77.5354 95.3009 71.8547C98.7411 67.1626 101.867 62.5067 104.365 57.9228C117.045 64.6794 123.931 72.2603 122.778 77.7403C121.81 82.3395 115.104 86.0377 104.654 87.6192Z"/>
</mask>
<path d="M113.244 56.5216C111.256 55.2856 109.17 54.0291 106.965 52.8498C108.047 50.6248 109.031 48.3792 109.896 46.2109C114.669 33.7265 114.334 24.1522 108.813 19.3112C107.18 17.8434 105.228 16.9216 102.88 16.4273C96.0299 14.9855 86.2497 18.2409 75.6507 24.9006C68.6356 14.5334 60.9975 7.61178 54.1476 6.16999C51.799 5.67567 49.6411 5.73241 47.5553 6.41748C40.5304 8.71994 36.3642 17.3468 35.721 30.5985C35.6387 32.9315 35.6336 35.3831 35.7264 37.8552C33.2337 38.0458 30.8388 38.2571 28.5006 38.6847C15.28 40.8071 7.26641 45.865 5.74224 53.1064C4.21806 60.3477 9.61072 68.2274 20.7562 75.4785C22.7442 76.7145 24.8302 77.971 27.0345 79.1503C25.9531 81.3753 24.9694 83.6209 24.1043 85.7892C19.3305 98.2736 19.6657 107.848 25.187 112.689C26.8197 114.157 28.7717 115.079 31.1202 115.573C38.068 117.035 47.8482 113.78 58.3493 107.1C65.3644 117.467 73.0025 124.388 79.8524 125.83C82.2009 126.324 84.3589 126.268 86.4447 125.583C93.4696 123.28 97.6358 114.653 98.279 101.402C98.3613 99.0686 98.3664 96.617 98.2736 94.1449C100.766 93.9543 103.161 93.743 105.499 93.3154C118.72 91.193 126.734 86.1351 128.258 78.8937C129.782 71.6524 124.487 63.7933 113.244 56.5216Z" fill="white"/>
<path d="M64.6519 77.1556C70.813 78.4524 76.8588 74.5091 78.1556 68.3481C79.4524 62.187 75.5091 56.1412 69.348 54.8445C63.187 53.5477 57.1412 57.4909 55.8444 63.652C54.5476 69.813 58.4909 75.8588 64.6519 77.1556Z" fill="#61DAFB"/>
<path d="M113.244 56.5216C111.256 55.2856 109.17 54.0291 106.965 52.8498C108.047 50.6248 109.031 48.3792 109.896 46.2109C114.669 33.7265 114.334 24.1522 108.813 19.3112C107.18 17.8434 105.228 16.9216 102.88 16.4273C96.0299 14.9855 86.2497 18.2409 75.6507 24.9006C68.6356 14.5334 60.9975 7.61178 54.1476 6.16999C51.799 5.67567 49.6411 5.73241 47.5553 6.41748C40.5304 8.71994 36.3642 17.3468 35.721 30.5985C35.6387 32.9315 35.6336 35.3831 35.7264 37.8552C33.2337 38.0458 30.8388 38.2571 28.5006 38.6847C15.28 40.8071 7.26641 45.865 5.74224 53.1064C4.21806 60.3477 9.61072 68.2274 20.7562 75.4785C22.7442 76.7145 24.8302 77.971 27.0345 79.1503C25.9531 81.3753 24.9694 83.6209 24.1043 85.7892C19.3305 98.2736 19.6657 107.848 25.187 112.689C26.8197 114.157 28.7717 115.079 31.1202 115.573C38.068 117.035 47.8482 113.78 58.3493 107.1C65.3644 117.467 73.0025 124.388 79.8524 125.83C82.2009 126.324 84.3589 126.268 86.4447 125.583C93.4696 123.28 97.6358 114.653 98.279 101.402C98.3613 99.0686 98.3664 96.617 98.2736 94.1449C100.766 93.9543 103.161 93.743 105.499 93.3154C118.72 91.193 126.734 86.1351 128.258 78.8937C129.782 71.6524 124.487 63.7933 113.244 56.5216ZM105.043 23.6272C108.561 26.8202 108.407 34.3499 104.581 44.2746C103.854 46.2678 102.912 48.3177 101.851 50.4448C97.0098 48.1994 91.7925 46.2838 86.2199 44.5999C83.8814 39.2025 81.3421 34.2738 78.7205 29.7365C87.4654 24.1172 95.8344 20.7692 101.804 22.0256C103.076 22.2934 104.188 22.8341 105.043 23.6272ZM81.8694 79.3489C79.4489 82.1095 76.7348 84.8084 73.9229 87.4866C70.2404 87.0181 66.5991 86.3539 62.8806 85.5712C59.0642 84.7679 55.4642 83.908 52.0031 82.8729C50.5094 79.2884 49.2114 75.7451 48.1091 72.2429C46.9295 68.6223 45.8684 64.9245 44.9824 61.3657C47.2278 58.466 49.6895 55.5097 52.2285 52.6718C54.649 49.9111 57.3631 47.2123 60.175 44.534C63.8575 45.0025 67.4987 45.6668 71.2172 46.4494C75.0336 47.2527 78.6337 48.1127 82.0947 49.1477C83.5884 52.7322 84.8865 56.2756 85.9888 59.7777C87.1683 63.3983 88.2294 67.0961 89.1154 70.6549C86.7722 73.534 84.4289 76.4131 81.8694 79.3489ZM90.6711 77.8292C91.418 81.5631 91.892 85.1373 92.2681 88.691C88.7763 88.7736 85.1299 88.6192 81.3084 88.3258C82.874 86.7137 84.558 85.0243 86.067 83.1959C87.6738 81.3881 89.1827 79.5597 90.6711 77.8292ZM60.0382 99.0753C58.2252 96.0367 56.5512 92.823 54.9957 89.5321C57.2258 90.1037 59.4559 90.6752 61.7066 91.149C63.9573 91.6227 66.2285 91.9986 68.4998 92.3744C65.7497 94.7591 62.9223 97.0254 60.0382 99.0753ZM44.9266 80.5659C41.311 79.2939 37.9118 77.9653 34.7495 76.4821C36.5056 73.4795 38.4008 70.3017 40.5895 67.1857C41.254 69.3694 41.8979 71.6509 42.6602 73.8552C43.3813 76.2552 44.1643 78.3616 44.9266 80.5659ZM43.3289 54.1708C42.582 50.4369 42.108 46.8627 41.7319 43.309C45.2237 43.2265 48.8701 43.3808 52.6916 43.6742C51.126 45.2863 49.442 46.9757 47.933 48.8041C46.3262 50.6119 44.8173 52.4403 43.3289 54.1708ZM73.9618 32.9247C75.7748 35.9633 77.4488 39.177 79.0043 42.468C76.7742 41.8964 74.5441 41.3248 72.2934 40.8511C70.0427 40.3773 67.7714 40.0015 65.5002 39.6256C68.2503 37.2409 71.0777 34.9747 73.9618 32.9247ZM91.3604 58.047L89.0734 51.4341C92.6889 52.7061 96.0882 54.0347 99.2505 55.5179C97.4944 58.5206 95.5992 61.6983 93.4105 64.8143C92.7666 62.5328 92.1227 60.2513 91.3604 58.047ZM41.3657 30.969C41.8648 20.344 44.759 13.391 49.2654 11.887C50.3675 11.5058 51.6036 11.4594 52.8757 11.7271C58.7471 12.963 65.077 19.3027 70.892 28.0888C66.6844 31.0864 62.3531 34.6712 58.0374 38.6679C52.2588 37.9626 46.6913 37.7105 41.3763 37.7158C41.2629 35.3416 41.3246 33.1064 41.3657 30.969ZM11.2222 54.2598C12.1902 49.6605 18.7979 45.9418 29.3455 44.3808C31.4674 44.0099 33.7644 43.778 36.0408 43.644C36.5767 48.8664 37.4422 54.4647 38.6991 60.1453C35.2589 64.8374 32.1329 69.4933 29.6352 74.0772C16.955 67.3206 10.0687 59.7397 11.2222 54.2598ZM28.9568 108.373C25.439 105.18 25.5932 97.6501 29.4194 87.7254C30.1456 85.7322 31.088 83.6824 32.1488 81.5553C36.9902 83.8006 42.2075 85.7163 47.7801 87.4002C50.1186 92.7975 52.6578 97.7262 55.2795 102.264C46.5346 107.883 38.1656 111.231 32.1964 109.974C30.9242 109.707 29.8118 109.166 28.9568 108.373ZM92.6343 101.031C92.1352 111.656 89.241 118.609 84.7346 120.113C83.6325 120.494 82.3964 120.541 81.1243 120.273C75.2529 119.037 68.923 112.697 63.108 103.911C67.3156 100.914 71.6468 97.3289 75.9626 93.3321C81.7412 94.0374 87.3087 94.2896 92.6237 94.2842C92.7371 96.6584 92.6754 98.8937 92.6343 101.031ZM104.654 87.6192C102.533 87.9901 100.236 88.222 97.9592 88.356C97.4233 83.1337 96.5578 77.5354 95.3009 71.8547C98.7411 67.1626 101.867 62.5067 104.365 57.9228C117.045 64.6794 123.931 72.2603 122.778 77.7403C121.81 82.3395 115.104 86.0377 104.654 87.6192Z" fill="#61DAFB"/>
<path d="M113.244 56.5216L115.959 52.3232L115.922 52.2989L115.884 52.2754L113.244 56.5216ZM106.965 52.8498L102.469 50.664L100.366 54.9897L104.607 57.2585L106.965 52.8498ZM109.896 46.2109L114.54 48.0639L114.553 48.0304L114.566 47.9967L109.896 46.2109ZM108.813 19.3112L105.47 23.0295L105.493 23.0503L105.517 23.0707L108.813 19.3112ZM102.88 16.4273L101.85 21.3201L102.88 16.4273ZM75.6507 24.9006L71.5097 27.7027L74.2184 31.7057L78.3109 29.1342L75.6507 24.9006ZM54.1476 6.16999L55.1774 1.2772L54.1476 6.16999ZM47.5553 6.41748L49.1125 11.1688L49.1155 11.1678L47.5553 6.41748ZM35.721 30.5985L30.7269 30.356L30.7252 30.3891L30.7241 30.4222L35.721 30.5985ZM35.7264 37.8552L36.1078 42.8406L40.9033 42.4738L40.7229 37.6676L35.7264 37.8552ZM28.5006 38.6847L29.2932 43.6215L29.3467 43.6129L29.4 43.6031L28.5006 38.6847ZM20.7562 75.4785L18.0295 79.6696L18.0726 79.6976L18.1163 79.7247L20.7562 75.4785ZM27.0345 79.1503L31.5314 81.3361L33.634 77.0104L29.3931 74.7416L27.0345 79.1503ZM24.1043 85.7892L19.4603 83.9362L19.4469 83.9697L19.4341 84.0034L24.1043 85.7892ZM25.187 112.689L28.5297 108.971L28.5066 108.95L28.4833 108.929L25.187 112.689ZM31.1202 115.573L30.0903 120.466L31.1202 115.573ZM58.3493 107.1L62.4903 104.297L59.7665 100.272L55.6655 102.881L58.3493 107.1ZM79.8524 125.83L78.8226 130.723L79.8524 125.83ZM86.4447 125.583L84.8874 120.831L84.8845 120.832L86.4447 125.583ZM98.279 101.402L103.273 101.644L103.275 101.611L103.276 101.578L98.279 101.402ZM98.2736 94.1449L97.8922 89.1595L93.0967 89.5263L93.2771 94.3325L98.2736 94.1449ZM105.499 93.3154L104.707 88.3786L104.653 88.3872L104.6 88.397L105.499 93.3154ZM115.884 52.2754C113.86 51.017 111.668 49.6952 109.324 48.441L104.607 57.2585C106.671 58.3629 108.652 59.5543 110.604 60.7679L115.884 52.2754ZM111.462 55.0355C112.6 52.695 113.632 50.338 114.54 48.0639L105.252 44.358C104.429 46.4204 103.494 48.5546 102.469 50.664L111.462 55.0355ZM114.566 47.9967C117.096 41.3795 118.424 35.1637 118.211 29.7006C117.996 24.1764 116.172 19.1141 112.109 15.5516L105.517 23.0707C106.975 24.3493 108.079 26.4946 108.219 30.089C108.361 33.7443 107.469 38.558 105.225 44.4252L114.566 47.9967ZM112.156 15.5928C109.769 13.4473 106.978 12.1802 103.91 11.5345L101.85 21.3201C103.479 21.663 104.592 22.2396 105.47 23.0295L112.156 15.5928ZM103.91 11.5345C99.3313 10.5708 94.242 11.2491 89.1606 12.8595C84.0256 14.4868 78.5425 17.1785 72.9906 20.667L78.3109 29.1342C83.3579 25.963 88.0644 23.6971 92.1817 22.3922C96.3526 21.0704 99.5784 20.8419 101.85 21.3201L103.91 11.5345ZM79.7918 22.0985C76.1171 16.668 72.1843 11.9944 68.1409 8.43521C64.1398 4.91315 59.7558 2.24086 55.1774 1.2772L53.1177 11.0628C55.3893 11.5409 58.2493 13.0503 61.5335 15.9413C64.7755 18.7952 68.1692 22.766 71.5097 27.7027L79.7918 22.0985ZM55.1774 1.2772C52.1095 0.631463 49.0441 0.665711 45.995 1.66714L49.1155 11.1678C50.2381 10.7991 51.4885 10.7199 53.1177 11.0628L55.1774 1.2772ZM45.998 1.66618C40.8738 3.34568 37.1736 7.24291 34.751 12.2103C32.355 17.1231 31.0683 23.3222 30.7269 30.356L40.7151 30.8409C41.0169 24.6231 42.1349 19.8829 43.739 16.5938C45.3165 13.3592 47.2119 11.7917 49.1125 11.1688L45.998 1.66618ZM30.7241 30.4222C30.6378 32.8691 30.6323 35.4422 30.7299 38.0428L40.7229 37.6676C40.6349 35.3239 40.6396 32.9939 40.7179 30.7747L30.7241 30.4222ZM35.3451 32.8697C32.845 33.061 30.2204 33.2873 27.6012 33.7662L29.4 43.6031C31.4572 43.2269 33.6224 43.0307 36.1078 42.8406L35.3451 32.8697ZM27.7081 33.7479C20.7027 34.8725 14.6753 36.8302 10.0609 39.7513C5.38528 42.7111 1.95719 46.8136 0.849445 52.0765L10.635 54.1362C11.0515 52.1578 12.3923 50.1107 15.4096 48.2006C18.4882 46.2518 23.0779 44.6193 29.2932 43.6215L27.7081 33.7479ZM0.849445 52.0765C-0.262574 57.3597 1.2638 62.5053 4.353 67.0849C7.40607 71.6109 12.1249 75.8281 18.0295 79.6696L23.4829 71.2874C18.242 67.8777 14.6918 64.5296 12.6432 61.4926C10.6307 58.5093 10.2229 56.0944 10.635 54.1362L0.849445 52.0765ZM18.1163 79.7247C20.1402 80.9831 22.3316 82.3049 24.6759 83.5591L29.3931 74.7416C27.3287 73.6372 25.3482 72.4459 23.3961 71.2322L18.1163 79.7247ZM22.5376 76.9646C21.4 79.3051 20.3677 81.6621 19.4603 83.9362L28.7483 87.6421C29.5712 85.5797 30.5061 83.4455 31.5314 81.3361L22.5376 76.9646ZM19.4341 84.0034C16.9038 90.6206 15.5764 96.8364 15.7888 102.3C16.0035 107.824 17.8276 112.886 21.8906 116.448L28.4833 108.929C27.0251 107.651 25.9209 105.505 25.7812 101.911C25.6391 98.2558 26.531 93.4421 28.7745 87.5749L19.4341 84.0034ZM21.8443 116.407C24.2309 118.553 27.0224 119.82 30.0903 120.466L32.15 110.68C30.5209 110.337 29.4084 109.761 28.5297 108.971L21.8443 116.407ZM30.0903 120.466C34.7076 121.437 39.817 120.771 44.9128 119.156C50.0567 117.526 55.5226 114.824 61.033 111.318L55.6655 102.881C50.6748 106.056 46.0001 108.321 41.8917 109.623C37.7351 110.941 34.4805 111.171 32.15 110.68L30.0903 120.466ZM54.2082 109.902C57.8829 115.332 61.8157 120.006 65.8591 123.565C69.8602 127.087 74.2442 129.759 78.8226 130.723L80.8823 120.937C78.6107 120.459 75.7507 118.95 72.4665 116.059C69.2245 113.205 65.8308 109.234 62.4903 104.297L54.2082 109.902ZM78.8226 130.723C81.8905 131.369 84.9559 131.334 88.0049 130.333L84.8845 120.832C83.7619 121.201 82.5114 121.28 80.8823 120.937L78.8226 130.723ZM88.002 130.334C93.1262 128.654 96.8264 124.757 99.249 119.79C101.645 114.877 102.932 108.678 103.273 101.644L93.2849 101.159C92.9831 107.377 91.8651 112.117 90.261 115.406C88.6834 118.641 86.7881 120.208 84.8874 120.831L88.002 130.334ZM103.276 101.578C103.362 99.131 103.368 96.5579 103.27 93.9573L93.2771 94.3325C93.3651 96.6762 93.3604 99.0062 93.2821 101.225L103.276 101.578ZM98.6549 99.1304C101.155 98.9391 103.78 98.7128 106.399 98.2339L104.6 88.397C102.543 88.7732 100.378 88.9694 97.8922 89.1595L98.6549 99.1304ZM106.292 98.2522C113.297 97.1276 119.325 95.1699 123.939 92.2488C128.615 89.289 132.043 85.1865 133.151 79.9236L123.365 77.8639C122.949 79.8423 121.608 81.8894 118.59 83.7995C115.512 85.7483 110.922 87.3808 104.707 88.3786L106.292 98.2522ZM133.151 79.9236C134.258 74.6607 132.775 69.5244 129.689 64.9309C126.644 60.3976 121.917 56.1763 115.959 52.3232L110.528 60.7201C115.814 64.1386 119.356 67.4828 121.388 70.5073C123.38 73.4716 123.781 75.8855 123.365 77.8639L133.151 79.9236ZM78.1556 68.3481L68.37 66.2884L68.37 66.2884L78.1556 68.3481ZM64.6519 77.1556L62.5923 86.9412L62.5923 86.9412L64.6519 77.1556ZM55.8444 63.652L46.0588 61.5923L46.0588 61.5923L55.8444 63.652ZM69.348 54.8445L67.2884 64.63L67.2884 64.63L69.348 54.8445ZM105.043 23.6272L98.2424 30.9586L98.2821 30.9954L98.3222 31.0318L105.043 23.6272ZM104.581 44.2746L95.2499 40.6774L95.2165 40.7643L95.1846 40.8517L104.581 44.2746ZM101.851 50.4448L97.6438 59.5166L106.462 63.6062L110.8 54.9079L101.851 50.4448ZM86.2199 44.5999L77.0441 48.5753L78.8878 52.8309L83.3273 54.1724L86.2199 44.5999ZM78.7205 29.7365L73.3145 21.3237L65.2897 26.4803L70.0619 34.7395L78.7205 29.7365ZM101.804 22.0256L103.863 12.24L101.804 22.0256ZM81.8694 79.3489L89.3885 85.9415L89.3977 85.931L89.4069 85.9205L81.8694 79.3489ZM73.9229 87.4866L72.6607 97.4066L77.377 98.0067L80.8197 94.7277L73.9229 87.4866ZM62.8806 85.5712L60.8209 95.3568L62.8806 85.5712ZM52.0031 82.8729L42.7725 86.7194L44.596 91.0953L49.1379 92.4536L52.0031 82.8729ZM48.1091 72.2429L57.6478 69.2406L57.6327 69.1928L57.6172 69.1452L48.1091 72.2429ZM44.9824 61.3657L37.0758 55.2432L34.1073 59.0767L35.2786 63.7815L44.9824 61.3657ZM52.2285 52.6718L59.6812 59.3394L59.7146 59.3021L59.7476 59.2644L52.2285 52.6718ZM60.175 44.534L61.4371 34.614L56.7208 34.0139L53.2781 37.2929L60.175 44.534ZM71.2172 46.4494L73.2769 36.6639L71.2172 46.4494ZM82.0947 49.1477L91.3253 45.3012L89.5018 40.9253L84.9599 39.567L82.0947 49.1477ZM85.9888 59.7777L76.4501 62.78L76.4651 62.8278L76.4806 62.8754L85.9888 59.7777ZM89.1154 70.6549L96.8713 76.9673L100.027 73.0901L98.8192 68.2391L89.1154 70.6549ZM90.6711 77.8292L100.477 75.8676L96.4558 55.7671L83.0894 71.3086L90.6711 77.8292ZM92.2681 88.691L92.5045 98.6882L103.355 98.4317L102.213 87.6385L92.2681 88.691ZM81.3084 88.3258L74.1346 81.3589L59.2715 96.6633L80.5428 98.2965L81.3084 88.3258ZM86.067 83.1959L78.5926 76.5526L78.4709 76.6895L78.3543 76.8308L86.067 83.1959ZM60.0382 99.0753L51.4507 104.199L57.0016 113.502L65.8317 107.226L60.0382 99.0753ZM54.9957 89.5321L57.4785 79.8452L36.8582 74.5601L45.9548 93.8054L54.9957 89.5321ZM68.4998 92.3744L75.0511 99.9297L91.1338 85.9841L70.1325 82.5086L68.4998 92.3744ZM44.9266 80.5659L41.6079 89.9991L61.1475 96.8733L54.3774 77.2974L44.9266 80.5659ZM34.7495 76.4821L26.1174 71.4337L20.5892 80.8861L30.5033 85.5359L34.7495 76.4821ZM40.5895 67.1857L50.1564 64.2746L44.189 44.6636L32.4065 61.4378L40.5895 67.1857ZM42.6602 73.8552L52.2372 70.9775L52.1781 70.7808L52.111 70.5867L42.6602 73.8552ZM43.3289 54.1708L33.5232 56.1324L37.5442 76.233L50.9106 60.6914L43.3289 54.1708ZM41.7319 43.309L41.4955 33.3118L30.6451 33.5683L31.7874 44.3615L41.7319 43.309ZM52.6916 43.6742L59.8654 50.6411L74.7285 35.3367L53.4572 33.7036L52.6916 43.6742ZM47.933 48.8041L55.4074 55.4474L55.5291 55.3105L55.6457 55.1692L47.933 48.8041ZM73.9618 32.9247L82.5493 27.8008L76.9984 18.4977L68.1683 24.7739L73.9618 32.9247ZM79.0043 42.468L76.5215 52.1548L97.1418 57.44L88.0452 38.1946L79.0043 42.468ZM65.5002 39.6256L58.9489 32.0704L42.8662 46.0159L63.8675 49.4914L65.5002 39.6256ZM91.3604 58.047L100.811 54.7785L100.811 54.7785L91.3604 58.047ZM89.0734 51.4341L92.3921 42.0009L72.8525 35.1268L79.6226 54.7026L89.0734 51.4341ZM99.2505 55.5179L107.883 60.5663L113.411 51.1139L103.497 46.4642L99.2505 55.5179ZM93.4105 64.8143L83.7864 67.5304L89.5006 87.7783L101.594 70.5622L93.4105 64.8143ZM41.3657 30.969L31.3767 30.4998L31.3702 30.6382L31.3675 30.7767L41.3657 30.969ZM49.2654 11.887L52.4313 21.3726L52.4827 21.3554L52.5338 21.3377L49.2654 11.887ZM52.8757 11.7271L54.9354 1.94156L52.8757 11.7271ZM70.892 28.0888L76.6944 36.2333L84.5637 30.6269L79.231 22.5697L70.892 28.0888ZM58.0374 38.6679L56.8258 48.5943L61.4294 49.1562L64.8321 46.0049L58.0374 38.6679ZM41.3763 37.7158L31.3876 38.1929L31.843 47.7255L41.3864 47.7158L41.3763 37.7158ZM11.2222 54.2598L21.0078 56.3194L11.2222 54.2598ZM29.3455 44.3808L30.8095 54.273L30.9387 54.2539L31.0674 54.2314L29.3455 44.3808ZM36.0408 43.644L45.9886 42.6233L45.0113 33.0987L35.4532 33.6613L36.0408 43.644ZM38.6991 60.1453L46.7636 66.0583L49.4412 62.4064L48.4629 57.985L38.6991 60.1453ZM29.6352 74.0772L24.9327 82.9025L33.676 87.5614L38.4162 78.8619L29.6352 74.0772ZM28.9568 108.373L35.7576 101.041L35.7179 101.005L35.6778 100.968L28.9568 108.373ZM29.4194 87.7254L38.7501 91.3226L38.7835 91.2357L38.8154 91.1483L29.4194 87.7254ZM32.1488 81.5553L36.3562 72.4834L27.5382 68.3938L23.2 77.0922L32.1488 81.5553ZM47.7801 87.4002L56.9559 83.4247L55.1122 79.1691L50.6727 77.8276L47.7801 87.4002ZM55.2795 102.264L60.6854 110.676L68.7103 105.52L63.9381 97.2605L55.2795 102.264ZM32.1964 109.974L30.1367 119.76L32.1964 109.974ZM92.6343 101.031L102.623 101.5L102.63 101.362L102.632 101.223L92.6343 101.031ZM84.7346 120.113L81.5687 110.627L81.5173 110.645L81.4662 110.662L84.7346 120.113ZM81.1243 120.273L79.0646 130.058L81.1243 120.273ZM63.108 103.911L57.3056 95.7668L49.4363 101.373L54.769 109.43L63.108 103.911ZM75.9626 93.3321L77.1742 83.4057L72.5706 82.8438L69.1679 85.9951L75.9626 93.3321ZM92.6237 94.2842L102.612 93.8071L102.157 84.2745L92.6136 84.2842L92.6237 94.2842ZM104.654 87.6192L103.158 77.7318L103.045 77.7489L102.933 77.7686L104.654 87.6192ZM97.9592 88.356L88.0114 89.3767L88.9887 98.9014L98.5468 98.3387L97.9592 88.356ZM95.3009 71.8547L87.2364 65.9418L84.5588 69.5936L85.5371 74.015L95.3009 71.8547ZM104.365 57.9228L109.067 49.0975L100.324 44.4387L95.5838 53.1381L104.365 57.9228ZM122.778 77.7403L112.992 75.6806L122.778 77.7403ZM68.37 66.2884C68.2107 67.045 67.4683 67.5293 66.7116 67.37L62.5923 86.9412C74.1577 89.3755 85.5068 81.9732 87.9411 70.4078L68.37 66.2884ZM66.7116 67.37C65.955 67.2107 65.4708 66.4683 65.63 65.7117L46.0588 61.5923C43.6245 73.1578 51.0268 84.5068 62.5923 86.9412L66.7116 67.37ZM65.63 65.7117C65.7893 64.955 66.5317 64.4708 67.2884 64.63L71.4077 45.0589C59.8423 42.6245 48.4932 50.0268 46.0588 61.5923L65.63 65.7117ZM67.2884 64.63C68.045 64.7893 68.5292 65.5318 68.37 66.2884L87.9411 70.4078C90.3755 58.8423 82.9732 47.4932 71.4077 45.0589L67.2884 64.63ZM98.3222 31.0318C97.0113 29.8419 97.6157 29.0402 97.5683 31.2077C97.5252 33.1765 96.9191 36.348 95.2499 40.6774L113.911 47.8718C116.068 42.2765 117.452 36.7208 117.563 31.6454C117.67 26.7686 116.593 20.6055 111.764 16.2226L98.3222 31.0318ZM95.1846 40.8517C94.6442 42.3351 93.8892 44.0031 92.9024 45.9817L110.8 54.9079C111.935 52.6323 113.065 50.2006 113.976 47.6975L95.1846 40.8517ZM106.059 41.3729C100.705 38.8901 95.0334 36.8165 89.1124 35.0273L83.3273 54.1724C88.5517 55.751 93.3146 57.5088 97.6438 59.5166L106.059 41.3729ZM95.3957 40.6244C92.8891 34.839 90.1721 29.5674 87.379 24.7335L70.0619 34.7395C72.5122 38.9801 74.8737 43.566 77.0441 48.5753L95.3957 40.6244ZM84.1264 38.1494C88.0976 35.5976 91.6599 33.7773 94.62 32.7365C97.7206 31.6463 99.294 31.7165 99.7439 31.8112L103.863 12.24C98.344 11.0783 92.7483 12.1943 87.9859 13.8688C83.083 15.5928 78.0883 18.2562 73.3145 21.3237L84.1264 38.1494ZM99.7439 31.8112C99.5264 31.7654 98.9139 31.5815 98.2424 30.9586L111.844 16.2958C109.463 14.0867 106.625 12.8213 103.863 12.24L99.7439 31.8112ZM74.3503 72.7562C72.2216 75.1841 69.7575 77.6439 67.026 80.2455L80.8197 94.7277C83.7121 91.9728 86.6762 89.035 89.3885 85.9415L74.3503 72.7562ZM75.185 77.5666C71.8537 77.1427 68.4928 76.5333 64.9403 75.7856L60.8209 95.3568C64.7055 96.1744 68.6271 96.8934 72.6607 97.4066L75.185 77.5666ZM64.9403 75.7856C61.2802 75.0152 57.9711 74.2201 54.8684 73.2922L49.1379 92.4536C52.9572 93.5958 56.8482 94.5206 60.8209 95.3568L64.9403 75.7856ZM61.2338 79.0264C59.8487 75.7027 58.6551 72.441 57.6478 69.2406L38.5704 75.2452C39.7677 79.0491 41.1701 82.874 42.7725 86.7194L61.2338 79.0264ZM57.6172 69.1452C56.5096 65.7455 55.5141 62.2751 54.6862 58.9499L35.2786 63.7815C36.2228 67.5739 37.3495 71.4991 38.601 75.3406L57.6172 69.1452ZM52.889 67.4882C54.9871 64.7788 57.2971 62.0041 59.6812 59.3394L44.7758 46.0041C42.0819 49.0152 39.4686 52.1532 37.0758 55.2432L52.889 67.4882ZM59.7476 59.2644C61.8763 56.8366 64.3404 54.3767 67.0719 51.7751L53.2781 37.2929C50.3858 40.0478 47.4217 42.9857 44.7094 46.0791L59.7476 59.2644ZM58.9129 54.454C62.2441 54.8779 65.6051 55.4873 69.1575 56.235L73.2769 36.6639C69.3924 35.8462 65.4708 35.1272 61.4371 34.614L58.9129 54.454ZM69.1575 56.235C72.8176 57.0054 76.1267 57.8005 79.2295 58.7285L84.9599 39.567C81.1406 38.4248 77.2496 37.5 73.2769 36.6639L69.1575 56.235ZM72.8641 52.9943C74.2491 56.3179 75.4428 59.5796 76.4501 62.78L95.5274 56.7754C94.3302 52.9715 92.9278 49.1466 91.3253 45.3012L72.8641 52.9943ZM76.4806 62.8754C77.5882 66.2751 78.5838 69.7455 79.4116 73.0708L98.8192 68.2391C97.8751 64.4467 96.7484 60.5215 95.4969 56.68L76.4806 62.8754ZM81.3595 64.3425C79.0023 67.2388 76.7628 69.989 74.3319 72.7773L89.4069 85.9205C92.095 82.8372 94.542 79.8292 96.8713 76.9673L81.3595 64.3425ZM80.8654 79.7907C81.531 83.1181 81.966 86.3644 82.3237 89.7435L102.213 87.6385C101.818 83.9102 101.305 80.008 100.477 75.8676L80.8654 79.7907ZM92.0318 78.6938C88.9841 78.7659 85.6936 78.6331 82.0739 78.3551L80.5428 98.2965C84.5661 98.6054 88.5684 98.7813 92.5045 98.6882L92.0318 78.6938ZM88.4821 95.2927C89.9061 93.8264 91.9475 91.7811 93.7797 89.5611L78.3543 76.8308C77.1685 78.2676 75.8419 79.601 74.1346 81.3589L88.4821 95.2927ZM93.5414 89.8393C95.2006 87.9725 96.9596 85.8534 98.2528 84.3498L83.0894 71.3086C81.4059 73.2661 80.147 74.8038 78.5926 76.5526L93.5414 89.8393ZM68.6258 93.9514C67.0107 91.2446 65.4856 88.3243 64.0367 85.2587L45.9548 93.8054C47.6168 97.3218 49.4397 100.829 51.4507 104.199L68.6258 93.9514ZM52.5129 99.2189C54.7077 99.7815 57.1481 100.409 59.6469 100.935L63.7663 81.3634C61.7637 80.9419 59.7439 80.4258 57.4785 79.8452L52.5129 99.2189ZM59.6469 100.935C62.1457 101.461 64.6318 101.87 66.8671 102.24L70.1325 82.5086C67.8253 82.1268 65.7688 81.7849 63.7663 81.3634L59.6469 100.935ZM61.9486 84.8192C59.3868 87.0406 56.814 89.0984 54.2448 90.9244L65.8317 107.226C69.0306 104.952 72.1126 102.478 75.0511 99.9297L61.9486 84.8192ZM48.2453 71.1326C44.8206 69.9278 41.7558 68.7229 38.9957 67.4284L30.5033 85.5359C34.0679 87.2077 37.8015 88.66 41.6079 89.9991L48.2453 71.1326ZM43.3816 81.5306C45.1236 78.552 46.8409 75.6836 48.7725 72.9336L32.4065 61.4378C29.9607 64.9198 27.8876 68.4069 26.1174 71.4337L43.3816 81.5306ZM31.0226 70.0968C31.6068 72.0166 32.3653 74.6829 33.2094 77.1236L52.111 70.5867C51.4304 68.6189 50.9012 66.7221 50.1564 64.2746L31.0226 70.0968ZM33.0832 76.7328C33.8831 79.3951 34.803 81.8889 35.4758 83.8343L54.3774 77.2974C53.5255 74.8343 52.8795 73.1152 52.2372 70.9775L33.0832 76.7328ZM53.1346 52.2093C52.469 48.8819 52.034 45.6356 51.6763 42.2565L31.7874 44.3615C32.182 48.0898 32.6949 51.992 33.5232 56.1324L53.1346 52.2093ZM41.9682 53.3062C45.0159 53.2342 48.3064 53.367 51.9261 53.6449L53.4572 33.7036C49.4339 33.3947 45.4316 33.2188 41.4955 33.3118L41.9682 53.3062ZM45.5179 36.7073C44.0939 38.1736 42.0525 40.219 40.2203 42.439L55.6457 55.1692C56.8315 53.7324 58.1581 52.3991 59.8654 50.6411L45.5179 36.7073ZM40.4586 42.1608C38.7994 44.0276 37.0404 46.1466 35.7472 47.6503L50.9106 60.6914C52.5941 58.734 53.853 57.1962 55.4074 55.4474L40.4586 42.1608ZM65.3742 38.0486C66.9893 40.7554 68.5143 43.6757 69.9633 46.7413L88.0452 38.1946C86.3832 34.6783 84.5603 31.1712 82.5493 27.8008L65.3742 38.0486ZM81.4871 32.7811C79.2923 32.2185 76.8519 31.5914 74.3531 31.0655L70.2337 50.6366C72.2363 51.0581 74.2561 51.5742 76.5215 52.1548L81.4871 32.7811ZM74.3531 31.0655C71.8543 30.5395 69.3682 30.1297 67.1329 29.7598L63.8675 49.4914C66.1747 49.8732 68.2312 50.2151 70.2337 50.6366L74.3531 31.0655ZM72.0514 47.1808C74.6132 44.9594 77.186 42.9017 79.7552 41.0756L68.1683 24.7739C64.9694 27.0477 61.8874 29.5223 58.9489 32.0704L72.0514 47.1808ZM100.811 54.7785L98.5242 48.1657L79.6226 54.7026L81.9096 61.3155L100.811 54.7785ZM85.7547 60.8674C89.1794 62.0722 92.2442 63.2771 95.0043 64.5716L103.497 46.4642C99.9321 44.7924 96.1985 43.34 92.3921 42.0009L85.7547 60.8674ZM90.6184 50.4694C88.8764 53.448 87.1591 56.3165 85.2275 59.0665L101.594 70.5622C104.039 67.0802 106.112 63.5931 107.883 60.5663L90.6184 50.4694ZM103.035 62.0983C102.405 59.8667 101.684 57.3032 100.811 54.7785L81.9096 61.3154C82.5611 63.1993 83.1284 65.1989 83.7864 67.5304L103.035 62.0983ZM51.3547 31.4383C51.5724 26.8033 52.2961 23.6566 53.0504 21.8374C53.8807 19.8348 54.1107 20.8121 52.4313 21.3726L46.0995 2.40134C39.9137 4.4659 36.4434 9.67174 34.5752 14.1778C32.631 18.8674 31.6581 24.5097 31.3767 30.4998L51.3547 31.4383ZM52.5338 21.3377C51.6682 21.6371 51.0336 21.5585 50.816 21.5127L54.9354 1.94156C52.1736 1.36024 49.0668 1.37448 45.9969 2.43618L52.5338 21.3377ZM50.816 21.5127C51.2323 21.6003 52.6868 22.154 55.0853 24.3904C57.3732 26.5237 59.9185 29.6273 62.553 33.6079L79.231 22.5697C76.0505 17.7641 72.5234 13.3048 68.7247 9.76278C65.0366 6.32386 60.3905 3.08975 54.9354 1.94156L50.816 21.5127ZM65.0897 19.9443C60.4694 23.2359 55.8071 27.1038 51.2427 31.3309L64.8321 46.0049C68.8991 42.2385 72.8993 38.9369 76.6944 36.2333L65.0897 19.9443ZM59.249 28.7416C52.9881 27.9774 47.004 27.7102 41.3662 27.7159L41.3864 47.7158C46.3787 47.7108 51.5294 47.9478 56.8258 48.5943L59.249 28.7416ZM51.3649 37.2387C51.271 35.2741 51.3204 33.4206 51.3638 31.1613L31.3675 30.7767C31.3288 32.7921 31.2547 35.4091 31.3876 38.1929L51.3649 37.2387ZM21.0078 56.3194C20.6312 58.1084 19.6034 57.9918 21.5095 56.9437C23.2193 56.0037 26.2553 54.947 30.8095 54.273L27.8816 34.4885C21.8881 35.3755 16.3464 36.9588 11.8735 39.4181C7.59689 41.7695 2.78118 45.8119 1.43659 52.2001L21.0078 56.3194ZM31.0674 54.2314C32.7092 53.9444 34.6088 53.7456 36.6285 53.6267L35.4532 33.6613C32.9201 33.8104 30.2257 34.0753 27.6236 34.5302L31.0674 54.2314ZM26.0931 44.6647C26.6656 50.2447 27.5898 56.2248 28.9352 62.3057L48.4629 57.985C47.2946 52.7045 46.4878 47.488 45.9886 42.6233L26.0931 44.6647ZM30.6345 54.2324C27.0591 59.1089 23.6487 64.1639 20.8541 69.2925L38.4162 78.8619C40.6171 74.8228 43.4587 70.5658 46.7636 66.0583L30.6345 54.2324ZM34.3377 65.2519C28.5915 62.19 24.7355 59.2314 22.588 56.9057C20.0528 54.1602 21.4631 54.1563 21.0078 56.3194L1.43659 52.2001C-0.172158 59.8432 4.10446 66.3696 7.89416 70.4737C12.0714 74.9976 17.9987 79.2078 24.9327 82.9025L34.3377 65.2519ZM35.6778 100.968C36.9887 102.158 36.3843 102.96 36.4317 100.792C36.4748 98.8235 37.0809 95.652 38.7501 91.3226L20.0888 84.1282C17.9317 89.7235 16.5476 95.2792 16.4365 100.355C16.3298 105.231 17.4071 111.394 22.2358 115.777L35.6778 100.968ZM38.8154 91.1483C39.3558 89.665 40.1108 87.997 41.0976 86.0184L23.2 77.0922C22.0651 79.3678 20.9353 81.7995 20.0235 84.3025L38.8154 91.1483ZM27.9415 90.6271C33.295 93.1099 38.9666 95.1835 44.8876 96.9727L50.6727 77.8276C45.4483 76.249 40.6854 74.4912 36.3562 72.4834L27.9415 90.6271ZM38.6043 91.3756C41.1109 97.161 43.8279 102.433 46.621 107.266L63.9381 97.2605C61.4878 93.0199 59.1263 88.4341 56.9559 83.4247L38.6043 91.3756ZM49.8736 93.8507C45.9024 96.4025 42.3401 98.2227 39.38 99.2635C36.2794 100.354 34.706 100.284 34.2561 100.189L30.1367 119.76C35.656 120.922 41.2517 119.806 46.0141 118.131C50.917 116.407 55.9117 113.744 60.6854 110.676L49.8736 93.8507ZM34.2561 100.189C34.4736 100.235 35.0861 100.419 35.7576 101.041L22.156 115.704C24.5375 117.913 27.3749 119.179 30.1367 119.76L34.2561 100.189ZM82.6453 100.562C82.4276 105.197 81.7039 108.343 80.9496 110.163C80.1193 112.165 79.8893 111.188 81.5687 110.627L87.9005 129.599C94.0863 127.534 97.5566 122.328 99.4248 117.822C101.369 113.133 102.342 107.49 102.623 101.5L82.6453 100.562ZM81.4662 110.662C82.3318 110.363 82.9664 110.442 83.184 110.487L79.0646 130.058C81.8264 130.64 84.9332 130.626 88.0031 129.564L81.4662 110.662ZM83.184 110.487C82.7677 110.4 81.3132 109.846 78.9147 107.61C76.6268 105.476 74.0815 102.373 71.447 98.3921L54.769 109.43C57.9495 114.236 61.4766 118.695 65.2753 122.237C68.9634 125.676 73.6095 128.91 79.0646 130.058L83.184 110.487ZM68.9103 112.056C73.5306 108.764 78.1928 104.896 82.7573 100.669L69.1679 85.9951C65.1008 89.7615 61.1007 93.0631 57.3056 95.7668L68.9103 112.056ZM74.751 103.258C81.0119 104.023 86.996 104.29 92.6338 104.284L92.6136 84.2842C87.6214 84.2892 82.4706 84.0522 77.1742 83.4057L74.751 103.258ZM82.6351 94.7613C82.729 96.726 82.6796 98.5794 82.6362 100.839L102.632 101.223C102.671 99.2079 102.745 96.5909 102.612 93.8071L82.6351 94.7613ZM102.933 77.7686C101.291 78.0556 99.3913 78.2544 97.3715 78.3733L98.5468 98.3387C101.08 98.1896 103.774 97.9247 106.376 97.4699L102.933 77.7686ZM107.907 87.3353C107.334 81.7553 106.41 75.7752 105.065 69.6943L85.5371 74.015C86.7054 79.2955 87.5122 84.512 88.0114 89.3767L107.907 87.3353ZM103.366 77.7676C106.941 72.8911 110.351 67.8362 113.146 62.7075L95.5838 53.1381C93.3829 57.1772 90.5413 61.4342 87.2364 65.9418L103.366 77.7676ZM99.6623 66.7481C105.409 69.81 109.265 72.7686 111.412 75.0943C113.947 77.8398 112.537 77.8438 112.992 75.6806L132.563 79.8C134.172 72.1568 129.896 65.6304 126.106 61.5263C121.929 57.0024 116.001 52.7923 109.067 49.0975L99.6623 66.7481ZM112.992 75.6806C113.38 73.8406 114.443 73.9611 112.474 75.0375C110.731 75.9904 107.674 77.0483 103.158 77.7318L106.151 97.5066C112.085 96.6086 117.605 95.0266 122.07 92.5853C126.308 90.2674 131.208 86.2392 132.563 79.8L112.992 75.6806Z" fill="white" mask="url(#path-1-outside-1_21_127)"/>
</svg>
