<svg width="273" height="263" viewBox="0 0 273 263" fill="none" xmlns="http://www.w3.org/2000/svg">
<mask id="path-1-outside-1_21_117" maskUnits="userSpaceOnUse" x="-12.8764" y="-12.5554" width="297.983" height="287.824" fill="black">
<rect fill="white" x="-12.8764" y="-12.5554" width="297.983" height="287.824"/>
<path d="M64.2556 72.8567C69.1421 53.5884 83.0239 36.2171 100.142 27.9469C123.225 16.7942 152.524 25.3131 170.361 48.364C177.308 57.3419 187.863 79.0635 186.372 81.3111L197.397 101.142C214.724 106.062 238.786 121.704 248.115 134.11C265.757 157.57 267.725 182.218 253.546 202.128C243.288 216.533 230.186 224.599 210.641 228.547C198.209 231.059 191.837 231.205 179.368 229.267L172.588 228.212L146.093 230.327C102.013 262.652 53.8251 258.24 36.9292 220.332C27.3886 198.928 30.0419 177.063 44.9264 154.462L53.718 141.112L64.4937 124.38C64.3039 123.529 64.1183 122.667 63.9366 121.792C59.919 102.439 60.0029 89.6266 64.2556 72.8567Z"/>
</mask>
<path d="M64.2556 72.8567C69.1421 53.5884 83.0239 36.2171 100.142 27.9469C123.225 16.7942 152.524 25.3131 170.361 48.364C177.308 57.3419 187.863 79.0635 186.372 81.3111L197.397 101.142C214.724 106.062 238.786 121.704 248.115 134.11C265.757 157.57 267.725 182.218 253.546 202.128C243.288 216.533 230.186 224.599 210.641 228.547C198.209 231.059 191.837 231.205 179.368 229.267L172.588 228.212L146.093 230.327C102.013 262.652 53.8251 258.24 36.9292 220.332C27.3886 198.928 30.0419 177.063 44.9264 154.462L53.718 141.112L64.4937 124.38C64.3039 123.529 64.1183 122.667 63.9366 121.792C59.919 102.439 60.0029 89.6266 64.2556 72.8567Z" fill="white"/>
<path d="M83.4847 60.5259L79.0809 58.1581L79.0808 58.1583L83.4847 60.5259ZM130.51 36.9887L131.331 32.0565L131.331 32.0564L130.51 36.9887ZM167.96 70.937L163.455 73.1058L163.455 73.1059L167.96 70.937ZM179.18 81.6587L178.572 86.6216L178.574 86.6218L179.18 81.6587ZM247.665 183.508L242.86 182.127L242.86 182.127L247.665 183.508ZM226.543 210.568L228.859 214.999L228.86 214.999L226.543 210.568ZM191.379 216.401L190.75 221.361L190.751 221.361L191.379 216.401ZM182.707 215.301L183.336 210.341L180.521 209.984L178.771 212.217L182.707 215.301ZM177.648 221.757L181.583 224.842L181.584 224.841L177.648 221.757ZM82.1292 117.43C77.8886 96.504 80.0946 77.3909 87.8886 62.8935L79.0808 58.1583C69.9337 75.1725 67.7401 96.7739 72.3284 119.416L82.1292 117.43ZM87.8885 62.8937C91.1321 56.8612 97.973 50.934 106.206 46.8131C114.451 42.6864 123.163 40.8352 129.69 41.9209L131.331 32.0564C122 30.5044 111.089 33.1868 101.731 37.8707C92.3606 42.5604 83.6175 49.7207 79.0809 58.1581L87.8885 62.8937ZM129.689 41.9208C141.285 43.8506 155.091 55.7322 163.455 73.1058L172.465 68.7683C163.349 49.8312 147.387 34.7286 131.331 32.0565L129.689 41.9208ZM163.455 73.1059C164.609 75.5034 165.569 77.4881 166.433 79.0433C167.287 80.5825 168.242 82.0707 169.505 83.2784C172.338 85.9851 175.769 86.2782 178.572 86.6216L179.788 76.6957C176.271 76.2649 176.438 76.0719 176.414 76.0487C176.25 75.8914 175.877 75.4537 175.176 74.1895C174.483 72.9414 173.657 71.2453 172.465 68.7682L163.455 73.1059ZM178.574 86.6218C180.566 86.8652 182.55 86.9548 184.19 86.8758C184.99 86.8372 185.87 86.7516 186.691 86.5633C187.095 86.4705 187.641 86.3182 188.211 86.0512C188.686 85.8287 189.75 85.2679 190.543 84.0682L182.201 78.554C182.569 77.9967 182.98 77.6338 183.267 77.4195C183.557 77.202 183.811 77.0693 183.969 76.9955C184.132 76.9188 184.259 76.8746 184.328 76.8523C184.4 76.8291 184.445 76.8187 184.454 76.8168C184.466 76.814 184.409 76.8272 184.265 76.8442C184.127 76.8604 183.942 76.8762 183.709 76.8874C182.742 76.934 181.335 76.8848 179.786 76.6955L178.574 86.6218ZM243.109 164.477C244.362 169.153 244.778 171.227 244.752 173.182C244.726 175.156 244.245 177.31 242.86 182.127L252.471 184.89C253.812 180.223 254.704 176.827 254.751 173.315C254.799 169.784 253.988 166.438 252.767 161.887L243.109 164.477ZM242.86 182.127C239.783 192.832 232.763 201.674 224.226 206.137L228.86 214.999C240.091 209.127 248.728 197.913 252.471 184.889L242.86 182.127ZM224.227 206.137C220.596 208.035 214.985 209.707 208.848 210.725C202.735 211.739 196.596 212.022 192.007 211.44L190.751 221.361C196.598 222.102 203.763 221.705 210.484 220.59C217.18 219.479 223.934 217.574 228.859 214.999L224.227 206.137ZM192.008 211.441L183.336 210.341L182.078 220.261L190.75 221.361L192.008 211.441ZM178.771 212.217L173.712 218.673L181.584 224.841L186.643 218.385L178.771 212.217ZM173.713 218.672L168.653 225.128L176.523 231.297L181.583 224.842L173.713 218.672ZM100.142 27.9469L104.492 36.9512L104.492 36.951L100.142 27.9469ZM64.2556 72.8567L54.5625 70.3985L54.5625 70.3985L64.2556 72.8567ZM63.9366 121.792L54.1454 123.824L54.1454 123.825L63.9366 121.792ZM186.372 81.3111L178.04 75.7821L174.675 80.852L177.632 86.1701L186.372 81.3111ZM170.361 48.364L178.271 42.2448L178.27 42.2441L170.361 48.364ZM172.588 228.212L174.124 218.331L172.963 218.151L171.792 218.244L172.588 228.212ZM179.368 229.267L177.831 239.148L177.832 239.148L179.368 229.267ZM210.641 228.547L208.661 218.745L208.66 218.745L210.641 228.547ZM253.546 202.128L245.4 196.327L245.4 196.327L253.546 202.128ZM248.115 134.11L256.108 128.1L256.108 128.1L248.115 134.11ZM197.397 101.142L188.657 106.001L190.673 109.628L194.665 110.762L197.397 101.142ZM44.9264 154.462L53.278 159.962L53.2782 159.962L44.9264 154.462ZM36.9292 220.332L46.0631 216.261L46.0629 216.26L36.9292 220.332ZM146.093 230.327L145.297 220.358L142.468 220.584L140.179 222.263L146.093 230.327ZM53.718 141.112L62.0697 146.611L62.0977 146.569L62.1252 146.526L53.718 141.112ZM64.4937 124.38L72.901 129.794L75.164 126.281L74.2536 122.201L64.4937 124.38ZM95.7919 18.9427C75.8773 28.5639 60.1374 48.4154 54.5625 70.3985L73.9488 75.3148C78.1468 58.7614 90.1705 43.8703 104.492 36.9512L95.7919 18.9427ZM54.5625 70.3985C49.8871 88.8349 49.8634 103.199 54.1454 123.824L73.7278 119.759C69.9745 101.68 70.1187 90.4184 73.9488 75.3148L54.5625 70.3985ZM194.704 86.8402C196.408 84.273 196.504 81.693 196.514 80.7718C196.526 79.5596 196.362 78.4819 196.216 77.724C195.918 76.1764 195.411 74.565 194.896 73.1203C193.838 70.1503 192.27 66.5814 190.525 62.9906C187.088 55.9176 182.362 47.5322 178.271 42.2448L162.452 54.4832C165.308 58.1736 169.332 65.138 172.537 71.7322C174.112 74.975 175.338 77.819 176.057 79.8346C176.231 80.3224 176.359 80.7187 176.45 81.0271C176.495 81.1792 176.527 81.2977 176.548 81.3849C176.571 81.4734 176.579 81.5142 176.578 81.5127C176.578 81.5107 176.574 81.493 176.569 81.4607C176.564 81.4287 176.557 81.3767 176.549 81.3066C176.535 81.1794 176.511 80.9217 176.515 80.5669C176.518 80.2152 176.523 78.0684 178.04 75.7821L194.704 86.8402ZM178.27 42.2441C158.103 16.1828 123.905 5.35955 95.7916 18.9429L104.492 36.951C122.545 28.2288 146.945 34.4433 162.453 54.4839L178.27 42.2441ZM171.051 238.094L177.831 239.148L180.905 219.386L174.124 218.331L171.051 238.094ZM177.832 239.148C191.474 241.269 199.037 241.093 212.621 238.349L208.66 218.745C197.38 221.024 192.199 221.142 180.904 219.385L177.832 239.148ZM212.62 238.349C234.311 233.968 249.77 224.67 261.691 207.928L245.4 196.327C236.806 208.395 226.061 215.231 208.661 218.745L212.62 238.349ZM261.691 207.929C279.008 183.613 275.676 154.122 256.108 128.1L240.123 140.12C255.837 161.017 256.441 180.823 245.4 196.327L261.691 207.929ZM256.108 128.1C250.434 120.555 240.986 112.792 231.205 106.434C221.337 100.02 210.063 94.3434 200.128 91.5226L194.665 110.762C202.058 112.861 211.478 117.465 220.305 123.203C229.219 128.998 236.467 135.259 240.123 140.12L256.108 128.1ZM36.5749 148.962C20.1544 173.895 16.6321 199.359 27.7955 224.403L46.0629 216.26C38.1451 198.497 39.9293 180.231 53.278 159.962L36.5749 148.962ZM27.7954 224.403C37.8206 246.896 57.3938 259.518 80.4053 261.625C103.056 263.699 128.497 255.631 152.006 238.391L140.179 222.263C119.609 237.348 98.9156 243.236 82.2289 241.708C65.9025 240.214 52.9337 231.676 46.0631 216.261L27.7954 224.403ZM45.3662 135.612L36.5747 148.962L53.2782 159.962L62.0697 146.611L45.3662 135.612ZM54.1454 123.825C54.3368 124.746 54.5328 125.657 54.7339 126.558L74.2536 122.201C74.075 121.401 73.8999 120.588 73.7278 119.759L54.1454 123.825ZM62.1252 146.526L72.901 129.794L56.0864 118.965L45.3107 135.697L62.1252 146.526ZM206.137 96.2834L195.112 76.4522L177.632 86.1701L188.657 106.001L206.137 96.2834ZM171.792 218.244L145.297 220.358L146.888 240.295L173.383 238.181L171.792 218.244Z" fill="white" mask="url(#path-1-outside-1_21_117)"/>
<path d="M64.2556 72.8567C69.1421 53.5884 83.0239 36.2171 100.142 27.9469C123.225 16.7942 152.524 25.3131 170.361 48.364C177.308 57.3419 187.863 79.0635 186.372 81.3111C185.959 81.9364 182.722 82.0913 179.18 81.6587C172.86 80.8845 172.653 80.6864 167.96 70.937C159.22 52.7817 144.336 39.2896 130.51 36.9887C114.653 34.351 91.2649 46.056 83.4847 60.5259C75.0142 76.2817 72.8143 96.6389 77.2288 118.423C80.582 134.97 86.5116 148.555 96.2888 162.089C102.117 170.156 102.829 170.646 108.422 170.464C115.714 170.227 122.983 174.929 125.431 181.467C127.785 187.752 124.224 196.459 117.586 200.656C113.203 203.425 112.086 203.581 106.667 202.171C98.7204 200.105 92.8483 192.844 93.7531 186.207C94.3002 182.193 93.3375 180.21 86.2988 170.872C74.0101 154.567 68.0056 141.39 63.9366 121.792C59.919 102.439 60.0029 89.6266 64.2556 72.8567Z" fill="#764ABC"/>
<path d="M100.185 113.117C98.824 106.229 100.389 101.228 105.172 97.178C106.58 95.9852 109.674 94.5978 112.047 94.0944C116.449 93.1618 126.677 95.9773 127.138 98.248C127.277 98.9381 134.112 98.5205 142.324 97.32C160.401 94.6767 179.231 95.983 197.397 101.142C214.724 106.062 238.786 121.704 248.115 134.11C265.757 157.57 267.725 182.218 253.546 202.128C243.288 216.533 230.186 224.599 210.641 228.547C198.209 231.059 191.837 231.205 179.368 229.267L172.588 228.212L177.648 221.757L182.707 215.301L191.379 216.401C201.815 217.722 217.986 215.041 226.543 210.568C236.427 205.4 244.256 195.372 247.665 183.508C250.391 174.024 250.412 172.409 247.938 163.182C238.531 128.115 191.524 104.287 144.083 110.538L132.195 112.104L129.856 117.186C125.843 125.908 114.733 128.543 106.104 122.822C102.434 120.389 101.235 118.421 100.185 113.117Z" fill="#764ABC"/>
<path d="M36.9292 220.332C27.3886 198.928 30.0419 177.063 44.9264 154.462L53.718 141.112L57.0473 147.83L60.3767 154.548L54.3613 164.426C51.0527 169.861 47.2624 178.439 45.9369 183.489C43.8554 191.426 43.8694 194.337 46.0413 204.914C48.0344 214.624 49.4329 218.216 52.8057 222.292C71.5824 244.989 106.387 243.557 137.287 218.814C155.177 204.492 165.247 191.263 172.835 172.121C175.5 165.398 175.484 165.1 172.238 160.766C168.058 155.187 167.277 151.429 169.02 145.303C170.723 139.323 178.021 134.079 184.778 133.981C191.872 133.879 198.523 139.647 200.061 147.235C201.545 154.557 199.442 159.936 193.527 163.945C190.727 165.843 188.493 169.141 187.435 172.942C181.935 192.674 164.572 216.775 146.093 230.327C102.013 262.652 53.8251 258.24 36.9292 220.332Z" fill="#764ABC"/>
<path d="M64.2556 72.8567C69.1421 53.5884 83.0239 36.2171 100.142 27.9469C123.225 16.7942 152.524 25.3131 170.361 48.364C177.308 57.3419 187.863 79.0635 186.372 81.3111C185.959 81.9364 182.722 82.0913 179.18 81.6587C172.86 80.8845 172.653 80.6864 167.96 70.937C159.22 52.7817 144.336 39.2896 130.51 36.9887C114.653 34.351 91.2649 46.056 83.4847 60.5259C75.0142 76.2817 72.8143 96.6389 77.2288 118.423C80.582 134.97 86.5116 148.555 96.2888 162.089C102.117 170.156 102.829 170.646 108.422 170.464C115.714 170.227 122.983 174.929 125.431 181.467C127.785 187.752 124.224 196.459 117.586 200.656C113.203 203.425 112.086 203.581 106.667 202.171C98.7204 200.105 92.8483 192.844 93.7531 186.207C94.3002 182.193 93.3375 180.21 86.2988 170.872C74.0101 154.567 68.0056 141.39 63.9366 121.792C59.919 102.439 60.0029 89.6266 64.2556 72.8567Z" fill="#764ABC"/>
<path d="M100.185 113.117C98.824 106.229 100.389 101.228 105.172 97.178C106.58 95.9852 109.674 94.5978 112.047 94.0944C116.449 93.1618 126.677 95.9773 127.138 98.248C127.277 98.9381 134.112 98.5205 142.324 97.32C160.401 94.6767 179.231 95.983 197.397 101.142C214.724 106.062 238.786 121.704 248.115 134.11C265.757 157.57 267.725 182.218 253.546 202.128C243.288 216.533 230.186 224.599 210.641 228.547C198.209 231.059 191.837 231.205 179.368 229.267L172.588 228.212L177.648 221.757L182.707 215.301L191.379 216.401C201.815 217.722 217.986 215.041 226.543 210.568C236.427 205.4 244.256 195.372 247.665 183.508C250.391 174.024 250.412 172.409 247.938 163.182C238.531 128.115 191.524 104.287 144.083 110.538L132.195 112.104L129.856 117.186C125.843 125.908 114.733 128.543 106.104 122.822C102.434 120.389 101.235 118.421 100.185 113.117Z" fill="#764ABC"/>
<path d="M36.9292 220.332C27.3886 198.928 30.0419 177.063 44.9264 154.462L53.718 141.112L57.0473 147.83L60.3767 154.548L54.3613 164.426C51.0527 169.861 47.2624 178.439 45.9369 183.489C43.8554 191.426 43.8694 194.337 46.0413 204.914C48.0344 214.624 49.4329 218.216 52.8057 222.292C71.5824 244.989 106.387 243.557 137.287 218.814C155.177 204.492 165.247 191.263 172.835 172.121C175.5 165.398 175.484 165.1 172.238 160.766C168.058 155.187 167.277 151.429 169.02 145.303C170.723 139.323 178.021 134.079 184.778 133.981C191.872 133.879 198.523 139.647 200.061 147.235C201.545 154.557 199.442 159.936 193.527 163.945C190.727 165.843 188.493 169.141 187.435 172.942C181.935 192.674 164.572 216.775 146.093 230.327C102.013 262.652 53.8251 258.24 36.9292 220.332Z" fill="#764ABC"/>
</svg>
