<svg width="139" height="139" viewBox="0 0 139 139" fill="none" xmlns="http://www.w3.org/2000/svg">
<mask id="path-1-outside-1_29_168" maskUnits="userSpaceOnUse" x="-4.2998" y="-4.2918" width="148.593" height="148.593" fill="black">
<rect fill="white" x="-4.2998" y="-4.2918" width="148.593" height="148.593"/>
<path d="M75.0648 6.20579C39.9227 3.38661 9.02496 29.6951 6.20579 64.8372C3.38662 99.9793 29.6951 130.877 64.8372 133.696C99.9793 136.515 130.877 110.207 133.696 75.0648C136.515 39.9227 110.208 9.02504 75.0648 6.20579Z"/>
<path d="M75.0648 6.20579C39.9227 3.38661 9.02496 29.6951 6.20579 64.8372C3.38662 99.9793 29.6951 130.877 64.8372 133.696C99.9793 136.515 130.877 110.207 133.696 75.0648C136.515 39.9227 110.208 9.02504 75.0648 6.20579ZM74.2108 16.8506C103.6 19.2083 125.41 44.8213 123.052 74.2109C120.695 103.601 95.0807 125.41 65.6911 123.052C36.3015 120.695 14.4918 95.0817 16.8496 65.6911C19.2073 36.3015 44.8212 14.4929 74.2108 16.8506Z"/>
<path fill-rule="evenodd" clip-rule="evenodd" d="M54.6985 65.482C69.5725 55.1985 84.1732 44.4938 99.3245 34.5675C90.9213 45.4635 82.317 56.1898 73.9139 67.0847C67.4951 66.5999 61.0777 66.0851 54.6985 65.482ZM65.9888 72.7842C72.436 73.3014 78.8524 73.8162 85.2615 74.4226C70.3016 84.6391 55.7544 95.4394 40.5757 105.332C48.9789 94.4364 57.5855 83.6802 65.9888 72.7842Z"/>
</mask>
<path d="M75.0648 6.20579C39.9227 3.38661 9.02496 29.6951 6.20579 64.8372C3.38662 99.9793 29.6951 130.877 64.8372 133.696C99.9793 136.515 130.877 110.207 133.696 75.0648C136.515 39.9227 110.208 9.02504 75.0648 6.20579Z" fill="white"/>
<path d="M75.0648 6.20579C39.9227 3.38661 9.02496 29.6951 6.20579 64.8372C3.38662 99.9793 29.6951 130.877 64.8372 133.696C99.9793 136.515 130.877 110.207 133.696 75.0648C136.515 39.9227 110.208 9.02504 75.0648 6.20579ZM74.2108 16.8506C103.6 19.2083 125.41 44.8213 123.052 74.2109C120.695 103.601 95.0807 125.41 65.6911 123.052C36.3015 120.695 14.4918 95.0817 16.8496 65.6911C19.2073 36.3015 44.8212 14.4929 74.2108 16.8506Z" fill="#010101"/>
<path fill-rule="evenodd" clip-rule="evenodd" d="M54.6985 65.482C69.5725 55.1985 84.1732 44.4938 99.3245 34.5675C90.9213 45.4635 82.317 56.1898 73.9139 67.0847C67.4951 66.5999 61.0777 66.0851 54.6985 65.482ZM65.9888 72.7842C72.436 73.3014 78.8524 73.8162 85.2615 74.4226C70.3016 84.6391 55.7544 95.4394 40.5757 105.332C48.9789 94.4364 57.5855 83.6802 65.9888 72.7842Z" fill="#010101"/>
<path d="M75.4646 1.2218C37.5699 -1.81819 4.26179 26.5427 1.2218 64.4374L11.1898 65.237C13.7881 32.8475 42.2754 8.59142 74.665 11.1898L75.4646 1.2218ZM1.2218 64.4374C-1.81819 102.332 26.5427 135.64 64.4374 138.68L65.2371 128.712C32.8475 126.114 8.59142 97.6266 11.1898 65.237L1.2218 64.4374ZM64.4374 138.68C102.332 141.72 135.64 113.359 138.68 75.4646L128.712 74.665C126.114 107.054 97.6266 131.311 65.2371 128.712L64.4374 138.68ZM138.68 75.4646C141.72 37.57 113.36 4.26188 75.4646 1.2218L74.665 11.1898C107.055 13.7882 131.311 42.2754 128.712 74.665L138.68 75.4646ZM54.6985 65.482L49.0116 57.2565L26.4486 72.856L53.7574 75.4376L54.6985 65.482ZM99.3245 34.5675L107.243 40.6746L93.8444 26.2028L99.3245 34.5675ZM73.9139 67.0847L73.1607 77.0563L78.5385 77.4625L81.8323 73.192L73.9139 67.0847ZM65.9888 72.7842L66.7884 62.8162L61.3823 62.3826L58.0701 66.6772L65.9888 72.7842ZM85.2615 74.4226L90.9011 82.6806L113.754 67.074L86.2035 64.4671L85.2615 74.4226ZM40.5757 105.332L32.6571 99.2253L46.0359 113.71L40.5757 105.332ZM73.4112 26.8186C97.2958 28.7346 115 49.5271 113.084 73.4113L133.02 75.0106C135.82 40.1156 109.905 9.68192 75.0105 6.88261L73.4112 26.8186ZM113.084 73.4113C111.168 97.2966 90.3753 115 66.4907 113.084L64.8914 133.02C99.7861 135.82 130.221 109.906 133.02 75.0106L113.084 73.4113ZM66.4907 113.084C42.6062 111.168 24.9014 90.376 26.8176 66.4907L6.88162 64.8914C4.0822 99.7873 29.9968 130.221 64.8914 133.02L66.4907 113.084ZM26.8176 66.4907C28.7336 42.6066 49.5265 24.9025 73.4112 26.8186L75.0105 6.88261C40.116 4.0833 9.68097 29.9965 6.88162 64.8914L26.8176 66.4907ZM60.3855 73.7075C75.589 63.1961 89.7664 52.7844 104.805 42.9323L93.8444 26.2028C78.5801 36.2031 63.556 47.2009 49.0116 57.2565L60.3855 73.7075ZM91.4059 28.4605C87.2384 33.8643 83.0161 39.2324 78.7593 44.644C74.5124 50.0431 70.231 55.4859 65.9955 60.9774L81.8323 73.192C85.9999 67.7886 90.2222 62.4207 94.479 57.009C98.726 51.6097 103.007 46.1667 107.243 40.6746L91.4059 28.4605ZM74.6671 57.1131C68.275 56.6303 61.9285 56.1209 55.6397 55.5264L53.7574 75.4376C60.227 76.0492 66.7152 76.5695 73.1607 77.0563L74.6671 57.1131ZM65.1891 82.7522C71.6484 83.2704 77.9934 83.7796 84.3194 84.3781L86.2035 64.4671C79.7114 63.8528 73.2237 63.3325 66.7884 62.8162L65.1891 82.7522ZM79.6219 66.1646C64.1224 76.7496 50.2803 87.0707 35.1154 96.9546L46.0359 113.71C61.2284 103.808 76.4808 92.5286 90.9011 82.6806L79.6219 66.1646ZM48.4943 111.439C52.664 106.033 56.8887 100.655 61.1458 95.2359C65.3937 89.8288 69.6739 84.3806 73.9074 78.8912L58.0701 66.6772C53.9004 72.0838 49.6757 77.4617 45.4186 82.8806C41.1707 88.2878 36.8905 93.736 32.6571 99.2253L48.4943 111.439Z" fill="white" mask="url(#path-1-outside-1_29_168)"/>
</svg>
